<svg width="754" height="29" viewBox="0 0 754 29" fill="none" xmlns="http://www.w3.org/2000/svg">
<path d="M332.538 4.07812L330.218 8.90625C329.348 10.7188 328.634 12.3021 328.077 13.6562H327.765C327.572 13.1927 327.02 12.0026 326.108 10.0859L323.312 4.29688V10.3359C323.312 11.7422 323.366 12.5417 323.476 12.7344C323.59 12.9219 323.939 13.0156 324.522 13.0156H324.812V13.5078C324.088 13.4714 323.499 13.4531 323.046 13.4531C322.718 13.4531 322.064 13.4714 321.085 13.5078V13.0156H321.593C321.937 13.0156 322.166 12.9661 322.28 12.8672C322.395 12.7682 322.465 12.5885 322.491 12.3281C322.559 11.599 322.593 10.8125 322.593 9.96875V5.54688C322.593 4.47917 322.569 3.77344 322.522 3.42969C322.502 3.2526 322.424 3.11719 322.288 3.02344C322.158 2.92969 321.895 2.88281 321.499 2.88281H321.085V2.39062C321.991 2.42708 322.562 2.44531 322.796 2.44531C323.093 2.44531 323.515 2.42708 324.062 2.39062C324.692 3.79167 325.418 5.33594 326.241 7.02344L328.296 11.25L330.194 7.33594C330.861 5.96615 331.621 4.31771 332.476 2.39062C333.127 2.42708 333.585 2.44531 333.851 2.44531C334.158 2.44531 334.713 2.42708 335.515 2.39062V2.88281H335.007C334.549 2.88281 334.267 2.96354 334.163 3.125C334.064 3.28125 334.015 3.85156 334.015 4.83594V10.5469C334.015 11.8177 334.067 12.5469 334.171 12.7344C334.28 12.9219 334.58 13.0156 335.069 13.0156H335.515V13.5078C334.791 13.4714 334.098 13.4531 333.437 13.4531C332.707 13.4531 331.944 13.4714 331.147 13.5078V13.0156H331.663C332.075 13.0156 332.322 12.9271 332.405 12.75C332.494 12.5677 332.538 11.7943 332.538 10.4297V4.07812ZM341.663 8.00781C341.981 7.52865 342.483 6.69531 343.171 5.50781L344.96 2.39844H346.171V2.59375C345.535 3.30729 344.757 4.38281 343.835 5.82031C342.913 7.25781 342.361 8.22135 342.179 8.71094C342.116 8.88281 342.085 9.32292 342.085 10.0312C342.085 10.974 342.108 11.7214 342.155 12.2734C342.187 12.5703 342.239 12.75 342.312 12.8125C342.39 12.8698 342.658 12.9193 343.116 12.9609L343.71 13.0234V13.5078C342.804 13.4714 342.095 13.4531 341.585 13.4531L339.069 13.5078V13.0234H339.733C340.176 13.0234 340.442 12.9323 340.53 12.75C340.619 12.5677 340.663 11.7448 340.663 10.2812C340.663 9.85417 340.65 9.38802 340.624 8.88281C339.952 7.64844 339.332 6.58073 338.765 5.67969C338.197 4.77865 337.718 4.11979 337.327 3.70312C337.114 3.47396 336.926 3.32292 336.765 3.25C336.608 3.17708 336.343 3.14062 335.968 3.14062V2.65625C336.181 2.61458 336.601 2.53125 337.226 2.40625L337.843 2.28125C338.082 2.36979 338.275 2.48177 338.421 2.61719C338.681 2.86198 339.08 3.42188 339.616 4.29688C340.028 4.96875 340.71 6.20573 341.663 8.00781ZM358.726 9.75781H354.21L353.679 11.0156C353.33 11.849 353.155 12.3594 353.155 12.5469C353.155 12.6667 353.187 12.7526 353.249 12.8047C353.317 12.8568 353.483 12.8984 353.749 12.9297L354.499 13.0156V13.5078C353.999 13.4714 353.437 13.4531 352.812 13.4531C352.062 13.4531 351.403 13.4714 350.835 13.5078V13.0156L351.069 13.0078C351.434 12.9974 351.668 12.9609 351.772 12.8984C351.882 12.8307 351.996 12.6693 352.116 12.4141C352.486 11.6641 352.864 10.8542 353.249 9.98438L355.397 5.11719C355.97 3.82552 356.361 2.88802 356.569 2.30469H357.101L361.054 11.5C361.319 12.125 361.496 12.5026 361.585 12.6328C361.674 12.7578 361.775 12.849 361.89 12.9062C362.004 12.9583 362.262 12.9948 362.663 13.0156V13.5078C361.986 13.4714 361.34 13.4531 360.726 13.4531C360.153 13.4531 359.39 13.4714 358.437 13.5078V13.0156L359.21 12.9688C359.486 12.9479 359.65 12.9193 359.702 12.8828C359.78 12.8255 359.819 12.7526 359.819 12.6641C359.819 12.5703 359.741 12.3255 359.585 11.9297L358.726 9.75781ZM354.499 9.11719H358.437L356.468 4.41406L354.499 9.11719ZM373.03 5.21094L372.968 3.82031C372.504 3.51302 372.017 3.28385 371.507 3.13281C371.002 2.98177 370.473 2.90625 369.921 2.90625C368.515 2.90625 367.387 3.33333 366.538 4.1875C365.694 5.04167 365.272 6.1849 365.272 7.61719C365.272 8.6224 365.486 9.51823 365.913 10.3047C366.345 11.0911 366.957 11.7135 367.749 12.1719C368.541 12.6302 369.377 12.8594 370.257 12.8594C370.955 12.8594 371.645 12.7786 372.327 12.6172C372.838 12.4974 373.351 12.2474 373.866 11.8672L374.03 12.0234C373.921 12.263 373.819 12.5052 373.726 12.75C373.116 13.0521 372.502 13.2812 371.882 13.4375C371.267 13.5885 370.647 13.6641 370.022 13.6641C368.741 13.6641 367.614 13.4167 366.64 12.9219C365.671 12.4271 364.926 11.7448 364.405 10.875C363.884 10 363.624 9.01302 363.624 7.91406C363.624 6.8151 363.887 5.83333 364.413 4.96875C364.939 4.09896 365.681 3.42708 366.64 2.95312C367.603 2.47396 368.785 2.23438 370.187 2.23438C370.921 2.23438 371.78 2.35417 372.765 2.59375C373.254 2.70833 373.653 2.79427 373.96 2.85156C373.726 3.40885 373.59 4.19531 373.554 5.21094H373.03ZM384.374 5.21094L384.312 3.82031C383.848 3.51302 383.361 3.28385 382.851 3.13281C382.345 2.98177 381.817 2.90625 381.265 2.90625C379.858 2.90625 378.731 3.33333 377.882 4.1875C377.038 5.04167 376.616 6.1849 376.616 7.61719C376.616 8.6224 376.83 9.51823 377.257 10.3047C377.689 11.0911 378.301 11.7135 379.093 12.1719C379.884 12.6302 380.72 12.8594 381.601 12.8594C382.299 12.8594 382.989 12.7786 383.671 12.6172C384.181 12.4974 384.694 12.2474 385.21 11.8672L385.374 12.0234C385.265 12.263 385.163 12.5052 385.069 12.75C384.46 13.0521 383.845 13.2812 383.226 13.4375C382.611 13.5885 381.991 13.6641 381.366 13.6641C380.085 13.6641 378.957 13.4167 377.983 12.9219C377.015 12.4271 376.27 11.7448 375.749 10.875C375.228 10 374.968 9.01302 374.968 7.91406C374.968 6.8151 375.231 5.83333 375.757 4.96875C376.283 4.09896 377.025 3.42708 377.983 2.95312C378.947 2.47396 380.129 2.23438 381.53 2.23438C382.265 2.23438 383.124 2.35417 384.108 2.59375C384.598 2.70833 384.996 2.79427 385.304 2.85156C385.069 3.40885 384.934 4.19531 384.897 5.21094H384.374ZM386.038 7.94531C386.038 6.23177 386.59 4.85156 387.694 3.80469C388.799 2.75781 390.27 2.23438 392.108 2.23438C393.91 2.23438 395.322 2.72135 396.343 3.69531C397.369 4.66406 397.882 5.95312 397.882 7.5625C397.882 9.29688 397.288 10.7474 396.101 11.9141C394.913 13.0807 393.416 13.6641 391.608 13.6641C390.478 13.6641 389.504 13.4349 388.687 12.9766C387.869 12.5182 387.223 11.849 386.749 10.9688C386.275 10.0885 386.038 9.08073 386.038 7.94531ZM387.624 7.30469C387.624 8.48177 387.825 9.50781 388.226 10.3828C388.632 11.2526 389.174 11.9062 389.851 12.3438C390.528 12.776 391.301 12.9922 392.171 12.9922C392.978 12.9922 393.684 12.8073 394.288 12.4375C394.892 12.0677 395.366 11.5156 395.71 10.7812C396.059 10.0469 396.233 9.15365 396.233 8.10156C396.233 6.9974 396.041 6.05469 395.655 5.27344C395.275 4.48698 394.752 3.89583 394.085 3.5C393.418 3.10417 392.629 2.90625 391.718 2.90625C390.884 2.90625 390.166 3.08073 389.562 3.42969C388.957 3.77865 388.483 4.29167 388.14 4.96875C387.796 5.64062 387.624 6.41927 387.624 7.30469ZM398.554 2.88281V2.39062C399.621 2.42708 400.397 2.44531 400.882 2.44531C401.392 2.44531 402.142 2.42708 403.132 2.39062V2.88281H402.562C402.072 2.88281 401.778 2.97656 401.679 3.16406C401.58 3.35156 401.53 4.20052 401.53 5.71094V8.77344C401.53 9.89323 401.59 10.6719 401.71 11.1094C401.835 11.5469 402.153 11.9167 402.663 12.2188C403.174 12.5208 403.856 12.6719 404.71 12.6719C405.59 12.6719 406.332 12.5104 406.937 12.1875C407.353 11.9635 407.658 11.6172 407.851 11.1484C408.043 10.6745 408.14 9.77865 408.14 8.46094V5.51562C408.14 4.15104 408.077 3.3724 407.952 3.17969C407.832 2.98177 407.496 2.88281 406.944 2.88281H406.538V2.39062C407.616 2.42708 408.301 2.44531 408.593 2.44531C409.067 2.44531 409.655 2.42708 410.358 2.39062V2.88281H409.827C409.416 2.88281 409.15 2.99479 409.03 3.21875C408.916 3.4375 408.858 4.21354 408.858 5.54688V8.47656C408.858 9.8151 408.791 10.7188 408.655 11.1875C408.525 11.651 408.283 12.0703 407.929 12.4453C407.58 12.8203 407.111 13.1172 406.522 13.3359C405.939 13.5547 405.252 13.6641 404.46 13.6641C403.642 13.6641 402.926 13.5677 402.312 13.375C401.697 13.1771 401.233 12.9349 400.921 12.6484C400.614 12.362 400.39 12.013 400.249 11.6016C400.114 11.1849 400.046 10.4792 400.046 9.48438L400.062 8V5.61719C400.062 4.14844 400.017 3.32552 399.929 3.14844C399.845 2.97135 399.572 2.88281 399.108 2.88281H398.554ZM413.28 4.15625V9.55469C413.28 10.7839 413.304 11.6406 413.351 12.125C413.387 12.4948 413.447 12.7214 413.53 12.8047C413.619 12.8828 413.869 12.9401 414.28 12.9766L414.78 13.0156V13.5078C414.213 13.4714 413.7 13.4531 413.241 13.4531C412.924 13.4531 412.194 13.4714 411.054 13.5078V13.0156H411.616C411.955 13.0156 412.176 12.9688 412.28 12.875C412.384 12.7812 412.45 12.5964 412.476 12.3203C412.533 11.7474 412.562 10.9688 412.562 9.98438V6.10156C412.562 5.3724 412.554 4.65104 412.538 3.9375C412.528 3.63542 412.486 3.42969 412.413 3.32031C412.345 3.20573 412.244 3.10417 412.108 3.01562C411.973 2.92708 411.783 2.88281 411.538 2.88281H411.054V2.39062C411.715 2.42708 412.22 2.44531 412.569 2.44531C412.944 2.44531 413.356 2.42708 413.804 2.39062C414.319 3.02083 414.804 3.63542 415.257 4.23438C415.715 4.82812 416.189 5.42708 416.679 6.03125L419.351 9.3125C420.314 10.4896 421.009 11.3073 421.437 11.7656V6.75C421.437 4.65104 421.397 3.50521 421.319 3.3125C421.246 3.11458 420.947 2.98958 420.421 2.9375L419.835 2.88281V2.39062C420.674 2.42708 421.325 2.44531 421.788 2.44531C422.272 2.44531 422.897 2.42708 423.663 2.39062V2.88281H423.062C422.577 2.88281 422.299 3.04427 422.226 3.36719C422.179 3.58073 422.155 4.72135 422.155 6.78906V10.3125C422.155 11.2604 422.197 12.3932 422.28 13.7109C421.572 13.6016 421.16 13.5208 421.046 13.4688C420.931 13.4219 420.822 13.3411 420.718 13.2266C420.14 12.5859 419.533 11.875 418.897 11.0938L413.28 4.15625ZM429.733 3.10156C429.676 3.88281 429.647 4.70573 429.647 5.57031V10.0234C429.647 11.6797 429.689 12.5938 429.772 12.7656C429.856 12.9323 430.153 13.0156 430.663 13.0156H431.249V13.5078C430.327 13.4714 429.546 13.4531 428.905 13.4531C428.259 13.4531 427.483 13.4714 426.577 13.5078V13.0156H427.233C427.577 13.0156 427.801 12.9714 427.905 12.8828C428.009 12.7891 428.075 12.6094 428.101 12.3438C428.153 11.7344 428.179 10.9479 428.179 9.98438V5.52344C428.179 4.64323 428.16 3.83594 428.124 3.10156H427.327C426.041 3.10156 425.332 3.13281 425.202 3.19531C425.072 3.2526 424.986 3.48438 424.944 3.89062L424.835 4.9375H424.343L424.358 4.00781C424.358 3.63281 424.327 3.09375 424.265 2.39062C427.077 2.42708 428.731 2.44531 429.226 2.44531L433.546 2.39062C433.447 3.27083 433.39 4.11979 433.374 4.9375H432.89L432.812 3.91406C432.78 3.5599 432.736 3.35156 432.679 3.28906C432.621 3.22135 432.494 3.17969 432.296 3.16406C431.723 3.1224 431.072 3.10156 430.343 3.10156H429.733Z" fill="#A18168"/>
<path d="M251.689 8.89062C251.689 10.3634 252.883 11.5573 254.355 11.5573C255.828 11.5573 257.022 10.3634 257.022 8.89062C257.022 7.41787 255.828 6.22396 254.355 6.22396C252.883 6.22396 251.689 7.41787 251.689 8.89062ZM302.779 9.39062C303.055 9.39062 303.279 9.16677 303.279 8.89062C303.279 8.61448 303.055 8.39062 302.779 8.39062V9.39062ZM254.355 9.39062H302.779V8.39062H254.355V9.39062Z" fill="#A18168"/>
<path d="M451.539 8.39062C451.263 8.39062 451.039 8.61448 451.039 8.89062C451.039 9.16677 451.263 9.39062 451.539 9.39062V8.39062ZM497.296 8.89062C497.296 10.3634 498.49 11.5573 499.963 11.5573C501.436 11.5573 502.63 10.3634 502.63 8.89062C502.63 7.41787 501.436 6.22396 499.963 6.22396C498.49 6.22396 497.296 7.41787 497.296 8.89062ZM451.539 9.39062H499.963V8.39062H451.539V9.39062Z" fill="#A18168"/>
</svg>
