<svg width="754" height="29" viewBox="0 0 754 29" fill="none" xmlns="http://www.w3.org/2000/svg">
<path d="M342.089 4.9375L342.026 3.54688C341.563 3.23958 341.076 3.01042 340.565 2.85938C340.06 2.70833 339.532 2.63281 338.979 2.63281C337.573 2.63281 336.446 3.0599 335.597 3.91406C334.753 4.76823 334.331 5.91146 334.331 7.34375C334.331 8.34896 334.545 9.24479 334.972 10.0312C335.404 10.8177 336.016 11.4401 336.808 11.8984C337.599 12.3568 338.435 12.5859 339.315 12.5859C340.013 12.5859 340.703 12.5052 341.386 12.3438C341.896 12.224 342.409 11.974 342.925 11.5938L343.089 11.75C342.979 11.9896 342.878 12.2318 342.784 12.4766C342.175 12.7786 341.56 13.0078 340.94 13.1641C340.326 13.3151 339.706 13.3906 339.081 13.3906C337.8 13.3906 336.672 13.1432 335.698 12.6484C334.729 12.1536 333.985 11.4714 333.464 10.6016C332.943 9.72656 332.683 8.73958 332.683 7.64062C332.683 6.54167 332.946 5.5599 333.472 4.69531C333.998 3.82552 334.74 3.15365 335.698 2.67969C336.662 2.20052 337.844 1.96094 339.245 1.96094C339.979 1.96094 340.839 2.08073 341.823 2.32031C342.313 2.4349 342.711 2.52083 343.019 2.57812C342.784 3.13542 342.649 3.92188 342.612 4.9375H342.089ZM351.581 9.48438H347.065L346.534 10.7422C346.185 11.5755 346.011 12.0859 346.011 12.2734C346.011 12.3932 346.042 12.4792 346.104 12.5312C346.172 12.5833 346.339 12.625 346.604 12.6562L347.354 12.7422V13.2344C346.854 13.1979 346.292 13.1797 345.667 13.1797C344.917 13.1797 344.258 13.1979 343.69 13.2344V12.7422L343.925 12.7344C344.289 12.724 344.524 12.6875 344.628 12.625C344.737 12.5573 344.852 12.3958 344.972 12.1406C345.341 11.3906 345.719 10.5807 346.104 9.71094L348.253 4.84375C348.826 3.55208 349.216 2.61458 349.425 2.03125H349.956L353.909 11.2266C354.175 11.8516 354.352 12.2292 354.44 12.3594C354.529 12.4844 354.631 12.5755 354.745 12.6328C354.86 12.6849 355.118 12.7214 355.519 12.7422V13.2344C354.841 13.1979 354.196 13.1797 353.581 13.1797C353.008 13.1797 352.245 13.1979 351.292 13.2344V12.7422L352.065 12.6953C352.341 12.6745 352.506 12.6458 352.558 12.6094C352.636 12.5521 352.675 12.4792 352.675 12.3906C352.675 12.2969 352.597 12.0521 352.44 11.6562L351.581 9.48438ZM347.354 8.84375H351.292L349.323 4.14062L347.354 8.84375ZM361.573 2.82812C361.516 3.60938 361.487 4.43229 361.487 5.29688V9.75C361.487 11.4062 361.529 12.3203 361.612 12.4922C361.696 12.6589 361.993 12.7422 362.503 12.7422H363.089V13.2344C362.167 13.1979 361.386 13.1797 360.745 13.1797C360.099 13.1797 359.323 13.1979 358.417 13.2344V12.7422H359.073C359.417 12.7422 359.641 12.6979 359.745 12.6094C359.849 12.5156 359.914 12.3359 359.94 12.0703C359.993 11.4609 360.019 10.6745 360.019 9.71094V5.25C360.019 4.36979 360 3.5625 359.964 2.82812H359.167C357.881 2.82812 357.172 2.85938 357.042 2.92188C356.912 2.97917 356.826 3.21094 356.784 3.61719L356.675 4.66406H356.183L356.198 3.73438C356.198 3.35938 356.167 2.82031 356.104 2.11719C358.917 2.15365 360.571 2.17188 361.065 2.17188L365.386 2.11719C365.287 2.9974 365.229 3.84635 365.214 4.66406H364.729L364.651 3.64062C364.62 3.28646 364.576 3.07812 364.519 3.01562C364.461 2.94792 364.334 2.90625 364.136 2.89062C363.563 2.84896 362.912 2.82812 362.183 2.82812H361.573ZM369.198 7.92969V9.84375L369.206 10.9453C369.206 11.6328 369.214 12.1354 369.229 12.4531C369.99 12.5104 370.805 12.5391 371.675 12.5391C372.258 12.5391 372.748 12.513 373.144 12.4609C373.399 12.4297 373.67 12.362 373.956 12.2578C374.086 11.7995 374.219 11.2266 374.354 10.5391H374.878C374.737 11.6797 374.667 12.4401 374.667 12.8203L374.683 13.1719C374.084 13.2292 373.495 13.2578 372.917 13.2578L371.69 13.2344C370.336 13.1979 369.341 13.1797 368.706 13.1797C368.097 13.1797 367.287 13.1979 366.276 13.2344V12.7422H366.519C366.972 12.7422 367.256 12.6979 367.37 12.6094C367.49 12.5208 367.568 12.3125 367.604 11.9844C367.646 11.6562 367.667 10.9323 367.667 9.8125V5.52344C367.667 4.82031 367.649 4.24479 367.612 3.79688C367.581 3.34896 367.545 3.08333 367.503 3C367.466 2.91146 367.412 2.84375 367.339 2.79688C367.266 2.75 367.042 2.70833 366.667 2.67188L366.065 2.60938V2.125H366.909L367.737 2.14844C368.201 2.16406 368.552 2.17188 368.792 2.17188L371.792 2.13281L373.214 2.125C373.698 2.11979 374.188 2.14062 374.683 2.1875C374.485 2.80208 374.375 3.60156 374.354 4.58594H373.823C373.823 4.01302 373.795 3.53646 373.737 3.15625C373.123 2.92708 372.368 2.8125 371.472 2.8125C370.758 2.8125 370.011 2.84375 369.229 2.90625C369.235 3.39583 369.229 3.88542 369.214 4.375L369.198 5.57812V7.16406C369.714 7.19531 370.17 7.21094 370.565 7.21094C371.805 7.21094 372.506 7.16927 372.667 7.08594C372.834 6.9974 372.917 6.72917 372.917 6.28125V5.77344H373.448C373.412 6.5599 373.394 7.1875 373.394 7.65625C373.394 8.15104 373.412 8.73438 373.448 9.40625H372.917V8.95312C372.917 8.45312 372.818 8.14844 372.62 8.03906C372.427 7.92448 371.74 7.86719 370.558 7.86719C370.12 7.86719 369.667 7.88802 369.198 7.92969ZM386.612 9.53906C386.534 9.97656 386.495 10.4219 386.495 10.875C386.495 11.3542 386.534 11.8932 386.612 12.4922C385.92 12.763 385.136 12.9818 384.261 13.1484C383.391 13.3099 382.558 13.3906 381.761 13.3906C380.532 13.3906 379.451 13.151 378.519 12.6719C377.591 12.1875 376.878 11.5182 376.378 10.6641C375.878 9.80469 375.628 8.83073 375.628 7.74219C375.628 6.61719 375.896 5.61719 376.433 4.74219C376.969 3.86198 377.716 3.17969 378.675 2.69531C379.633 2.20573 380.847 1.96094 382.315 1.96094C382.914 1.96094 383.466 2 383.972 2.07812C384.477 2.15625 385.136 2.3125 385.948 2.54688L386.612 2.72656C386.472 3.27865 386.36 4.04948 386.276 5.03906H385.792V4.52344C385.792 4.01302 385.75 3.71354 385.667 3.625C385.511 3.45833 385.097 3.2526 384.425 3.00781C383.753 2.75781 382.985 2.63281 382.12 2.63281C380.589 2.63281 379.417 3.04427 378.604 3.86719C377.719 4.76302 377.276 5.94792 377.276 7.42188C377.276 8.83854 377.675 10.0312 378.472 11C379.409 12.1458 380.688 12.7188 382.308 12.7188C383.151 12.7188 384.065 12.5339 385.05 12.1641C385.081 11.7266 385.097 11.2604 385.097 10.7656C385.097 10.125 385.086 9.75781 385.065 9.66406C385.045 9.5651 385.006 9.5026 384.948 9.47656C384.896 9.44531 384.625 9.40885 384.136 9.36719L383.214 9.28906V8.78906C384.407 8.84115 385.292 8.86719 385.87 8.86719C386.37 8.86719 386.8 8.84115 387.159 8.78906V9.17969L386.612 9.53906ZM388.019 7.67188C388.019 5.95833 388.571 4.57812 389.675 3.53125C390.779 2.48438 392.25 1.96094 394.089 1.96094C395.891 1.96094 397.302 2.44792 398.323 3.42188C399.349 4.39062 399.862 5.67969 399.862 7.28906C399.862 9.02344 399.269 10.474 398.081 11.6406C396.894 12.8073 395.396 13.3906 393.589 13.3906C392.459 13.3906 391.485 13.1615 390.667 12.7031C389.849 12.2448 389.203 11.5755 388.729 10.6953C388.256 9.8151 388.019 8.80729 388.019 7.67188ZM389.604 7.03125C389.604 8.20833 389.805 9.23438 390.206 10.1094C390.612 10.9792 391.154 11.6328 391.831 12.0703C392.508 12.5026 393.282 12.7188 394.151 12.7188C394.959 12.7188 395.664 12.5339 396.269 12.1641C396.873 11.7943 397.347 11.2422 397.69 10.5078C398.039 9.77344 398.214 8.88021 398.214 7.82812C398.214 6.72396 398.021 5.78125 397.636 5C397.256 4.21354 396.732 3.6224 396.065 3.22656C395.399 2.83073 394.61 2.63281 393.698 2.63281C392.865 2.63281 392.146 2.80729 391.542 3.15625C390.938 3.50521 390.464 4.01823 390.12 4.69531C389.776 5.36719 389.604 6.14583 389.604 7.03125ZM406.394 7.59375C406.904 8.32812 407.537 9.18229 408.292 10.1562L409.792 12.1016C410.058 12.4349 410.235 12.625 410.323 12.6719C410.412 12.7188 410.503 12.7422 410.597 12.7422H410.8V13.2344C410.368 13.1979 409.99 13.1797 409.667 13.1797C409.37 13.1797 409.058 13.1979 408.729 13.2344L405.964 9.5C405.448 8.8125 404.896 8.14062 404.308 7.48438L404.386 7.21875C404.688 7.24479 404.912 7.25781 405.058 7.25781C405.927 7.25781 406.607 7.03385 407.097 6.58594C407.591 6.13802 407.839 5.53906 407.839 4.78906C407.839 4.11719 407.631 3.59375 407.214 3.21875C406.797 2.83854 406.196 2.64844 405.409 2.64844C404.862 2.64844 404.313 2.75 403.761 2.95312C403.698 3.78125 403.667 4.66667 403.667 5.60938V9.38281C403.667 11.2214 403.711 12.2422 403.8 12.4453C403.888 12.6432 404.175 12.7422 404.659 12.7422H405.269V13.2344C404.404 13.1979 403.688 13.1797 403.12 13.1797C402.672 13.1797 401.862 13.1979 400.69 13.2344V12.7422H401.276C401.724 12.7422 401.99 12.6458 402.073 12.4531C402.157 12.2552 402.198 11.2266 402.198 9.36719V5.60938C402.198 3.99479 402.149 3.09115 402.05 2.89844C401.956 2.70573 401.644 2.60938 401.112 2.60938H400.69V2.10938C401.659 2.15104 402.399 2.17188 402.909 2.17188C403.253 2.17188 403.748 2.15885 404.394 2.13281C405.144 2.10677 405.683 2.09375 406.011 2.09375C406.912 2.09375 407.594 2.1901 408.058 2.38281C408.526 2.57031 408.881 2.84375 409.12 3.20312C409.365 3.5625 409.487 3.99219 409.487 4.49219C409.487 5.22656 409.222 5.875 408.69 6.4375C408.164 7 407.399 7.38542 406.394 7.59375ZM416.722 7.73438C417.039 7.25521 417.542 6.42188 418.229 5.23438L420.019 2.125H421.229V2.32031C420.594 3.03385 419.815 4.10938 418.894 5.54688C417.972 6.98438 417.42 7.94792 417.237 8.4375C417.175 8.60938 417.144 9.04948 417.144 9.75781C417.144 10.7005 417.167 11.4479 417.214 12C417.245 12.2969 417.297 12.4766 417.37 12.5391C417.448 12.5964 417.716 12.6458 418.175 12.6875L418.769 12.75V13.2344C417.862 13.1979 417.154 13.1797 416.644 13.1797L414.128 13.2344V12.75H414.792C415.235 12.75 415.5 12.6589 415.589 12.4766C415.677 12.2943 415.722 11.4714 415.722 10.0078C415.722 9.58073 415.709 9.11458 415.683 8.60938C415.011 7.375 414.391 6.30729 413.823 5.40625C413.256 4.50521 412.776 3.84635 412.386 3.42969C412.172 3.20052 411.985 3.04948 411.823 2.97656C411.667 2.90365 411.401 2.86719 411.026 2.86719V2.38281C411.24 2.34115 411.659 2.25781 412.284 2.13281L412.901 2.00781C413.141 2.09635 413.334 2.20833 413.479 2.34375C413.74 2.58854 414.138 3.14844 414.675 4.02344C415.086 4.69531 415.769 5.93229 416.722 7.73438Z" fill="#A18168"/>
<path d="M251.24 8.61719C251.24 10.0899 252.433 11.2839 253.906 11.2839C255.379 11.2839 256.573 10.0899 256.573 8.61719C256.573 7.14443 255.379 5.95052 253.906 5.95052C252.433 5.95052 251.24 7.14443 251.24 8.61719ZM302.33 9.11719C302.606 9.11719 302.83 8.89333 302.83 8.61719C302.83 8.34105 302.606 8.11719 302.33 8.11719V9.11719ZM253.906 9.11719H302.33V8.11719H253.906V9.11719Z" fill="#A18168"/>
<path d="M451.09 8.11719C450.814 8.11719 450.59 8.34105 450.59 8.61719C450.59 8.89333 450.814 9.11719 451.09 9.11719V8.11719ZM496.847 8.61719C496.847 10.0899 498.041 11.2839 499.514 11.2839C500.986 11.2839 502.18 10.0899 502.18 8.61719C502.18 7.14443 500.986 5.95052 499.514 5.95052C498.041 5.95052 496.847 7.14443 496.847 8.61719ZM451.09 9.11719H499.514V8.11719H451.09V9.11719Z" fill="#A18168"/>
</svg>
