<svg width="11" height="11" viewBox="0 0 11 11" fill="none" xmlns="http://www.w3.org/2000/svg">
<path d="M6.57871 10.2891C4.60879 10.2891 2.63842 10.2891 0.668502 10.2891C0.431649 10.2002 0.267674 10.0384 0.179688 9.80024C0.179688 7.83032 0.179688 5.85996 0.179688 3.89003C0.329442 3.52653 0.605845 3.41144 0.988897 3.41411C2.74285 3.42566 4.49681 3.41944 6.25032 3.41944C6.848 3.41944 7.04797 3.61363 7.04886 4.21887C7.05153 5.97283 7.04353 7.72678 7.05508 9.48029C7.05775 9.8629 6.93999 10.1384 6.57871 10.2891ZM4.55724 6.54963C4.61634 6.54963 4.67545 6.55007 4.73455 6.54963C5.07538 6.54696 5.18515 6.43854 5.18914 6.09948C5.19092 5.95905 5.1927 5.81863 5.18826 5.67865C5.17937 5.40714 5.06161 5.28804 4.79365 5.28049C4.64612 5.27605 4.49814 5.27827 4.35061 5.2796C4.04176 5.28271 3.92356 5.40047 3.92045 5.70842C3.91956 5.77508 3.92045 5.84129 3.92045 5.90795C3.91823 6.50786 3.95867 6.5483 4.55724 6.54963ZM4.5568 8.42001C4.64523 8.42001 4.7341 8.42312 4.82253 8.41957C5.04694 8.41023 5.17093 8.30358 5.18426 8.08495C5.19625 7.88676 5.19759 7.6859 5.18292 7.48815C5.16781 7.28552 5.05094 7.16509 4.83764 7.16154C4.67545 7.15887 4.51325 7.15798 4.35061 7.15976C4.03377 7.16287 3.92578 7.26996 3.92045 7.58281C3.91912 7.64902 3.92001 7.71567 3.92001 7.78189C3.92178 8.38579 3.95644 8.42046 4.5568 8.42001ZM3.30677 5.91017C3.30677 5.82174 3.31032 5.73287 3.30632 5.64443C3.29566 5.40891 3.18545 5.29204 2.95082 5.28227C2.75929 5.27427 2.56643 5.27071 2.37535 5.28404C2.16916 5.29871 2.05496 5.42269 2.04962 5.63199C2.04474 5.82396 2.04296 6.01593 2.05096 6.2079C2.0594 6.41098 2.18294 6.53319 2.38602 6.54785C2.48156 6.55452 2.57799 6.54963 2.67397 6.54963C3.27299 6.55007 3.31032 6.5123 3.30677 5.91017ZM2.66597 8.42046C2.73219 8.42046 2.79884 8.4209 2.86506 8.42046C3.19834 8.41912 3.30321 8.3178 3.30677 7.9903C3.30854 7.8281 3.31165 7.66546 3.30543 7.50371C3.29699 7.29085 3.18812 7.17398 2.97837 7.16376C2.77973 7.15398 2.58021 7.15576 2.38113 7.16287C2.18427 7.17042 2.06118 7.27663 2.0514 7.47749C2.04118 7.68323 2.03985 7.89076 2.0514 8.0965C2.06207 8.29336 2.1816 8.40357 2.37802 8.41868C2.474 8.42579 2.57043 8.42001 2.66597 8.42046Z" fill="#B86F2A"/>
<path d="M10.1744 6.68809C10.0237 7.04981 9.74912 7.18357 9.36517 7.16268C9.01989 7.14402 8.67284 7.15868 8.30578 7.15868C8.30578 7.0467 8.30578 6.9596 8.30578 6.8725C8.30578 5.55448 8.30623 4.23646 8.30578 2.91844C8.30534 2.39852 8.06582 2.15856 7.54634 2.15811C6.22077 2.15767 4.89564 2.15767 3.57006 2.15767C3.49007 2.15767 3.41053 2.15767 3.32121 2.15767C3.32121 1.68796 3.30743 1.23781 3.32654 0.789431C3.3381 0.520138 3.56206 0.399268 3.77536 0.289062C5.74528 0.289062 7.71565 0.289062 9.68557 0.289062C9.92287 0.377938 10.0846 0.541468 10.1744 0.777877C10.1744 2.7478 10.1744 4.71816 10.1744 6.68809Z" fill="#B86F2A"/>
</svg>
