<svg width="12" height="9" viewBox="0 0 12 9" fill="none" xmlns="http://www.w3.org/2000/svg">
<path d="M11.2976 5.60931C11.2026 5.60406 11.1081 5.59355 11.0131 5.59355C8.92179 5.5926 6.83052 5.59308 4.73972 5.59308C4.65332 5.59308 4.5674 5.59308 4.52014 5.59308C4.64043 5.35297 4.80655 5.12098 4.8729 4.86273C4.94546 4.58014 4.80989 4.31807 4.5927 4.11616C4.2218 3.77151 3.76211 3.79251 3.24609 4.18585C3.24609 2.89223 3.24609 1.61102 3.24609 0.296875C3.3387 0.296875 3.43035 0.296875 3.52248 0.296875C5.77271 0.296875 8.02294 0.296875 10.2732 0.296875C10.8923 0.296875 11.0579 0.407143 11.2976 0.977099C11.2976 2.52181 11.2976 4.06556 11.2976 5.60931Z" fill="#B86F2A"/>
<path d="M11.295 7.61604C11.0749 8.15115 10.8673 8.2891 10.2835 8.2891C8.03183 8.2891 5.78065 8.2891 3.52899 8.2891C3.4359 8.2891 3.34282 8.2891 3.23828 8.2891C3.23828 7.57451 3.23828 6.88474 3.23828 6.14675C3.33614 6.24079 3.41299 6.31239 3.48746 6.38686C3.75812 6.65656 4.02782 6.92674 4.29704 7.1974C4.39013 7.29096 4.50803 7.36066 4.59587 7.22986C4.63501 7.17163 4.60398 7.01362 4.54813 6.95252C4.29084 6.67088 4.0135 6.40739 3.74427 6.13673C3.69654 6.08852 3.65262 6.03649 3.57577 5.95152C3.70465 5.95152 3.78867 5.95152 3.87268 5.95152C6.25132 5.95152 8.63043 5.95152 11.0091 5.95104C11.1045 5.95104 11.2 5.94722 11.295 5.94531C11.295 6.5019 11.295 7.05897 11.295 7.61604Z" fill="#B86F2A"/>
<path d="M0.559071 0.977101C0.796792 0.409054 0.965296 0.296399 1.58203 0.296877C1.98683 0.297354 2.3921 0.299263 2.79689 0.301173C2.81169 0.301173 2.82649 0.31072 2.85895 0.321699C2.85895 1.62916 2.85895 2.94283 2.85895 4.29039C2.64939 4.05267 2.42169 3.88273 2.11237 3.87175C1.80734 3.86077 1.55196 3.97009 1.35529 4.20256C1.00635 4.61547 1.08225 5.09091 1.61783 5.60883C1.23023 5.60883 0.894648 5.60883 0.558594 5.60883C0.559071 4.06508 0.559071 2.52133 0.559071 0.977101Z" fill="#B86F2A"/>
<path d="M0.558594 5.94531C1.19968 5.94531 1.84028 5.94531 2.48136 5.94531C2.49664 5.96918 2.51239 5.99305 2.52766 6.01692C2.32097 6.20833 2.11237 6.39736 1.90854 6.59117C1.80687 6.68807 1.65841 6.79691 1.79875 6.94632C1.94291 7.10002 2.0527 6.95252 2.15151 6.8518C2.37348 6.62601 2.59354 6.39784 2.85513 6.12814C2.85513 6.88092 2.85513 7.57165 2.85513 8.28099C2.31381 8.28099 1.77393 8.31154 1.23882 8.27049C0.87269 8.24232 0.670771 7.95496 0.558594 7.61652C0.558594 7.05945 0.558594 6.50238 0.558594 5.94531Z" fill="#B86F2A"/>
<path d="M2.75491 5.45412C2.46324 5.40209 2.20548 5.36486 1.95152 5.30901C1.65127 5.24313 1.48468 5.014 1.50568 4.72473C1.52477 4.46266 1.73242 4.25358 1.99735 4.22924C2.28901 4.20203 2.53962 4.38438 2.60454 4.68129C2.658 4.92712 2.70096 5.17535 2.75491 5.45412Z" fill="#B86F2A"/>
<path d="M3.27344 5.45741C3.32976 5.1624 3.37082 4.90416 3.43049 4.65069C3.4935 4.38241 3.7527 4.20484 4.01763 4.22871C4.27969 4.25257 4.49784 4.46452 4.52266 4.71942C4.5494 4.99342 4.38805 5.23019 4.10116 5.29988C3.84053 5.36289 3.57465 5.40108 3.27344 5.45741Z" fill="#B86F2A"/>
</svg>
