<svg width="753" height="29" viewBox="0 0 753 29" fill="none" xmlns="http://www.w3.org/2000/svg">
<path d="M332.519 7.39844C333.638 7.47135 334.446 7.73177 334.94 8.17969C335.435 8.6224 335.683 9.23698 335.683 10.0234C335.683 11.0182 335.266 11.8776 334.433 12.6016C333.604 13.3203 332.55 13.6797 331.269 13.6797L330.651 13.6641C330.131 13.6432 329.69 13.6328 329.331 13.6328C329.071 13.6328 328.75 13.6432 328.37 13.6641L327.722 13.6875V13.3359C328.045 13.1797 328.235 13.0599 328.292 12.9766C328.354 12.8932 328.391 12.7552 328.401 12.5625C328.438 11.9427 328.456 11.237 328.456 10.4453V5.57812C328.456 4.27604 328.409 3.53906 328.315 3.36719C328.201 3.16406 327.922 3.0625 327.479 3.0625H326.948V2.57812H327.597L328.315 2.60156C328.69 2.61719 328.985 2.625 329.198 2.625C329.526 2.625 330.175 2.61198 331.144 2.58594L332.284 2.5625C333.18 2.5625 333.849 2.71875 334.292 3.03125C334.849 3.42708 335.128 3.98698 335.128 4.71094C335.128 5.30469 334.93 5.82552 334.534 6.27344C334.144 6.72135 333.472 7.09635 332.519 7.39844ZM329.925 7.17969C330.185 7.19531 330.425 7.20312 330.644 7.20312C331.68 7.20312 332.422 7.02083 332.87 6.65625C333.318 6.28646 333.542 5.75521 333.542 5.0625C333.542 4.46354 333.354 4.00521 332.979 3.6875C332.604 3.36458 332.006 3.20312 331.183 3.20312C330.818 3.20312 330.422 3.23698 329.995 3.30469C329.948 3.9401 329.925 4.90104 329.925 6.1875V7.17969ZM329.925 12.8984C330.409 12.9714 330.81 13.0078 331.128 13.0078C332.05 13.0078 332.763 12.763 333.269 12.2734C333.779 11.7786 334.034 11.1094 334.034 10.2656C334.034 9.70312 333.922 9.23958 333.698 8.875C333.474 8.50521 333.159 8.23698 332.753 8.07031C332.352 7.89844 331.709 7.8125 330.823 7.8125C330.558 7.8125 330.258 7.82031 329.925 7.83594V10.6094L329.933 11.5938C329.948 11.9479 329.956 12.2188 329.956 12.4062C329.956 12.5469 329.946 12.7109 329.925 12.8984ZM339.831 8.38281V10.2969L339.839 11.3984C339.839 12.0859 339.847 12.5885 339.862 12.9062C340.623 12.9635 341.438 12.9922 342.308 12.9922C342.891 12.9922 343.381 12.9661 343.776 12.9141C344.032 12.8828 344.302 12.8151 344.589 12.7109C344.719 12.2526 344.852 11.6797 344.987 10.9922H345.511C345.37 12.1328 345.3 12.8932 345.3 13.2734L345.315 13.625C344.716 13.6823 344.128 13.7109 343.55 13.7109L342.323 13.6875C340.969 13.651 339.974 13.6328 339.339 13.6328C338.729 13.6328 337.92 13.651 336.909 13.6875V13.1953H337.151C337.604 13.1953 337.888 13.151 338.003 13.0625C338.123 12.974 338.201 12.7656 338.237 12.4375C338.279 12.1094 338.3 11.3854 338.3 10.2656V5.97656C338.3 5.27344 338.282 4.69792 338.245 4.25C338.214 3.80208 338.177 3.53646 338.136 3.45312C338.099 3.36458 338.045 3.29688 337.972 3.25C337.899 3.20312 337.675 3.16146 337.3 3.125L336.698 3.0625V2.57812H337.542L338.37 2.60156C338.834 2.61719 339.185 2.625 339.425 2.625L342.425 2.58594L343.847 2.57812C344.331 2.57292 344.821 2.59375 345.315 2.64062C345.118 3.25521 345.008 4.05469 344.987 5.03906H344.456C344.456 4.46615 344.427 3.98958 344.37 3.60938C343.756 3.38021 343 3.26562 342.104 3.26562C341.391 3.26562 340.644 3.29688 339.862 3.35938C339.868 3.84896 339.862 4.33854 339.847 4.82812L339.831 6.03125V7.61719C340.347 7.64844 340.802 7.66406 341.198 7.66406C342.438 7.66406 343.138 7.6224 343.3 7.53906C343.466 7.45052 343.55 7.18229 343.55 6.73438V6.22656H344.081C344.045 7.01302 344.026 7.64062 344.026 8.10938C344.026 8.60417 344.045 9.1875 344.081 9.85938H343.55V9.40625C343.55 8.90625 343.451 8.60156 343.253 8.49219C343.06 8.3776 342.373 8.32031 341.19 8.32031C340.753 8.32031 340.3 8.34115 339.831 8.38281ZM353.565 3.09375C353.42 3.63542 353.341 4.35417 353.331 5.25H352.792V4.625C352.792 4.21875 352.737 3.94271 352.628 3.79688C352.519 3.65104 352.232 3.4974 351.769 3.33594C351.31 3.16927 350.826 3.08594 350.315 3.08594C349.482 3.08594 348.826 3.29688 348.347 3.71875C347.873 4.14062 347.636 4.68229 347.636 5.34375C347.636 5.76042 347.732 6.11979 347.925 6.42188C348.123 6.71875 348.386 6.9349 348.714 7.07031C349.047 7.20052 349.75 7.3151 350.823 7.41406C351.896 7.51823 352.62 7.65625 352.995 7.82812C353.375 8 353.677 8.27604 353.901 8.65625C354.131 9.03646 354.245 9.48698 354.245 10.0078C354.245 11.0547 353.808 11.9557 352.933 12.7109C352.058 13.4661 350.891 13.8438 349.433 13.8438C348.933 13.8438 348.427 13.7917 347.917 13.6875C347.412 13.5885 346.901 13.4401 346.386 13.2422C346.479 12.6172 346.524 11.8151 346.519 10.8359H347.05V11.2266C347.05 11.7318 347.076 12.0443 347.128 12.1641C347.18 12.2839 347.302 12.4115 347.495 12.5469C347.782 12.75 348.123 12.9062 348.519 13.0156C348.914 13.1198 349.341 13.1719 349.8 13.1719C350.784 13.1719 351.545 12.9401 352.081 12.4766C352.618 12.013 352.886 11.4245 352.886 10.7109C352.886 10.2943 352.795 9.94271 352.612 9.65625C352.43 9.36458 352.175 9.14844 351.847 9.00781C351.519 8.86719 350.912 8.76042 350.026 8.6875C348.849 8.59375 348.05 8.45312 347.628 8.26562C347.206 8.07812 346.875 7.78385 346.636 7.38281C346.396 6.97656 346.276 6.47396 346.276 5.875C346.276 4.85938 346.644 4.02865 347.378 3.38281C348.112 2.73698 349.128 2.41406 350.425 2.41406C350.946 2.41406 351.466 2.47135 351.987 2.58594C352.513 2.69531 353.039 2.86458 353.565 3.09375ZM360.206 3.28125C360.149 4.0625 360.12 4.88542 360.12 5.75V10.2031C360.12 11.8594 360.162 12.7734 360.245 12.9453C360.328 13.112 360.625 13.1953 361.136 13.1953H361.722V13.6875C360.8 13.651 360.019 13.6328 359.378 13.6328C358.732 13.6328 357.956 13.651 357.05 13.6875V13.1953H357.706C358.05 13.1953 358.274 13.151 358.378 13.0625C358.482 12.9688 358.547 12.7891 358.573 12.5234C358.625 11.9141 358.651 11.1276 358.651 10.1641V5.70312C358.651 4.82292 358.633 4.01562 358.597 3.28125H357.8C356.513 3.28125 355.805 3.3125 355.675 3.375C355.545 3.43229 355.459 3.66406 355.417 4.07031L355.308 5.11719H354.815L354.831 4.1875C354.831 3.8125 354.8 3.27344 354.737 2.57031C357.55 2.60677 359.203 2.625 359.698 2.625L364.019 2.57031C363.92 3.45052 363.862 4.29948 363.847 5.11719H363.362L363.284 4.09375C363.253 3.73958 363.209 3.53125 363.151 3.46875C363.094 3.40104 362.966 3.35938 362.769 3.34375C362.196 3.30208 361.545 3.28125 360.815 3.28125H360.206ZM375.784 3.09375C375.638 3.63542 375.56 4.35417 375.55 5.25H375.011V4.625C375.011 4.21875 374.956 3.94271 374.847 3.79688C374.737 3.65104 374.451 3.4974 373.987 3.33594C373.529 3.16927 373.045 3.08594 372.534 3.08594C371.701 3.08594 371.045 3.29688 370.565 3.71875C370.091 4.14062 369.854 4.68229 369.854 5.34375C369.854 5.76042 369.951 6.11979 370.144 6.42188C370.341 6.71875 370.604 6.9349 370.933 7.07031C371.266 7.20052 371.969 7.3151 373.042 7.41406C374.115 7.51823 374.839 7.65625 375.214 7.82812C375.594 8 375.896 8.27604 376.12 8.65625C376.349 9.03646 376.464 9.48698 376.464 10.0078C376.464 11.0547 376.026 11.9557 375.151 12.7109C374.276 13.4661 373.11 13.8438 371.651 13.8438C371.151 13.8438 370.646 13.7917 370.136 13.6875C369.631 13.5885 369.12 13.4401 368.604 13.2422C368.698 12.6172 368.743 11.8151 368.737 10.8359H369.269V11.2266C369.269 11.7318 369.295 12.0443 369.347 12.1641C369.399 12.2839 369.521 12.4115 369.714 12.5469C370 12.75 370.341 12.9062 370.737 13.0156C371.133 13.1198 371.56 13.1719 372.019 13.1719C373.003 13.1719 373.763 12.9401 374.3 12.4766C374.836 12.013 375.104 11.4245 375.104 10.7109C375.104 10.2943 375.013 9.94271 374.831 9.65625C374.649 9.36458 374.394 9.14844 374.065 9.00781C373.737 8.86719 373.131 8.76042 372.245 8.6875C371.068 8.59375 370.269 8.45312 369.847 8.26562C369.425 8.07812 369.094 7.78385 368.854 7.38281C368.615 6.97656 368.495 6.47396 368.495 5.875C368.495 4.85938 368.862 4.02865 369.597 3.38281C370.331 2.73698 371.347 2.41406 372.644 2.41406C373.164 2.41406 373.685 2.47135 374.206 2.58594C374.732 2.69531 375.258 2.86458 375.784 3.09375ZM380.237 8.38281V10.2969L380.245 11.3984C380.245 12.0859 380.253 12.5885 380.269 12.9062C381.029 12.9635 381.844 12.9922 382.714 12.9922C383.297 12.9922 383.787 12.9661 384.183 12.9141C384.438 12.8828 384.709 12.8151 384.995 12.7109C385.125 12.2526 385.258 11.6797 385.394 10.9922H385.917C385.776 12.1328 385.706 12.8932 385.706 13.2734L385.722 13.625C385.123 13.6823 384.534 13.7109 383.956 13.7109L382.729 13.6875C381.375 13.651 380.381 13.6328 379.745 13.6328C379.136 13.6328 378.326 13.651 377.315 13.6875V13.1953H377.558C378.011 13.1953 378.295 13.151 378.409 13.0625C378.529 12.974 378.607 12.7656 378.644 12.4375C378.685 12.1094 378.706 11.3854 378.706 10.2656V5.97656C378.706 5.27344 378.688 4.69792 378.651 4.25C378.62 3.80208 378.584 3.53646 378.542 3.45312C378.506 3.36458 378.451 3.29688 378.378 3.25C378.305 3.20312 378.081 3.16146 377.706 3.125L377.104 3.0625V2.57812H377.948L378.776 2.60156C379.24 2.61719 379.591 2.625 379.831 2.625L382.831 2.58594L384.253 2.57812C384.737 2.57292 385.227 2.59375 385.722 2.64062C385.524 3.25521 385.414 4.05469 385.394 5.03906H384.862C384.862 4.46615 384.834 3.98958 384.776 3.60938C384.162 3.38021 383.407 3.26562 382.511 3.26562C381.797 3.26562 381.05 3.29688 380.269 3.35938C380.274 3.84896 380.269 4.33854 380.253 4.82812L380.237 6.03125V7.61719C380.753 7.64844 381.209 7.66406 381.604 7.66406C382.844 7.66406 383.545 7.6224 383.706 7.53906C383.873 7.45052 383.956 7.18229 383.956 6.73438V6.22656H384.487C384.451 7.01302 384.433 7.64062 384.433 8.10938C384.433 8.60417 384.451 9.1875 384.487 9.85938H383.956V9.40625C383.956 8.90625 383.857 8.60156 383.659 8.49219C383.466 8.3776 382.779 8.32031 381.597 8.32031C381.159 8.32031 380.706 8.34115 380.237 8.38281ZM389.94 12.9219C390.451 12.9479 390.948 12.9609 391.433 12.9609C392.412 12.9609 393.177 12.9349 393.729 12.8828C394.115 12.8411 394.513 12.7656 394.925 12.6562L395.394 10.8203H395.901C395.771 11.8047 395.67 12.724 395.597 13.5781C395.128 13.6562 394.487 13.6953 393.675 13.6953L389.956 13.6328C389.456 13.6328 388.677 13.6615 387.62 13.7188V13.3047C388.037 13.1224 388.282 12.9271 388.354 12.7188C388.433 12.5104 388.472 11.6849 388.472 10.2422V5.94531C388.472 4.38281 388.433 3.51302 388.354 3.33594C388.282 3.15365 388.071 3.0625 387.722 3.0625H386.87V2.57031C388.11 2.60677 388.933 2.625 389.339 2.625C389.881 2.625 390.615 2.60677 391.542 2.57031V3.0625H390.573C390.297 3.0625 390.123 3.14323 390.05 3.30469C389.977 3.46094 389.94 4.11979 389.94 5.28125V10.2578L389.964 12.4609L389.94 12.9219ZM399.722 12.9219C400.232 12.9479 400.729 12.9609 401.214 12.9609C402.193 12.9609 402.959 12.9349 403.511 12.8828C403.896 12.8411 404.295 12.7656 404.706 12.6562L405.175 10.8203H405.683C405.552 11.8047 405.451 12.724 405.378 13.5781C404.909 13.6562 404.269 13.6953 403.456 13.6953L399.737 13.6328C399.237 13.6328 398.459 13.6615 397.401 13.7188V13.3047C397.818 13.1224 398.063 12.9271 398.136 12.7188C398.214 12.5104 398.253 11.6849 398.253 10.2422V5.94531C398.253 4.38281 398.214 3.51302 398.136 3.33594C398.063 3.15365 397.852 3.0625 397.503 3.0625H396.651V2.57031C397.891 2.60677 398.714 2.625 399.12 2.625C399.662 2.625 400.396 2.60677 401.323 2.57031V3.0625H400.354C400.078 3.0625 399.904 3.14323 399.831 3.30469C399.758 3.46094 399.722 4.11979 399.722 5.28125V10.2578L399.745 12.4609L399.722 12.9219ZM409.581 8.38281V10.2969L409.589 11.3984C409.589 12.0859 409.597 12.5885 409.612 12.9062C410.373 12.9635 411.188 12.9922 412.058 12.9922C412.641 12.9922 413.131 12.9661 413.526 12.9141C413.782 12.8828 414.052 12.8151 414.339 12.7109C414.469 12.2526 414.602 11.6797 414.737 10.9922H415.261C415.12 12.1328 415.05 12.8932 415.05 13.2734L415.065 13.625C414.466 13.6823 413.878 13.7109 413.3 13.7109L412.073 13.6875C410.719 13.651 409.724 13.6328 409.089 13.6328C408.479 13.6328 407.67 13.651 406.659 13.6875V13.1953H406.901C407.354 13.1953 407.638 13.151 407.753 13.0625C407.873 12.974 407.951 12.7656 407.987 12.4375C408.029 12.1094 408.05 11.3854 408.05 10.2656V5.97656C408.05 5.27344 408.032 4.69792 407.995 4.25C407.964 3.80208 407.927 3.53646 407.886 3.45312C407.849 3.36458 407.795 3.29688 407.722 3.25C407.649 3.20312 407.425 3.16146 407.05 3.125L406.448 3.0625V2.57812H407.292L408.12 2.60156C408.584 2.61719 408.935 2.625 409.175 2.625L412.175 2.58594L413.597 2.57812C414.081 2.57292 414.571 2.59375 415.065 2.64062C414.868 3.25521 414.758 4.05469 414.737 5.03906H414.206C414.206 4.46615 414.177 3.98958 414.12 3.60938C413.506 3.38021 412.75 3.26562 411.854 3.26562C411.141 3.26562 410.394 3.29688 409.612 3.35938C409.618 3.84896 409.612 4.33854 409.597 4.82812L409.581 6.03125V7.61719C410.097 7.64844 410.552 7.66406 410.948 7.66406C412.188 7.66406 412.888 7.6224 413.05 7.53906C413.216 7.45052 413.3 7.18229 413.3 6.73438V6.22656H413.831C413.795 7.01302 413.776 7.64062 413.776 8.10938C413.776 8.60417 413.795 9.1875 413.831 9.85938H413.3V9.40625C413.3 8.90625 413.201 8.60156 413.003 8.49219C412.81 8.3776 412.123 8.32031 410.94 8.32031C410.503 8.32031 410.05 8.34115 409.581 8.38281ZM421.979 8.04688C422.49 8.78125 423.123 9.63542 423.878 10.6094L425.378 12.5547C425.644 12.888 425.821 13.0781 425.909 13.125C425.998 13.1719 426.089 13.1953 426.183 13.1953H426.386V13.6875C425.953 13.651 425.576 13.6328 425.253 13.6328C424.956 13.6328 424.644 13.651 424.315 13.6875L421.55 9.95312C421.034 9.26562 420.482 8.59375 419.894 7.9375L419.972 7.67188C420.274 7.69792 420.498 7.71094 420.644 7.71094C421.513 7.71094 422.193 7.48698 422.683 7.03906C423.177 6.59115 423.425 5.99219 423.425 5.24219C423.425 4.57031 423.216 4.04688 422.8 3.67188C422.383 3.29167 421.782 3.10156 420.995 3.10156C420.448 3.10156 419.899 3.20312 419.347 3.40625C419.284 4.23438 419.253 5.11979 419.253 6.0625V9.83594C419.253 11.6745 419.297 12.6953 419.386 12.8984C419.474 13.0964 419.761 13.1953 420.245 13.1953H420.854V13.6875C419.99 13.651 419.274 13.6328 418.706 13.6328C418.258 13.6328 417.448 13.651 416.276 13.6875V13.1953H416.862C417.31 13.1953 417.576 13.099 417.659 12.9062C417.743 12.7083 417.784 11.6797 417.784 9.82031V6.0625C417.784 4.44792 417.735 3.54427 417.636 3.35156C417.542 3.15885 417.229 3.0625 416.698 3.0625H416.276V2.5625C417.245 2.60417 417.985 2.625 418.495 2.625C418.839 2.625 419.334 2.61198 419.979 2.58594C420.729 2.5599 421.269 2.54688 421.597 2.54688C422.498 2.54688 423.18 2.64323 423.644 2.83594C424.112 3.02344 424.466 3.29688 424.706 3.65625C424.951 4.01562 425.073 4.44531 425.073 4.94531C425.073 5.67969 424.808 6.32812 424.276 6.89062C423.75 7.45312 422.985 7.83854 421.979 8.04688Z" fill="#A18168"/>
<path d="M250.927 9.07031C250.927 10.5431 252.121 11.737 253.594 11.737C255.067 11.737 256.26 10.5431 256.26 9.07031C256.26 7.59755 255.067 6.40365 253.594 6.40365C252.121 6.40365 250.927 7.59755 250.927 9.07031ZM302.018 9.57031C302.294 9.57031 302.518 9.34645 302.518 9.07031C302.518 8.79417 302.294 8.57031 302.018 8.57031V9.57031ZM253.594 9.57031H302.018V8.57031H253.594V9.57031Z" fill="#A18168"/>
<path d="M450.777 8.57031C450.501 8.57031 450.277 8.79417 450.277 9.07031C450.277 9.34645 450.501 9.57031 450.777 9.57031V8.57031ZM496.535 9.07031C496.535 10.5431 497.728 11.737 499.201 11.737C500.674 11.737 501.868 10.5431 501.868 9.07031C501.868 7.59755 500.674 6.40365 499.201 6.40365C497.728 6.40365 496.535 7.59755 496.535 9.07031ZM450.777 9.57031H499.201V8.57031H450.777V9.57031Z" fill="#A18168"/>
</svg>
