<svg width="754" height="29" viewBox="0 0 754 29" fill="none" xmlns="http://www.w3.org/2000/svg">
<path d="M329.96 5.29688L329.897 3.90625C329.434 3.59896 328.947 3.36979 328.437 3.21875C327.931 3.06771 327.403 2.99219 326.851 2.99219C325.444 2.99219 324.317 3.41927 323.468 4.27344C322.624 5.1276 322.202 6.27083 322.202 7.70312C322.202 8.70833 322.416 9.60417 322.843 10.3906C323.275 11.1771 323.887 11.7995 324.679 12.2578C325.47 12.7161 326.306 12.9453 327.187 12.9453C327.884 12.9453 328.575 12.8646 329.257 12.7031C329.767 12.5833 330.28 12.3333 330.796 11.9531L330.96 12.1094C330.851 12.349 330.749 12.5911 330.655 12.8359C330.046 13.138 329.431 13.3672 328.812 13.5234C328.197 13.6745 327.577 13.75 326.952 13.75C325.671 13.75 324.543 13.5026 323.569 13.0078C322.601 12.513 321.856 11.8307 321.335 10.9609C320.814 10.0859 320.554 9.09896 320.554 8C320.554 6.90104 320.817 5.91927 321.343 5.05469C321.869 4.1849 322.611 3.51302 323.569 3.03906C324.533 2.5599 325.715 2.32031 327.116 2.32031C327.851 2.32031 328.71 2.4401 329.694 2.67969C330.184 2.79427 330.582 2.88021 330.89 2.9375C330.655 3.49479 330.52 4.28125 330.483 5.29688H329.96ZM331.624 8.03125C331.624 6.31771 332.176 4.9375 333.28 3.89062C334.384 2.84375 335.856 2.32031 337.694 2.32031C339.496 2.32031 340.908 2.80729 341.929 3.78125C342.955 4.75 343.468 6.03906 343.468 7.64844C343.468 9.38281 342.874 10.8333 341.687 12C340.499 13.1667 339.002 13.75 337.194 13.75C336.064 13.75 335.09 13.5208 334.272 13.0625C333.455 12.6042 332.809 11.9349 332.335 11.0547C331.861 10.1745 331.624 9.16667 331.624 8.03125ZM333.21 7.39062C333.21 8.56771 333.41 9.59375 333.812 10.4688C334.218 11.3385 334.759 11.9922 335.437 12.4297C336.114 12.862 336.887 13.0781 337.757 13.0781C338.564 13.0781 339.27 12.8932 339.874 12.5234C340.478 12.1536 340.952 11.6016 341.296 10.8672C341.645 10.1328 341.819 9.23958 341.819 8.1875C341.819 7.08333 341.627 6.14062 341.241 5.35938C340.861 4.57292 340.338 3.98177 339.671 3.58594C339.004 3.1901 338.215 2.99219 337.304 2.99219C336.47 2.99219 335.752 3.16667 335.147 3.51562C334.543 3.86458 334.069 4.3776 333.726 5.05469C333.382 5.72656 333.21 6.50521 333.21 7.39062ZM347.304 12.8281C347.814 12.8542 348.312 12.8672 348.796 12.8672C349.775 12.8672 350.541 12.8411 351.093 12.7891C351.478 12.7474 351.877 12.6719 352.288 12.5625L352.757 10.7266H353.265C353.134 11.7109 353.033 12.6302 352.96 13.4844C352.491 13.5625 351.851 13.6016 351.038 13.6016L347.319 13.5391C346.819 13.5391 346.041 13.5677 344.983 13.625V13.2109C345.4 13.0286 345.645 12.8333 345.718 12.625C345.796 12.4167 345.835 11.5911 345.835 10.1484V5.85156C345.835 4.28906 345.796 3.41927 345.718 3.24219C345.645 3.0599 345.434 2.96875 345.085 2.96875H344.233V2.47656C345.473 2.51302 346.296 2.53125 346.702 2.53125C347.244 2.53125 347.978 2.51302 348.905 2.47656V2.96875H347.937C347.66 2.96875 347.486 3.04948 347.413 3.21094C347.34 3.36719 347.304 4.02604 347.304 5.1875V10.1641L347.327 12.3672L347.304 12.8281ZM357.085 12.8281C357.595 12.8542 358.093 12.8672 358.577 12.8672C359.556 12.8672 360.322 12.8411 360.874 12.7891C361.259 12.7474 361.658 12.6719 362.069 12.5625L362.538 10.7266H363.046C362.916 11.7109 362.814 12.6302 362.741 13.4844C362.272 13.5625 361.632 13.6016 360.819 13.6016L357.101 13.5391C356.601 13.5391 355.822 13.5677 354.765 13.625V13.2109C355.181 13.0286 355.426 12.8333 355.499 12.625C355.577 12.4167 355.616 11.5911 355.616 10.1484V5.85156C355.616 4.28906 355.577 3.41927 355.499 3.24219C355.426 3.0599 355.215 2.96875 354.866 2.96875H354.015V2.47656C355.254 2.51302 356.077 2.53125 356.483 2.53125C357.025 2.53125 357.759 2.51302 358.687 2.47656V2.96875H357.718C357.442 2.96875 357.267 3.04948 357.194 3.21094C357.121 3.36719 357.085 4.02604 357.085 5.1875V10.1641L357.108 12.3672L357.085 12.8281ZM366.944 8.28906V10.2031L366.952 11.3047C366.952 11.9922 366.96 12.4948 366.976 12.8125C367.736 12.8698 368.551 12.8984 369.421 12.8984C370.004 12.8984 370.494 12.8724 370.89 12.8203C371.145 12.7891 371.416 12.7214 371.702 12.6172C371.832 12.1589 371.965 11.5859 372.101 10.8984H372.624C372.483 12.0391 372.413 12.7995 372.413 13.1797L372.429 13.5312C371.83 13.5885 371.241 13.6172 370.663 13.6172L369.437 13.5938C368.082 13.5573 367.088 13.5391 366.452 13.5391C365.843 13.5391 365.033 13.5573 364.022 13.5938V13.1016H364.265C364.718 13.1016 365.002 13.0573 365.116 12.9688C365.236 12.8802 365.314 12.6719 365.351 12.3438C365.392 12.0156 365.413 11.2917 365.413 10.1719V5.88281C365.413 5.17969 365.395 4.60417 365.358 4.15625C365.327 3.70833 365.291 3.44271 365.249 3.35938C365.213 3.27083 365.158 3.20312 365.085 3.15625C365.012 3.10938 364.788 3.06771 364.413 3.03125L363.812 2.96875V2.48438H364.655L365.483 2.50781C365.947 2.52344 366.299 2.53125 366.538 2.53125L369.538 2.49219L370.96 2.48438C371.444 2.47917 371.934 2.5 372.429 2.54688C372.231 3.16146 372.121 3.96094 372.101 4.94531H371.569C371.569 4.3724 371.541 3.89583 371.483 3.51562C370.869 3.28646 370.114 3.17188 369.218 3.17188C368.504 3.17188 367.757 3.20312 366.976 3.26562C366.981 3.75521 366.976 4.24479 366.96 4.73438L366.944 5.9375V7.52344C367.46 7.55469 367.916 7.57031 368.312 7.57031C369.551 7.57031 370.252 7.52865 370.413 7.44531C370.58 7.35677 370.663 7.08854 370.663 6.64062V6.13281H371.194C371.158 6.91927 371.14 7.54688 371.14 8.01562C371.14 8.51042 371.158 9.09375 371.194 9.76562H370.663V9.3125C370.663 8.8125 370.564 8.50781 370.366 8.39844C370.174 8.28385 369.486 8.22656 368.304 8.22656C367.866 8.22656 367.413 8.2474 366.944 8.28906ZM383.226 5.29688L383.163 3.90625C382.7 3.59896 382.213 3.36979 381.702 3.21875C381.197 3.06771 380.668 2.99219 380.116 2.99219C378.71 2.99219 377.582 3.41927 376.733 4.27344C375.89 5.1276 375.468 6.27083 375.468 7.70312C375.468 8.70833 375.681 9.60417 376.108 10.3906C376.541 11.1771 377.153 11.7995 377.944 12.2578C378.736 12.7161 379.572 12.9453 380.452 12.9453C381.15 12.9453 381.84 12.8646 382.522 12.7031C383.033 12.5833 383.546 12.3333 384.062 11.9531L384.226 12.1094C384.116 12.349 384.015 12.5911 383.921 12.8359C383.312 13.138 382.697 13.3672 382.077 13.5234C381.463 13.6745 380.843 13.75 380.218 13.75C378.937 13.75 377.809 13.5026 376.835 13.0078C375.866 12.513 375.121 11.8307 374.601 10.9609C374.08 10.0859 373.819 9.09896 373.819 8C373.819 6.90104 374.082 5.91927 374.608 5.05469C375.134 4.1849 375.877 3.51302 376.835 3.03906C377.799 2.5599 378.981 2.32031 380.382 2.32031C381.116 2.32031 381.976 2.4401 382.96 2.67969C383.45 2.79427 383.848 2.88021 384.155 2.9375C383.921 3.49479 383.785 4.28125 383.749 5.29688H383.226ZM390.257 3.1875C390.2 3.96875 390.171 4.79167 390.171 5.65625V10.1094C390.171 11.7656 390.213 12.6797 390.296 12.8516C390.379 13.0182 390.676 13.1016 391.187 13.1016H391.772V13.5938C390.851 13.5573 390.069 13.5391 389.429 13.5391C388.783 13.5391 388.007 13.5573 387.101 13.5938V13.1016H387.757C388.101 13.1016 388.325 13.0573 388.429 12.9688C388.533 12.875 388.598 12.6953 388.624 12.4297C388.676 11.8203 388.702 11.0339 388.702 10.0703V5.60938C388.702 4.72917 388.684 3.92188 388.647 3.1875H387.851C386.564 3.1875 385.856 3.21875 385.726 3.28125C385.595 3.33854 385.509 3.57031 385.468 3.97656L385.358 5.02344H384.866L384.882 4.09375C384.882 3.71875 384.851 3.17969 384.788 2.47656C387.601 2.51302 389.254 2.53125 389.749 2.53125L394.069 2.47656C393.97 3.35677 393.913 4.20573 393.897 5.02344H393.413L393.335 4C393.304 3.64583 393.259 3.4375 393.202 3.375C393.145 3.30729 393.017 3.26562 392.819 3.25C392.246 3.20833 391.595 3.1875 390.866 3.1875H390.257ZM394.812 13.1016H395.304C395.788 13.1016 396.077 12.9844 396.171 12.75C396.27 12.5156 396.319 11.3932 396.319 9.38281V6.73438C396.319 4.65104 396.278 3.5026 396.194 3.28906C396.111 3.07552 395.861 2.96875 395.444 2.96875H394.812V2.47656C395.676 2.51302 396.53 2.53125 397.374 2.53125C398.077 2.53125 398.715 2.51302 399.288 2.47656V2.96875H398.687C398.317 2.96875 398.085 3.01302 397.991 3.10156C397.897 3.1901 397.843 3.41406 397.827 3.77344C397.801 4.33073 397.788 5.32292 397.788 6.75V9.44531C397.788 11.4714 397.832 12.5885 397.921 12.7969C398.009 13 398.293 13.1016 398.772 13.1016H399.288V13.5938C398.647 13.5573 397.95 13.5391 397.194 13.5391C396.314 13.5391 395.52 13.5573 394.812 13.5938V13.1016ZM400.093 8.03125C400.093 6.31771 400.645 4.9375 401.749 3.89062C402.853 2.84375 404.325 2.32031 406.163 2.32031C407.965 2.32031 409.377 2.80729 410.397 3.78125C411.424 4.75 411.937 6.03906 411.937 7.64844C411.937 9.38281 411.343 10.8333 410.155 12C408.968 13.1667 407.47 13.75 405.663 13.75C404.533 13.75 403.559 13.5208 402.741 13.0625C401.924 12.6042 401.278 11.9349 400.804 11.0547C400.33 10.1745 400.093 9.16667 400.093 8.03125ZM401.679 7.39062C401.679 8.56771 401.879 9.59375 402.28 10.4688C402.687 11.3385 403.228 11.9922 403.905 12.4297C404.582 12.862 405.356 13.0781 406.226 13.0781C407.033 13.0781 407.739 12.8932 408.343 12.5234C408.947 12.1536 409.421 11.6016 409.765 10.8672C410.114 10.1328 410.288 9.23958 410.288 8.1875C410.288 7.08333 410.095 6.14062 409.71 5.35938C409.33 4.57292 408.806 3.98177 408.14 3.58594C407.473 3.1901 406.684 2.99219 405.772 2.99219C404.939 2.99219 404.22 3.16667 403.616 3.51562C403.012 3.86458 402.538 4.3776 402.194 5.05469C401.851 5.72656 401.679 6.50521 401.679 7.39062ZM414.882 4.24219V9.64062C414.882 10.8698 414.905 11.7266 414.952 12.2109C414.989 12.5807 415.049 12.8073 415.132 12.8906C415.22 12.9688 415.47 13.026 415.882 13.0625L416.382 13.1016V13.5938C415.814 13.5573 415.301 13.5391 414.843 13.5391C414.525 13.5391 413.796 13.5573 412.655 13.5938V13.1016H413.218C413.556 13.1016 413.778 13.0547 413.882 12.9609C413.986 12.8672 414.051 12.6823 414.077 12.4062C414.134 11.8333 414.163 11.0547 414.163 10.0703V6.1875C414.163 5.45833 414.155 4.73698 414.14 4.02344C414.129 3.72135 414.088 3.51562 414.015 3.40625C413.947 3.29167 413.845 3.1901 413.71 3.10156C413.575 3.01302 413.384 2.96875 413.14 2.96875H412.655V2.47656C413.317 2.51302 413.822 2.53125 414.171 2.53125C414.546 2.53125 414.957 2.51302 415.405 2.47656C415.921 3.10677 416.405 3.72135 416.858 4.32031C417.317 4.91406 417.791 5.51302 418.28 6.11719L420.952 9.39844C421.916 10.5755 422.611 11.3932 423.038 11.8516V6.83594C423.038 4.73698 422.999 3.59115 422.921 3.39844C422.848 3.20052 422.549 3.07552 422.022 3.02344L421.437 2.96875V2.47656C422.275 2.51302 422.926 2.53125 423.39 2.53125C423.874 2.53125 424.499 2.51302 425.265 2.47656V2.96875H424.663C424.179 2.96875 423.9 3.13021 423.827 3.45312C423.78 3.66667 423.757 4.80729 423.757 6.875V10.3984C423.757 11.3464 423.799 12.4792 423.882 13.7969C423.174 13.6875 422.762 13.6068 422.647 13.5547C422.533 13.5078 422.424 13.4271 422.319 13.3125C421.741 12.6719 421.134 11.9609 420.499 11.1797L414.882 4.24219ZM433.101 3C432.955 3.54167 432.877 4.26042 432.866 5.15625H432.327V4.53125C432.327 4.125 432.272 3.84896 432.163 3.70312C432.054 3.55729 431.767 3.40365 431.304 3.24219C430.845 3.07552 430.361 2.99219 429.851 2.99219C429.017 2.99219 428.361 3.20312 427.882 3.625C427.408 4.04688 427.171 4.58854 427.171 5.25C427.171 5.66667 427.267 6.02604 427.46 6.32812C427.658 6.625 427.921 6.84115 428.249 6.97656C428.582 7.10677 429.285 7.22135 430.358 7.32031C431.431 7.42448 432.155 7.5625 432.53 7.73438C432.91 7.90625 433.213 8.18229 433.437 8.5625C433.666 8.94271 433.78 9.39323 433.78 9.91406C433.78 10.9609 433.343 11.862 432.468 12.6172C431.593 13.3724 430.426 13.75 428.968 13.75C428.468 13.75 427.963 13.6979 427.452 13.5938C426.947 13.4948 426.437 13.3464 425.921 13.1484C426.015 12.5234 426.059 11.7214 426.054 10.7422H426.585V11.1328C426.585 11.638 426.611 11.9505 426.663 12.0703C426.715 12.1901 426.838 12.3177 427.03 12.4531C427.317 12.6562 427.658 12.8125 428.054 12.9219C428.45 13.026 428.877 13.0781 429.335 13.0781C430.319 13.0781 431.08 12.8464 431.616 12.3828C432.153 11.9193 432.421 11.3307 432.421 10.6172C432.421 10.2005 432.33 9.84896 432.147 9.5625C431.965 9.27083 431.71 9.05469 431.382 8.91406C431.054 8.77344 430.447 8.66667 429.562 8.59375C428.384 8.5 427.585 8.35938 427.163 8.17188C426.741 7.98438 426.41 7.6901 426.171 7.28906C425.931 6.88281 425.812 6.38021 425.812 5.78125C425.812 4.76562 426.179 3.9349 426.913 3.28906C427.647 2.64323 428.663 2.32031 429.96 2.32031C430.481 2.32031 431.002 2.3776 431.522 2.49219C432.049 2.60156 432.575 2.77083 433.101 3Z" fill="#A18168"/>
<path d="M251.384 8.97656C251.384 10.4493 252.578 11.6432 254.051 11.6432C255.524 11.6432 256.717 10.4493 256.717 8.97656C256.717 7.5038 255.524 6.3099 254.051 6.3099C252.578 6.3099 251.384 7.5038 251.384 8.97656ZM302.475 9.47656C302.751 9.47656 302.975 9.2527 302.975 8.97656C302.975 8.70042 302.751 8.47656 302.475 8.47656V9.47656ZM254.051 9.47656H302.475V8.47656H254.051V9.47656Z" fill="#A18168"/>
<path d="M451.234 8.47656C450.958 8.47656 450.734 8.70042 450.734 8.97656C450.734 9.2527 450.958 9.47656 451.234 9.47656V8.47656ZM496.992 8.97656C496.992 10.4493 498.185 11.6432 499.658 11.6432C501.131 11.6432 502.325 10.4493 502.325 8.97656C502.325 7.5038 501.131 6.3099 499.658 6.3099C498.185 6.3099 496.992 7.5038 496.992 8.97656ZM451.234 9.47656H499.658V8.47656H451.234V9.47656Z" fill="#A18168"/>
</svg>
