<svg width="7" height="11" viewBox="0 0 7 11" fill="none" xmlns="http://www.w3.org/2000/svg">
<path d="M3.75295 10.6562C3.65443 10.6562 3.55628 10.6562 3.45775 10.6562C3.28432 10.5688 3.10388 10.4928 2.94078 10.3891C2.85443 10.3341 2.79908 10.3312 2.71163 10.3762C2.29797 10.5887 1.89391 10.5481 1.5441 10.2533C1.37546 10.1109 1.22528 10.0839 1.01901 10.1153C0.583582 10.1817 0.273988 9.98356 0.136719 9.58614C0.136719 9.45072 0.136719 9.31566 0.136719 9.18023C0.14373 9.10754 0.150372 9.03485 0.157752 8.96252C0.192438 8.61492 0.195021 8.26031 0.268084 7.92083C0.553693 6.59204 1.14853 5.43005 2.16366 4.49979C2.59576 4.10385 2.61605 3.92562 2.38432 3.3961C2.25148 3.09278 2.13266 2.78393 2.00941 2.47655C1.91532 2.24223 1.90831 1.98614 2.09908 1.82525C2.32417 1.63559 2.32011 1.4164 2.3131 1.17286C2.30831 1.00053 2.31347 0.828206 2.31384 0.65625C2.46144 0.65625 2.60904 0.65625 2.75664 0.65625C2.75664 0.936324 2.75664 1.21677 2.75664 1.51455C3.112 1.53042 3.36845 1.70865 3.5965 1.95108C3.84115 1.68762 4.13081 1.5319 4.49096 1.49131C4.49096 1.2057 4.49096 0.931158 4.49096 0.65625C4.63856 0.65625 4.78617 0.65625 4.93377 0.65625C4.93487 0.938538 4.9334 1.22119 4.93967 1.50348C4.94078 1.55883 4.9548 1.63226 4.99133 1.66584C5.26439 1.91566 5.28063 2.1961 5.12676 2.51529C4.97288 2.83522 4.82712 3.15957 4.68875 3.48688C4.51126 3.90717 4.5762 4.19278 4.90056 4.50127C5.02971 4.62415 5.1596 4.74592 5.28358 4.87322C6.05517 5.66511 6.64816 6.56215 6.86735 7.66437C6.93967 8.02857 6.95738 8.40385 6.99982 8.77433C6.99982 8.93411 6.99982 9.09426 6.99982 9.25404C6.98764 9.32562 6.97362 9.39684 6.96366 9.46916C6.88838 10.0282 6.49318 10.3061 5.99834 10.1467C5.93008 10.1249 5.86292 10.1009 5.79355 10.0773C5.40978 10.5614 4.93746 10.6182 4.40129 10.4002C4.35886 10.3828 4.29613 10.3836 4.2548 10.4027C4.08543 10.4817 3.92011 10.5706 3.75295 10.6562Z" fill="#B86F2A"/>
</svg>
