<svg width="754" height="29" viewBox="0 0 754 29" fill="none" xmlns="http://www.w3.org/2000/svg">
<path d="M285.913 3.04688C285.767 3.58854 285.689 4.30729 285.679 5.20312H285.14V4.57812C285.14 4.17188 285.085 3.89583 284.976 3.75C284.866 3.60417 284.58 3.45052 284.116 3.28906C283.658 3.1224 283.174 3.03906 282.663 3.03906C281.83 3.03906 281.174 3.25 280.694 3.67188C280.22 4.09375 279.983 4.63542 279.983 5.29688C279.983 5.71354 280.08 6.07292 280.272 6.375C280.47 6.67188 280.733 6.88802 281.062 7.02344C281.395 7.15365 282.098 7.26823 283.171 7.36719C284.244 7.47135 284.968 7.60938 285.343 7.78125C285.723 7.95312 286.025 8.22917 286.249 8.60938C286.478 8.98958 286.593 9.4401 286.593 9.96094C286.593 11.0078 286.155 11.9089 285.28 12.6641C284.405 13.4193 283.239 13.7969 281.78 13.7969C281.28 13.7969 280.775 13.7448 280.265 13.6406C279.759 13.5417 279.249 13.3932 278.733 13.1953C278.827 12.5703 278.871 11.7682 278.866 10.7891H279.397V11.1797C279.397 11.6849 279.424 11.9974 279.476 12.1172C279.528 12.237 279.65 12.3646 279.843 12.5C280.129 12.7031 280.47 12.8594 280.866 12.9688C281.262 13.0729 281.689 13.125 282.147 13.125C283.132 13.125 283.892 12.8932 284.429 12.4297C284.965 11.9661 285.233 11.3776 285.233 10.6641C285.233 10.2474 285.142 9.89583 284.96 9.60938C284.778 9.31771 284.522 9.10156 284.194 8.96094C283.866 8.82031 283.259 8.71354 282.374 8.64062C281.197 8.54688 280.397 8.40625 279.976 8.21875C279.554 8.03125 279.223 7.73698 278.983 7.33594C278.744 6.92969 278.624 6.42708 278.624 5.82812C278.624 4.8125 278.991 3.98177 279.726 3.33594C280.46 2.6901 281.476 2.36719 282.772 2.36719C283.293 2.36719 283.814 2.42448 284.335 2.53906C284.861 2.64844 285.387 2.81771 285.913 3.04688ZM287.124 3.01562V2.52344C288.192 2.5599 288.968 2.57812 289.452 2.57812C289.963 2.57812 290.713 2.5599 291.702 2.52344V3.01562H291.132C290.642 3.01562 290.348 3.10938 290.249 3.29688C290.15 3.48438 290.101 4.33333 290.101 5.84375V8.90625C290.101 10.026 290.16 10.8047 290.28 11.2422C290.405 11.6797 290.723 12.0495 291.233 12.3516C291.744 12.6536 292.426 12.8047 293.28 12.8047C294.16 12.8047 294.903 12.6432 295.507 12.3203C295.924 12.0964 296.228 11.75 296.421 11.2812C296.614 10.8073 296.71 9.91146 296.71 8.59375V5.64844C296.71 4.28385 296.647 3.50521 296.522 3.3125C296.403 3.11458 296.067 3.01562 295.515 3.01562H295.108V2.52344C296.187 2.5599 296.871 2.57812 297.163 2.57812C297.637 2.57812 298.226 2.5599 298.929 2.52344V3.01562H298.397C297.986 3.01562 297.72 3.1276 297.601 3.35156C297.486 3.57031 297.429 4.34635 297.429 5.67969V8.60938C297.429 9.94792 297.361 10.8516 297.226 11.3203C297.095 11.7839 296.853 12.2031 296.499 12.5781C296.15 12.9531 295.681 13.25 295.093 13.4688C294.509 13.6875 293.822 13.7969 293.03 13.7969C292.213 13.7969 291.496 13.7005 290.882 13.5078C290.267 13.3099 289.804 13.0677 289.491 12.7812C289.184 12.4948 288.96 12.1458 288.819 11.7344C288.684 11.3177 288.616 10.612 288.616 9.61719L288.632 8.13281V5.75C288.632 4.28125 288.588 3.45833 288.499 3.28125C288.416 3.10417 288.142 3.01562 287.679 3.01562H287.124ZM305.288 7.35156C306.408 7.42448 307.215 7.6849 307.71 8.13281C308.205 8.57552 308.452 9.1901 308.452 9.97656C308.452 10.9714 308.035 11.8307 307.202 12.5547C306.374 13.2734 305.319 13.6328 304.038 13.6328L303.421 13.6172C302.9 13.5964 302.46 13.5859 302.101 13.5859C301.84 13.5859 301.52 13.5964 301.14 13.6172L300.491 13.6406V13.2891C300.814 13.1328 301.004 13.013 301.062 12.9297C301.124 12.8464 301.16 12.7083 301.171 12.5156C301.207 11.8958 301.226 11.1901 301.226 10.3984V5.53125C301.226 4.22917 301.179 3.49219 301.085 3.32031C300.97 3.11719 300.692 3.01562 300.249 3.01562H299.718V2.53125H300.366L301.085 2.55469C301.46 2.57031 301.754 2.57812 301.968 2.57812C302.296 2.57812 302.944 2.5651 303.913 2.53906L305.054 2.51562C305.95 2.51562 306.619 2.67188 307.062 2.98438C307.619 3.38021 307.897 3.9401 307.897 4.66406C307.897 5.25781 307.7 5.77865 307.304 6.22656C306.913 6.67448 306.241 7.04948 305.288 7.35156ZM302.694 7.13281C302.955 7.14844 303.194 7.15625 303.413 7.15625C304.45 7.15625 305.192 6.97396 305.64 6.60938C306.088 6.23958 306.312 5.70833 306.312 5.01562C306.312 4.41667 306.124 3.95833 305.749 3.64062C305.374 3.31771 304.775 3.15625 303.952 3.15625C303.588 3.15625 303.192 3.1901 302.765 3.25781C302.718 3.89323 302.694 4.85417 302.694 6.14062V7.13281ZM302.694 12.8516C303.179 12.9245 303.58 12.9609 303.897 12.9609C304.819 12.9609 305.533 12.7161 306.038 12.2266C306.549 11.7318 306.804 11.0625 306.804 10.2188C306.804 9.65625 306.692 9.19271 306.468 8.82812C306.244 8.45833 305.929 8.1901 305.522 8.02344C305.121 7.85156 304.478 7.76562 303.593 7.76562C303.327 7.76562 303.028 7.77344 302.694 7.78906V10.5625L302.702 11.5469C302.718 11.901 302.726 12.1719 302.726 12.3594C302.726 12.5 302.715 12.6641 302.694 12.8516ZM316.554 3.04688C316.408 3.58854 316.33 4.30729 316.319 5.20312H315.78V4.57812C315.78 4.17188 315.726 3.89583 315.616 3.75C315.507 3.60417 315.22 3.45052 314.757 3.28906C314.299 3.1224 313.814 3.03906 313.304 3.03906C312.47 3.03906 311.814 3.25 311.335 3.67188C310.861 4.09375 310.624 4.63542 310.624 5.29688C310.624 5.71354 310.72 6.07292 310.913 6.375C311.111 6.67188 311.374 6.88802 311.702 7.02344C312.035 7.15365 312.739 7.26823 313.812 7.36719C314.884 7.47135 315.608 7.60938 315.983 7.78125C316.364 7.95312 316.666 8.22917 316.89 8.60938C317.119 8.98958 317.233 9.4401 317.233 9.96094C317.233 11.0078 316.796 11.9089 315.921 12.6641C315.046 13.4193 313.879 13.7969 312.421 13.7969C311.921 13.7969 311.416 13.7448 310.905 13.6406C310.4 13.5417 309.89 13.3932 309.374 13.1953C309.468 12.5703 309.512 11.7682 309.507 10.7891H310.038V11.1797C310.038 11.6849 310.064 11.9974 310.116 12.1172C310.168 12.237 310.291 12.3646 310.483 12.5C310.77 12.7031 311.111 12.8594 311.507 12.9688C311.903 13.0729 312.33 13.125 312.788 13.125C313.772 13.125 314.533 12.8932 315.069 12.4297C315.606 11.9661 315.874 11.3776 315.874 10.6641C315.874 10.2474 315.783 9.89583 315.601 9.60938C315.418 9.31771 315.163 9.10156 314.835 8.96094C314.507 8.82031 313.9 8.71354 313.015 8.64062C311.838 8.54688 311.038 8.40625 310.616 8.21875C310.194 8.03125 309.864 7.73698 309.624 7.33594C309.384 6.92969 309.265 6.42708 309.265 5.82812C309.265 4.8125 309.632 3.98177 310.366 3.33594C311.101 2.6901 312.116 2.36719 313.413 2.36719C313.934 2.36719 314.455 2.42448 314.976 2.53906C315.502 2.64844 316.028 2.81771 316.554 3.04688ZM327.507 5.34375L327.444 3.95312C326.981 3.64583 326.494 3.41667 325.983 3.26562C325.478 3.11458 324.95 3.03906 324.397 3.03906C322.991 3.03906 321.864 3.46615 321.015 4.32031C320.171 5.17448 319.749 6.31771 319.749 7.75C319.749 8.75521 319.963 9.65104 320.39 10.4375C320.822 11.224 321.434 11.8464 322.226 12.3047C323.017 12.763 323.853 12.9922 324.733 12.9922C325.431 12.9922 326.121 12.9115 326.804 12.75C327.314 12.6302 327.827 12.3802 328.343 12L328.507 12.1562C328.397 12.3958 328.296 12.638 328.202 12.8828C327.593 13.1849 326.978 13.4141 326.358 13.5703C325.744 13.7214 325.124 13.7969 324.499 13.7969C323.218 13.7969 322.09 13.5495 321.116 13.0547C320.147 12.5599 319.403 11.8776 318.882 11.0078C318.361 10.1328 318.101 9.14583 318.101 8.04688C318.101 6.94792 318.364 5.96615 318.89 5.10156C319.416 4.23177 320.158 3.5599 321.116 3.08594C322.08 2.60677 323.262 2.36719 324.663 2.36719C325.397 2.36719 326.257 2.48698 327.241 2.72656C327.731 2.84115 328.129 2.92708 328.437 2.98438C328.202 3.54167 328.067 4.32812 328.03 5.34375H327.507ZM334.968 8C335.478 8.73438 336.111 9.58854 336.866 10.5625L338.366 12.5078C338.632 12.8411 338.809 13.0312 338.897 13.0781C338.986 13.125 339.077 13.1484 339.171 13.1484H339.374V13.6406C338.942 13.6042 338.564 13.5859 338.241 13.5859C337.944 13.5859 337.632 13.6042 337.304 13.6406L334.538 9.90625C334.022 9.21875 333.47 8.54688 332.882 7.89062L332.96 7.625C333.262 7.65104 333.486 7.66406 333.632 7.66406C334.502 7.66406 335.181 7.4401 335.671 6.99219C336.166 6.54427 336.413 5.94531 336.413 5.19531C336.413 4.52344 336.205 4 335.788 3.625C335.371 3.24479 334.77 3.05469 333.983 3.05469C333.437 3.05469 332.887 3.15625 332.335 3.35938C332.272 4.1875 332.241 5.07292 332.241 6.01562V9.78906C332.241 11.6276 332.285 12.6484 332.374 12.8516C332.463 13.0495 332.749 13.1484 333.233 13.1484H333.843V13.6406C332.978 13.6042 332.262 13.5859 331.694 13.5859C331.246 13.5859 330.437 13.6042 329.265 13.6406V13.1484H329.851C330.299 13.1484 330.564 13.0521 330.647 12.8594C330.731 12.6615 330.772 11.6328 330.772 9.77344V6.01562C330.772 4.40104 330.723 3.4974 330.624 3.30469C330.53 3.11198 330.218 3.01562 329.687 3.01562H329.265V2.51562C330.233 2.55729 330.973 2.57812 331.483 2.57812C331.827 2.57812 332.322 2.5651 332.968 2.53906C333.718 2.51302 334.257 2.5 334.585 2.5C335.486 2.5 336.168 2.59635 336.632 2.78906C337.101 2.97656 337.455 3.25 337.694 3.60938C337.939 3.96875 338.062 4.39844 338.062 4.89844C338.062 5.63281 337.796 6.28125 337.265 6.84375C336.739 7.40625 335.973 7.79167 334.968 8ZM339.968 13.1484H340.46C340.944 13.1484 341.233 13.0312 341.327 12.7969C341.426 12.5625 341.476 11.4401 341.476 9.42969V6.78125C341.476 4.69792 341.434 3.54948 341.351 3.33594C341.267 3.1224 341.017 3.01562 340.601 3.01562H339.968V2.52344C340.832 2.5599 341.687 2.57812 342.53 2.57812C343.233 2.57812 343.871 2.5599 344.444 2.52344V3.01562H343.843C343.473 3.01562 343.241 3.0599 343.147 3.14844C343.054 3.23698 342.999 3.46094 342.983 3.82031C342.957 4.3776 342.944 5.36979 342.944 6.79688V9.49219C342.944 11.5182 342.989 12.6354 343.077 12.8438C343.166 13.0469 343.45 13.1484 343.929 13.1484H344.444V13.6406C343.804 13.6042 343.106 13.5859 342.351 13.5859C341.47 13.5859 340.676 13.6042 339.968 13.6406V13.1484ZM350.897 7.35156C352.017 7.42448 352.825 7.6849 353.319 8.13281C353.814 8.57552 354.062 9.1901 354.062 9.97656C354.062 10.9714 353.645 11.8307 352.812 12.5547C351.983 13.2734 350.929 13.6328 349.647 13.6328L349.03 13.6172C348.509 13.5964 348.069 13.5859 347.71 13.5859C347.45 13.5859 347.129 13.5964 346.749 13.6172L346.101 13.6406V13.2891C346.424 13.1328 346.614 13.013 346.671 12.9297C346.733 12.8464 346.77 12.7083 346.78 12.5156C346.817 11.8958 346.835 11.1901 346.835 10.3984V5.53125C346.835 4.22917 346.788 3.49219 346.694 3.32031C346.58 3.11719 346.301 3.01562 345.858 3.01562H345.327V2.53125H345.976L346.694 2.55469C347.069 2.57031 347.364 2.57812 347.577 2.57812C347.905 2.57812 348.554 2.5651 349.522 2.53906L350.663 2.51562C351.559 2.51562 352.228 2.67188 352.671 2.98438C353.228 3.38021 353.507 3.9401 353.507 4.66406C353.507 5.25781 353.309 5.77865 352.913 6.22656C352.522 6.67448 351.851 7.04948 350.897 7.35156ZM348.304 7.13281C348.564 7.14844 348.804 7.15625 349.022 7.15625C350.059 7.15625 350.801 6.97396 351.249 6.60938C351.697 6.23958 351.921 5.70833 351.921 5.01562C351.921 4.41667 351.733 3.95833 351.358 3.64062C350.983 3.31771 350.384 3.15625 349.562 3.15625C349.197 3.15625 348.801 3.1901 348.374 3.25781C348.327 3.89323 348.304 4.85417 348.304 6.14062V7.13281ZM348.304 12.8516C348.788 12.9245 349.189 12.9609 349.507 12.9609C350.429 12.9609 351.142 12.7161 351.647 12.2266C352.158 11.7318 352.413 11.0625 352.413 10.2188C352.413 9.65625 352.301 9.19271 352.077 8.82812C351.853 8.45833 351.538 8.1901 351.132 8.02344C350.731 7.85156 350.088 7.76562 349.202 7.76562C348.937 7.76562 348.637 7.77344 348.304 7.78906V10.5625L348.312 11.5469C348.327 11.901 348.335 12.1719 348.335 12.3594C348.335 12.5 348.325 12.6641 348.304 12.8516ZM358.21 8.33594V10.25L358.218 11.3516C358.218 12.0391 358.226 12.5417 358.241 12.8594C359.002 12.9167 359.817 12.9453 360.687 12.9453C361.27 12.9453 361.759 12.9193 362.155 12.8672C362.41 12.8359 362.681 12.7682 362.968 12.6641C363.098 12.2057 363.231 11.6328 363.366 10.9453H363.89C363.749 12.0859 363.679 12.8464 363.679 13.2266L363.694 13.5781C363.095 13.6354 362.507 13.6641 361.929 13.6641L360.702 13.6406C359.348 13.6042 358.353 13.5859 357.718 13.5859C357.108 13.5859 356.299 13.6042 355.288 13.6406V13.1484H355.53C355.983 13.1484 356.267 13.1042 356.382 13.0156C356.502 12.9271 356.58 12.7188 356.616 12.3906C356.658 12.0625 356.679 11.3385 356.679 10.2188V5.92969C356.679 5.22656 356.66 4.65104 356.624 4.20312C356.593 3.75521 356.556 3.48958 356.515 3.40625C356.478 3.31771 356.424 3.25 356.351 3.20312C356.278 3.15625 356.054 3.11458 355.679 3.07812L355.077 3.01562V2.53125H355.921L356.749 2.55469C357.213 2.57031 357.564 2.57812 357.804 2.57812L360.804 2.53906L362.226 2.53125C362.71 2.52604 363.2 2.54688 363.694 2.59375C363.496 3.20833 363.387 4.00781 363.366 4.99219H362.835C362.835 4.41927 362.806 3.94271 362.749 3.5625C362.134 3.33333 361.379 3.21875 360.483 3.21875C359.77 3.21875 359.022 3.25 358.241 3.3125C358.246 3.80208 358.241 4.29167 358.226 4.78125L358.21 5.98438V7.57031C358.726 7.60156 359.181 7.61719 359.577 7.61719C360.817 7.61719 361.517 7.57552 361.679 7.49219C361.845 7.40365 361.929 7.13542 361.929 6.6875V6.17969H362.46C362.424 6.96615 362.405 7.59375 362.405 8.0625C362.405 8.55729 362.424 9.14062 362.46 9.8125H361.929V9.35938C361.929 8.85938 361.83 8.55469 361.632 8.44531C361.439 8.33073 360.752 8.27344 359.569 8.27344C359.132 8.27344 358.679 8.29427 358.21 8.33594ZM371.022 4.28906V9.6875C371.022 10.9167 371.046 11.7734 371.093 12.2578C371.129 12.6276 371.189 12.8542 371.272 12.9375C371.361 13.0156 371.611 13.0729 372.022 13.1094L372.522 13.1484V13.6406C371.955 13.6042 371.442 13.5859 370.983 13.5859C370.666 13.5859 369.937 13.6042 368.796 13.6406V13.1484H369.358C369.697 13.1484 369.918 13.1016 370.022 13.0078C370.127 12.9141 370.192 12.7292 370.218 12.4531C370.275 11.8802 370.304 11.1016 370.304 10.1172V6.23438C370.304 5.50521 370.296 4.78385 370.28 4.07031C370.27 3.76823 370.228 3.5625 370.155 3.45312C370.088 3.33854 369.986 3.23698 369.851 3.14844C369.715 3.0599 369.525 3.01562 369.28 3.01562H368.796V2.52344C369.457 2.5599 369.963 2.57812 370.312 2.57812C370.687 2.57812 371.098 2.5599 371.546 2.52344C372.062 3.15365 372.546 3.76823 372.999 4.36719C373.457 4.96094 373.931 5.5599 374.421 6.16406L377.093 9.44531C378.056 10.6224 378.752 11.4401 379.179 11.8984V6.88281C379.179 4.78385 379.14 3.63802 379.062 3.44531C378.989 3.2474 378.689 3.1224 378.163 3.07031L377.577 3.01562V2.52344C378.416 2.5599 379.067 2.57812 379.53 2.57812C380.015 2.57812 380.64 2.5599 381.405 2.52344V3.01562H380.804C380.319 3.01562 380.041 3.17708 379.968 3.5C379.921 3.71354 379.897 4.85417 379.897 6.92188V10.4453C379.897 11.3932 379.939 12.526 380.022 13.8438C379.314 13.7344 378.903 13.6536 378.788 13.6016C378.674 13.5547 378.564 13.474 378.46 13.3594C377.882 12.7188 377.275 12.0078 376.64 11.2266L371.022 4.28906ZM385.288 8.33594V10.25L385.296 11.3516C385.296 12.0391 385.304 12.5417 385.319 12.8594C386.08 12.9167 386.895 12.9453 387.765 12.9453C388.348 12.9453 388.838 12.9193 389.233 12.8672C389.489 12.8359 389.759 12.7682 390.046 12.6641C390.176 12.2057 390.309 11.6328 390.444 10.9453H390.968C390.827 12.0859 390.757 12.8464 390.757 13.2266L390.772 13.5781C390.174 13.6354 389.585 13.6641 389.007 13.6641L387.78 13.6406C386.426 13.6042 385.431 13.5859 384.796 13.5859C384.187 13.5859 383.377 13.6042 382.366 13.6406V13.1484H382.608C383.062 13.1484 383.345 13.1042 383.46 13.0156C383.58 12.9271 383.658 12.7188 383.694 12.3906C383.736 12.0625 383.757 11.3385 383.757 10.2188V5.92969C383.757 5.22656 383.739 4.65104 383.702 4.20312C383.671 3.75521 383.634 3.48958 383.593 3.40625C383.556 3.31771 383.502 3.25 383.429 3.20312C383.356 3.15625 383.132 3.11458 382.757 3.07812L382.155 3.01562V2.53125H382.999L383.827 2.55469C384.291 2.57031 384.642 2.57812 384.882 2.57812L387.882 2.53906L389.304 2.53125C389.788 2.52604 390.278 2.54688 390.772 2.59375C390.575 3.20833 390.465 4.00781 390.444 4.99219H389.913C389.913 4.41927 389.884 3.94271 389.827 3.5625C389.213 3.33333 388.457 3.21875 387.562 3.21875C386.848 3.21875 386.101 3.25 385.319 3.3125C385.325 3.80208 385.319 4.29167 385.304 4.78125L385.288 5.98438V7.57031C385.804 7.60156 386.259 7.61719 386.655 7.61719C387.895 7.61719 388.595 7.57552 388.757 7.49219C388.924 7.40365 389.007 7.13542 389.007 6.6875V6.17969H389.538C389.502 6.96615 389.483 7.59375 389.483 8.0625C389.483 8.55729 389.502 9.14062 389.538 9.8125H389.007V9.35938C389.007 8.85938 388.908 8.55469 388.71 8.44531C388.517 8.33073 387.83 8.27344 386.647 8.27344C386.21 8.27344 385.757 8.29427 385.288 8.33594ZM396.093 11.2656L397.905 6.79688C398.213 6.03125 398.77 4.57292 399.577 2.42188H400.069C400.377 3.38542 400.791 4.60417 401.312 6.07812L403.194 11.375L404.624 6.42969C404.759 5.95573 404.994 5.04427 405.327 3.69531C405.358 3.57552 405.374 3.47656 405.374 3.39844C405.374 3.30469 405.335 3.23438 405.257 3.1875C405.179 3.14062 404.986 3.10156 404.679 3.07031L403.968 3.01562V2.52344C404.702 2.5599 405.278 2.57812 405.694 2.57812C406.142 2.57812 406.697 2.5599 407.358 2.52344V3.01562H406.952C406.775 3.01562 406.642 3.05729 406.554 3.14062C406.387 3.3125 405.991 4.40625 405.366 6.42188C404.538 9.10938 403.851 11.5573 403.304 13.7656H402.491C402.397 13.4167 402.319 13.1562 402.257 12.9844C402.028 12.3125 401.496 10.8333 400.663 8.54688L399.382 5.03125L397.921 8.57031C397.046 10.6849 396.397 12.4167 395.976 13.7656H395.187L394.772 11.8438C394.658 11.276 394.525 10.6719 394.374 10.0312L393.015 4.1875C392.884 3.61458 392.767 3.27604 392.663 3.17188C392.559 3.06771 392.343 3.01562 392.015 3.01562H391.687V2.52344C392.431 2.5599 393.075 2.57812 393.616 2.57812C394.142 2.57812 394.853 2.5599 395.749 2.52344V3.01562H395.257C394.903 3.01562 394.671 3.04688 394.562 3.10938C394.457 3.17188 394.405 3.27344 394.405 3.41406C394.405 3.4974 394.418 3.59375 394.444 3.70312L394.983 6.29688L396.093 11.2656ZM415.022 3.04688C414.877 3.58854 414.799 4.30729 414.788 5.20312H414.249V4.57812C414.249 4.17188 414.194 3.89583 414.085 3.75C413.976 3.60417 413.689 3.45052 413.226 3.28906C412.767 3.1224 412.283 3.03906 411.772 3.03906C410.939 3.03906 410.283 3.25 409.804 3.67188C409.33 4.09375 409.093 4.63542 409.093 5.29688C409.093 5.71354 409.189 6.07292 409.382 6.375C409.58 6.67188 409.843 6.88802 410.171 7.02344C410.504 7.15365 411.207 7.26823 412.28 7.36719C413.353 7.47135 414.077 7.60938 414.452 7.78125C414.832 7.95312 415.134 8.22917 415.358 8.60938C415.588 8.98958 415.702 9.4401 415.702 9.96094C415.702 11.0078 415.265 11.9089 414.39 12.6641C413.515 13.4193 412.348 13.7969 410.89 13.7969C410.39 13.7969 409.884 13.7448 409.374 13.6406C408.869 13.5417 408.358 13.3932 407.843 13.1953C407.937 12.5703 407.981 11.7682 407.976 10.7891H408.507V11.1797C408.507 11.6849 408.533 11.9974 408.585 12.1172C408.637 12.237 408.759 12.3646 408.952 12.5C409.239 12.7031 409.58 12.8594 409.976 12.9688C410.371 13.0729 410.799 13.125 411.257 13.125C412.241 13.125 413.002 12.8932 413.538 12.4297C414.075 11.9661 414.343 11.3776 414.343 10.6641C414.343 10.2474 414.252 9.89583 414.069 9.60938C413.887 9.31771 413.632 9.10156 413.304 8.96094C412.976 8.82031 412.369 8.71354 411.483 8.64062C410.306 8.54688 409.507 8.40625 409.085 8.21875C408.663 8.03125 408.332 7.73698 408.093 7.33594C407.853 6.92969 407.733 6.42708 407.733 5.82812C407.733 4.8125 408.101 3.98177 408.835 3.33594C409.569 2.6901 410.585 2.36719 411.882 2.36719C412.403 2.36719 412.924 2.42448 413.444 2.53906C413.97 2.64844 414.496 2.81771 415.022 3.04688ZM419.397 12.875C419.908 12.901 420.405 12.9141 420.89 12.9141C421.869 12.9141 422.634 12.888 423.187 12.8359C423.572 12.7943 423.97 12.7188 424.382 12.6094L424.851 10.7734H425.358C425.228 11.7578 425.127 12.6771 425.054 13.5312C424.585 13.6094 423.944 13.6484 423.132 13.6484L419.413 13.5859C418.913 13.5859 418.134 13.6146 417.077 13.6719V13.2578C417.494 13.0755 417.739 12.8802 417.812 12.6719C417.89 12.4635 417.929 11.638 417.929 10.1953V5.89844C417.929 4.33594 417.89 3.46615 417.812 3.28906C417.739 3.10677 417.528 3.01562 417.179 3.01562H416.327V2.52344C417.567 2.5599 418.39 2.57812 418.796 2.57812C419.338 2.57812 420.072 2.5599 420.999 2.52344V3.01562H420.03C419.754 3.01562 419.58 3.09635 419.507 3.25781C419.434 3.41406 419.397 4.07292 419.397 5.23438V10.2109L419.421 12.4141L419.397 12.875ZM429.257 8.33594V10.25L429.265 11.3516C429.265 12.0391 429.272 12.5417 429.288 12.8594C430.049 12.9167 430.864 12.9453 431.733 12.9453C432.317 12.9453 432.806 12.9193 433.202 12.8672C433.457 12.8359 433.728 12.7682 434.015 12.6641C434.145 12.2057 434.278 11.6328 434.413 10.9453H434.937C434.796 12.0859 434.726 12.8464 434.726 13.2266L434.741 13.5781C434.142 13.6354 433.554 13.6641 432.976 13.6641L431.749 13.6406C430.395 13.6042 429.4 13.5859 428.765 13.5859C428.155 13.5859 427.345 13.6042 426.335 13.6406V13.1484H426.577C427.03 13.1484 427.314 13.1042 427.429 13.0156C427.549 12.9271 427.627 12.7188 427.663 12.3906C427.705 12.0625 427.726 11.3385 427.726 10.2188V5.92969C427.726 5.22656 427.707 4.65104 427.671 4.20312C427.64 3.75521 427.603 3.48958 427.562 3.40625C427.525 3.31771 427.47 3.25 427.397 3.20312C427.325 3.15625 427.101 3.11458 426.726 3.07812L426.124 3.01562V2.53125H426.968L427.796 2.55469C428.259 2.57031 428.611 2.57812 428.851 2.57812L431.851 2.53906L433.272 2.53125C433.757 2.52604 434.246 2.54688 434.741 2.59375C434.543 3.20833 434.434 4.00781 434.413 4.99219H433.882C433.882 4.41927 433.853 3.94271 433.796 3.5625C433.181 3.33333 432.426 3.21875 431.53 3.21875C430.817 3.21875 430.069 3.25 429.288 3.3125C429.293 3.80208 429.288 4.29167 429.272 4.78125L429.257 5.98438V7.57031C429.772 7.60156 430.228 7.61719 430.624 7.61719C431.864 7.61719 432.564 7.57552 432.726 7.49219C432.892 7.40365 432.976 7.13542 432.976 6.6875V6.17969H433.507C433.47 6.96615 433.452 7.59375 433.452 8.0625C433.452 8.55729 433.47 9.14062 433.507 9.8125H432.976V9.35938C432.976 8.85938 432.877 8.55469 432.679 8.44531C432.486 8.33073 431.799 8.27344 430.616 8.27344C430.179 8.27344 429.726 8.29427 429.257 8.33594ZM441.226 3.23438C441.168 4.01562 441.14 4.83854 441.14 5.70312V10.1562C441.14 11.8125 441.181 12.7266 441.265 12.8984C441.348 13.0651 441.645 13.1484 442.155 13.1484H442.741V13.6406C441.819 13.6042 441.038 13.5859 440.397 13.5859C439.752 13.5859 438.976 13.6042 438.069 13.6406V13.1484H438.726C439.069 13.1484 439.293 13.1042 439.397 13.0156C439.502 12.9219 439.567 12.7422 439.593 12.4766C439.645 11.8672 439.671 11.0807 439.671 10.1172V5.65625C439.671 4.77604 439.653 3.96875 439.616 3.23438H438.819C437.533 3.23438 436.825 3.26562 436.694 3.32812C436.564 3.38542 436.478 3.61719 436.437 4.02344L436.327 5.07031H435.835L435.851 4.14062C435.851 3.76562 435.819 3.22656 435.757 2.52344C438.569 2.5599 440.223 2.57812 440.718 2.57812L445.038 2.52344C444.939 3.40365 444.882 4.2526 444.866 5.07031H444.382L444.304 4.04688C444.272 3.69271 444.228 3.48438 444.171 3.42188C444.114 3.35417 443.986 3.3125 443.788 3.29688C443.215 3.25521 442.564 3.23438 441.835 3.23438H441.226ZM451.038 3.23438C450.981 4.01562 450.952 4.83854 450.952 5.70312V10.1562C450.952 11.8125 450.994 12.7266 451.077 12.8984C451.16 13.0651 451.457 13.1484 451.968 13.1484H452.554V13.6406C451.632 13.6042 450.851 13.5859 450.21 13.5859C449.564 13.5859 448.788 13.6042 447.882 13.6406V13.1484H448.538C448.882 13.1484 449.106 13.1042 449.21 13.0156C449.314 12.9219 449.379 12.7422 449.405 12.4766C449.457 11.8672 449.483 11.0807 449.483 10.1172V5.65625C449.483 4.77604 449.465 3.96875 449.429 3.23438H448.632C447.345 3.23438 446.637 3.26562 446.507 3.32812C446.377 3.38542 446.291 3.61719 446.249 4.02344L446.14 5.07031H445.647L445.663 4.14062C445.663 3.76562 445.632 3.22656 445.569 2.52344C448.382 2.5599 450.035 2.57812 450.53 2.57812L454.851 2.52344C454.752 3.40365 454.694 4.2526 454.679 5.07031H454.194L454.116 4.04688C454.085 3.69271 454.041 3.48438 453.983 3.42188C453.926 3.35417 453.799 3.3125 453.601 3.29688C453.028 3.25521 452.377 3.23438 451.647 3.23438H451.038ZM458.663 8.33594V10.25L458.671 11.3516C458.671 12.0391 458.679 12.5417 458.694 12.8594C459.455 12.9167 460.27 12.9453 461.14 12.9453C461.723 12.9453 462.213 12.9193 462.608 12.8672C462.864 12.8359 463.134 12.7682 463.421 12.6641C463.551 12.2057 463.684 11.6328 463.819 10.9453H464.343C464.202 12.0859 464.132 12.8464 464.132 13.2266L464.147 13.5781C463.549 13.6354 462.96 13.6641 462.382 13.6641L461.155 13.6406C459.801 13.6042 458.806 13.5859 458.171 13.5859C457.562 13.5859 456.752 13.6042 455.741 13.6406V13.1484H455.983C456.437 13.1484 456.72 13.1042 456.835 13.0156C456.955 12.9271 457.033 12.7188 457.069 12.3906C457.111 12.0625 457.132 11.3385 457.132 10.2188V5.92969C457.132 5.22656 457.114 4.65104 457.077 4.20312C457.046 3.75521 457.009 3.48958 456.968 3.40625C456.931 3.31771 456.877 3.25 456.804 3.20312C456.731 3.15625 456.507 3.11458 456.132 3.07812L455.53 3.01562V2.53125H456.374L457.202 2.55469C457.666 2.57031 458.017 2.57812 458.257 2.57812L461.257 2.53906L462.679 2.53125C463.163 2.52604 463.653 2.54688 464.147 2.59375C463.95 3.20833 463.84 4.00781 463.819 4.99219H463.288C463.288 4.41927 463.259 3.94271 463.202 3.5625C462.588 3.33333 461.832 3.21875 460.937 3.21875C460.223 3.21875 459.476 3.25 458.694 3.3125C458.7 3.80208 458.694 4.29167 458.679 4.78125L458.663 5.98438V7.57031C459.179 7.60156 459.634 7.61719 460.03 7.61719C461.27 7.61719 461.97 7.57552 462.132 7.49219C462.299 7.40365 462.382 7.13542 462.382 6.6875V6.17969H462.913C462.877 6.96615 462.858 7.59375 462.858 8.0625C462.858 8.55729 462.877 9.14062 462.913 9.8125H462.382V9.35938C462.382 8.85938 462.283 8.55469 462.085 8.44531C461.892 8.33073 461.205 8.27344 460.022 8.27344C459.585 8.27344 459.132 8.29427 458.663 8.33594ZM471.062 8C471.572 8.73438 472.205 9.58854 472.96 10.5625L474.46 12.5078C474.726 12.8411 474.903 13.0312 474.991 13.0781C475.08 13.125 475.171 13.1484 475.265 13.1484H475.468V13.6406C475.035 13.6042 474.658 13.5859 474.335 13.5859C474.038 13.5859 473.726 13.6042 473.397 13.6406L470.632 9.90625C470.116 9.21875 469.564 8.54688 468.976 7.89062L469.054 7.625C469.356 7.65104 469.58 7.66406 469.726 7.66406C470.595 7.66406 471.275 7.4401 471.765 6.99219C472.259 6.54427 472.507 5.94531 472.507 5.19531C472.507 4.52344 472.299 4 471.882 3.625C471.465 3.24479 470.864 3.05469 470.077 3.05469C469.53 3.05469 468.981 3.15625 468.429 3.35938C468.366 4.1875 468.335 5.07292 468.335 6.01562V9.78906C468.335 11.6276 468.379 12.6484 468.468 12.8516C468.556 13.0495 468.843 13.1484 469.327 13.1484H469.937V13.6406C469.072 13.6042 468.356 13.5859 467.788 13.5859C467.34 13.5859 466.53 13.6042 465.358 13.6406V13.1484H465.944C466.392 13.1484 466.658 13.0521 466.741 12.8594C466.825 12.6615 466.866 11.6328 466.866 9.77344V6.01562C466.866 4.40104 466.817 3.4974 466.718 3.30469C466.624 3.11198 466.312 3.01562 465.78 3.01562H465.358V2.51562C466.327 2.55729 467.067 2.57812 467.577 2.57812C467.921 2.57812 468.416 2.5651 469.062 2.53906C469.812 2.51302 470.351 2.5 470.679 2.5C471.58 2.5 472.262 2.59635 472.726 2.78906C473.194 2.97656 473.549 3.25 473.788 3.60938C474.033 3.96875 474.155 4.39844 474.155 4.89844C474.155 5.63281 473.89 6.28125 473.358 6.84375C472.832 7.40625 472.067 7.79167 471.062 8Z" fill="#A18168"/>
<path d="M214.423 9.02344C214.423 10.4962 215.617 11.6901 217.09 11.6901C218.563 11.6901 219.757 10.4962 219.757 9.02344C219.757 7.55068 218.563 6.35677 217.09 6.35677C215.617 6.35677 214.423 7.55068 214.423 9.02344ZM265.514 9.52344C265.79 9.52344 266.014 9.29958 266.014 9.02344C266.014 8.7473 265.79 8.52344 265.514 8.52344V9.52344ZM217.09 9.52344H265.514V8.52344H217.09V9.52344Z" fill="#A18168"/>
<path d="M487.273 8.52344C486.997 8.52344 486.773 8.7473 486.773 9.02344C486.773 9.29958 486.997 9.52344 487.273 9.52344V8.52344ZM533.031 9.02344C533.031 10.4962 534.225 11.6901 535.697 11.6901C537.17 11.6901 538.364 10.4962 538.364 9.02344C538.364 7.55068 537.17 6.35677 535.697 6.35677C534.225 6.35677 533.031 7.55068 533.031 9.02344ZM487.273 9.52344H535.697V8.52344H487.273V9.52344Z" fill="#A18168"/>
</svg>
