<svg width="13" height="13" viewBox="0 0 13 13" fill="none" xmlns="http://www.w3.org/2000/svg">
<path d="M0.347656 5.6463C0.454618 5.22755 0.727369 5.05053 1.15201 5.09492C1.66382 5.1484 2.03711 5.0179 2.12001 4.42855C2.14354 4.26115 2.25959 4.10659 2.34355 3.92422C2.1537 3.7456 1.9601 3.56377 1.76757 3.38193C1.43813 3.07121 1.41887 2.78348 1.71462 2.45244C1.95796 2.17969 2.20611 1.91175 2.45907 1.64755C2.73236 1.36197 3.00404 1.34753 3.3046 1.60209C3.50836 1.77484 3.69822 1.96523 3.90786 2.12995C3.96509 2.17487 4.08435 2.1861 4.15494 2.15936C4.44428 2.04759 4.72986 1.92298 5.00689 1.78446C5.0716 1.75237 5.13525 1.64702 5.13685 1.57375C5.14273 1.33416 5.10957 1.09349 5.10957 0.85283C5.11011 0.54799 5.30157 0.31535 5.60427 0.288074C6.04763 0.248499 6.49365 0.229246 6.93808 0.226572C7.2488 0.224967 7.44347 0.435146 7.4654 0.749078C7.48358 1.00685 7.50283 1.26517 7.50444 1.52348C7.50497 1.67911 7.54615 1.75933 7.71087 1.80265C7.93175 1.86041 8.14139 1.95988 8.39489 2.05668C8.12321 2.34601 7.88576 2.61662 7.62477 2.8621C7.5761 2.90756 7.42957 2.87226 7.33704 2.84498C5.8674 2.40965 4.21163 2.9958 3.40942 4.29324C2.64037 5.5372 2.61149 6.84053 3.38696 8.08074C4.17901 9.34823 5.3834 9.87448 6.86321 9.6643C8.92061 9.3723 10.194 7.50315 9.76293 5.45431C9.72763 5.28691 9.74154 5.15535 9.85598 5.01577C10.0736 4.74997 10.2689 4.46652 10.5047 4.14884C10.6069 4.38041 10.7143 4.55851 10.7619 4.75157C10.816 4.97031 10.9283 5.00774 11.1261 4.97886C11.3107 4.95212 11.4994 4.95266 11.6861 4.95105C12.0845 4.94784 12.307 5.16979 12.3289 5.57303C12.3407 5.79391 12.3632 6.01425 12.3808 6.23512C12.3808 6.4667 12.3808 6.6988 12.3808 6.93037C12.2188 7.20687 11.9888 7.34271 11.6572 7.32239C11.4454 7.30955 11.2294 7.33255 11.0176 7.35929C10.9491 7.36784 10.8571 7.42721 10.8309 7.48711C10.6855 7.81869 10.5566 8.15775 10.4175 8.50484C10.6138 8.684 10.8218 8.8653 11.0203 9.05676C11.3064 9.33272 11.3176 9.65896 11.0545 9.95417C10.8769 10.1537 10.6962 10.351 10.5122 10.5457C9.93193 11.1602 9.78539 11.1885 9.19657 10.5911C8.86499 10.2542 8.62432 10.2387 8.18471 10.4221C7.69857 10.6254 7.54829 10.8457 7.60712 11.3586C7.67611 11.964 7.46486 12.1378 6.83914 12.1672C6.5113 12.1827 6.18347 12.2062 5.85563 12.2266C5.8198 12.2266 5.7845 12.2266 5.74867 12.2266C5.38607 12.1062 5.23151 11.8533 5.25986 11.4752C5.26895 11.3516 5.239 11.2243 5.25183 11.1019C5.28553 10.7853 5.16199 10.6232 4.84164 10.5505C4.57958 10.4911 4.30843 10.2333 4.09077 10.2825C3.86775 10.3328 3.70892 10.6537 3.51478 10.8489C3.24791 11.1179 2.91687 11.134 2.63342 10.8858C2.34569 10.6334 2.06385 10.3735 1.78736 10.1087C1.50926 9.84239 1.49856 9.55199 1.75152 9.26159C1.95582 9.02681 2.16867 8.80006 2.36495 8.58346C2.21841 8.22193 2.08524 7.87538 1.93336 7.53738C1.90822 7.48176 1.80019 7.43469 1.73013 7.43363C1.51728 7.43095 1.30389 7.45876 1.0905 7.46357C0.702233 7.47267 0.492589 7.29725 0.432156 6.91593C0.398998 6.70736 0.375466 6.49718 0.347656 6.28807C0.347656 6.07415 0.347656 5.86022 0.347656 5.6463Z" fill="#B86F2A"/>
<path d="M6.41411 6.09298C6.76816 5.58706 7.01524 5.15921 7.33345 4.79287C8.09768 3.91418 8.89562 3.06491 9.67964 2.20333C9.89624 1.96535 10.1412 1.87122 10.4573 2.00973C10.5835 2.06482 10.7289 2.07498 10.9049 2.11456C9.20634 4.08906 7.72492 6.17374 6.52963 8.49961C6.3954 8.2413 6.27827 8.0092 6.15473 7.78083C5.67394 6.89145 5.03217 6.13951 4.23264 5.51914C4.1599 5.46245 4.13637 5.34211 4.08984 5.2512C4.18397 5.20948 4.27489 5.15547 4.37329 5.12926C4.44816 5.10947 4.5348 5.13728 4.61235 5.12284C5.27604 4.9993 5.75791 5.325 6.19217 5.76194C6.27185 5.84216 6.32213 5.9534 6.41411 6.09298Z" fill="#B86F2A"/>
</svg>
