<svg width="35" height="32" viewBox="0 0 35 32" fill="none" xmlns="http://www.w3.org/2000/svg">
<path d="M31.5989 9.33594H3.68596C2.72247 9.33594 1.94141 10.0821 1.94141 11.0026V14.3359C1.94141 15.2564 2.72247 16.0026 3.68596 16.0026H31.5989C32.5624 16.0026 33.3435 15.2564 33.3435 14.3359V11.0026C33.3435 10.0821 32.5624 9.33594 31.5989 9.33594Z" stroke="#A18168" stroke-width="2" stroke-linecap="round" stroke-linejoin="round"/>
<path d="M17.6445 9.33594V31.0026" stroke="#A18168" stroke-width="2" stroke-linecap="round" stroke-linejoin="round"/>
<path d="M29.8535 16V27.6667C29.8535 28.5507 29.4859 29.3986 28.8316 30.0237C28.1772 30.6488 27.2898 31 26.3644 31H8.9188C7.99343 31 7.10596 30.6488 6.45163 30.0237C5.79729 29.3986 5.42969 28.5507 5.42969 27.6667V16" stroke="#A18168" stroke-width="2" stroke-linecap="round" stroke-linejoin="round"/>
<path d="M9.79108 9.33406C8.63437 9.33406 7.52503 8.89508 6.70711 8.11367C5.88919 7.33227 5.42969 6.27246 5.42969 5.1674C5.42969 4.06233 5.88919 3.00252 6.70711 2.22112C7.52503 1.43972 8.63437 1.00073 9.79108 1.00073C11.474 0.972716 13.1232 1.75283 14.5236 3.23933C15.924 4.72583 17.0105 6.84974 17.6416 9.33406C18.2726 6.84974 19.3592 4.72583 20.7596 3.23933C22.16 1.75283 23.8092 0.972716 25.4921 1.00073C26.6488 1.00073 27.7582 1.43972 28.5761 2.22112C29.394 3.00252 29.8535 4.06233 29.8535 5.1674C29.8535 6.27246 29.394 7.33227 28.5761 8.11367C27.7582 8.89508 26.6488 9.33406 25.4921 9.33406" stroke="#A18168" stroke-width="2" stroke-linecap="round" stroke-linejoin="round"/>
</svg>
