<svg width="198" height="12" viewBox="0 0 198 12" fill="none" xmlns="http://www.w3.org/2000/svg">
<path d="M7.91309 1.04688C7.76725 1.58854 7.68913 2.30729 7.67871 3.20312H7.13965V2.57812C7.13965 2.17188 7.08496 1.89583 6.97559 1.75C6.86621 1.60417 6.57975 1.45052 6.11621 1.28906C5.65788 1.1224 5.1735 1.03906 4.66309 1.03906C3.82975 1.03906 3.1735 1.25 2.69434 1.67188C2.22038 2.09375 1.9834 2.63542 1.9834 3.29688C1.9834 3.71354 2.07975 4.07292 2.27246 4.375C2.47038 4.67188 2.7334 4.88802 3.06152 5.02344C3.39486 5.15365 4.09798 5.26823 5.1709 5.36719C6.24382 5.47135 6.96777 5.60938 7.34277 5.78125C7.72298 5.95312 8.02507 6.22917 8.24902 6.60938C8.47819 6.98958 8.59277 7.4401 8.59277 7.96094C8.59277 9.00781 8.15527 9.90885 7.28027 10.6641C6.40527 11.4193 5.23861 11.7969 3.78027 11.7969C3.28027 11.7969 2.77507 11.7448 2.26465 11.6406C1.75944 11.5417 1.24902 11.3932 0.733398 11.1953C0.827148 10.5703 0.871419 9.76823 0.866211 8.78906H1.39746V9.17969C1.39746 9.6849 1.4235 9.9974 1.47559 10.1172C1.52767 10.237 1.65007 10.3646 1.84277 10.5C2.12923 10.7031 2.47038 10.8594 2.86621 10.9688C3.26204 11.0729 3.68913 11.125 4.14746 11.125C5.13184 11.125 5.89225 10.8932 6.42871 10.4297C6.96517 9.96615 7.2334 9.3776 7.2334 8.66406C7.2334 8.2474 7.14225 7.89583 6.95996 7.60938C6.77767 7.31771 6.52246 7.10156 6.19434 6.96094C5.86621 6.82031 5.25944 6.71354 4.37402 6.64062C3.19694 6.54688 2.39746 6.40625 1.97559 6.21875C1.55371 6.03125 1.22298 5.73698 0.983398 5.33594C0.743815 4.92969 0.624023 4.42708 0.624023 3.82812C0.624023 2.8125 0.991211 1.98177 1.72559 1.33594C2.45996 0.690104 3.47559 0.367188 4.77246 0.367188C5.29329 0.367188 5.81413 0.424479 6.33496 0.539062C6.861 0.648438 7.38704 0.817708 7.91309 1.04688ZM9.12402 1.01562V0.523438C10.1917 0.559896 10.9678 0.578125 11.4521 0.578125C11.9626 0.578125 12.7126 0.559896 13.7021 0.523438V1.01562H13.1318C12.6423 1.01562 12.348 1.10938 12.249 1.29688C12.1501 1.48438 12.1006 2.33333 12.1006 3.84375V6.90625C12.1006 8.02604 12.1605 8.80469 12.2803 9.24219C12.4053 9.67969 12.723 10.0495 13.2334 10.3516C13.7438 10.6536 14.4261 10.8047 15.2803 10.8047C16.1605 10.8047 16.9027 10.6432 17.5068 10.3203C17.9235 10.0964 18.2282 9.75 18.4209 9.28125C18.6136 8.80729 18.71 7.91146 18.71 6.59375V3.64844C18.71 2.28385 18.6475 1.50521 18.5225 1.3125C18.4027 1.11458 18.0667 1.01562 17.5146 1.01562H17.1084V0.523438C18.1865 0.559896 18.8714 0.578125 19.1631 0.578125C19.637 0.578125 20.2256 0.559896 20.9287 0.523438V1.01562H20.3975C19.986 1.01562 19.7204 1.1276 19.6006 1.35156C19.486 1.57031 19.4287 2.34635 19.4287 3.67969V6.60938C19.4287 7.94792 19.361 8.85156 19.2256 9.32031C19.0954 9.78385 18.8532 10.2031 18.499 10.5781C18.1501 10.9531 17.6813 11.25 17.0928 11.4688C16.5094 11.6875 15.8219 11.7969 15.0303 11.7969C14.2126 11.7969 13.4964 11.7005 12.8818 11.5078C12.2673 11.3099 11.8037 11.0677 11.4912 10.7812C11.1839 10.4948 10.96 10.1458 10.8193 9.73438C10.6839 9.31771 10.6162 8.61198 10.6162 7.61719L10.6318 6.13281V3.75C10.6318 2.28125 10.5876 1.45833 10.499 1.28125C10.4157 1.10417 10.1423 1.01562 9.67871 1.01562H9.12402ZM27.2881 5.35156C28.4079 5.42448 29.2152 5.6849 29.71 6.13281C30.2048 6.57552 30.4521 7.1901 30.4521 7.97656C30.4521 8.97135 30.0355 9.83073 29.2021 10.5547C28.374 11.2734 27.3193 11.6328 26.0381 11.6328L25.4209 11.6172C24.9001 11.5964 24.46 11.5859 24.1006 11.5859C23.8402 11.5859 23.5199 11.5964 23.1396 11.6172L22.4912 11.6406V11.2891C22.8141 11.1328 23.0042 11.013 23.0615 10.9297C23.124 10.8464 23.1605 10.7083 23.1709 10.5156C23.2074 9.89583 23.2256 9.1901 23.2256 8.39844V3.53125C23.2256 2.22917 23.1787 1.49219 23.085 1.32031C22.9704 1.11719 22.6917 1.01562 22.249 1.01562H21.7178V0.53125H22.3662L23.085 0.554688C23.46 0.570312 23.7542 0.578125 23.9678 0.578125C24.2959 0.578125 24.9443 0.565104 25.9131 0.539062L27.0537 0.515625C27.9495 0.515625 28.6188 0.671875 29.0615 0.984375C29.6188 1.38021 29.8975 1.9401 29.8975 2.66406C29.8975 3.25781 29.6995 3.77865 29.3037 4.22656C28.9131 4.67448 28.2412 5.04948 27.2881 5.35156ZM24.6943 5.13281C24.9548 5.14844 25.1943 5.15625 25.4131 5.15625C26.4495 5.15625 27.1917 4.97396 27.6396 4.60938C28.0876 4.23958 28.3115 3.70833 28.3115 3.01562C28.3115 2.41667 28.124 1.95833 27.749 1.64062C27.374 1.31771 26.7751 1.15625 25.9521 1.15625C25.5876 1.15625 25.1917 1.1901 24.7646 1.25781C24.7178 1.89323 24.6943 2.85417 24.6943 4.14062V5.13281ZM24.6943 10.8516C25.1787 10.9245 25.5798 10.9609 25.8975 10.9609C26.8193 10.9609 27.5329 10.7161 28.0381 10.2266C28.5485 9.73177 28.8037 9.0625 28.8037 8.21875C28.8037 7.65625 28.6917 7.19271 28.4678 6.82812C28.2438 6.45833 27.9287 6.1901 27.5225 6.02344C27.1214 5.85156 26.4782 5.76562 25.5928 5.76562C25.3271 5.76562 25.0277 5.77344 24.6943 5.78906V8.5625L24.7021 9.54688C24.7178 9.90104 24.7256 10.1719 24.7256 10.3594C24.7256 10.5 24.7152 10.6641 24.6943 10.8516ZM38.5537 1.04688C38.4079 1.58854 38.3298 2.30729 38.3193 3.20312H37.7803V2.57812C37.7803 2.17188 37.7256 1.89583 37.6162 1.75C37.5068 1.60417 37.2204 1.45052 36.7568 1.28906C36.2985 1.1224 35.8141 1.03906 35.3037 1.03906C34.4704 1.03906 33.8141 1.25 33.335 1.67188C32.861 2.09375 32.624 2.63542 32.624 3.29688C32.624 3.71354 32.7204 4.07292 32.9131 4.375C33.111 4.67188 33.374 4.88802 33.7021 5.02344C34.0355 5.15365 34.7386 5.26823 35.8115 5.36719C36.8844 5.47135 37.6084 5.60938 37.9834 5.78125C38.3636 5.95312 38.6657 6.22917 38.8896 6.60938C39.1188 6.98958 39.2334 7.4401 39.2334 7.96094C39.2334 9.00781 38.7959 9.90885 37.9209 10.6641C37.0459 11.4193 35.8792 11.7969 34.4209 11.7969C33.9209 11.7969 33.4157 11.7448 32.9053 11.6406C32.4001 11.5417 31.8896 11.3932 31.374 11.1953C31.4678 10.5703 31.512 9.76823 31.5068 8.78906H32.0381V9.17969C32.0381 9.6849 32.0641 9.9974 32.1162 10.1172C32.1683 10.237 32.2907 10.3646 32.4834 10.5C32.7699 10.7031 33.111 10.8594 33.5068 10.9688C33.9027 11.0729 34.3298 11.125 34.7881 11.125C35.7725 11.125 36.5329 10.8932 37.0693 10.4297C37.6058 9.96615 37.874 9.3776 37.874 8.66406C37.874 8.2474 37.7829 7.89583 37.6006 7.60938C37.4183 7.31771 37.1631 7.10156 36.835 6.96094C36.5068 6.82031 35.9001 6.71354 35.0146 6.64062C33.8376 6.54688 33.0381 6.40625 32.6162 6.21875C32.1943 6.03125 31.8636 5.73698 31.624 5.33594C31.3844 4.92969 31.2646 4.42708 31.2646 3.82812C31.2646 2.8125 31.6318 1.98177 32.3662 1.33594C33.1006 0.690104 34.1162 0.367188 35.4131 0.367188C35.9339 0.367188 36.4548 0.424479 36.9756 0.539062C37.5016 0.648438 38.0277 0.817708 38.5537 1.04688ZM49.5068 3.34375L49.4443 1.95312C48.9808 1.64583 48.4938 1.41667 47.9834 1.26562C47.4782 1.11458 46.9495 1.03906 46.3975 1.03906C44.9912 1.03906 43.8636 1.46615 43.0146 2.32031C42.1709 3.17448 41.749 4.31771 41.749 5.75C41.749 6.75521 41.9626 7.65104 42.3896 8.4375C42.8219 9.22396 43.4339 9.84635 44.2256 10.3047C45.0173 10.763 45.8532 10.9922 46.7334 10.9922C47.4313 10.9922 48.1214 10.9115 48.8037 10.75C49.3141 10.6302 49.8271 10.3802 50.3428 10L50.5068 10.1562C50.3975 10.3958 50.2959 10.638 50.2021 10.8828C49.5928 11.1849 48.9782 11.4141 48.3584 11.5703C47.7438 11.7214 47.124 11.7969 46.499 11.7969C45.2178 11.7969 44.0902 11.5495 43.1162 11.0547C42.1475 10.5599 41.4027 9.8776 40.8818 9.00781C40.361 8.13281 40.1006 7.14583 40.1006 6.04688C40.1006 4.94792 40.3636 3.96615 40.8896 3.10156C41.4157 2.23177 42.1579 1.5599 43.1162 1.08594C44.0798 0.606771 45.262 0.367188 46.6631 0.367188C47.3975 0.367188 48.2568 0.486979 49.2412 0.726562C49.7308 0.841146 50.1292 0.927083 50.4365 0.984375C50.2021 1.54167 50.0667 2.32812 50.0303 3.34375H49.5068ZM56.9678 6C57.4782 6.73438 58.111 7.58854 58.8662 8.5625L60.3662 10.5078C60.6318 10.8411 60.8089 11.0312 60.8975 11.0781C60.986 11.125 61.0771 11.1484 61.1709 11.1484H61.374V11.6406C60.9417 11.6042 60.5641 11.5859 60.2412 11.5859C59.9443 11.5859 59.6318 11.6042 59.3037 11.6406L56.5381 7.90625C56.0225 7.21875 55.4704 6.54688 54.8818 5.89062L54.96 5.625C55.262 5.65104 55.486 5.66406 55.6318 5.66406C56.5016 5.66406 57.1813 5.4401 57.6709 4.99219C58.1657 4.54427 58.4131 3.94531 58.4131 3.19531C58.4131 2.52344 58.2048 2 57.7881 1.625C57.3714 1.24479 56.7699 1.05469 55.9834 1.05469C55.4365 1.05469 54.887 1.15625 54.335 1.35938C54.2725 2.1875 54.2412 3.07292 54.2412 4.01562V7.78906C54.2412 9.6276 54.2855 10.6484 54.374 10.8516C54.4626 11.0495 54.749 11.1484 55.2334 11.1484H55.8428V11.6406C54.9782 11.6042 54.262 11.5859 53.6943 11.5859C53.2464 11.5859 52.4365 11.6042 51.2646 11.6406V11.1484H51.8506C52.2985 11.1484 52.5641 11.0521 52.6475 10.8594C52.7308 10.6615 52.7725 9.63281 52.7725 7.77344V4.01562C52.7725 2.40104 52.723 1.4974 52.624 1.30469C52.5303 1.11198 52.2178 1.01562 51.6865 1.01562H51.2646V0.515625C52.2334 0.557292 52.973 0.578125 53.4834 0.578125C53.8271 0.578125 54.3219 0.565104 54.9678 0.539062C55.7178 0.513021 56.2568 0.5 56.585 0.5C57.486 0.5 58.1683 0.596354 58.6318 0.789062C59.1006 0.976562 59.4548 1.25 59.6943 1.60938C59.9391 1.96875 60.0615 2.39844 60.0615 2.89844C60.0615 3.63281 59.7959 4.28125 59.2646 4.84375C58.7386 5.40625 57.973 5.79167 56.9678 6ZM61.9678 11.1484H62.46C62.9443 11.1484 63.2334 11.0312 63.3271 10.7969C63.4261 10.5625 63.4756 9.4401 63.4756 7.42969V4.78125C63.4756 2.69792 63.4339 1.54948 63.3506 1.33594C63.2673 1.1224 63.0173 1.01562 62.6006 1.01562H61.9678V0.523438C62.8324 0.559896 63.6865 0.578125 64.5303 0.578125C65.2334 0.578125 65.8714 0.559896 66.4443 0.523438V1.01562H65.8428C65.473 1.01562 65.2412 1.0599 65.1475 1.14844C65.0537 1.23698 64.999 1.46094 64.9834 1.82031C64.9574 2.3776 64.9443 3.36979 64.9443 4.79688V7.49219C64.9443 9.51823 64.9886 10.6354 65.0771 10.8438C65.1657 11.0469 65.4495 11.1484 65.9287 11.1484H66.4443V11.6406C65.8037 11.6042 65.1058 11.5859 64.3506 11.5859C63.4704 11.5859 62.6761 11.6042 61.9678 11.6406V11.1484ZM72.8975 5.35156C74.0173 5.42448 74.8245 5.6849 75.3193 6.13281C75.8141 6.57552 76.0615 7.1901 76.0615 7.97656C76.0615 8.97135 75.6449 9.83073 74.8115 10.5547C73.9834 11.2734 72.9287 11.6328 71.6475 11.6328L71.0303 11.6172C70.5094 11.5964 70.0693 11.5859 69.71 11.5859C69.4495 11.5859 69.1292 11.5964 68.749 11.6172L68.1006 11.6406V11.2891C68.4235 11.1328 68.6136 11.013 68.6709 10.9297C68.7334 10.8464 68.7699 10.7083 68.7803 10.5156C68.8167 9.89583 68.835 9.1901 68.835 8.39844V3.53125C68.835 2.22917 68.7881 1.49219 68.6943 1.32031C68.5798 1.11719 68.3011 1.01562 67.8584 1.01562H67.3271V0.53125H67.9756L68.6943 0.554688C69.0693 0.570312 69.3636 0.578125 69.5771 0.578125C69.9053 0.578125 70.5537 0.565104 71.5225 0.539062L72.6631 0.515625C73.5589 0.515625 74.2282 0.671875 74.6709 0.984375C75.2282 1.38021 75.5068 1.9401 75.5068 2.66406C75.5068 3.25781 75.3089 3.77865 74.9131 4.22656C74.5225 4.67448 73.8506 5.04948 72.8975 5.35156ZM70.3037 5.13281C70.5641 5.14844 70.8037 5.15625 71.0225 5.15625C72.0589 5.15625 72.8011 4.97396 73.249 4.60938C73.6969 4.23958 73.9209 3.70833 73.9209 3.01562C73.9209 2.41667 73.7334 1.95833 73.3584 1.64062C72.9834 1.31771 72.3844 1.15625 71.5615 1.15625C71.1969 1.15625 70.8011 1.1901 70.374 1.25781C70.3271 1.89323 70.3037 2.85417 70.3037 4.14062V5.13281ZM70.3037 10.8516C70.7881 10.9245 71.1891 10.9609 71.5068 10.9609C72.4287 10.9609 73.1423 10.7161 73.6475 10.2266C74.1579 9.73177 74.4131 9.0625 74.4131 8.21875C74.4131 7.65625 74.3011 7.19271 74.0771 6.82812C73.8532 6.45833 73.5381 6.1901 73.1318 6.02344C72.7308 5.85156 72.0876 5.76562 71.2021 5.76562C70.9365 5.76562 70.637 5.77344 70.3037 5.78906V8.5625L70.3115 9.54688C70.3271 9.90104 70.335 10.1719 70.335 10.3594C70.335 10.5 70.3245 10.6641 70.3037 10.8516ZM80.21 6.33594V8.25L80.2178 9.35156C80.2178 10.0391 80.2256 10.5417 80.2412 10.8594C81.0016 10.9167 81.8167 10.9453 82.6865 10.9453C83.2699 10.9453 83.7594 10.9193 84.1553 10.8672C84.4105 10.8359 84.6813 10.7682 84.9678 10.6641C85.098 10.2057 85.2308 9.63281 85.3662 8.94531H85.8896C85.749 10.0859 85.6787 10.8464 85.6787 11.2266L85.6943 11.5781C85.0954 11.6354 84.5068 11.6641 83.9287 11.6641L82.7021 11.6406C81.348 11.6042 80.3532 11.5859 79.7178 11.5859C79.1084 11.5859 78.2985 11.6042 77.2881 11.6406V11.1484H77.5303C77.9834 11.1484 78.2673 11.1042 78.3818 11.0156C78.5016 10.9271 78.5798 10.7188 78.6162 10.3906C78.6579 10.0625 78.6787 9.33854 78.6787 8.21875V3.92969C78.6787 3.22656 78.6605 2.65104 78.624 2.20312C78.5928 1.75521 78.5563 1.48958 78.5146 1.40625C78.4782 1.31771 78.4235 1.25 78.3506 1.20312C78.2777 1.15625 78.0537 1.11458 77.6787 1.07812L77.0771 1.01562V0.53125H77.9209L78.749 0.554688C79.2126 0.570312 79.5641 0.578125 79.8037 0.578125L82.8037 0.539062L84.2256 0.53125C84.71 0.526042 85.1995 0.546875 85.6943 0.59375C85.4964 1.20833 85.387 2.00781 85.3662 2.99219H84.835C84.835 2.41927 84.8063 1.94271 84.749 1.5625C84.1344 1.33333 83.3792 1.21875 82.4834 1.21875C81.7699 1.21875 81.0225 1.25 80.2412 1.3125C80.2464 1.80208 80.2412 2.29167 80.2256 2.78125L80.21 3.98438V5.57031C80.7256 5.60156 81.1813 5.61719 81.5771 5.61719C82.8167 5.61719 83.5173 5.57552 83.6787 5.49219C83.8454 5.40365 83.9287 5.13542 83.9287 4.6875V4.17969H84.46C84.4235 4.96615 84.4053 5.59375 84.4053 6.0625C84.4053 6.55729 84.4235 7.14062 84.46 7.8125H83.9287V7.35938C83.9287 6.85938 83.8298 6.55469 83.6318 6.44531C83.4391 6.33073 82.7516 6.27344 81.5693 6.27344C81.1318 6.27344 80.6787 6.29427 80.21 6.33594ZM93.0225 2.28906V7.6875C93.0225 8.91667 93.0459 9.77344 93.0928 10.2578C93.1292 10.6276 93.1891 10.8542 93.2725 10.9375C93.361 11.0156 93.611 11.0729 94.0225 11.1094L94.5225 11.1484V11.6406C93.9548 11.6042 93.4417 11.5859 92.9834 11.5859C92.6657 11.5859 91.9365 11.6042 90.7959 11.6406V11.1484H91.3584C91.6969 11.1484 91.9183 11.1016 92.0225 11.0078C92.1266 10.9141 92.1917 10.7292 92.2178 10.4531C92.2751 9.88021 92.3037 9.10156 92.3037 8.11719V4.23438C92.3037 3.50521 92.2959 2.78385 92.2803 2.07031C92.2699 1.76823 92.2282 1.5625 92.1553 1.45312C92.0876 1.33854 91.986 1.23698 91.8506 1.14844C91.7152 1.0599 91.5251 1.01562 91.2803 1.01562H90.7959V0.523438C91.4574 0.559896 91.9626 0.578125 92.3115 0.578125C92.6865 0.578125 93.098 0.559896 93.5459 0.523438C94.0615 1.15365 94.5459 1.76823 94.999 2.36719C95.4574 2.96094 95.9313 3.5599 96.4209 4.16406L99.0928 7.44531C100.056 8.6224 100.752 9.4401 101.179 9.89844V4.88281C101.179 2.78385 101.14 1.63802 101.062 1.44531C100.989 1.2474 100.689 1.1224 100.163 1.07031L99.5771 1.01562V0.523438C100.416 0.559896 101.067 0.578125 101.53 0.578125C102.015 0.578125 102.64 0.559896 103.405 0.523438V1.01562H102.804C102.319 1.01562 102.041 1.17708 101.968 1.5C101.921 1.71354 101.897 2.85417 101.897 4.92188V8.44531C101.897 9.39323 101.939 10.526 102.022 11.8438C101.314 11.7344 100.903 11.6536 100.788 11.6016C100.674 11.5547 100.564 11.474 100.46 11.3594C99.8818 10.7188 99.2751 10.0078 98.6396 9.22656L93.0225 2.28906ZM107.288 6.33594V8.25L107.296 9.35156C107.296 10.0391 107.304 10.5417 107.319 10.8594C108.08 10.9167 108.895 10.9453 109.765 10.9453C110.348 10.9453 110.838 10.9193 111.233 10.8672C111.489 10.8359 111.759 10.7682 112.046 10.6641C112.176 10.2057 112.309 9.63281 112.444 8.94531H112.968C112.827 10.0859 112.757 10.8464 112.757 11.2266L112.772 11.5781C112.174 11.6354 111.585 11.6641 111.007 11.6641L109.78 11.6406C108.426 11.6042 107.431 11.5859 106.796 11.5859C106.187 11.5859 105.377 11.6042 104.366 11.6406V11.1484H104.608C105.062 11.1484 105.345 11.1042 105.46 11.0156C105.58 10.9271 105.658 10.7188 105.694 10.3906C105.736 10.0625 105.757 9.33854 105.757 8.21875V3.92969C105.757 3.22656 105.739 2.65104 105.702 2.20312C105.671 1.75521 105.634 1.48958 105.593 1.40625C105.556 1.31771 105.502 1.25 105.429 1.20312C105.356 1.15625 105.132 1.11458 104.757 1.07812L104.155 1.01562V0.53125H104.999L105.827 0.554688C106.291 0.570312 106.642 0.578125 106.882 0.578125L109.882 0.539062L111.304 0.53125C111.788 0.526042 112.278 0.546875 112.772 0.59375C112.575 1.20833 112.465 2.00781 112.444 2.99219H111.913C111.913 2.41927 111.884 1.94271 111.827 1.5625C111.213 1.33333 110.457 1.21875 109.562 1.21875C108.848 1.21875 108.101 1.25 107.319 1.3125C107.325 1.80208 107.319 2.29167 107.304 2.78125L107.288 3.98438V5.57031C107.804 5.60156 108.259 5.61719 108.655 5.61719C109.895 5.61719 110.595 5.57552 110.757 5.49219C110.924 5.40365 111.007 5.13542 111.007 4.6875V4.17969H111.538C111.502 4.96615 111.483 5.59375 111.483 6.0625C111.483 6.55729 111.502 7.14062 111.538 7.8125H111.007V7.35938C111.007 6.85938 110.908 6.55469 110.71 6.44531C110.517 6.33073 109.83 6.27344 108.647 6.27344C108.21 6.27344 107.757 6.29427 107.288 6.33594ZM118.093 9.26562L119.905 4.79688C120.213 4.03125 120.77 2.57292 121.577 0.421875H122.069C122.377 1.38542 122.791 2.60417 123.312 4.07812L125.194 9.375L126.624 4.42969C126.759 3.95573 126.994 3.04427 127.327 1.69531C127.358 1.57552 127.374 1.47656 127.374 1.39844C127.374 1.30469 127.335 1.23438 127.257 1.1875C127.179 1.14062 126.986 1.10156 126.679 1.07031L125.968 1.01562V0.523438C126.702 0.559896 127.278 0.578125 127.694 0.578125C128.142 0.578125 128.697 0.559896 129.358 0.523438V1.01562H128.952C128.775 1.01562 128.642 1.05729 128.554 1.14062C128.387 1.3125 127.991 2.40625 127.366 4.42188C126.538 7.10938 125.851 9.55729 125.304 11.7656H124.491C124.397 11.4167 124.319 11.1562 124.257 10.9844C124.028 10.3125 123.496 8.83333 122.663 6.54688L121.382 3.03125L119.921 6.57031C119.046 8.6849 118.397 10.4167 117.976 11.7656H117.187L116.772 9.84375C116.658 9.27604 116.525 8.67188 116.374 8.03125L115.015 2.1875C114.884 1.61458 114.767 1.27604 114.663 1.17188C114.559 1.06771 114.343 1.01562 114.015 1.01562H113.687V0.523438C114.431 0.559896 115.075 0.578125 115.616 0.578125C116.142 0.578125 116.853 0.559896 117.749 0.523438V1.01562H117.257C116.903 1.01562 116.671 1.04688 116.562 1.10938C116.457 1.17188 116.405 1.27344 116.405 1.41406C116.405 1.4974 116.418 1.59375 116.444 1.70312L116.983 4.29688L118.093 9.26562ZM137.022 1.04688C136.877 1.58854 136.799 2.30729 136.788 3.20312H136.249V2.57812C136.249 2.17188 136.194 1.89583 136.085 1.75C135.976 1.60417 135.689 1.45052 135.226 1.28906C134.767 1.1224 134.283 1.03906 133.772 1.03906C132.939 1.03906 132.283 1.25 131.804 1.67188C131.33 2.09375 131.093 2.63542 131.093 3.29688C131.093 3.71354 131.189 4.07292 131.382 4.375C131.58 4.67188 131.843 4.88802 132.171 5.02344C132.504 5.15365 133.207 5.26823 134.28 5.36719C135.353 5.47135 136.077 5.60938 136.452 5.78125C136.832 5.95312 137.134 6.22917 137.358 6.60938C137.588 6.98958 137.702 7.4401 137.702 7.96094C137.702 9.00781 137.265 9.90885 136.39 10.6641C135.515 11.4193 134.348 11.7969 132.89 11.7969C132.39 11.7969 131.884 11.7448 131.374 11.6406C130.869 11.5417 130.358 11.3932 129.843 11.1953C129.937 10.5703 129.981 9.76823 129.976 8.78906H130.507V9.17969C130.507 9.6849 130.533 9.9974 130.585 10.1172C130.637 10.237 130.759 10.3646 130.952 10.5C131.239 10.7031 131.58 10.8594 131.976 10.9688C132.371 11.0729 132.799 11.125 133.257 11.125C134.241 11.125 135.002 10.8932 135.538 10.4297C136.075 9.96615 136.343 9.3776 136.343 8.66406C136.343 8.2474 136.252 7.89583 136.069 7.60938C135.887 7.31771 135.632 7.10156 135.304 6.96094C134.976 6.82031 134.369 6.71354 133.483 6.64062C132.306 6.54688 131.507 6.40625 131.085 6.21875C130.663 6.03125 130.332 5.73698 130.093 5.33594C129.853 4.92969 129.733 4.42708 129.733 3.82812C129.733 2.8125 130.101 1.98177 130.835 1.33594C131.569 0.690104 132.585 0.367188 133.882 0.367188C134.403 0.367188 134.924 0.424479 135.444 0.539062C135.97 0.648438 136.496 0.817708 137.022 1.04688ZM141.397 10.875C141.908 10.901 142.405 10.9141 142.89 10.9141C143.869 10.9141 144.634 10.888 145.187 10.8359C145.572 10.7943 145.97 10.7188 146.382 10.6094L146.851 8.77344H147.358C147.228 9.75781 147.127 10.6771 147.054 11.5312C146.585 11.6094 145.944 11.6484 145.132 11.6484L141.413 11.5859C140.913 11.5859 140.134 11.6146 139.077 11.6719V11.2578C139.494 11.0755 139.739 10.8802 139.812 10.6719C139.89 10.4635 139.929 9.63802 139.929 8.19531V3.89844C139.929 2.33594 139.89 1.46615 139.812 1.28906C139.739 1.10677 139.528 1.01562 139.179 1.01562H138.327V0.523438C139.567 0.559896 140.39 0.578125 140.796 0.578125C141.338 0.578125 142.072 0.559896 142.999 0.523438V1.01562H142.03C141.754 1.01562 141.58 1.09635 141.507 1.25781C141.434 1.41406 141.397 2.07292 141.397 3.23438V8.21094L141.421 10.4141L141.397 10.875ZM151.257 6.33594V8.25L151.265 9.35156C151.265 10.0391 151.272 10.5417 151.288 10.8594C152.049 10.9167 152.864 10.9453 153.733 10.9453C154.317 10.9453 154.806 10.9193 155.202 10.8672C155.457 10.8359 155.728 10.7682 156.015 10.6641C156.145 10.2057 156.278 9.63281 156.413 8.94531H156.937C156.796 10.0859 156.726 10.8464 156.726 11.2266L156.741 11.5781C156.142 11.6354 155.554 11.6641 154.976 11.6641L153.749 11.6406C152.395 11.6042 151.4 11.5859 150.765 11.5859C150.155 11.5859 149.345 11.6042 148.335 11.6406V11.1484H148.577C149.03 11.1484 149.314 11.1042 149.429 11.0156C149.549 10.9271 149.627 10.7188 149.663 10.3906C149.705 10.0625 149.726 9.33854 149.726 8.21875V3.92969C149.726 3.22656 149.707 2.65104 149.671 2.20312C149.64 1.75521 149.603 1.48958 149.562 1.40625C149.525 1.31771 149.47 1.25 149.397 1.20312C149.325 1.15625 149.101 1.11458 148.726 1.07812L148.124 1.01562V0.53125H148.968L149.796 0.554688C150.259 0.570312 150.611 0.578125 150.851 0.578125L153.851 0.539062L155.272 0.53125C155.757 0.526042 156.246 0.546875 156.741 0.59375C156.543 1.20833 156.434 2.00781 156.413 2.99219H155.882C155.882 2.41927 155.853 1.94271 155.796 1.5625C155.181 1.33333 154.426 1.21875 153.53 1.21875C152.817 1.21875 152.069 1.25 151.288 1.3125C151.293 1.80208 151.288 2.29167 151.272 2.78125L151.257 3.98438V5.57031C151.772 5.60156 152.228 5.61719 152.624 5.61719C153.864 5.61719 154.564 5.57552 154.726 5.49219C154.892 5.40365 154.976 5.13542 154.976 4.6875V4.17969H155.507C155.47 4.96615 155.452 5.59375 155.452 6.0625C155.452 6.55729 155.47 7.14062 155.507 7.8125H154.976V7.35938C154.976 6.85938 154.877 6.55469 154.679 6.44531C154.486 6.33073 153.799 6.27344 152.616 6.27344C152.179 6.27344 151.726 6.29427 151.257 6.33594ZM163.226 1.23438C163.168 2.01562 163.14 2.83854 163.14 3.70312V8.15625C163.14 9.8125 163.181 10.7266 163.265 10.8984C163.348 11.0651 163.645 11.1484 164.155 11.1484H164.741V11.6406C163.819 11.6042 163.038 11.5859 162.397 11.5859C161.752 11.5859 160.976 11.6042 160.069 11.6406V11.1484H160.726C161.069 11.1484 161.293 11.1042 161.397 11.0156C161.502 10.9219 161.567 10.7422 161.593 10.4766C161.645 9.86719 161.671 9.08073 161.671 8.11719V3.65625C161.671 2.77604 161.653 1.96875 161.616 1.23438H160.819C159.533 1.23438 158.825 1.26562 158.694 1.32812C158.564 1.38542 158.478 1.61719 158.437 2.02344L158.327 3.07031H157.835L157.851 2.14062C157.851 1.76562 157.819 1.22656 157.757 0.523438C160.569 0.559896 162.223 0.578125 162.718 0.578125L167.038 0.523438C166.939 1.40365 166.882 2.2526 166.866 3.07031H166.382L166.304 2.04688C166.272 1.69271 166.228 1.48438 166.171 1.42188C166.114 1.35417 165.986 1.3125 165.788 1.29688C165.215 1.25521 164.564 1.23438 163.835 1.23438H163.226ZM173.038 1.23438C172.981 2.01562 172.952 2.83854 172.952 3.70312V8.15625C172.952 9.8125 172.994 10.7266 173.077 10.8984C173.16 11.0651 173.457 11.1484 173.968 11.1484H174.554V11.6406C173.632 11.6042 172.851 11.5859 172.21 11.5859C171.564 11.5859 170.788 11.6042 169.882 11.6406V11.1484H170.538C170.882 11.1484 171.106 11.1042 171.21 11.0156C171.314 10.9219 171.379 10.7422 171.405 10.4766C171.457 9.86719 171.483 9.08073 171.483 8.11719V3.65625C171.483 2.77604 171.465 1.96875 171.429 1.23438H170.632C169.345 1.23438 168.637 1.26562 168.507 1.32812C168.377 1.38542 168.291 1.61719 168.249 2.02344L168.14 3.07031H167.647L167.663 2.14062C167.663 1.76562 167.632 1.22656 167.569 0.523438C170.382 0.559896 172.035 0.578125 172.53 0.578125L176.851 0.523438C176.752 1.40365 176.694 2.2526 176.679 3.07031H176.194L176.116 2.04688C176.085 1.69271 176.041 1.48438 175.983 1.42188C175.926 1.35417 175.799 1.3125 175.601 1.29688C175.028 1.25521 174.377 1.23438 173.647 1.23438H173.038ZM180.663 6.33594V8.25L180.671 9.35156C180.671 10.0391 180.679 10.5417 180.694 10.8594C181.455 10.9167 182.27 10.9453 183.14 10.9453C183.723 10.9453 184.213 10.9193 184.608 10.8672C184.864 10.8359 185.134 10.7682 185.421 10.6641C185.551 10.2057 185.684 9.63281 185.819 8.94531H186.343C186.202 10.0859 186.132 10.8464 186.132 11.2266L186.147 11.5781C185.549 11.6354 184.96 11.6641 184.382 11.6641L183.155 11.6406C181.801 11.6042 180.806 11.5859 180.171 11.5859C179.562 11.5859 178.752 11.6042 177.741 11.6406V11.1484H177.983C178.437 11.1484 178.72 11.1042 178.835 11.0156C178.955 10.9271 179.033 10.7188 179.069 10.3906C179.111 10.0625 179.132 9.33854 179.132 8.21875V3.92969C179.132 3.22656 179.114 2.65104 179.077 2.20312C179.046 1.75521 179.009 1.48958 178.968 1.40625C178.931 1.31771 178.877 1.25 178.804 1.20312C178.731 1.15625 178.507 1.11458 178.132 1.07812L177.53 1.01562V0.53125H178.374L179.202 0.554688C179.666 0.570312 180.017 0.578125 180.257 0.578125L183.257 0.539062L184.679 0.53125C185.163 0.526042 185.653 0.546875 186.147 0.59375C185.95 1.20833 185.84 2.00781 185.819 2.99219H185.288C185.288 2.41927 185.259 1.94271 185.202 1.5625C184.588 1.33333 183.832 1.21875 182.937 1.21875C182.223 1.21875 181.476 1.25 180.694 1.3125C180.7 1.80208 180.694 2.29167 180.679 2.78125L180.663 3.98438V5.57031C181.179 5.60156 181.634 5.61719 182.03 5.61719C183.27 5.61719 183.97 5.57552 184.132 5.49219C184.299 5.40365 184.382 5.13542 184.382 4.6875V4.17969H184.913C184.877 4.96615 184.858 5.59375 184.858 6.0625C184.858 6.55729 184.877 7.14062 184.913 7.8125H184.382V7.35938C184.382 6.85938 184.283 6.55469 184.085 6.44531C183.892 6.33073 183.205 6.27344 182.022 6.27344C181.585 6.27344 181.132 6.29427 180.663 6.33594ZM193.062 6C193.572 6.73438 194.205 7.58854 194.96 8.5625L196.46 10.5078C196.726 10.8411 196.903 11.0312 196.991 11.0781C197.08 11.125 197.171 11.1484 197.265 11.1484H197.468V11.6406C197.035 11.6042 196.658 11.5859 196.335 11.5859C196.038 11.5859 195.726 11.6042 195.397 11.6406L192.632 7.90625C192.116 7.21875 191.564 6.54688 190.976 5.89062L191.054 5.625C191.356 5.65104 191.58 5.66406 191.726 5.66406C192.595 5.66406 193.275 5.4401 193.765 4.99219C194.259 4.54427 194.507 3.94531 194.507 3.19531C194.507 2.52344 194.299 2 193.882 1.625C193.465 1.24479 192.864 1.05469 192.077 1.05469C191.53 1.05469 190.981 1.15625 190.429 1.35938C190.366 2.1875 190.335 3.07292 190.335 4.01562V7.78906C190.335 9.6276 190.379 10.6484 190.468 10.8516C190.556 11.0495 190.843 11.1484 191.327 11.1484H191.937V11.6406C191.072 11.6042 190.356 11.5859 189.788 11.5859C189.34 11.5859 188.53 11.6042 187.358 11.6406V11.1484H187.944C188.392 11.1484 188.658 11.0521 188.741 10.8594C188.825 10.6615 188.866 9.63281 188.866 7.77344V4.01562C188.866 2.40104 188.817 1.4974 188.718 1.30469C188.624 1.11198 188.312 1.01562 187.78 1.01562H187.358V0.515625C188.327 0.557292 189.067 0.578125 189.577 0.578125C189.921 0.578125 190.416 0.565104 191.062 0.539062C191.812 0.513021 192.351 0.5 192.679 0.5C193.58 0.5 194.262 0.596354 194.726 0.789062C195.194 0.976562 195.549 1.25 195.788 1.60938C196.033 1.96875 196.155 2.39844 196.155 2.89844C196.155 3.63281 195.89 4.28125 195.358 4.84375C194.832 5.40625 194.067 5.79167 193.062 6Z" fill="#A18168"/>
</svg>
