<svg width="48" height="33" viewBox="0 0 48 33" fill="none" xmlns="http://www.w3.org/2000/svg">
<path d="M8.02588 27.1909H3.53988C2.19408 27.1909 1.29688 26.3337 1.29688 25.048V3.61942C1.29688 2.33371 2.19408 1.47656 3.53988 1.47656H25.9699C27.3157 1.47656 28.2129 2.33371 28.2129 3.61942V27.1909" stroke="#A18168" stroke-width="2" stroke-linecap="round" stroke-linejoin="round"/>
<path d="M28.2109 7.90625H37.183L46.155 16.4777V25.0491C46.155 26.3348 45.2578 27.192 43.912 27.192H39.426" stroke="#A18168" stroke-width="2" stroke-linecap="round" stroke-linejoin="round"/>
<path d="M12.5134 31.4777C14.9909 31.4777 16.9994 29.5589 16.9994 27.192C16.9994 24.825 14.9909 22.9062 12.5134 22.9062C10.0358 22.9062 8.02734 24.825 8.02734 27.192C8.02734 29.5589 10.0358 31.4777 12.5134 31.4777Z" stroke="#A18168" stroke-width="2" stroke-linecap="round" stroke-linejoin="round"/>
<path d="M30.458 27.1953H17" stroke="#A18168" stroke-width="2" stroke-linecap="round" stroke-linejoin="round"/>
<path d="M34.943 31.4777C37.4206 31.4777 39.429 29.5589 39.429 27.192C39.429 24.825 37.4206 22.9062 34.943 22.9062C32.4655 22.9062 30.457 24.825 30.457 27.192C30.457 29.5589 32.4655 31.4777 34.943 31.4777Z" stroke="#A18168" stroke-width="2" stroke-linecap="round" stroke-linejoin="round"/>
</svg>
