<svg width="754" height="28" viewBox="0 0 754 28" fill="none" xmlns="http://www.w3.org/2000/svg">
<path d="M317.382 4.80469L317.319 3.41406C316.856 3.10677 316.369 2.8776 315.858 2.72656C315.353 2.57552 314.825 2.5 314.272 2.5C312.866 2.5 311.739 2.92708 310.89 3.78125C310.046 4.63542 309.624 5.77865 309.624 7.21094C309.624 8.21615 309.838 9.11198 310.265 9.89844C310.697 10.6849 311.309 11.3073 312.101 11.7656C312.892 12.224 313.728 12.4531 314.608 12.4531C315.306 12.4531 315.996 12.3724 316.679 12.2109C317.189 12.0911 317.702 11.8411 318.218 11.4609L318.382 11.6172C318.272 11.8568 318.171 12.099 318.077 12.3438C317.468 12.6458 316.853 12.875 316.233 13.0312C315.619 13.1823 314.999 13.2578 314.374 13.2578C313.093 13.2578 311.965 13.0104 310.991 12.5156C310.022 12.0208 309.278 11.3385 308.757 10.4688C308.236 9.59375 307.976 8.60677 307.976 7.50781C307.976 6.40885 308.239 5.42708 308.765 4.5625C309.291 3.69271 310.033 3.02083 310.991 2.54688C311.955 2.06771 313.137 1.82812 314.538 1.82812C315.272 1.82812 316.132 1.94792 317.116 2.1875C317.606 2.30208 318.004 2.38802 318.312 2.44531C318.077 3.0026 317.942 3.78906 317.905 4.80469H317.382ZM318.983 2.47656V1.98438C320.051 2.02083 320.827 2.03906 321.312 2.03906C321.822 2.03906 322.572 2.02083 323.562 1.98438V2.47656H322.991C322.502 2.47656 322.207 2.57031 322.108 2.75781C322.009 2.94531 321.96 3.79427 321.96 5.30469V8.36719C321.96 9.48698 322.02 10.2656 322.14 10.7031C322.265 11.1406 322.582 11.5104 323.093 11.8125C323.603 12.1146 324.285 12.2656 325.14 12.2656C326.02 12.2656 326.762 12.1042 327.366 11.7812C327.783 11.5573 328.088 11.2109 328.28 10.7422C328.473 10.2682 328.569 9.3724 328.569 8.05469V5.10938C328.569 3.74479 328.507 2.96615 328.382 2.77344C328.262 2.57552 327.926 2.47656 327.374 2.47656H326.968V1.98438C328.046 2.02083 328.731 2.03906 329.022 2.03906C329.496 2.03906 330.085 2.02083 330.788 1.98438V2.47656H330.257C329.845 2.47656 329.58 2.58854 329.46 2.8125C329.345 3.03125 329.288 3.80729 329.288 5.14062V8.07031C329.288 9.40885 329.22 10.3125 329.085 10.7812C328.955 11.2448 328.713 11.6641 328.358 12.0391C328.009 12.4141 327.541 12.7109 326.952 12.9297C326.369 13.1484 325.681 13.2578 324.89 13.2578C324.072 13.2578 323.356 13.1615 322.741 12.9688C322.127 12.7708 321.663 12.5286 321.351 12.2422C321.043 11.9557 320.819 11.6068 320.679 11.1953C320.543 10.7786 320.476 10.0729 320.476 9.07812L320.491 7.59375V5.21094C320.491 3.74219 320.447 2.91927 320.358 2.74219C320.275 2.5651 320.002 2.47656 319.538 2.47656H318.983ZM338.632 2.50781C338.486 3.04948 338.408 3.76823 338.397 4.66406H337.858V4.03906C337.858 3.63281 337.804 3.35677 337.694 3.21094C337.585 3.0651 337.299 2.91146 336.835 2.75C336.377 2.58333 335.892 2.5 335.382 2.5C334.549 2.5 333.892 2.71094 333.413 3.13281C332.939 3.55469 332.702 4.09635 332.702 4.75781C332.702 5.17448 332.799 5.53385 332.991 5.83594C333.189 6.13281 333.452 6.34896 333.78 6.48438C334.114 6.61458 334.817 6.72917 335.89 6.82812C336.963 6.93229 337.687 7.07031 338.062 7.24219C338.442 7.41406 338.744 7.6901 338.968 8.07031C339.197 8.45052 339.312 8.90104 339.312 9.42188C339.312 10.4688 338.874 11.3698 337.999 12.125C337.124 12.8802 335.957 13.2578 334.499 13.2578C333.999 13.2578 333.494 13.2057 332.983 13.1016C332.478 13.0026 331.968 12.8542 331.452 12.6562C331.546 12.0312 331.59 11.2292 331.585 10.25H332.116V10.6406C332.116 11.1458 332.142 11.4583 332.194 11.5781C332.246 11.6979 332.369 11.8255 332.562 11.9609C332.848 12.1641 333.189 12.3203 333.585 12.4297C333.981 12.5339 334.408 12.5859 334.866 12.5859C335.851 12.5859 336.611 12.3542 337.147 11.8906C337.684 11.4271 337.952 10.8385 337.952 10.125C337.952 9.70833 337.861 9.35677 337.679 9.07031C337.496 8.77865 337.241 8.5625 336.913 8.42188C336.585 8.28125 335.978 8.17448 335.093 8.10156C333.916 8.00781 333.116 7.86719 332.694 7.67969C332.272 7.49219 331.942 7.19792 331.702 6.79688C331.463 6.39062 331.343 5.88802 331.343 5.28906C331.343 4.27344 331.71 3.44271 332.444 2.79688C333.179 2.15104 334.194 1.82812 335.491 1.82812C336.012 1.82812 336.533 1.88542 337.054 2C337.58 2.10938 338.106 2.27865 338.632 2.50781ZM345.272 2.69531C345.215 3.47656 345.187 4.29948 345.187 5.16406V9.61719C345.187 11.2734 345.228 12.1875 345.312 12.3594C345.395 12.526 345.692 12.6094 346.202 12.6094H346.788V13.1016C345.866 13.0651 345.085 13.0469 344.444 13.0469C343.799 13.0469 343.022 13.0651 342.116 13.1016V12.6094H342.772C343.116 12.6094 343.34 12.5651 343.444 12.4766C343.549 12.3828 343.614 12.2031 343.64 11.9375C343.692 11.3281 343.718 10.5417 343.718 9.57812V5.11719C343.718 4.23698 343.7 3.42969 343.663 2.69531H342.866C341.58 2.69531 340.871 2.72656 340.741 2.78906C340.611 2.84635 340.525 3.07812 340.483 3.48438L340.374 4.53125H339.882L339.897 3.60156C339.897 3.22656 339.866 2.6875 339.804 1.98438C342.616 2.02083 344.27 2.03906 344.765 2.03906L349.085 1.98438C348.986 2.86458 348.929 3.71354 348.913 4.53125H348.429L348.351 3.50781C348.319 3.15365 348.275 2.94531 348.218 2.88281C348.16 2.8151 348.033 2.77344 347.835 2.75781C347.262 2.71615 346.611 2.69531 345.882 2.69531H345.272ZM349.718 7.53906C349.718 5.82552 350.27 4.44531 351.374 3.39844C352.478 2.35156 353.95 1.82812 355.788 1.82812C357.59 1.82812 359.002 2.3151 360.022 3.28906C361.049 4.25781 361.562 5.54688 361.562 7.15625C361.562 8.89062 360.968 10.3411 359.78 11.5078C358.593 12.6745 357.095 13.2578 355.288 13.2578C354.158 13.2578 353.184 13.0286 352.366 12.5703C351.549 12.112 350.903 11.4427 350.429 10.5625C349.955 9.68229 349.718 8.67448 349.718 7.53906ZM351.304 6.89844C351.304 8.07552 351.504 9.10156 351.905 9.97656C352.312 10.8464 352.853 11.5 353.53 11.9375C354.207 12.3698 354.981 12.5859 355.851 12.5859C356.658 12.5859 357.364 12.401 357.968 12.0312C358.572 11.6615 359.046 11.1094 359.39 10.375C359.739 9.64062 359.913 8.7474 359.913 7.69531C359.913 6.59115 359.72 5.64844 359.335 4.86719C358.955 4.08073 358.431 3.48958 357.765 3.09375C357.098 2.69792 356.309 2.5 355.397 2.5C354.564 2.5 353.845 2.67448 353.241 3.02344C352.637 3.3724 352.163 3.88542 351.819 4.5625C351.476 5.23438 351.304 6.01302 351.304 6.89844ZM373.749 3.67188L371.429 8.5C370.559 10.3125 369.845 11.8958 369.288 13.25H368.976C368.783 12.7865 368.231 11.5964 367.319 9.67969L364.522 3.89062V9.92969C364.522 11.3359 364.577 12.1354 364.687 12.3281C364.801 12.5156 365.15 12.6094 365.733 12.6094H366.022V13.1016C365.299 13.0651 364.71 13.0469 364.257 13.0469C363.929 13.0469 363.275 13.0651 362.296 13.1016V12.6094H362.804C363.147 12.6094 363.377 12.5599 363.491 12.4609C363.606 12.362 363.676 12.1823 363.702 11.9219C363.77 11.1927 363.804 10.4062 363.804 9.5625V5.14062C363.804 4.07292 363.78 3.36719 363.733 3.02344C363.713 2.84635 363.634 2.71094 363.499 2.61719C363.369 2.52344 363.106 2.47656 362.71 2.47656H362.296V1.98438C363.202 2.02083 363.772 2.03906 364.007 2.03906C364.304 2.03906 364.726 2.02083 365.272 1.98438C365.903 3.38542 366.629 4.92969 367.452 6.61719L369.507 10.8438L371.405 6.92969C372.072 5.5599 372.832 3.91146 373.687 1.98438C374.338 2.02083 374.796 2.03906 375.062 2.03906C375.369 2.03906 375.924 2.02083 376.726 1.98438V2.47656H376.218C375.759 2.47656 375.478 2.55729 375.374 2.71875C375.275 2.875 375.226 3.44531 375.226 4.42969V10.1406C375.226 11.4115 375.278 12.1406 375.382 12.3281C375.491 12.5156 375.791 12.6094 376.28 12.6094H376.726V13.1016C376.002 13.0651 375.309 13.0469 374.647 13.0469C373.918 13.0469 373.155 13.0651 372.358 13.1016V12.6094H372.874C373.285 12.6094 373.533 12.5208 373.616 12.3438C373.705 12.1615 373.749 11.388 373.749 10.0234V3.67188ZM377.546 12.6094H378.038C378.522 12.6094 378.812 12.4922 378.905 12.2578C379.004 12.0234 379.054 10.901 379.054 8.89062V6.24219C379.054 4.15885 379.012 3.01042 378.929 2.79688C378.845 2.58333 378.595 2.47656 378.179 2.47656H377.546V1.98438C378.41 2.02083 379.265 2.03906 380.108 2.03906C380.812 2.03906 381.45 2.02083 382.022 1.98438V2.47656H381.421C381.051 2.47656 380.819 2.52083 380.726 2.60938C380.632 2.69792 380.577 2.92188 380.562 3.28125C380.535 3.83854 380.522 4.83073 380.522 6.25781V8.95312C380.522 10.9792 380.567 12.0964 380.655 12.3047C380.744 12.5078 381.028 12.6094 381.507 12.6094H382.022V13.1016C381.382 13.0651 380.684 13.0469 379.929 13.0469C379.049 13.0469 378.254 13.0651 377.546 13.1016V12.6094ZM384.921 12.375H388.319C389.731 12.375 390.655 12.3568 391.093 12.3203C391.343 12.2943 391.522 12.2188 391.632 12.0938C391.746 11.9688 391.83 11.6667 391.882 11.1875L391.976 10.2969H392.554C392.45 11.1146 392.397 11.9062 392.397 12.6719V13.1016C391.772 13.1172 391.288 13.125 390.944 13.125C390.658 13.125 390.033 13.112 389.069 13.0859C388.043 13.0599 387.085 13.0469 386.194 13.0469C384.736 13.0469 383.608 13.0651 382.812 13.1016V12.6406C383.369 12.0208 384.03 11.2005 384.796 10.1797L388.335 5.49219C389.293 4.22135 389.976 3.29948 390.382 2.72656C389.627 2.69531 388.973 2.67969 388.421 2.67969C387.483 2.67969 386.478 2.71615 385.405 2.78906C384.937 2.82552 384.66 2.88281 384.577 2.96094C384.494 3.03906 384.437 3.27344 384.405 3.66406L384.327 4.58594H383.819C383.851 4.01823 383.866 3.57812 383.866 3.26562C383.866 2.95833 383.851 2.52865 383.819 1.97656L384.788 1.96875L390.905 2.03906C391.567 2.03906 392.116 2.01823 392.554 1.97656V2.45312C392.028 3.04688 391.611 3.53906 391.304 3.92969L388.812 7.21875L384.921 12.375ZM401.327 9.35156H396.812L396.28 10.6094C395.931 11.4427 395.757 11.9531 395.757 12.1406C395.757 12.2604 395.788 12.3464 395.851 12.3984C395.918 12.4505 396.085 12.4922 396.351 12.5234L397.101 12.6094V13.1016C396.601 13.0651 396.038 13.0469 395.413 13.0469C394.663 13.0469 394.004 13.0651 393.437 13.1016V12.6094L393.671 12.6016C394.035 12.5911 394.27 12.5547 394.374 12.4922C394.483 12.4245 394.598 12.263 394.718 12.0078C395.088 11.2578 395.465 10.4479 395.851 9.57812L397.999 4.71094C398.572 3.41927 398.963 2.48177 399.171 1.89844H399.702L403.655 11.0938C403.921 11.7188 404.098 12.0964 404.187 12.2266C404.275 12.3516 404.377 12.4427 404.491 12.5C404.606 12.5521 404.864 12.5885 405.265 12.6094V13.1016C404.588 13.0651 403.942 13.0469 403.327 13.0469C402.754 13.0469 401.991 13.0651 401.038 13.1016V12.6094L401.812 12.5625C402.088 12.5417 402.252 12.513 402.304 12.4766C402.382 12.4193 402.421 12.3464 402.421 12.2578C402.421 12.1641 402.343 11.9193 402.187 11.5234L401.327 9.35156ZM397.101 8.71094H401.038L399.069 4.00781L397.101 8.71094ZM411.319 2.69531C411.262 3.47656 411.233 4.29948 411.233 5.16406V9.61719C411.233 11.2734 411.275 12.1875 411.358 12.3594C411.442 12.526 411.739 12.6094 412.249 12.6094H412.835V13.1016C411.913 13.0651 411.132 13.0469 410.491 13.0469C409.845 13.0469 409.069 13.0651 408.163 13.1016V12.6094H408.819C409.163 12.6094 409.387 12.5651 409.491 12.4766C409.595 12.3828 409.66 12.2031 409.687 11.9375C409.739 11.3281 409.765 10.5417 409.765 9.57812V5.11719C409.765 4.23698 409.746 3.42969 409.71 2.69531H408.913C407.627 2.69531 406.918 2.72656 406.788 2.78906C406.658 2.84635 406.572 3.07812 406.53 3.48438L406.421 4.53125H405.929L405.944 3.60156C405.944 3.22656 405.913 2.6875 405.851 1.98438C408.663 2.02083 410.317 2.03906 410.812 2.03906L415.132 1.98438C415.033 2.86458 414.976 3.71354 414.96 4.53125H414.476L414.397 3.50781C414.366 3.15365 414.322 2.94531 414.265 2.88281C414.207 2.8151 414.08 2.77344 413.882 2.75781C413.309 2.71615 412.658 2.69531 411.929 2.69531H411.319ZM415.874 12.6094H416.366C416.851 12.6094 417.14 12.4922 417.233 12.2578C417.332 12.0234 417.382 10.901 417.382 8.89062V6.24219C417.382 4.15885 417.34 3.01042 417.257 2.79688C417.174 2.58333 416.924 2.47656 416.507 2.47656H415.874V1.98438C416.739 2.02083 417.593 2.03906 418.437 2.03906C419.14 2.03906 419.778 2.02083 420.351 1.98438V2.47656H419.749C419.379 2.47656 419.147 2.52083 419.054 2.60938C418.96 2.69792 418.905 2.92188 418.89 3.28125C418.864 3.83854 418.851 4.83073 418.851 6.25781V8.95312C418.851 10.9792 418.895 12.0964 418.983 12.3047C419.072 12.5078 419.356 12.6094 419.835 12.6094H420.351V13.1016C419.71 13.0651 419.012 13.0469 418.257 13.0469C417.377 13.0469 416.582 13.0651 415.874 13.1016V12.6094ZM421.155 7.53906C421.155 5.82552 421.707 4.44531 422.812 3.39844C423.916 2.35156 425.387 1.82812 427.226 1.82812C429.028 1.82812 430.439 2.3151 431.46 3.28906C432.486 4.25781 432.999 5.54688 432.999 7.15625C432.999 8.89062 432.405 10.3411 431.218 11.5078C430.03 12.6745 428.533 13.2578 426.726 13.2578C425.595 13.2578 424.621 13.0286 423.804 12.5703C422.986 12.112 422.34 11.4427 421.866 10.5625C421.392 9.68229 421.155 8.67448 421.155 7.53906ZM422.741 6.89844C422.741 8.07552 422.942 9.10156 423.343 9.97656C423.749 10.8464 424.291 11.5 424.968 11.9375C425.645 12.3698 426.418 12.5859 427.288 12.5859C428.095 12.5859 428.801 12.401 429.405 12.0312C430.009 11.6615 430.483 11.1094 430.827 10.375C431.176 9.64062 431.351 8.7474 431.351 7.69531C431.351 6.59115 431.158 5.64844 430.772 4.86719C430.392 4.08073 429.869 3.48958 429.202 3.09375C428.535 2.69792 427.746 2.5 426.835 2.5C426.002 2.5 425.283 2.67448 424.679 3.02344C424.075 3.3724 423.601 3.88542 423.257 4.5625C422.913 5.23438 422.741 6.01302 422.741 6.89844ZM435.944 3.75V9.14844C435.944 10.3776 435.968 11.2344 436.015 11.7188C436.051 12.0885 436.111 12.3151 436.194 12.3984C436.283 12.4766 436.533 12.5339 436.944 12.5703L437.444 12.6094V13.1016C436.877 13.0651 436.364 13.0469 435.905 13.0469C435.588 13.0469 434.858 13.0651 433.718 13.1016V12.6094H434.28C434.619 12.6094 434.84 12.5625 434.944 12.4688C435.049 12.375 435.114 12.1901 435.14 11.9141C435.197 11.3411 435.226 10.5625 435.226 9.57812V5.69531C435.226 4.96615 435.218 4.24479 435.202 3.53125C435.192 3.22917 435.15 3.02344 435.077 2.91406C435.009 2.79948 434.908 2.69792 434.772 2.60938C434.637 2.52083 434.447 2.47656 434.202 2.47656H433.718V1.98438C434.379 2.02083 434.884 2.03906 435.233 2.03906C435.608 2.03906 436.02 2.02083 436.468 1.98438C436.983 2.61458 437.468 3.22917 437.921 3.82812C438.379 4.42188 438.853 5.02083 439.343 5.625L442.015 8.90625C442.978 10.0833 443.674 10.901 444.101 11.3594V6.34375C444.101 4.24479 444.062 3.09896 443.983 2.90625C443.91 2.70833 443.611 2.58333 443.085 2.53125L442.499 2.47656V1.98438C443.338 2.02083 443.989 2.03906 444.452 2.03906C444.937 2.03906 445.562 2.02083 446.327 1.98438V2.47656H445.726C445.241 2.47656 444.963 2.63802 444.89 2.96094C444.843 3.17448 444.819 4.3151 444.819 6.38281V9.90625C444.819 10.8542 444.861 11.987 444.944 13.3047C444.236 13.1953 443.825 13.1146 443.71 13.0625C443.595 13.0156 443.486 12.9349 443.382 12.8203C442.804 12.1797 442.197 11.4688 441.562 10.6875L435.944 3.75Z" fill="#A18168"/>
<path d="M245.423 8.48438C245.423 9.95713 246.617 11.151 248.09 11.151C249.563 11.151 250.757 9.95713 250.757 8.48438C250.757 7.01162 249.563 5.81771 248.09 5.81771C246.617 5.81771 245.423 7.01162 245.423 8.48438ZM296.514 8.98438C296.79 8.98438 297.014 8.76052 297.014 8.48438C297.014 8.20823 296.79 7.98438 296.514 7.98438V8.98438ZM248.09 8.98438H296.514V7.98438H248.09V8.98438Z" fill="#A18168"/>
<path d="M459.273 7.98438C458.997 7.98438 458.773 8.20823 458.773 8.48438C458.773 8.76052 458.997 8.98438 459.273 8.98438V7.98438ZM505.031 8.48438C505.031 9.95713 506.225 11.151 507.697 11.151C509.17 11.151 510.364 9.95713 510.364 8.48438C510.364 7.01162 509.17 5.81771 507.697 5.81771C506.225 5.81771 505.031 7.01162 505.031 8.48438ZM459.273 8.98438H507.697V7.98438H459.273V8.98438Z" fill="#A18168"/>
</svg>
