<svg width="15" height="15" viewBox="0 0 15 15" fill="none" xmlns="http://www.w3.org/2000/svg">
<path d="M7.54536 1.45988C7.6651 1.09136 8.18646 1.09136 8.3062 1.45988L9.40757 4.84955C9.46112 5.01436 9.61471 5.12594 9.788 5.12594H13.3521C13.7396 5.12594 13.9007 5.62179 13.5872 5.84955L10.7038 7.94448C10.5636 8.04634 10.5049 8.22688 10.5585 8.39169L11.6599 11.7814C11.7796 12.1499 11.3578 12.4563 11.0443 12.2286L8.1609 10.1336C8.0207 10.0318 7.83086 10.0318 7.69067 10.1336L4.80724 12.2286C4.49376 12.4563 4.07197 12.1499 4.19171 11.7814L5.29308 8.39169C5.34663 8.22688 5.28796 8.04634 5.14777 7.94448L2.26434 5.84955C1.95086 5.62179 2.11197 5.12594 2.49946 5.12594H6.06357C6.23686 5.12594 6.39044 5.01436 6.44399 4.84955L7.54536 1.45988Z" fill="#B86F2A"/>
</svg>
