<svg width="754" height="29" viewBox="0 0 754 29" fill="none" xmlns="http://www.w3.org/2000/svg">
<path d="M317.327 3.83594V9.23438C317.327 10.4635 317.351 11.3203 317.397 11.8047C317.434 12.1745 317.494 12.401 317.577 12.4844C317.666 12.5625 317.916 12.6198 318.327 12.6562L318.827 12.6953V13.1875C318.259 13.151 317.746 13.1328 317.288 13.1328C316.97 13.1328 316.241 13.151 315.101 13.1875V12.6953H315.663C316.002 12.6953 316.223 12.6484 316.327 12.5547C316.431 12.4609 316.496 12.276 316.522 12C316.58 11.4271 316.608 10.6484 316.608 9.66406V5.78125C316.608 5.05208 316.601 4.33073 316.585 3.61719C316.575 3.3151 316.533 3.10938 316.46 3C316.392 2.88542 316.291 2.78385 316.155 2.69531C316.02 2.60677 315.83 2.5625 315.585 2.5625H315.101V2.07031C315.762 2.10677 316.267 2.125 316.616 2.125C316.991 2.125 317.403 2.10677 317.851 2.07031C318.366 2.70052 318.851 3.3151 319.304 3.91406C319.762 4.50781 320.236 5.10677 320.726 5.71094L323.397 8.99219C324.361 10.1693 325.056 10.987 325.483 11.4453V6.42969C325.483 4.33073 325.444 3.1849 325.366 2.99219C325.293 2.79427 324.994 2.66927 324.468 2.61719L323.882 2.5625V2.07031C324.72 2.10677 325.371 2.125 325.835 2.125C326.319 2.125 326.944 2.10677 327.71 2.07031V2.5625H327.108C326.624 2.5625 326.345 2.72396 326.272 3.04688C326.226 3.26042 326.202 4.40104 326.202 6.46875V9.99219C326.202 10.9401 326.244 12.0729 326.327 13.3906C325.619 13.2812 325.207 13.2005 325.093 13.1484C324.978 13.1016 324.869 13.0208 324.765 12.9062C324.187 12.2656 323.58 11.5547 322.944 10.7734L317.327 3.83594ZM331.593 7.88281V9.79688L331.601 10.8984C331.601 11.5859 331.608 12.0885 331.624 12.4062C332.384 12.4635 333.2 12.4922 334.069 12.4922C334.653 12.4922 335.142 12.4661 335.538 12.4141C335.793 12.3828 336.064 12.3151 336.351 12.2109C336.481 11.7526 336.614 11.1797 336.749 10.4922H337.272C337.132 11.6328 337.062 12.3932 337.062 12.7734L337.077 13.125C336.478 13.1823 335.89 13.2109 335.312 13.2109L334.085 13.1875C332.731 13.151 331.736 13.1328 331.101 13.1328C330.491 13.1328 329.681 13.151 328.671 13.1875V12.6953H328.913C329.366 12.6953 329.65 12.651 329.765 12.5625C329.884 12.474 329.963 12.2656 329.999 11.9375C330.041 11.6094 330.062 10.8854 330.062 9.76562V5.47656C330.062 4.77344 330.043 4.19792 330.007 3.75C329.976 3.30208 329.939 3.03646 329.897 2.95312C329.861 2.86458 329.806 2.79688 329.733 2.75C329.66 2.70312 329.437 2.66146 329.062 2.625L328.46 2.5625V2.07812H329.304L330.132 2.10156C330.595 2.11719 330.947 2.125 331.187 2.125L334.187 2.08594L335.608 2.07812C336.093 2.07292 336.582 2.09375 337.077 2.14062C336.879 2.75521 336.77 3.55469 336.749 4.53906H336.218C336.218 3.96615 336.189 3.48958 336.132 3.10938C335.517 2.88021 334.762 2.76562 333.866 2.76562C333.153 2.76562 332.405 2.79688 331.624 2.85938C331.629 3.34896 331.624 3.83854 331.608 4.32812L331.593 5.53125V7.11719C332.108 7.14844 332.564 7.16406 332.96 7.16406C334.2 7.16406 334.9 7.1224 335.062 7.03906C335.228 6.95052 335.312 6.68229 335.312 6.23438V5.72656H335.843C335.806 6.51302 335.788 7.14062 335.788 7.60938C335.788 8.10417 335.806 8.6875 335.843 9.35938H335.312V8.90625C335.312 8.40625 335.213 8.10156 335.015 7.99219C334.822 7.8776 334.134 7.82031 332.952 7.82031C332.515 7.82031 332.062 7.84115 331.593 7.88281ZM342.397 10.8125L344.21 6.34375C344.517 5.57812 345.075 4.11979 345.882 1.96875H346.374C346.681 2.93229 347.095 4.15104 347.616 5.625L349.499 10.9219L350.929 5.97656C351.064 5.5026 351.299 4.59115 351.632 3.24219C351.663 3.1224 351.679 3.02344 351.679 2.94531C351.679 2.85156 351.64 2.78125 351.562 2.73438C351.483 2.6875 351.291 2.64844 350.983 2.61719L350.272 2.5625V2.07031C351.007 2.10677 351.582 2.125 351.999 2.125C352.447 2.125 353.002 2.10677 353.663 2.07031V2.5625H353.257C353.08 2.5625 352.947 2.60417 352.858 2.6875C352.692 2.85938 352.296 3.95312 351.671 5.96875C350.843 8.65625 350.155 11.1042 349.608 13.3125H348.796C348.702 12.9635 348.624 12.7031 348.562 12.5312C348.332 11.8594 347.801 10.3802 346.968 8.09375L345.687 4.57812L344.226 8.11719C343.351 10.2318 342.702 11.9635 342.28 13.3125H341.491L341.077 11.3906C340.963 10.8229 340.83 10.2188 340.679 9.57812L339.319 3.73438C339.189 3.16146 339.072 2.82292 338.968 2.71875C338.864 2.61458 338.647 2.5625 338.319 2.5625H337.991V2.07031C338.736 2.10677 339.379 2.125 339.921 2.125C340.447 2.125 341.158 2.10677 342.054 2.07031V2.5625H341.562C341.207 2.5625 340.976 2.59375 340.866 2.65625C340.762 2.71875 340.71 2.82031 340.71 2.96094C340.71 3.04427 340.723 3.14062 340.749 3.25L341.288 5.84375L342.397 10.8125ZM366.022 9.4375H361.507L360.976 10.6953C360.627 11.5286 360.452 12.0391 360.452 12.2266C360.452 12.3464 360.483 12.4323 360.546 12.4844C360.614 12.5365 360.78 12.5781 361.046 12.6094L361.796 12.6953V13.1875C361.296 13.151 360.733 13.1328 360.108 13.1328C359.358 13.1328 358.7 13.151 358.132 13.1875V12.6953L358.366 12.6875C358.731 12.6771 358.965 12.6406 359.069 12.5781C359.179 12.5104 359.293 12.349 359.413 12.0938C359.783 11.3438 360.16 10.5339 360.546 9.66406L362.694 4.79688C363.267 3.50521 363.658 2.56771 363.866 1.98438H364.397L368.351 11.1797C368.616 11.8047 368.793 12.1823 368.882 12.3125C368.97 12.4375 369.072 12.5286 369.187 12.5859C369.301 12.638 369.559 12.6745 369.96 12.6953V13.1875C369.283 13.151 368.637 13.1328 368.022 13.1328C367.45 13.1328 366.687 13.151 365.733 13.1875V12.6953L366.507 12.6484C366.783 12.6276 366.947 12.599 366.999 12.5625C367.077 12.5052 367.116 12.4323 367.116 12.3438C367.116 12.25 367.038 12.0052 366.882 11.6094L366.022 9.4375ZM361.796 8.79688H365.733L363.765 4.09375L361.796 8.79688ZM376.444 7.54688C376.955 8.28125 377.588 9.13542 378.343 10.1094L379.843 12.0547C380.108 12.388 380.285 12.5781 380.374 12.625C380.463 12.6719 380.554 12.6953 380.647 12.6953H380.851V13.1875C380.418 13.151 380.041 13.1328 379.718 13.1328C379.421 13.1328 379.108 13.151 378.78 13.1875L376.015 9.45312C375.499 8.76562 374.947 8.09375 374.358 7.4375L374.437 7.17188C374.739 7.19792 374.963 7.21094 375.108 7.21094C375.978 7.21094 376.658 6.98698 377.147 6.53906C377.642 6.09115 377.89 5.49219 377.89 4.74219C377.89 4.07031 377.681 3.54688 377.265 3.17188C376.848 2.79167 376.246 2.60156 375.46 2.60156C374.913 2.60156 374.364 2.70312 373.812 2.90625C373.749 3.73438 373.718 4.61979 373.718 5.5625V9.33594C373.718 11.1745 373.762 12.1953 373.851 12.3984C373.939 12.5964 374.226 12.6953 374.71 12.6953H375.319V13.1875C374.455 13.151 373.739 13.1328 373.171 13.1328C372.723 13.1328 371.913 13.151 370.741 13.1875V12.6953H371.327C371.775 12.6953 372.041 12.599 372.124 12.4062C372.207 12.2083 372.249 11.1797 372.249 9.32031V5.5625C372.249 3.94792 372.2 3.04427 372.101 2.85156C372.007 2.65885 371.694 2.5625 371.163 2.5625H370.741V2.0625C371.71 2.10417 372.45 2.125 372.96 2.125C373.304 2.125 373.799 2.11198 374.444 2.08594C375.194 2.0599 375.733 2.04688 376.062 2.04688C376.963 2.04688 377.645 2.14323 378.108 2.33594C378.577 2.52344 378.931 2.79688 379.171 3.15625C379.416 3.51562 379.538 3.94531 379.538 4.44531C379.538 5.17969 379.272 5.82812 378.741 6.39062C378.215 6.95312 377.45 7.33854 376.444 7.54688ZM387.132 7.54688C387.642 8.28125 388.275 9.13542 389.03 10.1094L390.53 12.0547C390.796 12.388 390.973 12.5781 391.062 12.625C391.15 12.6719 391.241 12.6953 391.335 12.6953H391.538V13.1875C391.106 13.151 390.728 13.1328 390.405 13.1328C390.108 13.1328 389.796 13.151 389.468 13.1875L386.702 9.45312C386.187 8.76562 385.634 8.09375 385.046 7.4375L385.124 7.17188C385.426 7.19792 385.65 7.21094 385.796 7.21094C386.666 7.21094 387.345 6.98698 387.835 6.53906C388.33 6.09115 388.577 5.49219 388.577 4.74219C388.577 4.07031 388.369 3.54688 387.952 3.17188C387.535 2.79167 386.934 2.60156 386.147 2.60156C385.601 2.60156 385.051 2.70312 384.499 2.90625C384.437 3.73438 384.405 4.61979 384.405 5.5625V9.33594C384.405 11.1745 384.45 12.1953 384.538 12.3984C384.627 12.5964 384.913 12.6953 385.397 12.6953H386.007V13.1875C385.142 13.151 384.426 13.1328 383.858 13.1328C383.41 13.1328 382.601 13.151 381.429 13.1875V12.6953H382.015C382.463 12.6953 382.728 12.599 382.812 12.4062C382.895 12.2083 382.937 11.1797 382.937 9.32031V5.5625C382.937 3.94792 382.887 3.04427 382.788 2.85156C382.694 2.65885 382.382 2.5625 381.851 2.5625H381.429V2.0625C382.397 2.10417 383.137 2.125 383.647 2.125C383.991 2.125 384.486 2.11198 385.132 2.08594C385.882 2.0599 386.421 2.04688 386.749 2.04688C387.65 2.04688 388.332 2.14323 388.796 2.33594C389.265 2.52344 389.619 2.79688 389.858 3.15625C390.103 3.51562 390.226 3.94531 390.226 4.44531C390.226 5.17969 389.96 5.82812 389.429 6.39062C388.903 6.95312 388.137 7.33854 387.132 7.54688ZM392.132 12.6953H392.624C393.108 12.6953 393.397 12.5781 393.491 12.3438C393.59 12.1094 393.64 10.987 393.64 8.97656V6.32812C393.64 4.24479 393.598 3.09635 393.515 2.88281C393.431 2.66927 393.181 2.5625 392.765 2.5625H392.132V2.07031C392.996 2.10677 393.851 2.125 394.694 2.125C395.397 2.125 396.035 2.10677 396.608 2.07031V2.5625H396.007C395.637 2.5625 395.405 2.60677 395.312 2.69531C395.218 2.78385 395.163 3.00781 395.147 3.36719C395.121 3.92448 395.108 4.91667 395.108 6.34375V9.03906C395.108 11.0651 395.153 12.1823 395.241 12.3906C395.33 12.5938 395.614 12.6953 396.093 12.6953H396.608V13.1875C395.968 13.151 395.27 13.1328 394.515 13.1328C393.634 13.1328 392.84 13.151 392.132 13.1875V12.6953ZM402.452 13.3125C402.218 12.6146 401.978 11.9609 401.733 11.3516L398.937 4.35938C398.535 3.34896 398.301 2.79688 398.233 2.70312C398.166 2.60938 397.942 2.5625 397.562 2.5625H397.241V2.07031C398.059 2.10677 398.754 2.125 399.327 2.125C399.931 2.125 400.655 2.10677 401.499 2.07031V2.63281H400.726C400.46 2.63281 400.288 2.65885 400.21 2.71094C400.132 2.75781 400.093 2.83333 400.093 2.9375C400.093 3.00521 400.106 3.08073 400.132 3.16406L401.147 5.84375L403.257 11.2266L405.312 6.09375C406.004 4.34896 406.351 3.32812 406.351 3.03125C406.351 2.79167 406.207 2.66667 405.921 2.65625L405.601 2.63281L404.929 2.5625V2.07031C405.621 2.10677 406.192 2.125 406.64 2.125C407.108 2.125 407.697 2.10677 408.405 2.07031V2.5625H408.093C407.843 2.5625 407.66 2.6224 407.546 2.74219C407.437 2.85677 407.236 3.27083 406.944 3.98438L404.312 10.4141C403.817 11.6224 403.465 12.5885 403.257 13.3125H402.452ZM416.804 9.4375H412.288L411.757 10.6953C411.408 11.5286 411.233 12.0391 411.233 12.2266C411.233 12.3464 411.265 12.4323 411.327 12.4844C411.395 12.5365 411.562 12.5781 411.827 12.6094L412.577 12.6953V13.1875C412.077 13.151 411.515 13.1328 410.89 13.1328C410.14 13.1328 409.481 13.151 408.913 13.1875V12.6953L409.147 12.6875C409.512 12.6771 409.746 12.6406 409.851 12.5781C409.96 12.5104 410.075 12.349 410.194 12.0938C410.564 11.3438 410.942 10.5339 411.327 9.66406L413.476 4.79688C414.049 3.50521 414.439 2.56771 414.647 1.98438H415.179L419.132 11.1797C419.397 11.8047 419.575 12.1823 419.663 12.3125C419.752 12.4375 419.853 12.5286 419.968 12.5859C420.082 12.638 420.34 12.6745 420.741 12.6953V13.1875C420.064 13.151 419.418 13.1328 418.804 13.1328C418.231 13.1328 417.468 13.151 416.515 13.1875V12.6953L417.288 12.6484C417.564 12.6276 417.728 12.599 417.78 12.5625C417.858 12.5052 417.897 12.4323 417.897 12.3438C417.897 12.25 417.819 12.0052 417.663 11.6094L416.804 9.4375ZM412.577 8.79688H416.515L414.546 4.09375L412.577 8.79688ZM424.53 12.4219C425.041 12.4479 425.538 12.4609 426.022 12.4609C427.002 12.4609 427.767 12.4349 428.319 12.3828C428.705 12.3411 429.103 12.2656 429.515 12.1562L429.983 10.3203H430.491C430.361 11.3047 430.259 12.224 430.187 13.0781C429.718 13.1562 429.077 13.1953 428.265 13.1953L424.546 13.1328C424.046 13.1328 423.267 13.1615 422.21 13.2188V12.8047C422.627 12.6224 422.871 12.4271 422.944 12.2188C423.022 12.0104 423.062 11.1849 423.062 9.74219V5.44531C423.062 3.88281 423.022 3.01302 422.944 2.83594C422.871 2.65365 422.66 2.5625 422.312 2.5625H421.46V2.07031C422.7 2.10677 423.522 2.125 423.929 2.125C424.47 2.125 425.205 2.10677 426.132 2.07031V2.5625H425.163C424.887 2.5625 424.713 2.64323 424.64 2.80469C424.567 2.96094 424.53 3.61979 424.53 4.78125V9.75781L424.554 11.9609L424.53 12.4219ZM438.343 2.59375C438.197 3.13542 438.119 3.85417 438.108 4.75H437.569V4.125C437.569 3.71875 437.515 3.44271 437.405 3.29688C437.296 3.15104 437.009 2.9974 436.546 2.83594C436.088 2.66927 435.603 2.58594 435.093 2.58594C434.259 2.58594 433.603 2.79688 433.124 3.21875C432.65 3.64062 432.413 4.18229 432.413 4.84375C432.413 5.26042 432.509 5.61979 432.702 5.92188C432.9 6.21875 433.163 6.4349 433.491 6.57031C433.825 6.70052 434.528 6.8151 435.601 6.91406C436.674 7.01823 437.397 7.15625 437.772 7.32812C438.153 7.5 438.455 7.77604 438.679 8.15625C438.908 8.53646 439.022 8.98698 439.022 9.50781C439.022 10.5547 438.585 11.4557 437.71 12.2109C436.835 12.9661 435.668 13.3438 434.21 13.3438C433.71 13.3438 433.205 13.2917 432.694 13.1875C432.189 13.0885 431.679 12.9401 431.163 12.7422C431.257 12.1172 431.301 11.3151 431.296 10.3359H431.827V10.7266C431.827 11.2318 431.853 11.5443 431.905 11.6641C431.957 11.7839 432.08 11.9115 432.272 12.0469C432.559 12.25 432.9 12.4062 433.296 12.5156C433.692 12.6198 434.119 12.6719 434.577 12.6719C435.562 12.6719 436.322 12.4401 436.858 11.9766C437.395 11.513 437.663 10.9245 437.663 10.2109C437.663 9.79427 437.572 9.44271 437.39 9.15625C437.207 8.86458 436.952 8.64844 436.624 8.50781C436.296 8.36719 435.689 8.26042 434.804 8.1875C433.627 8.09375 432.827 7.95312 432.405 7.76562C431.983 7.57812 431.653 7.28385 431.413 6.88281C431.174 6.47656 431.054 5.97396 431.054 5.375C431.054 4.35938 431.421 3.52865 432.155 2.88281C432.89 2.23698 433.905 1.91406 435.202 1.91406C435.723 1.91406 436.244 1.97135 436.765 2.08594C437.291 2.19531 437.817 2.36458 438.343 2.59375Z" fill="#A18168"/>
<path d="M251.423 8.57031C251.423 10.0431 252.617 11.237 254.09 11.237C255.563 11.237 256.757 10.0431 256.757 8.57031C256.757 7.09755 255.563 5.90365 254.09 5.90365C252.617 5.90365 251.423 7.09755 251.423 8.57031ZM302.514 9.07031C302.79 9.07031 303.014 8.84645 303.014 8.57031C303.014 8.29417 302.79 8.07031 302.514 8.07031V9.07031ZM254.09 9.07031H302.514V8.07031H254.09V9.07031Z" fill="#A18168"/>
<path d="M451.273 8.07031C450.997 8.07031 450.773 8.29417 450.773 8.57031C450.773 8.84645 450.997 9.07031 451.273 9.07031V8.07031ZM497.031 8.57031C497.031 10.0431 498.225 11.237 499.697 11.237C501.17 11.237 502.364 10.0431 502.364 8.57031C502.364 7.09755 501.17 5.90365 499.697 5.90365C498.225 5.90365 497.031 7.09755 497.031 8.57031ZM451.273 9.07031H499.697V8.07031H451.273V9.07031Z" fill="#A18168"/>
</svg>
