<svg width="35" height="32" viewBox="0 0 35 32" fill="none" xmlns="http://www.w3.org/2000/svg">
<path d="M1.66797 19.3333H6.90164C7.82701 19.3333 8.71448 19.6845 9.36882 20.3096C10.0232 20.9348 10.3908 21.7826 10.3908 22.6667V27.6667C10.3908 28.5507 10.0232 29.3986 9.36882 30.0237C8.71448 30.6488 7.82701 31 6.90164 31H5.15708C4.23171 31 3.34424 30.6488 2.68991 30.0237C2.03557 29.3986 1.66797 28.5507 1.66797 27.6667V16C1.66797 12.0218 3.32218 8.20644 6.26669 5.3934C9.2112 2.58035 13.2048 1 17.369 1C21.5332 1 25.5268 2.58035 28.4713 5.3934C31.4158 8.20644 33.07 12.0218 33.07 16V27.6667C33.07 28.5507 32.7024 29.3986 32.0481 30.0237C31.3937 30.6488 30.5063 31 29.5809 31H27.8363C26.911 31 26.0235 30.6488 25.3692 30.0237C24.7148 29.3986 24.3472 28.5507 24.3472 27.6667V22.6667C24.3472 21.7826 24.7148 20.9348 25.3692 20.3096C26.0235 19.6845 26.911 19.3333 27.8363 19.3333H33.07" stroke="#A18168" stroke-width="2" stroke-linecap="round" stroke-linejoin="round"/>
</svg>
