<svg width="15" height="15" viewBox="0 0 15 15" fill="none" xmlns="http://www.w3.org/2000/svg">
<path d="M11.1169 0.96875H4.67178C2.89201 0.96875 1.44922 2.41154 1.44922 4.19131V10.6364C1.44922 12.4162 2.89201 13.859 4.67178 13.859H11.1169C12.8967 13.859 14.3394 12.4162 14.3394 10.6364V4.19131C14.3394 2.41154 12.8967 0.96875 11.1169 0.96875Z" stroke="black" stroke-linecap="round" stroke-linejoin="round"/>
<path d="M10.472 7.00458C10.5515 7.54097 10.4599 8.08879 10.2101 8.57011C9.96038 9.05143 9.56523 9.44174 9.08086 9.68554C8.5965 9.92933 8.0476 10.0142 7.51222 9.92804C6.97685 9.84189 6.48228 9.58912 6.09884 9.20569C5.71541 8.82226 5.46264 8.32768 5.37649 7.79231C5.29035 7.25694 5.3752 6.70804 5.619 6.22367C5.86279 5.73931 6.25311 5.34415 6.73443 5.0944C7.21575 4.84466 7.76356 4.75304 8.29996 4.83258C8.8471 4.91371 9.35364 5.16866 9.74475 5.55978C10.1359 5.9509 10.3908 6.45744 10.472 7.00458Z" stroke="black" stroke-linecap="round" stroke-linejoin="round"/>
<path d="M11.4375 3.86719H11.4439" stroke="black" stroke-linecap="round" stroke-linejoin="round"/>
</svg>
