<svg class="animated" id="freepik_stories-progress-indicator" xmlns="http://www.w3.org/2000/svg" viewBox="0 0 500 500" version="1.1" xmlns:xlink="http://www.w3.org/1999/xlink" xmlns:svgjs="http://svgjs.com/svgjs"><style>svg#freepik_stories-progress-indicator:not(.animated) .animable {opacity: 0;}svg#freepik_stories-progress-indicator.animated #freepik--progress-indicator--inject-149 {animation: 1.5s Infinite  linear wind;animation-delay: 0s;}            @keyframes wind {                0% {                    transform: rotate( 0deg );                }                25% {                    transform: rotate( 1deg );                }                75% {                    transform: rotate( -1deg );                }            }        </style><g id="freepik--Floor--inject-149" class="animable" style="transform-origin: 250px 347.532px;"><path d="M409,255.09c-88.41-51-231.28-51-319.12,0S2.55,388.9,91,439.94s231.28,51.05,319.12,0S497.45,306.14,409,255.09Z" style="fill: rgb(245, 245, 245); transform-origin: 250px 347.532px;" id="el96skbhzotvw" class="animable"></path></g><g id="freepik--Shadows--inject-149" class="animable" style="transform-origin: 240.833px 347.926px;"><path d="M60.13,340.16c-6.2-3.58-16.23-3.58-22.39,0s-6.14,9.39.07,13,16.23,3.58,22.4,0S66.34,343.75,60.13,340.16Z" style="fill: rgb(224, 224, 224); transform-origin: 48.9744px 346.666px;" id="el8qtdztuj0fs" class="animable"></path><path d="M443.6,342.9c-6.53-3.78-17.1-3.78-23.6,0s-6.46,9.89.08,13.67,17.1,3.77,23.6,0S450.14,346.67,443.6,342.9Z" style="fill: rgb(224, 224, 224); transform-origin: 431.84px 349.733px;" id="elwpaweynwgro" class="animable"></path><polygon points="296.47 248.79 67.2 382.87 56.56 376.72 285.83 242.65 296.47 248.79" style="fill: rgb(224, 224, 224); transform-origin: 176.515px 312.76px;" id="elsrf5ivvqgo" class="animable"></polygon><path d="M397.68,338.65c-30.71-17.73-80.34-17.73-110.85,0-19.95,11.6-26.78,27.9-20.54,42.76-15,.37-29.73,3.86-41.13,10.48-24.13,14-24,36.77.29,50.8s63.55,14,87.69,0c12.78-7.43,18.75-17.3,17.94-27,23.74,2,48.76-2.22,67-12.8C428.56,385.13,428.4,356.38,397.68,338.65Z" style="fill: rgb(224, 224, 224); transform-origin: 313.989px 389.277px;" id="elk10so6ft84n" class="animable"></path></g><g id="freepik--Windows--inject-149" class="animable" style="transform-origin: 373.38px 144.775px;"><polygon points="359.43 73.17 354.87 70.56 354.58 198.18 354.59 198.18 391.41 219.21 391.43 213.98 391.7 91.59 359.43 73.17" style="fill: rgb(240, 240, 240); transform-origin: 373.14px 144.885px;" id="elns8hro337kp" class="animable"></polygon><g id="elhb6r7be6ya"><polygon points="359.16 195.55 359.43 73.17 354.87 70.56 354.58 198.18 354.59 198.18 359.18 195.56 359.16 195.55" style="opacity: 0.1; transform-origin: 357.005px 134.37px;" class="animable" id="elluvowmq6u4"></polygon></g><g id="elww0kr8jgmk"><polygon points="391.43 213.98 359.18 195.56 354.59 198.18 391.41 219.21 391.43 213.98" style="opacity: 0.2; transform-origin: 373.01px 207.385px;" class="animable" id="elcyvz5i00fnk"></polygon></g><polygon points="309.53 44.19 304.96 41.58 304.68 169.19 304.69 169.2 341.51 190.23 341.52 185 341.79 62.61 309.53 44.19" style="fill: rgb(240, 240, 240); transform-origin: 323.235px 115.905px;" id="elwpvifgh97id" class="animable"></polygon><g id="elsx835bfxud"><polygon points="309.26 166.57 309.53 44.19 304.96 41.58 304.68 169.19 304.69 169.2 309.27 166.58 309.26 166.57" style="opacity: 0.1; transform-origin: 307.105px 105.39px;" class="animable" id="el6iue9e16d7b"></polygon></g><g id="eloceus7i6fgb"><polygon points="341.52 185 309.27 166.58 304.69 169.2 341.51 190.23 341.52 185" style="opacity: 0.2; transform-origin: 323.105px 178.405px;" class="animable" id="elusek48wa13"></polygon></g><polygon points="409.82 101.94 405.25 99.33 404.97 226.94 404.98 226.95 441.8 247.97 441.81 242.75 442.08 120.36 409.82 101.94" style="fill: rgb(240, 240, 240); transform-origin: 423.525px 173.65px;" id="elbfxmz3v3lqg" class="animable"></polygon><g id="el1p5wlchj0p6"><polygon points="409.55 224.32 409.82 101.94 405.25 99.33 404.97 226.94 404.98 226.95 409.56 224.33 409.55 224.32" style="opacity: 0.1; transform-origin: 407.395px 163.14px;" class="animable" id="elk5jbfmn5cul"></polygon></g><g id="eliwwc2538g47"><polygon points="441.81 242.75 409.56 224.33 404.98 226.95 441.8 247.97 441.81 242.75" style="opacity: 0.2; transform-origin: 423.395px 236.15px;" class="animable" id="el520tyl7j4mj"></polygon></g></g><g id="freepik--Plants--inject-149" class="animable" style="transform-origin: 246.805px 303.453px;"><path d="M64,319.55,49,320l-15-.44C33.3,329.69,35.28,340,38,345.08h0a6.89,6.89,0,0,0,3,3c4.43,2.56,11.59,2.56,16,0A6.68,6.68,0,0,0,60,345C62.68,339.93,64.64,329.64,64,319.55Z" style="fill: rgb(255, 255, 255); transform-origin: 48.9901px 334.775px;" id="el2jqe7hpntft" class="animable"></path><path d="M59.56,313.4c5.88,3.39,5.92,8.9.07,12.3s-15.36,3.4-21.25,0-5.91-8.91-.07-12.3S53.67,310,59.56,313.4Z" style="fill: rgb(235, 235, 235); transform-origin: 48.97px 319.552px;" id="elzxxd957v24l" class="animable"></path><path d="M57.23,314.75c4.59,2.65,4.62,6.95.06,9.6s-12,2.65-16.58,0-4.62-7-.05-9.6S52.64,312.1,57.23,314.75Z" style="fill: rgb(224, 224, 224); transform-origin: 48.9725px 319.559px;" id="el94dhbvbfk1e" class="animable"></path><g id="elxe45twol3xr"><g style="opacity: 0.15; transform-origin: 48.9725px 319.559px;" class="animable" id="el05uevnaquhw"><path d="M57.23,314.75c4.59,2.65,4.62,6.95.06,9.6s-12,2.65-16.58,0-4.62-7-.05-9.6S52.64,312.1,57.23,314.75Z" id="el0cbpcpvja66q" class="animable" style="transform-origin: 48.9725px 319.559px;"></path></g></g><path d="M41.31,288.81c-2.45-3-5.28-5.76-7.52-8.95-1.53-2.18-2.81-4.84-2.17-7.42a6.64,6.64,0,0,1,5.26-4.63,10.07,10.07,0,0,1,7.06,1.57,21.65,21.65,0,0,1,5.34,5.08,53,53,0,0,1,11.16,37.86,8,8,0,0,1-1.39,4.35A4.36,4.36,0,0,1,54.56,318c-4.09-1.22-3.55-6.74-4.22-10a45.89,45.89,0,0,0-4.7-12.76A44,44,0,0,0,41.31,288.81Z" style="fill: #B46C6C; transform-origin: 46.0649px 292.934px;" id="elfzma4eq66c" class="animable"></path><g id="elc45rdks91ew"><path d="M41.31,288.81c-2.45-3-5.28-5.76-7.52-8.95-1.53-2.18-2.81-4.84-2.17-7.42a6.64,6.64,0,0,1,5.26-4.63,10.07,10.07,0,0,1,7.06,1.57,21.65,21.65,0,0,1,5.34,5.08,53,53,0,0,1,11.16,37.86,8,8,0,0,1-1.39,4.35A4.36,4.36,0,0,1,54.56,318c-4.09-1.22-3.55-6.74-4.22-10a45.89,45.89,0,0,0-4.7-12.76A44,44,0,0,0,41.31,288.81Z" style="opacity: 0.2; transform-origin: 46.0649px 292.934px;" class="animable" id="el559km2wl2h4"></path></g><path d="M54.81,313.92a.36.36,0,0,1-.29-.34c-.28-6.57-2.42-29-17.87-41.71a.36.36,0,0,1,0-.51.35.35,0,0,1,.5,0C52.79,284.23,55,306.91,55.24,313.55a.37.37,0,0,1-.34.38Z" style="fill: rgb(240, 240, 240); transform-origin: 45.8921px 292.592px;" id="el8mf05z2xi4f" class="animable"></path><path d="M57.07,314.63a11,11,0,0,1-5,7,14.1,14.1,0,0,1-7.59,1.27A33.17,33.17,0,0,1,36.75,321c-1.24-.42-2.61-1-2.75-2.51a2.73,2.73,0,0,1,.88-2.16,7.79,7.79,0,0,1,.8-.69.8.8,0,0,0-.42-1.43,18.1,18.1,0,0,1-2.2-.27,9.71,9.71,0,0,1-4.61-2.08,7.58,7.58,0,0,1-2.13-3.16,3,3,0,0,1,.3-3.1,3.39,3.39,0,0,1,1.71-.74q.83-.18,1.65-.3a.74.74,0,0,0,.17-1.41l-2.33-1a4.43,4.43,0,0,1-1.77-1.09,3.87,3.87,0,0,1-.44-3.22c.28-1.45.78-2.86,1.13-4.31a9.28,9.28,0,0,0,.15-4.41,37.28,37.28,0,0,1,13.06.87,9.5,9.5,0,0,1,3.56,1.56,5.25,5.25,0,0,1,1.68,4.8.34.34,0,0,0,.63.18l1.49-2.75a1.77,1.77,0,0,1,2.32-.74,10.8,10.8,0,0,1,3.4,2.68,5.9,5.9,0,0,1,1.46,4.36,37.55,37.55,0,0,1-1.09,6.4.6.6,0,0,0,.93.63l.07-.06a2,2,0,0,1,1.41-.4c1.31.16,1.65,1.49,1.74,2.63A22.36,22.36,0,0,1,57.07,314.63Z" style="fill: #B46C6C; transform-origin: 41.5003px 305.941px;" id="eldqlue0e6mjw" class="animable"></path><g id="elc54vzcwj7is"><path d="M57.07,314.63a11,11,0,0,1-5,7,14.1,14.1,0,0,1-7.59,1.27A33.17,33.17,0,0,1,36.75,321c-1.24-.42-2.61-1-2.75-2.51a2.73,2.73,0,0,1,.88-2.16,7.79,7.79,0,0,1,.8-.69.8.8,0,0,0-.42-1.43,18.1,18.1,0,0,1-2.2-.27,9.71,9.71,0,0,1-4.61-2.08,7.58,7.58,0,0,1-2.13-3.16,3,3,0,0,1,.3-3.1,3.39,3.39,0,0,1,1.71-.74q.83-.18,1.65-.3a.74.74,0,0,0,.17-1.41l-2.33-1a4.43,4.43,0,0,1-1.77-1.09,3.87,3.87,0,0,1-.44-3.22c.28-1.45.78-2.86,1.13-4.31a9.28,9.28,0,0,0,.15-4.41,37.28,37.28,0,0,1,13.06.87,9.5,9.5,0,0,1,3.56,1.56,5.25,5.25,0,0,1,1.68,4.8.34.34,0,0,0,.63.18l1.49-2.75a1.77,1.77,0,0,1,2.32-.74,10.8,10.8,0,0,1,3.4,2.68,5.9,5.9,0,0,1,1.46,4.36,37.55,37.55,0,0,1-1.09,6.4.6.6,0,0,0,.93.63l.07-.06a2,2,0,0,1,1.41-.4c1.31.16,1.65,1.49,1.74,2.63A22.36,22.36,0,0,1,57.07,314.63Z" style="opacity: 0.2; transform-origin: 41.5003px 305.941px;" class="animable" id="el0yayrs61e3z"></path></g><g id="elnpqsv7o4w1p"><path d="M57.07,314.63a11,11,0,0,1-5,7,14.1,14.1,0,0,1-7.59,1.27A33.17,33.17,0,0,1,36.75,321c-1.24-.42-2.61-1-2.75-2.51a2.73,2.73,0,0,1,.88-2.16,7.79,7.79,0,0,1,.8-.69.8.8,0,0,0-.42-1.43,18.1,18.1,0,0,1-2.2-.27,9.71,9.71,0,0,1-4.61-2.08,7.58,7.58,0,0,1-2.13-3.16,3,3,0,0,1,.3-3.1,3.39,3.39,0,0,1,1.71-.74q.83-.18,1.65-.3a.74.74,0,0,0,.17-1.41l-2.33-1a4.43,4.43,0,0,1-1.77-1.09,3.87,3.87,0,0,1-.44-3.22c.28-1.45.78-2.86,1.13-4.31a9.28,9.28,0,0,0,.15-4.41,37.28,37.28,0,0,1,13.06.87,9.5,9.5,0,0,1,3.56,1.56,5.25,5.25,0,0,1,1.68,4.8.34.34,0,0,0,.63.18l1.49-2.75a1.77,1.77,0,0,1,2.32-.74,10.8,10.8,0,0,1,3.4,2.68,5.9,5.9,0,0,1,1.46,4.36,37.55,37.55,0,0,1-1.09,6.4.6.6,0,0,0,.93.63l.07-.06a2,2,0,0,1,1.41-.4c1.31.16,1.65,1.49,1.74,2.63A22.36,22.36,0,0,1,57.07,314.63Z" style="fill: rgb(255, 255, 255); opacity: 0.2; transform-origin: 41.5003px 305.941px;" class="animable" id="elwd5vazsxfvf"></path></g><path d="M50.15,321.23a53.21,53.21,0,0,0-3.51-10.18.35.35,0,0,0-.13-.26l-.24-.54a33.11,33.11,0,0,1,3.47-11.65.36.36,0,1,0-.62-.35,33.55,33.55,0,0,0-3.42,10.83,47.76,47.76,0,0,0-15-18,.36.36,0,1,0-.41.59c7.55,5.25,12.32,12.54,15.21,18.58A21.83,21.83,0,0,0,33,308.54a.35.35,0,0,0-.29.41.38.38,0,0,0,.29.29h.13c.07,0,6.9-1.26,12.81,2.05a51.53,51.53,0,0,1,3.48,10.08.38.38,0,0,0,.29.28.33.33,0,0,0,.14,0A.36.36,0,0,0,50.15,321.23Z" style="fill: rgb(240, 240, 240); transform-origin: 40.1357px 306.33px;" id="elhpsgs1ta6jv" class="animable"></path><path d="M447.67,321.17l-15.83.46L416,321.17c-.68,10.69,1.4,21.59,4.28,26.91h0a7.18,7.18,0,0,0,3.14,3.19c4.67,2.7,12.22,2.7,16.86,0a7,7,0,0,0,3.13-3.27C446.29,342.65,448.35,331.81,447.67,321.17Z" style="fill: rgb(255, 255, 255); transform-origin: 431.835px 337.233px;" id="elkqmt1354i8" class="animable"></path><path d="M443,314.69c6.2,3.58,6.24,9.38.07,13s-16.18,3.58-22.39,0-6.23-9.39-.07-13S436.8,311.1,443,314.69Z" style="fill: rgb(235, 235, 235); transform-origin: 431.84px 321.19px;" id="elzcbwma815dl" class="animable"></path><path d="M440.55,316.11c4.84,2.8,4.86,7.33.05,10.12s-12.62,2.79-17.46,0-4.87-7.32-.06-10.12S435.71,313.32,440.55,316.11Z" style="fill: rgb(224, 224, 224); transform-origin: 431.842px 321.168px;" id="eldsr4iyk6j3" class="animable"></path><g id="elc73nt5lzf5"><g style="opacity: 0.15; transform-origin: 431.842px 321.168px;" class="animable" id="elt2patxai0h"><path d="M440.55,316.11c4.84,2.8,4.86,7.33.05,10.12s-12.62,2.79-17.46,0-4.87-7.32-.06-10.12S435.71,313.32,440.55,316.11Z" id="elu9w0aspre7" class="animable" style="transform-origin: 431.842px 321.168px;"></path></g></g><path d="M457.87,253.61c-35.68,11.68-36,35.55-28,52.55,2,3.44,8.17,5.29,13.51-15.85l-9.37,1.2L445,286l2.84-8.48-9.1.68,11.55-4.86A171.38,171.38,0,0,1,457.87,253.61Z" style="fill: #B46C6C; transform-origin: 441.751px 280.944px;" id="eltx51coy4l4a" class="animable"></path><g id="eltfvxty71y1q"><path d="M457.87,253.61c-35.68,11.68-36,35.55-28,52.55,2,3.44,8.17,5.29,13.51-15.85l-9.37,1.2L445,286l2.84-8.48-9.1.68,11.55-4.86A171.38,171.38,0,0,1,457.87,253.61Z" style="opacity: 0.2; transform-origin: 441.751px 280.944px;" class="animable" id="elz0nsia39gp9"></path></g><g id="eluq8lzu8as1"><path d="M457.87,253.61c-35.68,11.68-36,35.55-28,52.55,2,3.44,8.17,5.29,13.51-15.85l-9.37,1.2L445,286l2.84-8.48-9.1.68,11.55-4.86A171.38,171.38,0,0,1,457.87,253.61Z" style="fill: rgb(255, 255, 255); opacity: 0.2; transform-origin: 441.751px 280.944px;" class="animable" id="el5agnthr649u"></path></g><path d="M447.78,259.58c-18.81,14.28-20.51,30.65-15.2,47.74C430.7,292.27,428.67,277.06,447.78,259.58Z" style="fill: rgb(255, 255, 255); transform-origin: 438.872px 283.45px;" id="elevzlch1ab9" class="animable"></path><path d="M397.44,277.86c35.17,4.95,39.44,27.13,34.77,44.29-1.32,3.54-6.73,6.29-15.22-12.52l8.93-.43-11.09-3.34-4.05-7.43,8.59-.88-11.57-2.61A162.14,162.14,0,0,0,397.44,277.86Z" style="fill: #B46C6C; transform-origin: 415.603px 301.282px;" id="elx7r04wswgd" class="animable"></path><g id="eln56ox18ypxa"><path d="M397.44,277.86c35.17,4.95,39.44,27.13,34.77,44.29-1.32,3.54-6.73,6.29-15.22-12.52l8.93-.43-11.09-3.34-4.05-7.43,8.59-.88-11.57-2.61A162.14,162.14,0,0,0,397.44,277.86Z" style="fill: rgb(255, 255, 255); opacity: 0.2; transform-origin: 415.603px 301.282px;" class="animable" id="elpxz8i2rmcw"></path></g><g id="elvk94fbtjai9"><path d="M397.44,277.86c35.17,4.95,39.44,27.13,34.77,44.29-1.32,3.54-6.73,6.29-15.22-12.52l8.93-.43-11.09-3.34-4.05-7.43,8.59-.88-11.57-2.61A162.14,162.14,0,0,0,397.44,277.86Z" style="opacity: 0.1; transform-origin: 415.603px 301.282px;" class="animable" id="els3x07udoqkk"></path></g><path d="M407.83,281.74c19.9,10.17,24.2,25.14,22.09,41.94C429.17,309.35,428.53,294.84,407.83,281.74Z" style="fill: rgb(255, 255, 255); transform-origin: 419.118px 302.71px;" id="elhryt3q6dyru" class="animable"></path><path d="M468.17,286.17c-32.26.52-38.59,20-36.3,36,.79,3.34,5.36,6.42,15.12-9.58l-8-1.39,10.37-1.77,4.48-6.24-7.64-1.76,10.72-1.06A144.87,144.87,0,0,1,468.17,286.17Z" style="fill: #B46C6C; transform-origin: 449.809px 305.51px;" id="elm6goc7lucyc" class="animable"></path><path d="M458.37,288.5c-19.07,6.95-24.63,19.95-24.61,35.33C436,311,438.24,298,458.37,288.5Z" style="fill: rgb(255, 255, 255); transform-origin: 446.065px 306.165px;" id="els2qwgsjxf0f" class="animable"></path><g id="eltmkrcofe1nq"><path d="M468.17,286.17c-32.26.52-38.59,20-36.3,36,.79,3.34,5.36,6.42,15.12-9.58l-8-1.39,10.37-1.77,4.48-6.24-7.64-1.76,10.72-1.06A144.87,144.87,0,0,1,468.17,286.17Z" style="fill: rgb(255, 255, 255); opacity: 0.2; transform-origin: 449.809px 305.51px;" class="animable" id="el65ykb7dnvbt"></path></g></g><g id="freepik--progress-indicator--inject-149" class="animable" style="transform-origin: 171.9px 206.48px;"><path d="M67.15,335a5.1,5.1,0,0,1-.84.38A5.1,5.1,0,0,0,67.15,335Z" style="fill: rgb(69, 90, 100); transform-origin: 66.73px 335.19px;" id="elmzmsimi1k9" class="animable"></path><path d="M65.72,335.54l-.17,0Z" style="fill: rgb(69, 90, 100); transform-origin: 65.635px 335.54px;" id="el2c33zjsoi8t" class="animable"></path><path d="M64.23,335.39v0h0l-.06,0Z" style="fill: rgb(69, 90, 100); transform-origin: 64.2px 335.39px;" id="el5ihqxtrsgwb" class="animable"></path><path d="M279.79,77.72h0a3,3,0,0,0-3.11.26L59.34,203.51A9.51,9.51,0,0,0,55,211l0,8.06h0l0,0v.33l0,13.65v.31l.46,94.73a3,3,0,0,0,1.22,2.74h0l0,0,0,0L64,335.25a3.08,3.08,0,0,1-1.18-2.7l-.46-95h0l0-14,0,0,0-8.05a9.45,9.45,0,0,1,4.3-7.46L284,82.46a3.05,3.05,0,0,1,3-.32Z" style="fill: #B46C6C; transform-origin: 171px 206.327px;" id="elb8mkyyg47sb" class="animable"></path><g id="elfcoxagtnioa"><path d="M55,211l0,8.06h0l0,0v.33l0,13.65v.31l.46,94.73a3,3,0,0,0,1.22,2.74h0l0,0,0,0L64,335.25a3.08,3.08,0,0,1-1.18-2.7l-.46-95h0l0-14,0,0,0-8.05a8.38,8.38,0,0,1,.94-3.63l-7.4-4.27A8.39,8.39,0,0,0,55,211Z" style="fill: rgb(255, 255, 255); opacity: 0.2; transform-origin: 59.5px 271.425px;" class="animable" id="elpgw3ikx4nw"></path></g><g id="elsdh33o9n5nc"><path d="M62.34,228.22l0-4.69,0,0,0-8.05a8.38,8.38,0,0,1,.94-3.63l-7.4-4.27A8.39,8.39,0,0,0,55,211l0,8.06h0l0,0v5l7.28,4.22Z" style="fill: rgb(255, 255, 255); opacity: 0.4; transform-origin: 59.14px 217.93px;" class="animable" id="elu3job2o01o"></path></g><g id="elo1oyf5cxb3"><path d="M279.79,77.72h0a3,3,0,0,0-3.11.26L59.34,203.51a9.28,9.28,0,0,0-3.47,4l7.4,4.27A9.09,9.09,0,0,1,66.63,208L284,82.46a3.05,3.05,0,0,1,3-.32Z" style="fill: rgb(255, 255, 255); opacity: 0.5; transform-origin: 171.435px 144.592px;" class="animable" id="elauhrmqk9cpp"></path></g><path d="M288.3,93l0-.05,0-8c0-2.75-1.95-3.85-4.33-2.48L66.63,208a9.45,9.45,0,0,0-4.3,7.46l0,8,0,.06,0,4.69,226-130.51Z" style="fill: #B46C6C; transform-origin: 175.33px 155.046px;" id="elqv31l6bk3hj" class="animable"></path><g id="elgflhtvlps6o"><path d="M288.3,93l0-.05,0-8c0-2.75-1.95-3.85-4.33-2.48L66.63,208a9.45,9.45,0,0,0-4.3,7.46l0,8,0,.06,0,4.69,226-130.51Z" style="fill: rgb(255, 255, 255); opacity: 0.2; transform-origin: 175.33px 155.046px;" class="animable" id="ela30ae3d4vrp"></path></g><path d="M288.34,107l0-9.3-226,130.51,0,9.29h0l.46,95c0,2.73,1.94,3.84,4.33,2.47L284.49,209.49A9.52,9.52,0,0,0,288.8,202l-.46-95Z" style="fill: #B46C6C; transform-origin: 175.57px 216.629px;" id="elpn2pl058efi" class="animable"></path><path d="M174.28,177.44l-1.82,1.05,0,7.46,1.82-1a6.69,6.69,0,0,0,3.25-5.57v0C177.54,177.1,176.22,176.32,174.28,177.44Z" style="fill: none; transform-origin: 174.995px 181.442px;" id="elcvq75w20yda" class="animable"></path><path d="M150.85,190.81a7,7,0,0,0-3.21,5.72v0c0,2.1,1.36,3.1,3.26,2a7,7,0,0,0,3.22-5.72v0C154.11,190.7,152.76,189.71,150.85,190.81Z" style="fill: none; transform-origin: 150.88px 194.669px;" id="elkkgzv9wu1g" class="animable"></path><polygon points="161.4 189.62 164.38 187.9 162.88 184.69 161.4 189.62" style="fill: none; transform-origin: 162.89px 187.155px;" id="elm9re83spcu" class="animable"></polygon><path d="M143.49,202.67l-4.38,2.52,0-8.63c0-.77-.53-1.06-1.19-.68a2.6,2.6,0,0,0-1.19,2.06l0,9.74c0,.76.54,1,1.19.68l5.56-3.21a2.37,2.37,0,0,0,1.08-1.86C144.57,202.6,144.08,202.32,143.49,202.67Z" style="fill: rgb(255, 255, 255); transform-origin: 140.645px 202.106px;" id="elnp5rm7r4vn" class="animable"></path><path d="M150.87,188.29a12.15,12.15,0,0,0-5.71,9.73c0,3.52,2.4,5,5.71,3.08a12.17,12.17,0,0,0,5.72-9.74C156.58,187.85,154.19,186.37,150.87,188.29Zm0,10.28c-1.9,1.1-3.26.1-3.26-2v0a7,7,0,0,1,3.21-5.72c1.91-1.1,3.26-.11,3.27,2v0A7,7,0,0,1,150.9,198.57Z" style="fill: rgb(255, 255, 255); transform-origin: 150.875px 194.695px;" id="eldkauty92ikk" class="animable"></path><path d="M164.35,181.61c-.27-.52-.73-.67-1.38-.3l-.14.08a3.3,3.3,0,0,0-1.37,1.88l-3.73,11.9a2.59,2.59,0,0,0-.14.67c0,.7.49,1,1.1.64a2.64,2.64,0,0,0,1.1-1.49l.74-2.46,4.73-2.73.73,1.52c.22.44.59.6,1.15.28a2.48,2.48,0,0,0,1.11-2,1,1,0,0,0-.13-.47Zm-2.95,8,1.48-4.93,1.5,3.21Z" style="fill: rgb(255, 255, 255); transform-origin: 162.92px 188.869px;" id="el3fhy31760ne" class="animable"></path><path d="M174.28,175l-3,1.74a2.57,2.57,0,0,0-1.17,2l0,9.63c0,.77.52,1.07,1.18.69l3-1.74a11.7,11.7,0,0,0,5.7-9.48v0C180,174.35,177.67,173,174.28,175Zm0,9.91-1.82,1,0-7.46,1.82-1.05c1.94-1.12,3.26-.34,3.27,1.86v0A6.69,6.69,0,0,1,174.3,184.9Z" style="fill: rgb(255, 255, 255); transform-origin: 175.05px 181.647px;" id="elb448pfsruwi" class="animable"></path><path d="M183.4,169.61a2.54,2.54,0,0,0-1.17,2l0,9.85c0,.76.53,1.06,1.18.68a2.56,2.56,0,0,0,1.19-2.05l0-9.85C184.59,169.52,184.07,169.23,183.4,169.61Z" style="fill: rgb(255, 255, 255); transform-origin: 183.415px 175.873px;" id="elgy330m0c47v" class="animable"></path><path d="M195.67,162.53a2.54,2.54,0,0,0-1.16,2l0,6.37-4.59-4.24a.92.92,0,0,0-1.24-.08l-.24.14a2.55,2.55,0,0,0-1.18,2l0,9.85c0,.74.53,1,1.18.65a2.55,2.55,0,0,0,1.16-2l0-6.62,4.75,4.4a.91.91,0,0,0,1.23.08l.08-.05a2.56,2.56,0,0,0,1.18-2l0-9.84C196.84,162.45,196.32,162.16,195.67,162.53Z" style="fill: rgb(255, 255, 255); transform-origin: 192.05px 170.872px;" id="el6j3go0jbxgu" class="animable"></path><path d="M208,160.75l-2.71,1.57a2.25,2.25,0,0,0-1,1.77c0,.65.47.9,1,.57l1.61-.92v1.76a7.07,7.07,0,0,1-2.23,2c-1.91,1.1-3.26.22-3.27-2v0a7.1,7.1,0,0,1,3.08-5.64,3,3,0,0,1,2.36-.51.83.83,0,0,0,.71-.12,2.6,2.6,0,0,0,1.18-2c0-.53-.27-.75-.5-.8-1-.22-2.05,0-3.68.92A12.07,12.07,0,0,0,199,167c0,3.66,2.33,5,5.68,3.09a13.52,13.52,0,0,0,3.76-3.4,3.51,3.51,0,0,0,.83-2.22v-3C209.22,160.67,208.69,160.37,208,160.75Z" style="fill: rgb(255, 255, 255); transform-origin: 204.135px 163.654px;" id="eltgyfqi10hom" class="animable"></path><path d="M212.42,162.42a2.79,2.79,0,0,0-1.33,2.27v0c0,.84.57,1.17,1.34.72a2.81,2.81,0,0,0,1.33-2.27v0C213.76,162.29,213.18,162,212.42,162.42Z" style="fill: rgb(255, 255, 255); transform-origin: 212.425px 163.921px;" id="elz9hh1ootswo" class="animable"></path><path d="M216.81,159.88a2.81,2.81,0,0,0-1.33,2.27v0c0,.85.57,1.17,1.34.72a2.8,2.8,0,0,0,1.34-2.27v0C218.15,159.76,217.59,159.43,216.81,159.88Z" style="fill: rgb(255, 255, 255); transform-origin: 216.82px 161.376px;" id="el4u8e36x5hz4" class="animable"></path><path d="M222.55,158.07c0-.85-.57-1.17-1.34-.73a2.81,2.81,0,0,0-1.33,2.27v0c0,.85.58,1.17,1.34.73a2.84,2.84,0,0,0,1.33-2.27Z" style="fill: rgb(255, 255, 255); transform-origin: 221.215px 158.84px;" id="elx2t29z6oe7" class="animable"></path><path d="M77.76,275.29c.17-.1.31,0,.31.18a.67.67,0,0,1-.31.53L76,277l0,5.79a.75.75,0,0,1-.34.58c-.19.11-.34,0-.34-.19l0-5.79-1.73,1c-.16.1-.31,0-.31-.17a.72.72,0,0,1,.31-.54Z" style="fill: rgb(255, 255, 255); transform-origin: 75.675px 279.332px;" id="el8buwatq1nql" class="animable"></path><path d="M79.29,274.21c.22-.13.4-.07.4.17v.13a.79.79,0,0,1-.4.63c-.21.12-.38.05-.38-.18v-.13A.77.77,0,0,1,79.29,274.21Z" style="fill: rgb(255, 255, 255); transform-origin: 79.3px 274.67px;" id="el4lyvsffdyfd" class="animable"></path><path d="M79.3,276.14c.19-.11.33,0,.33.19v4.39a.69.69,0,0,1-.32.57c-.19.11-.33,0-.33-.19v-4.39A.73.73,0,0,1,79.3,276.14Z" style="fill: rgb(255, 255, 255); transform-origin: 79.305px 278.715px;" id="elzqzqevga3r" class="animable"></path><path d="M86.19,272.1c1-.58,1.64-.15,1.64,1.09V276a.73.73,0,0,1-.33.57c-.18.11-.33,0-.33-.19v-2.62c0-1-.42-1.28-1.14-.87a2.68,2.68,0,0,0-1.21,2.27v2.57a.72.72,0,0,1-.33.58c-.18.1-.32,0-.32-.2v-2.63c0-1-.44-1.26-1.13-.86a2.75,2.75,0,0,0-1.22,2.31v2.54a.67.67,0,0,1-.32.57c-.18.11-.33,0-.33-.19l0-4.39a.76.76,0,0,1,.33-.57c.18-.1.33,0,.33.19v.52a3.52,3.52,0,0,1,1.42-1.77c.71-.42,1.17-.24,1.41.19A3.85,3.85,0,0,1,86.19,272.1Z" style="fill: rgb(255, 255, 255); transform-origin: 84.5px 275.965px;" id="elsc5qm45mw7n" class="animable"></path><path d="M93.14,270.66a.69.69,0,0,1-.31.53L89.65,273c.1,1,.77,1.26,1.55.81a3.57,3.57,0,0,0,1.27-1.32.58.58,0,0,1,.19-.19c.16-.1.28,0,.29.15a.61.61,0,0,1-.11.31,4.61,4.61,0,0,1-1.65,1.72c-1.21.7-2.2.2-2.21-1.36a4.75,4.75,0,0,1,2.11-3.87C92.39,268.53,93.13,269.32,93.14,270.66Zm-3.49,1.81,2.83-1.64c-.07-.87-.53-1.41-1.41-.9a3.31,3.31,0,0,0-1.42,2.54" style="fill: rgb(255, 255, 255); transform-origin: 91.06px 271.884px;" id="elxu9qjaspeug" class="animable"></path><path d="M99,264.74c.2-.11.33,0,.33.19a.71.71,0,0,1-.29.55,3.89,3.89,0,0,0-1.54,3.21v1.71a.7.7,0,0,1-.32.57c-.19.11-.34,0-.34-.19V266.4a.73.73,0,0,1,.33-.57c.18-.11.33,0,.33.19V267A4.22,4.22,0,0,1,99,264.74Z" style="fill: rgb(255, 255, 255); transform-origin: 98.085px 267.855px;" id="el81vp4key1vi" class="animable"></path><path d="M104,264.39a.66.66,0,0,1-.3.53l-3.19,1.84c.1,1,.77,1.27,1.56.81a3.6,3.6,0,0,0,1.26-1.31.52.52,0,0,1,.19-.2c.16-.09.29,0,.29.16a.59.59,0,0,1-.1.3,4.66,4.66,0,0,1-1.66,1.73c-1.21.69-2.2.19-2.2-1.37a4.75,4.75,0,0,1,2.1-3.87C103.24,262.26,104,263.06,104,264.39Zm-3.49,1.81,2.83-1.63c-.07-.88-.53-1.41-1.41-.91a3.39,3.39,0,0,0-1.42,2.54" style="fill: rgb(255, 255, 255); transform-origin: 101.925px 265.637px;" id="el8av6nfs2q7k" class="animable"></path><path d="M110.18,258.26c1-.59,1.63-.16,1.64,1.08v2.8a.71.71,0,0,1-.33.57c-.18.11-.33,0-.33-.19V259.9c0-1-.42-1.28-1.14-.87a2.67,2.67,0,0,0-1.2,2.27v2.57a.73.73,0,0,1-.34.58c-.17.1-.32,0-.32-.2v-2.63c0-1-.44-1.26-1.13-.86a2.78,2.78,0,0,0-1.23,2.31v2.54a.69.69,0,0,1-.32.57c-.19.11-.34,0-.34-.19V261.6a.76.76,0,0,1,.33-.57c.18-.1.33,0,.33.19v.53a3.5,3.5,0,0,1,1.42-1.78c.71-.42,1.17-.24,1.42.18A3.73,3.73,0,0,1,110.18,258.26Z" style="fill: rgb(255, 255, 255); transform-origin: 108.48px 262.111px;" id="elyvcxdw8n70h" class="animable"></path><path d="M116.32,255.3c.3.18.45.58.45,1.23v2.76a.66.66,0,0,1-.31.55c-.19.11-.31,0-.31-.17v-.46a4,4,0,0,1-1.59,1.79c-.81.47-1.64.41-1.65-.62v0a3.37,3.37,0,0,1,1.88-2.72,5.61,5.61,0,0,1,1.36-.57v-.17c0-.91-.49-1.1-1.32-.62a4.73,4.73,0,0,0-1.14.94l-.12.1c-.15.09-.29,0-.29-.16a.71.71,0,0,1,.18-.42,5.86,5.86,0,0,1,1.44-1.17C115.52,255.21,116,255.13,116.32,255.3Zm-.16,2.81v-.48a4.52,4.52,0,0,0-1.3.53,2.24,2.24,0,0,0-1.28,1.78v0c0,.63.51.71,1.11.36a2.88,2.88,0,0,0,1.47-2.22" style="fill: rgb(255, 255, 255); transform-origin: 114.84px 258.249px;" id="elqp4q01hbsi" class="animable"></path><path d="M118.54,251.55c.23-.13.4-.07.4.17v.12a.81.81,0,0,1-.39.64c-.21.12-.39.05-.39-.19v-.12A.77.77,0,0,1,118.54,251.55Z" style="fill: rgb(255, 255, 255); transform-origin: 118.55px 252.01px;" id="elcgwseem4glc" class="animable"></path><path d="M118.55,253.48c.19-.11.33,0,.33.19v4.39a.67.67,0,0,1-.31.56c-.2.12-.34,0-.34-.19v-4.38A.73.73,0,0,1,118.55,253.48Z" style="fill: rgb(255, 255, 255); transform-origin: 118.555px 256.052px;" id="ele9fady8ak39" class="animable"></path><path d="M122.56,251.1c1.07-.61,1.69-.15,1.7,1.06V255a.7.7,0,0,1-.31.56c-.2.12-.34,0-.34-.19v-2.61c0-.94-.45-1.27-1.22-.83a2.82,2.82,0,0,0-1.31,2.35v2.56a.7.7,0,0,1-.33.57c-.18.1-.33,0-.33-.19v-4.39a.73.73,0,0,1,.32-.57c.19-.11.33,0,.34.19V253A3.63,3.63,0,0,1,122.56,251.1Z" style="fill: rgb(255, 255, 255); transform-origin: 122.34px 254.14px;" id="elhb54pxpr47" class="animable"></path><path d="M126,247.22c.22-.12.39-.06.39.18v.12a.81.81,0,0,1-.39.64c-.21.12-.38.05-.39-.19v-.12A.82.82,0,0,1,126,247.22Z" style="fill: rgb(255, 255, 255); transform-origin: 126px 247.689px;" id="elso1141rnz4" class="animable"></path><path d="M126,249.16c.19-.11.33,0,.33.19l0,4.39a.68.68,0,0,1-.32.56c-.19.12-.33,0-.33-.19l0-4.38A.72.72,0,0,1,126,249.16Z" style="fill: rgb(255, 255, 255); transform-origin: 126.005px 251.732px;" id="el7tw25ij8v" class="animable"></path><path d="M130.05,246.78c1.06-.61,1.69-.15,1.69,1.06v2.8a.68.68,0,0,1-.32.56c-.19.12-.33,0-.33-.19V248.4c0-.94-.45-1.27-1.23-.83a2.79,2.79,0,0,0-1.31,2.35v2.56a.71.71,0,0,1-.31.57c-.19.1-.34,0-.34-.19v-4.39a.74.74,0,0,1,.33-.57c.18-.11.32,0,.32.19v.55A3.73,3.73,0,0,1,130.05,246.78Z" style="fill: rgb(255, 255, 255); transform-origin: 129.82px 249.8px;" id="elie718yhii4k" class="animable"></path><path d="M137,242.84c.18-.11.33,0,.33.19v3.84a4.13,4.13,0,0,1-.56,2.11,4.48,4.48,0,0,1-1.67,1.65,2.93,2.93,0,0,1-1.84.46c-.1,0-.17-.08-.17-.21a.7.7,0,0,1,.3-.51l.14,0a2.32,2.32,0,0,0,1.56-.35,3.1,3.1,0,0,0,1.6-2.73v-.6a4.59,4.59,0,0,1-1.73,2.07c-1.06.6-2.07.28-2.08-1.17v0a4.49,4.49,0,0,1,2.06-3.58c.83-.48,1.37-.32,1.72,0v-.58A.7.7,0,0,1,137,242.84Zm-.3,2.51v0c0-1-.78-1.26-1.62-.78a3.17,3.17,0,0,0-1.51,2.58v0c0,1,.71,1.31,1.52.84a3.37,3.37,0,0,0,1.61-2.64" style="fill: rgb(255, 255, 255); transform-origin: 135.105px 246.948px;" id="el2rbrpwfwenh" class="animable"></path><path d="M139.14,241.59c.23-.13.4,0,.4.23V242a.87.87,0,0,1-.4.69c-.23.13-.4,0-.4-.23v-.2A.86.86,0,0,1,139.14,241.59Z" style="fill: rgb(255, 255, 255); transform-origin: 139.14px 242.14px;" id="elkqkga4u862a" class="animable"></path><path d="M139.15,245.62c.23-.13.4,0,.4.23V246a.83.83,0,0,1-.4.7c-.23.14-.4,0-.4-.23v-.19A.85.85,0,0,1,139.15,245.62Z" style="fill: rgb(255, 255, 255); transform-origin: 139.15px 246.162px;" id="elgebpvx12cpk" class="animable"></path><path d="M149,240.51l0,.17a.68.68,0,0,1-.32.55c-.17.1-.28,0-.33-.08l-.63-1.22-3.27,1.88-.62,2a.69.69,0,0,1-.32.45c-.17.09-.3,0-.3-.18a.55.55,0,0,1,0-.23l2.4-7.46a1,1,0,0,1,.42-.59l0,0c.2-.12.33-.07.41.1Zm-4.25.45,2.74-1.58-1.37-2.71L144.73,241" style="fill: rgb(255, 255, 255); transform-origin: 146.099px 240.015px;" id="el9z52aicmccj" class="animable"></path><path d="M152.52,233.81c1.06-.61,2.1-.25,2.11,1.41v0a4.72,4.72,0,0,1-2.09,3.84,1.25,1.25,0,0,1-1.69-.1v.63a.72.72,0,0,1-.32.57c-.19.11-.33,0-.33-.19l0-6.48a.7.7,0,0,1,.32-.56c.19-.11.33,0,.33.19v2.76A4.36,4.36,0,0,1,152.52,233.81Zm1.44,1.82h0c0-1.2-.72-1.55-1.55-1.07a3.58,3.58,0,0,0-1.59,2.87v0c0,1.17.78,1.5,1.6,1a3.36,3.36,0,0,0,1.54-2.84" style="fill: rgb(255, 255, 255); transform-origin: 152.415px 236.545px;" id="el4pbtbrga71a" class="animable"></path><path d="M157.86,230.73c1.32-.77,2.29-.13,2.3,1.29v0a5,5,0,0,1-2.3,4c-1.32.76-2.29.12-2.29-1.3v0A5,5,0,0,1,157.86,230.73Zm1.62,1.73v0c0-1.09-.71-1.57-1.63-1a3.56,3.56,0,0,0-1.61,2.88v0c0,1.09.71,1.57,1.63,1a3.53,3.53,0,0,0,1.61-2.87" style="fill: rgb(255, 255, 255); transform-origin: 157.865px 233.372px;" id="elsj872a35oq" class="animable"></path><path d="M164.78,226.79c.18-.1.33,0,.33.19v4.39a.69.69,0,0,1-.33.57c-.17.1-.32,0-.32-.2v-.54a3.65,3.65,0,0,1-1.5,1.85c-1.07.62-1.69.15-1.69-1V229.2a.7.7,0,0,1,.32-.57c.18-.1.33,0,.33.19v2.62c0,.94.45,1.27,1.22.82a2.83,2.83,0,0,0,1.32-2.34v-2.56A.69.69,0,0,1,164.78,226.79Z" style="fill: rgb(255, 255, 255); transform-origin: 163.19px 230.038px;" id="el48slqhywh29" class="animable"></path><path d="M167.13,223.91c.17-.11.33,0,.33.19v1.19l1.14-.66c.16-.09.31,0,.31.16a.65.65,0,0,1-.3.5l-1.15.66v3c0,.62.3.66.74.41a3.06,3.06,0,0,0,.41-.3.17.17,0,0,1,.28.16.6.6,0,0,1-.19.4,2.8,2.8,0,0,1-.65.52c-.7.4-1.24.31-1.24-.72v-3l-.36.21a.18.18,0,0,1-.28-.17.62.62,0,0,1,.28-.49l.36-.21v-1.2A.69.69,0,0,1,167.13,223.91Z" style="fill: rgb(255, 255, 255); transform-origin: 167.539px 227.113px;" id="elmzmdg8zlvk" class="animable"></path><path d="M176.1,218.52c.19-.11.32-.05.32.14a1.05,1.05,0,0,1-.16.47l-1.75,3.25c1-.5,2-.46,2,.8a4,4,0,0,1-2,3.23,1.87,1.87,0,0,1-2.08.16.24.24,0,0,1-.11-.21.73.73,0,0,1,.33-.57.24.24,0,0,1,.25,0,1.37,1.37,0,0,0,1.62-.06,2.62,2.62,0,0,0,1.3-2.08v0c0-.85-.69-.93-1.68-.36l-.21.12c-.16.1-.3,0-.3-.15a.74.74,0,0,1,.14-.39l1.73-3.26-2.64,1.52c-.17.1-.32,0-.32-.15a.7.7,0,0,1,.32-.54Z" style="fill: rgb(255, 255, 255); transform-origin: 174.415px 222.639px;" id="elbqe9exa254h" class="animable"></path><path d="M185.38,214.84c1-.59,1.63-.16,1.64,1.09v2.79a.67.67,0,0,1-.31.57c-.19.11-.34,0-.34-.19v-2.62c0-1-.44-1.28-1.15-.87a2.66,2.66,0,0,0-1.2,2.27v2.58a.7.7,0,0,1-.33.57c-.18.1-.32,0-.32-.19V218.2c0-.95-.43-1.26-1.14-.86a2.81,2.81,0,0,0-1.22,2.31v2.55a.67.67,0,0,1-.32.56c-.19.11-.33,0-.33-.19v-4.39a.73.73,0,0,1,.31-.56c.2-.11.34,0,.34.19v.52a3.5,3.5,0,0,1,1.42-1.78c.72-.42,1.18-.24,1.41.19A3.88,3.88,0,0,1,185.38,214.84Z" style="fill: rgb(255, 255, 255); transform-origin: 183.69px 218.691px;" id="el45p9epsyo2n" class="animable"></path><path d="M188.82,211c.22-.12.39-.06.39.18v.12a.78.78,0,0,1-.39.63c-.22.13-.38.06-.38-.18v-.12A.77.77,0,0,1,188.82,211Z" style="fill: rgb(255, 255, 255); transform-origin: 188.825px 211.467px;" id="elvn0oo7fv95l" class="animable"></path><path d="M188.82,212.91c.19-.11.34,0,.34.19v4.39a.68.68,0,0,1-.32.56c-.19.11-.34,0-.34-.19v-4.38A.74.74,0,0,1,188.82,212.91Z" style="fill: rgb(255, 255, 255); transform-origin: 188.83px 215.48px;" id="elcnqhaiyn3kg" class="animable"></path><path d="M192.84,210.53c1.06-.61,1.69-.15,1.69,1.05v2.81a.71.71,0,0,1-.32.56c-.19.11-.34,0-.34-.19v-2.61c0-.94-.44-1.28-1.21-.83a2.82,2.82,0,0,0-1.32,2.35v2.56a.7.7,0,0,1-.33.57c-.18.1-.33,0-.33-.19v-4.39a.73.73,0,0,1,.32-.57c.19-.11.33,0,.33.19v.55A3.6,3.6,0,0,1,192.84,210.53Z" style="fill: rgb(255, 255, 255); transform-origin: 192.605px 213.55px;" id="elshfz7hv7qzn" class="animable"></path><path d="M199.37,206.82c.17-.1.32,0,.32.2v4.38a.68.68,0,0,1-.32.57c-.18.11-.32,0-.32-.19v-.55a3.68,3.68,0,0,1-1.51,1.86c-1.06.61-1.68.15-1.69-1.05v-2.81a.68.68,0,0,1,.32-.57c.18-.1.33,0,.33.19v2.62c0,.94.45,1.27,1.22.83a2.85,2.85,0,0,0,1.31-2.35v-2.56A.7.7,0,0,1,199.37,206.82Z" style="fill: rgb(255, 255, 255); transform-origin: 197.77px 210.07px;" id="elluifh50d0q" class="animable"></path><path d="M201.72,203.94c.18-.11.33,0,.33.19v1.19l1.14-.65c.17-.1.3,0,.3.15a.64.64,0,0,1-.3.51l-1.13.65v3c0,.61.3.67.75.41a3.22,3.22,0,0,0,.39-.3c.16-.09.28,0,.28.16a.59.59,0,0,1-.18.4,2.75,2.75,0,0,1-.64.52c-.71.4-1.25.31-1.25-.72v-3l-.36.21a.18.18,0,0,1-.29-.17.65.65,0,0,1,.29-.49l.36-.21v-1.19A.71.71,0,0,1,201.72,203.94Z" style="fill: rgb(255, 255, 255); transform-origin: 202.124px 207.143px;" id="elcu9iih0b1yt" class="animable"></path><path d="M208.36,204.13a.66.66,0,0,1-.3.53l-3.18,1.84c.1,1,.77,1.27,1.55.81A3.63,3.63,0,0,0,207.7,206a.5.5,0,0,1,.18-.2c.17-.1.3,0,.3.15a.61.61,0,0,1-.11.31,4.61,4.61,0,0,1-1.65,1.72c-1.21.7-2.2.2-2.21-1.36a4.75,4.75,0,0,1,2.11-3.87C207.61,202,208.36,202.8,208.36,204.13Zm-3.48,1.81,2.83-1.64c-.07-.87-.53-1.41-1.41-.9a3.33,3.33,0,0,0-1.42,2.54" style="fill: rgb(255, 255, 255); transform-origin: 206.285px 205.376px;" id="elb4s3y079sv" class="animable"></path><path d="M210.86,200.15a2.58,2.58,0,0,1,1.4-.38c.09,0,.17.07.17.21a.66.66,0,0,1-.29.5l-.14,0a1.94,1.94,0,0,0-1.15.27A1.57,1.57,0,0,0,210,202v0c0,.48.54.36,1.13.23s1.42-.28,1.42.63h0a3,3,0,0,1-1.56,2.42,2.39,2.39,0,0,1-1.7.34c-.06,0-.12-.08-.12-.2a.62.62,0,0,1,.29-.49l.16,0a1.94,1.94,0,0,0,1.4-.26,1.7,1.7,0,0,0,.91-1.33v0c0-.51-.52-.41-1.1-.26s-1.46.34-1.46-.58v0A2.9,2.9,0,0,1,210.86,200.15Z" style="fill: rgb(255, 255, 255); transform-origin: 210.86px 202.713px;" id="el0z1g8f54cx1" class="animable"></path><path d="M77.33,310.93a.2.2,0,0,1,.32.18.67.67,0,0,1-.32.53l-1.73,1,0,5.79a.74.74,0,0,1-.34.58.21.21,0,0,1-.34-.19V313l-1.73,1c-.17.09-.32,0-.32-.17a.72.72,0,0,1,.31-.54Z" style="fill: rgb(255, 255, 255); transform-origin: 75.2605px 314.973px;" id="elasmzhk8x8sq" class="animable"></path><path d="M78.86,309.84c.23-.12.4-.06.4.18v.12a.81.81,0,0,1-.39.64c-.21.12-.39.05-.39-.19v-.12A.81.81,0,0,1,78.86,309.84Z" style="fill: rgb(255, 255, 255); transform-origin: 78.87px 310.309px;" id="elvvymc8ulfam" class="animable"></path><path d="M78.87,311.78c.19-.11.33,0,.33.19v4.39a.65.65,0,0,1-.31.56c-.2.11-.34,0-.34-.19v-4.38A.72.72,0,0,1,78.87,311.78Z" style="fill: rgb(255, 255, 255); transform-origin: 78.875px 314.35px;" id="elhml65s33e2h" class="animable"></path><path d="M85.76,307.74c1-.58,1.64-.16,1.64,1.09v2.8a.68.68,0,0,1-.32.56c-.19.11-.33,0-.33-.19v-2.61c0-1-.43-1.29-1.14-.87a2.65,2.65,0,0,0-1.21,2.27v2.57a.69.69,0,0,1-.34.57c-.17.11-.32,0-.32-.19V311.1c0-1-.44-1.26-1.14-.86a2.8,2.8,0,0,0-1.22,2.31v2.55a.7.7,0,0,1-.33.57c-.18.1-.33,0-.33-.19v-4.39a.72.72,0,0,1,.32-.57c.19-.11.34,0,.34.19v.52a3.5,3.5,0,0,1,1.41-1.78c.72-.41,1.18-.24,1.42.19A3.8,3.8,0,0,1,85.76,307.74Z" style="fill: rgb(255, 255, 255); transform-origin: 84.06px 311.596px;" id="elyst3qwygsq9" class="animable"></path><path d="M92.71,306.3a.66.66,0,0,1-.3.52l-3.19,1.84c.1,1,.77,1.27,1.56.82A3.76,3.76,0,0,0,92,308.17a.52.52,0,0,1,.19-.2c.16-.09.29,0,.29.16a.59.59,0,0,1-.1.3,4.63,4.63,0,0,1-1.66,1.72c-1.21.7-2.2.2-2.2-1.37a4.75,4.75,0,0,1,2.1-3.87C92,304.16,92.71,305,92.71,306.3Zm-3.49,1.81,2.83-1.64c-.07-.88-.53-1.41-1.41-.91a3.41,3.41,0,0,0-1.42,2.55" style="fill: rgb(255, 255, 255); transform-origin: 90.615px 307.544px;" id="el96xypi1xpt" class="animable"></path><path d="M98.58,300.38c.2-.12.33,0,.33.19a.72.72,0,0,1-.29.55,3.89,3.89,0,0,0-1.54,3.2V306a.71.71,0,0,1-.33.57c-.18.11-.33,0-.33-.19V302a.72.72,0,0,1,.32-.57c.19-.1.33,0,.33.19v1A4.16,4.16,0,0,1,98.58,300.38Z" style="fill: rgb(255, 255, 255); transform-origin: 97.665px 303.473px;" id="el7pvh2s969j7" class="animable"></path><path d="M103.57,300a.69.69,0,0,1-.31.53l-3.19,1.84c.1,1,.78,1.26,1.56.81a3.68,3.68,0,0,0,1.26-1.31.73.73,0,0,1,.19-.2c.16-.09.29,0,.29.16a.56.56,0,0,1-.1.3,4.49,4.49,0,0,1-1.66,1.72c-1.2.7-2.2.21-2.2-1.36a4.75,4.75,0,0,1,2.11-3.87C102.82,297.9,103.56,298.69,103.57,300Zm-3.5,1.81,2.84-1.64c-.08-.87-.54-1.41-1.41-.9a3.35,3.35,0,0,0-1.43,2.54" style="fill: rgb(255, 255, 255); transform-origin: 101.49px 301.254px;" id="elbmov8ohwgi4" class="animable"></path><path d="M109.75,293.89c1-.58,1.64-.16,1.64,1.09v2.8a.74.74,0,0,1-.32.57c-.19.1-.34,0-.34-.19v-2.62c0-1-.42-1.29-1.14-.87a2.66,2.66,0,0,0-1.2,2.26v2.58a.71.71,0,0,1-.33.57c-.18.11-.33,0-.33-.19v-2.64c0-.95-.43-1.26-1.13-.85a2.77,2.77,0,0,0-1.22,2.3v2.55a.7.7,0,0,1-.33.57c-.18.11-.33,0-.33-.19v-4.39a.7.7,0,0,1,.32-.57c.19-.11.33,0,.33.19v.52a3.58,3.58,0,0,1,1.42-1.78c.71-.41,1.18-.24,1.42.19A3.8,3.8,0,0,1,109.75,293.89Z" style="fill: rgb(255, 255, 255); transform-origin: 108.055px 297.749px;" id="eleksp43rvf8b" class="animable"></path><path d="M115.9,290.94c.29.18.44.58.45,1.22v2.77a.68.68,0,0,1-.31.55c-.18.1-.31,0-.31-.17v-.46a4.11,4.11,0,0,1-1.6,1.79c-.81.47-1.64.41-1.64-.62v0a3.33,3.33,0,0,1,1.88-2.71,4.86,4.86,0,0,1,1.35-.57v-.18c0-.91-.49-1.1-1.32-.62a4.75,4.75,0,0,0-1.13.95l-.13.09c-.15.09-.28,0-.28-.15a.67.67,0,0,1,.17-.42,6.26,6.26,0,0,1,1.44-1.17C115.09,290.85,115.57,290.76,115.9,290.94Zm-.17,2.81v-.49a4.92,4.92,0,0,0-1.3.54,2.23,2.23,0,0,0-1.28,1.78v0c0,.64.52.71,1.11.37a2.91,2.91,0,0,0,1.47-2.22" style="fill: rgb(255, 255, 255); transform-origin: 114.42px 293.887px;" id="elhjjqt5stnfi" class="animable"></path><path d="M118.12,287.18c.22-.13.39-.07.39.18v.12a.79.79,0,0,1-.39.63c-.21.13-.38.06-.39-.18v-.12A.79.79,0,0,1,118.12,287.18Z" style="fill: rgb(255, 255, 255); transform-origin: 118.12px 287.644px;" id="elmpuh7rgnqz" class="animable"></path><path d="M118.12,289.12c.19-.11.33,0,.34.19v4.39a.7.7,0,0,1-.32.56c-.19.11-.33,0-.33-.19l0-4.39A.71.71,0,0,1,118.12,289.12Z" style="fill: rgb(255, 255, 255); transform-origin: 118.135px 291.69px;" id="elypjj4j53luo" class="animable"></path><path d="M122.14,286.74c1.06-.61,1.69-.15,1.69,1.05v2.81a.68.68,0,0,1-.32.56c-.19.11-.33,0-.33-.19v-2.62c0-.94-.45-1.27-1.23-.82a2.81,2.81,0,0,0-1.31,2.34v2.57a.68.68,0,0,1-.32.56c-.19.11-.34,0-.34-.19v-4.38a.73.73,0,0,1,.33-.57c.18-.11.33,0,.33.19v.55A3.61,3.61,0,0,1,122.14,286.74Z" style="fill: rgb(255, 255, 255); transform-origin: 121.905px 289.757px;" id="el5nohh921msf" class="animable"></path><path d="M125.6,282.86c.22-.13.4-.07.4.18v.12a.78.78,0,0,1-.4.63c-.21.13-.38.06-.38-.18v-.12A.78.78,0,0,1,125.6,282.86Z" style="fill: rgb(255, 255, 255); transform-origin: 125.61px 283.324px;" id="elve6p3w1tzq" class="animable"></path><path d="M125.6,284.8c.2-.11.34,0,.34.19v4.39a.67.67,0,0,1-.32.56c-.19.11-.33,0-.33-.19v-4.39A.73.73,0,0,1,125.6,284.8Z" style="fill: rgb(255, 255, 255); transform-origin: 125.615px 287.37px;" id="elldee4nkht9i" class="animable"></path><path d="M129.62,282.42c1.07-.61,1.69-.15,1.69,1.05v2.81a.68.68,0,0,1-.32.56c-.19.11-.33,0-.33-.19V284c0-.94-.45-1.27-1.22-.82a2.82,2.82,0,0,0-1.32,2.35v2.56a.68.68,0,0,1-.32.56c-.19.11-.33,0-.33-.19l0-4.38a.73.73,0,0,1,.33-.57c.18-.11.32,0,.33.19v.55A3.66,3.66,0,0,1,129.62,282.42Z" style="fill: rgb(255, 255, 255); transform-origin: 129.39px 285.422px;" id="ellcdnqi6les" class="animable"></path><path d="M136.56,278.47c.19-.1.33,0,.33.19v3.85a4.17,4.17,0,0,1-.55,2.11,4.66,4.66,0,0,1-1.68,1.65,2.89,2.89,0,0,1-1.83.45c-.11,0-.18-.07-.18-.21a.74.74,0,0,1,.3-.51l.14,0a2.26,2.26,0,0,0,1.56-.35,3.1,3.1,0,0,0,1.6-2.72v-.6a4.5,4.5,0,0,1-1.73,2.06c-1.05.61-2.07.29-2.07-1.17v0a4.47,4.47,0,0,1,2.06-3.58,1.32,1.32,0,0,1,1.72,0V279A.75.75,0,0,1,136.56,278.47Zm-.29,2.52v0c0-1-.79-1.26-1.62-.77a3.15,3.15,0,0,0-1.52,2.58h0c0,1,.71,1.32,1.53.85a3.42,3.42,0,0,0,1.61-2.64" style="fill: rgb(255, 255, 255); transform-origin: 134.67px 282.581px;" id="eli02s0gu6npt" class="animable"></path><path d="M138.71,277.23c.23-.13.41,0,.41.23v.21a.83.83,0,0,1-.4.68c-.24.14-.41,0-.41-.22v-.2A.88.88,0,0,1,138.71,277.23Z" style="fill: rgb(255, 255, 255); transform-origin: 138.715px 277.792px;" id="elj9obw11ud9m" class="animable"></path><path d="M138.72,281.26c.23-.13.41,0,.41.23v.19a.87.87,0,0,1-.4.7c-.24.14-.41,0-.41-.24V282A.85.85,0,0,1,138.72,281.26Z" style="fill: rgb(255, 255, 255); transform-origin: 138.725px 281.822px;" id="ele47jjshtqtn" class="animable"></path><path d="M148.55,276.14l0,.18a.69.69,0,0,1-.32.55.21.21,0,0,1-.33-.09l-.63-1.21-3.26,1.88-.62,1.95a.74.74,0,0,1-.32.45c-.18.1-.31,0-.31-.17a.79.79,0,0,1,0-.23l2.4-7.46a1,1,0,0,1,.43-.6h0c.2-.12.34-.07.41.1Zm-4.24.46,2.74-1.59-1.38-2.71-1.36,4.3" style="fill: rgb(255, 255, 255); transform-origin: 145.651px 275.607px;" id="eliaj7a83ybv" class="animable"></path><path d="M152.09,269.45c1.06-.62,2.11-.26,2.11,1.4v0a4.66,4.66,0,0,1-2.09,3.84,1.24,1.24,0,0,1-1.69-.09v.63a.69.69,0,0,1-.32.56c-.19.11-.33,0-.33-.19l0-6.47a.7.7,0,0,1,.32-.56c.19-.11.33,0,.33.19v2.76A4.37,4.37,0,0,1,152.09,269.45Zm1.44,1.82v0c0-1.19-.72-1.54-1.55-1.06a3.6,3.6,0,0,0-1.59,2.86v0c0,1.18.79,1.51,1.6,1a3.33,3.33,0,0,0,1.54-2.83" style="fill: rgb(255, 255, 255); transform-origin: 151.985px 272.18px;" id="el12p4xxtt6f" class="animable"></path><path d="M157.43,266.36c1.32-.76,2.3-.12,2.3,1.3v0a5,5,0,0,1-2.3,4c-1.32.77-2.28.13-2.29-1.3v0A5,5,0,0,1,157.43,266.36Zm1.63,1.73v0c0-1.08-.71-1.57-1.64-1a3.51,3.51,0,0,0-1.6,2.88v0c0,1.09.7,1.57,1.63,1a3.55,3.55,0,0,0,1.61-2.88" style="fill: rgb(255, 255, 255); transform-origin: 157.435px 269.013px;" id="elet00oqjd8so" class="animable"></path><path d="M164.35,262.43c.18-.11.33,0,.33.19V267a.72.72,0,0,1-.32.57c-.18.1-.32,0-.32-.2v-.54a3.66,3.66,0,0,1-1.51,1.85c-1.06.62-1.69.16-1.69-1v-2.81a.72.72,0,0,1,.32-.57c.18-.1.33,0,.33.19v2.62c0,.94.45,1.27,1.23.82a2.81,2.81,0,0,0,1.31-2.35V263A.66.66,0,0,1,164.35,262.43Z" style="fill: rgb(255, 255, 255); transform-origin: 162.76px 265.671px;" id="el1zlzy97pxxf" class="animable"></path><path d="M166.7,259.54a.2.2,0,0,1,.33.19v1.2l1.14-.66c.16-.09.3,0,.3.16a.65.65,0,0,1-.3.5l-1.14.66v3c0,.61.3.67.74.41a2.7,2.7,0,0,0,.4-.3c.15-.09.28,0,.28.16a.61.61,0,0,1-.18.4,2.72,2.72,0,0,1-.65.51c-.71.41-1.24.32-1.25-.71v-3l-.36.2c-.16.09-.29,0-.29-.16a.64.64,0,0,1,.29-.5l.35-.2v-1.2A.72.72,0,0,1,166.7,259.54Z" style="fill: rgb(255, 255, 255); transform-origin: 167.095px 262.743px;" id="elsz1mkx54e69" class="animable"></path><path d="M176.42,258.3c.16-.09.3,0,.3.16a.63.63,0,0,1-.3.49l-.67.39v1.29a.7.7,0,0,1-.33.56c-.18.11-.32,0-.32-.18v-1.3l-3,1.71c-.2.12-.35,0-.35-.17a1.11,1.11,0,0,1,.13-.45l3.09-6.13a1,1,0,0,1,.37-.45c.21-.11.36,0,.36.19v4.28Zm-1.32.77v-3.53l-2.49,5,2.5-1.44" style="fill: rgb(255, 255, 255); transform-origin: 174.235px 257.822px;" id="elave7f8f6gou" class="animable"></path><path d="M179.79,251.68c1.07-.62,1.84-.24,1.85.86v0c0,1-.46,1.88-1.5,3.53l-1.59,2.54,2.88-1.66c.17-.1.32,0,.32.16a.69.69,0,0,1-.32.54l-3.58,2.07c-.19.11-.34.05-.34-.17a.88.88,0,0,1,.16-.46l2-3.23c.92-1.47,1.24-2.18,1.23-2.87s-.55-1-1.19-.62a3.84,3.84,0,0,0-1.48,1.85.62.62,0,0,1-.25.28c-.17.1-.31,0-.31-.17a.59.59,0,0,1,.07-.25A4.82,4.82,0,0,1,179.79,251.68Z" style="fill: rgb(255, 255, 255); transform-origin: 179.63px 255.578px;" id="el4rp0wcsto2c" class="animable"></path><path d="M186.85,249.4a2.85,2.85,0,0,1,1.41-.39.2.2,0,0,1,.17.22.64.64,0,0,1-.3.5l-.14,0a1.94,1.94,0,0,0-1.15.27,1.58,1.58,0,0,0-.85,1.23v0c0,.48.55.35,1.14.22s1.41-.28,1.41.63v0a3,3,0,0,1-1.56,2.41,2.39,2.39,0,0,1-1.7.34c-.06,0-.11-.07-.11-.2a.61.61,0,0,1,.28-.49l.16,0a2,2,0,0,0,1.4-.27,1.7,1.7,0,0,0,.91-1.33v0c0-.51-.52-.4-1.1-.26s-1.45.34-1.46-.58v0A2.87,2.87,0,0,1,186.85,249.4Z" style="fill: rgb(255, 255, 255); transform-origin: 186.855px 251.938px;" id="el19wzlha950h" class="animable"></path><path d="M193.63,248a.69.69,0,0,1-.3.53l-3.18,1.83c.1,1.05.77,1.27,1.56.82A3.85,3.85,0,0,0,193,249.9a.7.7,0,0,1,.18-.2c.17-.09.3,0,.3.15a.7.7,0,0,1-.1.31,4.63,4.63,0,0,1-1.66,1.72c-1.21.69-2.2.2-2.21-1.37a4.78,4.78,0,0,1,2.11-3.87C192.89,245.89,193.63,246.69,193.63,248Zm-3.48,1.8L193,248.2c-.07-.88-.53-1.41-1.41-.91a3.36,3.36,0,0,0-1.42,2.54" style="fill: rgb(255, 255, 255); transform-origin: 191.57px 249.268px;" id="elkc1368r0s8" class="animable"></path><path d="M196.77,243.65a1.66,1.66,0,0,1,1.62-.2.21.21,0,0,1,.1.21.67.67,0,0,1-.31.54q-.13.08-.21,0a1.19,1.19,0,0,0-1.21.09,3.57,3.57,0,0,0-1.56,2.86v0c0,1.09.7,1.56,1.62,1a3.65,3.65,0,0,0,1.22-1.33.6.6,0,0,1,.19-.2.19.19,0,0,1,.3.17.65.65,0,0,1-.09.28,4.53,4.53,0,0,1-1.65,1.77c-1.29.75-2.26.1-2.27-1.31v0A5,5,0,0,1,196.77,243.65Z" style="fill: rgb(255, 255, 255); transform-origin: 196.525px 246.24px;" id="elv19izp1rlkp" class="animable"></path><path d="M201.55,240.89c1.32-.76,2.29-.12,2.29,1.3v0a5,5,0,0,1-2.29,4c-1.33.76-2.29.12-2.29-1.31v0A5,5,0,0,1,201.55,240.89Zm1.62,1.73v0c0-1.08-.71-1.56-1.64-1a3.56,3.56,0,0,0-1.6,2.88v0c0,1.09.7,1.57,1.63,1a3.53,3.53,0,0,0,1.61-2.88" style="fill: rgb(255, 255, 255); transform-origin: 201.55px 243.54px;" id="ellil5sxdlv2" class="animable"></path><path d="M207.18,237.64c1.07-.61,1.69-.15,1.69,1.05v2.81a.74.74,0,0,1-.32.57c-.19.1-.34,0-.34-.19v-2.62c0-.94-.45-1.28-1.22-.83a2.82,2.82,0,0,0-1.32,2.35v2.56a.66.66,0,0,1-.32.56c-.19.12-.33,0-.33-.19l0-4.38a.72.72,0,0,1,.32-.57c.19-.11.34,0,.34.19v.55A3.66,3.66,0,0,1,207.18,237.64Z" style="fill: rgb(255, 255, 255); transform-origin: 206.945px 240.66px;" id="elr4dcw616c9" class="animable"></path><path d="M214.12,231.61c.18-.11.33,0,.33.19l0,6.47a.71.71,0,0,1-.33.57c-.18.11-.33,0-.33-.19V238a4.31,4.31,0,0,1-1.68,2.09c-1.06.61-2.11.26-2.11-1.4a4.69,4.69,0,0,1,2.09-3.86c.82-.48,1.35-.28,1.69.1v-2.72A.69.69,0,0,1,214.12,231.61Zm-.29,4.84v0c0-1.16-.78-1.5-1.6-1a3.35,3.35,0,0,0-1.54,2.84v0c0,1.2.73,1.53,1.55,1.06a3.59,3.59,0,0,0,1.59-2.87" style="fill: rgb(255, 255, 255); transform-origin: 212.225px 235.968px;" id="elgcwk958xny" class="animable"></path><path d="M217.26,231.84a2.77,2.77,0,0,1,1.41-.38c.08,0,.16.07.16.22a.62.62,0,0,1-.29.49l-.14.05a1.93,1.93,0,0,0-1.15.26,1.58,1.58,0,0,0-.85,1.23v0c0,.48.54.36,1.13.22s1.41-.28,1.42.63v0a3,3,0,0,1-1.56,2.42,2.44,2.44,0,0,1-1.7.34c-.05,0-.12-.07-.12-.2a.66.66,0,0,1,.29-.5l.16,0a2,2,0,0,0,1.4-.27,1.67,1.67,0,0,0,.91-1.32v0c0-.51-.52-.41-1.1-.26s-1.46.34-1.46-.58v0A2.85,2.85,0,0,1,217.26,231.84Z" style="fill: rgb(255, 255, 255); transform-origin: 217.26px 234.407px;" id="ellmdvf8p5rx" class="animable"></path><path d="M263.07,188.8l0,11.06-185.37,107c-2.65,1.53-4.82.31-4.83-2.74a10.59,10.59,0,0,1,4.8-8.32Z" style="fill: #B46C6C; transform-origin: 167.97px 248.16px;" id="elyavthl9vgy" class="animable"></path><path d="M273,144.18c2.66-1.53,4.81-.29,4.82,2.76a10.54,10.54,0,0,1-4.79,8.3L77.64,268.06c-2.65,1.53-4.82.3-4.82-2.76A10.6,10.6,0,0,1,77.61,257Z" style="fill: #B46C6C; transform-origin: 175.32px 206.121px;" id="eld2qkj83a5l" class="animable"></path><g id="elnypxo0pi6l"><g style="opacity: 0.2; transform-origin: 175.32px 206.121px;" class="animable" id="elpr9xlhmj8ak"><path d="M273,144.18c2.66-1.53,4.81-.29,4.82,2.76a10.54,10.54,0,0,1-4.79,8.3L77.64,268.06c-2.65,1.53-4.82.3-4.82-2.76A10.6,10.6,0,0,1,77.61,257Z" style="fill: rgb(255, 255, 255); transform-origin: 175.32px 206.121px;" id="eliqso9clnwlm" class="animable"></path></g></g><g id="elkd2bhodiu2"><g style="opacity: 0.2; transform-origin: 176.055px 206.11px;" class="animable" id="elav2l0g0c7pu"><polygon points="142.93 219.28 133.34 235.9 121.25 242.88 130.84 226.26 142.93 219.28" style="fill: rgb(255, 255, 255); transform-origin: 132.09px 231.08px;" id="elvar2ypyrdxc" class="animable"></polygon><polygon points="167.11 205.32 157.52 221.94 145.42 228.92 155.02 212.3 167.11 205.32" style="fill: rgb(255, 255, 255); transform-origin: 156.265px 217.12px;" id="el6ff2ckbybqr" class="animable"></polygon><polygon points="118.76 233.24 109.16 249.86 97.07 256.84 106.66 240.22 118.76 233.24" style="fill: rgb(255, 255, 255); transform-origin: 107.915px 245.04px;" id="eltrmouvrmcgc" class="animable"></polygon><path d="M94.58,247.2,85,263.81l-7.35,4.24a3.44,3.44,0,0,1-3.37.37l8.22-14.25Z" style="fill: rgb(255, 255, 255); transform-origin: 84.43px 257.95px;" id="elqigl0igzjm" class="animable"></path><polygon points="239.64 163.45 230.04 180.07 217.95 187.05 227.54 170.43 239.64 163.45" style="fill: rgb(255, 255, 255); transform-origin: 228.795px 175.25px;" id="el771nq63pyrf" class="animable"></polygon><polygon points="263.81 149.49 254.22 166.11 242.13 173.09 251.72 156.47 263.81 149.49" style="fill: rgb(255, 255, 255); transform-origin: 252.97px 161.29px;" id="elpden76dngw" class="animable"></polygon><path d="M275.32,143.52c1.49.08,2.51,1.32,2.51,3.41a10.54,10.54,0,0,1-4.79,8.31l-6.73,3.89Z" style="fill: rgb(255, 255, 255); transform-origin: 272.07px 151.325px;" id="el8bmj4a02eh" class="animable"></path><polygon points="191.29 191.36 181.69 207.98 169.6 214.96 179.19 198.34 191.29 191.36" style="fill: rgb(255, 255, 255); transform-origin: 180.445px 203.16px;" id="el6d05vapcs7w" class="animable"></polygon><polygon points="215.46 177.41 205.87 194.02 193.78 201.01 203.37 184.38 215.46 177.41" style="fill: rgb(255, 255, 255); transform-origin: 204.62px 189.21px;" id="elsqqyaip24hi" class="animable"></polygon></g></g><path d="M273,183.06c2.66-1.54,4.81-.3,4.82,2.75a10.56,10.56,0,0,1-4.79,8.31L77.64,306.93c-2.65,1.53-4.82.3-4.82-2.75a10.58,10.58,0,0,1,4.79-8.31Z" style="fill: #B46C6C; transform-origin: 175.32px 244.993px;" id="eljd8puzdldxp" class="animable"></path><g id="elqft0h64qzog"><g style="opacity: 0.2; transform-origin: 175.32px 244.993px;" class="animable" id="els3uc35avxvr"><path d="M273,183.06c2.66-1.54,4.81-.3,4.82,2.75a10.56,10.56,0,0,1-4.79,8.31L77.64,306.93c-2.65,1.53-4.82.3-4.82-2.75a10.58,10.58,0,0,1,4.79-8.31Z" style="fill: rgb(255, 255, 255); transform-origin: 175.32px 244.993px;" id="elp3ttggdqmyq" class="animable"></path></g></g><g id="el8vi2v3zuvq4"><g style="opacity: 0.2; transform-origin: 176.055px 244.985px;" class="animable" id="elobuyp86c71i"><polygon points="142.93 258.16 133.34 274.77 121.25 281.75 130.84 265.13 142.93 258.16" style="fill: rgb(255, 255, 255); transform-origin: 132.09px 269.955px;" id="el8kz4kra9xdj" class="animable"></polygon><polygon points="167.11 244.2 157.52 260.81 145.42 267.8 155.02 251.17 167.11 244.2" style="fill: rgb(255, 255, 255); transform-origin: 156.265px 256px;" id="elflw7f7fkn4h" class="animable"></polygon><polygon points="118.76 272.11 109.16 288.73 97.07 295.71 106.66 279.09 118.76 272.11" style="fill: rgb(255, 255, 255); transform-origin: 107.915px 283.91px;" id="el16vx5rnlj29" class="animable"></polygon><path d="M94.58,286.07,85,302.69l-7.35,4.24a3.46,3.46,0,0,1-3.37.36l8.22-14.24Z" style="fill: rgb(255, 255, 255); transform-origin: 84.43px 296.82px;" id="el6d3lqordjfw" class="animable"></path><polygon points="239.64 202.32 230.04 218.94 217.95 225.92 227.54 209.3 239.64 202.32" style="fill: rgb(255, 255, 255); transform-origin: 228.795px 214.12px;" id="elzz1mkppwd0o" class="animable"></polygon><polygon points="263.81 188.37 254.22 204.98 242.13 211.96 251.72 195.34 263.81 188.37" style="fill: rgb(255, 255, 255); transform-origin: 252.97px 200.165px;" id="elj3wjzuub4dp" class="animable"></polygon><path d="M275.32,182.4c1.49.07,2.51,1.31,2.51,3.41a10.57,10.57,0,0,1-4.79,8.31L266.31,198Z" style="fill: rgb(255, 255, 255); transform-origin: 272.07px 190.2px;" id="el4ml4z31a1vv" class="animable"></path><polygon points="191.29 230.24 181.69 246.86 169.6 253.84 179.19 237.22 191.29 230.24" style="fill: rgb(255, 255, 255); transform-origin: 180.445px 242.04px;" id="elqa1ivouag5j" class="animable"></polygon><polygon points="215.46 216.28 205.87 232.9 193.78 239.88 203.37 223.26 215.46 216.28" style="fill: rgb(255, 255, 255); transform-origin: 204.62px 228.08px;" id="el9gv00l1y7bb" class="animable"></polygon></g></g><path d="M160.83,209l0,11.06L77.64,268.06c-2.65,1.53-4.82.3-4.82-2.76A10.6,10.6,0,0,1,77.61,257Z" style="fill: #B46C6C; transform-origin: 116.825px 238.859px;" id="el2amnd3tc6be" class="animable"></path><g id="el8t4f16o3krn"><g style="opacity: 0.7; transform-origin: 167.97px 248.16px;" class="animable" id="elof017sk94ra"><path d="M263.07,188.8l0,11.06-185.37,107c-2.65,1.53-4.82.31-4.83-2.74a10.59,10.59,0,0,1,4.8-8.32Z" style="fill: rgb(255, 255, 255); transform-origin: 167.97px 248.16px;" id="elx23yde2ihj" class="animable"></path></g></g><g id="eljbve1qk0bn7"><g style="opacity: 0.7; transform-origin: 116.825px 238.859px;" class="animable" id="el0o64j7m0hkvh"><path d="M160.83,209l0,11.06L77.64,268.06c-2.65,1.53-4.82.3-4.82-2.76A10.6,10.6,0,0,1,77.61,257Z" style="fill: rgb(255, 255, 255); transform-origin: 116.825px 238.859px;" id="elmh493xh1qvc" class="animable"></path></g></g></g><g id="freepik--Pictures--inject-149" class="animable" style="transform-origin: 131.48px 132.68px;"><polygon points="122.82 127.08 95.31 142.96 95.37 163.99 122.88 148.11 122.82 127.08" style="fill: none; transform-origin: 109.095px 145.535px;" id="elrfp9pvrvxh" class="animable"></polygon><polygon points="122.82 127.08 122.88 148.11 125.43 149.59 125.36 125.62 122.82 127.08" style="fill: rgb(240, 240, 240); transform-origin: 124.125px 137.605px;" id="els8zwaezqiv9" class="animable"></polygon><polygon points="95.37 163.99 95.38 166.94 125.43 149.59 122.88 148.11 95.37 163.99" style="fill: rgb(245, 245, 245); transform-origin: 110.4px 157.525px;" id="eltqed79pdjw" class="animable"></polygon><path d="M128.43,120.31l-36.21,20.9.09,31,36.21-20.9ZM95.38,166.93V164l-.06-21,27.51-15.88,2.54-1.46.07,24Z" style="fill: rgb(224, 224, 224); transform-origin: 110.37px 146.26px;" id="eldumxrmiv7dr" class="animable"></path><polygon points="128.43 120.31 125.88 118.82 89.67 139.73 92.22 141.21 128.43 120.31" style="fill: rgb(245, 245, 245); transform-origin: 109.05px 130.015px;" id="el5k55o7vpb9d" class="animable"></polygon><polygon points="89.67 139.73 89.76 170.77 92.31 172.25 92.22 141.21 89.67 139.73" style="fill: rgb(240, 240, 240); transform-origin: 90.99px 155.99px;" id="elsohepz3d0al" class="animable"></polygon><polygon points="167.58 101.36 140.07 117.25 140.13 138.27 167.64 122.39 167.58 101.36" style="fill: none; transform-origin: 153.855px 119.815px;" id="el8zc7lkv3o24" class="animable"></polygon><polygon points="167.58 101.36 167.64 122.39 170.19 123.87 170.12 99.9 167.58 101.36" style="fill: rgb(240, 240, 240); transform-origin: 168.885px 111.885px;" id="elhedli83y79" class="animable"></polygon><polygon points="140.13 138.27 140.14 141.22 170.19 123.87 167.64 122.39 140.13 138.27" style="fill: rgb(245, 245, 245); transform-origin: 155.16px 131.805px;" id="el8rexqvbvs7v" class="animable"></polygon><path d="M173.19,94.59,137,115.49l.09,31,36.2-20.9Zm-33.05,46.63v-2.95l-.06-21,27.51-15.88,2.54-1.46.06,24Z" style="fill: rgb(224, 224, 224); transform-origin: 155.145px 120.54px;" id="el4ka4ew9cb18" class="animable"></path><polygon points="173.19 94.59 170.64 93.11 134.43 114.01 136.98 115.49 173.19 94.59" style="fill: rgb(245, 245, 245); transform-origin: 153.81px 104.3px;" id="elzirhs5vm2t" class="animable"></polygon><polygon points="134.43 114.01 134.52 145.05 137.07 146.53 136.98 115.49 134.43 114.01" style="fill: rgb(240, 240, 240); transform-origin: 135.75px 130.27px;" id="elt7p7oa37pzi" class="animable"></polygon><polygon points="114.08 135.06 121.58 140.97 121.6 146.74 96.65 161.15 96.63 155.38 101.39 145.93 105.66 149.25 104.14 153.94 106.34 149.77 114.08 135.06" style="fill: rgb(224, 224, 224); transform-origin: 109.115px 148.105px;" id="elav7x9xepupo" class="animable"></polygon><path d="M105.88,138c1.18-.67,2.13-.13,2.14,1.22a4.69,4.69,0,0,1-2.12,3.67c-1.18.68-2.13.13-2.14-1.22A4.71,4.71,0,0,1,105.88,138Z" style="fill: rgb(224, 224, 224); transform-origin: 105.89px 140.447px;" id="elqwvuw7milsn" class="animable"></path><polygon points="158.84 109.35 166.34 115.25 166.35 121.02 141.4 135.43 141.39 129.66 146.14 120.21 150.41 123.53 148.9 128.22 151.09 124.05 158.84 109.35" style="fill: rgb(224, 224, 224); transform-origin: 153.87px 122.39px;" id="el5n36fhtc5om" class="animable"></polygon><path d="M150.64,112.25c1.18-.67,2.13-.13,2.13,1.22a4.66,4.66,0,0,1-2.11,3.67c-1.18.68-2.13.13-2.14-1.21A4.71,4.71,0,0,1,150.64,112.25Z" style="fill: rgb(224, 224, 224); transform-origin: 150.645px 114.697px;" id="el673kgfxwwz6" class="animable"></path></g><g id="freepik--Character--inject-149" class="animable" style="transform-origin: 330.315px 316.572px;"><path d="M301.32,280.05c-9.82,6.82-20.87,11.53-29.06,20.67-15.31,17.06-15.67,44.52-3.65,64S303,396,325.76,398.69c23.89,2.81,48.95-3.79,67.69-18.86s30.66-38.63,30.66-62.69-12.33-48-32.48-61.14c-18.38-12-44.79-15.4-63.23-1.69-9.32,6.94-15.54,17.17-24.84,24.13C302.82,279,302.07,279.53,301.32,280.05Z" style="fill: #B46C6C; transform-origin: 342.12px 322.371px;" id="el15x0a3sjzbb" class="animable"></path><g id="elvqikswgcleq"><path d="M301.32,280.05c-9.82,6.82-20.87,11.53-29.06,20.67-15.31,17.06-15.67,44.52-3.65,64S303,396,325.76,398.69c23.89,2.81,48.95-3.79,67.69-18.86s30.66-38.63,30.66-62.69-12.33-48-32.48-61.14c-18.38-12-44.79-15.4-63.23-1.69-9.32,6.94-15.54,17.17-24.84,24.13C302.82,279,302.07,279.53,301.32,280.05Z" style="fill: rgb(255, 255, 255); opacity: 0.2; transform-origin: 342.12px 322.371px;" class="animable" id="elr3x0eovond"></path></g><g id="elitw8dsruv3r"><path d="M305.31,380c0-.16.05-.33.07-.49A25.83,25.83,0,0,1,326.31,358a81.53,81.53,0,0,0,26.81-10.27c5.86-3.54,11.4-7.88,18-9.81a29.34,29.34,0,0,1,19.37,1.13c-5.53-5.8-15-8.35-22.56-5.73,5.23-8,9.84-16.65,11.65-26.06s.52-19.73-5.15-27.44a27.62,27.62,0,0,0-42.63-2.28c-5.62,6.14-8.78,14.79-12.47,22.25-2.65,5.36-5.39,10.84-9.76,14.93-6.59,6.16-16.06,8.39-22.9,14.28-7.74,6.69-11.08,17.38-11.12,27.61a81.43,81.43,0,0,0,3,20.41,77.52,77.52,0,0,0,28,17.13A30.46,30.46,0,0,1,305.31,380Z" style="opacity: 0.1; transform-origin: 333.02px 331.357px;" class="animable" id="elrr87783iosm"></path></g><path d="M411.28,313.84a70.19,70.19,0,0,0-59.88-68.15,51.43,51.43,0,0,0-6.77,1.14,68.44,68.44,0,0,1,64.8,67c.44,22.38-10.51,45.2-29.29,61-14.72,12.41-34.27,20.64-55.75,23.6l1.37.18c1.93.23,3.87.38,5.82.49,19.09-3.7,36.38-11.57,49.76-22.85C400.54,360.14,411.73,336.78,411.28,313.84Z" style="fill: rgb(255, 255, 255); transform-origin: 367.842px 322.395px;" id="el9zzgttc8zo" class="animable"></path><path d="M277.71,376.54a65.88,65.88,0,0,1,1.16,10.79l2.56-1a6.59,6.59,0,0,1,7.11,1.62l.12.13a2.59,2.59,0,0,0,3.56.16h0a2.57,2.57,0,0,0,.88-1.86l.34-10.89Z" style="fill: rgb(255, 168, 167); transform-origin: 285.575px 382.181px;" id="elhizq369j0z7" class="animable"></path><path d="M287.59,417c-5.31,5.68-15.09,10.64-22.19,5.8l.8,1.8c7.1,4.85,16.88-.12,22.19-5.8s1.86-9.61,6.64-14.65a17.34,17.34,0,0,0,4.13-6.14c-.21-.54-.41-1.25-.66-2.06a21.63,21.63,0,0,1-4.27,6.39C289.46,407.41,292.9,411.34,287.59,417Z" style="fill: rgb(245, 245, 245); transform-origin: 282.28px 411.257px;" id="elzo2sxeipsn" class="animable"></path><path d="M295.88,390a10.16,10.16,0,0,1-1.67-3.87,2.27,2.27,0,0,0-1-1.58l-.06,1.83a2.58,2.58,0,0,1-4.44,1.7l-.12-.13a6.59,6.59,0,0,0-7.11-1.62l-2.6,1a2,2,0,0,0-1.3,1.91c.17,7.45-3.31,17.34-7,22.78-3.75,1.55-7,6.66-5.34,10.41l.17.38c7.1,4.84,16.88-.12,22.19-5.8s1.87-9.62,6.64-14.66A21.63,21.63,0,0,0,298.5,396,23.28,23.28,0,0,0,295.88,390Z" style="fill: #B46C6C; transform-origin: 281.647px 404.66px;" id="el7fa2mrqttc8" class="animable"></path><path d="M285.49,400.8a.92.92,0,0,0,1.21-.41.9.9,0,0,0-.37-1.2,10.38,10.38,0,0,0-10.2,0c-.16.59-.33,1.17-.51,1.75A10,10,0,0,1,285.49,400.8Z" style="fill: rgb(255, 255, 255); transform-origin: 281.209px 399.395px;" id="el08atafjoos6v" class="animable"></path><path d="M286.8,396.77a.91.91,0,0,0,.83-1.61,10.9,10.9,0,0,0-10.61.08c-.11.61-.23,1.22-.37,1.83C279.75,395.44,282.87,394.78,286.8,396.77Z" style="fill: rgb(255, 255, 255); transform-origin: 282.348px 395.446px;" id="el30y1oajiprl" class="animable"></path><path d="M284.06,404.8a.89.89,0,0,0,1.2-.4.91.91,0,0,0-.37-1.21,10.37,10.37,0,0,0-10-.1c-.23.64-.47,1.25-.71,1.86A10,10,0,0,1,284.06,404.8Z" style="fill: rgb(255, 255, 255); transform-origin: 279.77px 403.402px;" id="elde87qu8xdn" class="animable"></path><path d="M270.57,412c-3.75,1.55-7,6.66-5.34,10.41l.17.38c7,4.77,16.58,0,21.94-5.55C282.87,408.51,273.53,410.69,270.57,412Z" style="fill: rgb(255, 255, 255); transform-origin: 276.062px 417.754px;" id="el4pjbatesjww" class="animable"></path><path d="M282.49,408.72a.91.91,0,0,0,.83-1.61,10.33,10.33,0,0,0-10-.09c-.32.69-.65,1.36-1,2C275.44,407.38,278.56,406.73,282.49,408.72Z" style="fill: rgb(255, 255, 255); transform-origin: 278.028px 407.397px;" id="elkazsp922cwk" class="animable"></path><path d="M266.55,398.2a66.19,66.19,0,0,1-3.3,10.34l2.73.15a6.6,6.6,0,0,1,5.86,4.35l.06.17a2.58,2.58,0,0,0,3.19,1.58h0a2.57,2.57,0,0,0,1.55-1.34l4.71-9.83Z" style="fill: rgb(255, 168, 167); transform-origin: 272.3px 406.553px;" id="eldlxux9fgrjo" class="animable"></path><path d="M259.25,439.23c-7.15,3-18.1,3.65-22.65-3.66v2c4.55,7.3,15.5,6.7,22.65,3.65s5.59-8,12-10.73a17.34,17.34,0,0,0,6.26-3.94c0-.59.12-1.32.22-2.16a21.94,21.94,0,0,1-6.48,4.13C264.84,431.18,266.4,436.17,259.25,439.23Z" style="fill: rgb(245, 245, 245); transform-origin: 257.165px 433.876px;" id="elaww8nk58phi" class="animable"></path><path d="M277.72,417.88a10.32,10.32,0,0,1,0-4.21,2.23,2.23,0,0,0-.33-1.87l-.79,1.65a2.57,2.57,0,0,1-4.74-.24l-.06-.17a6.6,6.6,0,0,0-5.86-4.35l-2.77-.16a2,2,0,0,0-2,1.23c-2.85,6.88-10,14.53-15.56,18-4.06-.09-9.09,3.28-9.09,7.38v.4c4.55,7.31,15.5,6.71,22.65,3.66s5.59-8.05,12-10.73a21.94,21.94,0,0,0,6.48-4.13A23.25,23.25,0,0,0,277.72,417.88Z" style="fill: #B46C6C; transform-origin: 257.216px 424.933px;" id="elbcy8h1iob3w" class="animable"></path><path d="M263.88,423.53a.91.91,0,0,0,1.41-1.14,10.35,10.35,0,0,0-9.34-4.1c-.38.47-.77.94-1.17,1.4A10,10,0,0,1,263.88,423.53Z" style="fill: rgb(255, 255, 255); transform-origin: 260.113px 421.023px;" id="elnxmqtc7l6h" class="animable"></path><path d="M266.7,420.37a.91.91,0,0,0,1.27.12.9.9,0,0,0,.14-1.25,10.88,10.88,0,0,0-9.74-4.21c-.34.51-.71,1-1.08,1.52C260.79,416.31,263.91,417,266.7,420.37Z" style="fill: rgb(255, 255, 255); transform-origin: 262.795px 417.834px;" id="eltnbs69glkig" class="animable"></path><path d="M261,426.62a.91.91,0,0,0,1.41-1.14,10.34,10.34,0,0,0-9.09-4.12c-.46.49-.93,1-1.4,1.41A10,10,0,0,1,261,426.62Z" style="fill: rgb(255, 255, 255); transform-origin: 257.243px 424.114px;" id="eli6kee69qh" class="animable"></path><path d="M245.69,427.79c-4.06-.09-9.09,3.28-9.09,7.38v.4c4.48,7.2,15.17,6.72,22.32,3.78C258.37,429.53,248.94,427.76,245.69,427.79Z" style="fill: rgb(255, 255, 255); transform-origin: 247.76px 434.577px;" id="eled9hqob3h3g" class="animable"></path><path d="M257.93,429.56a.9.9,0,0,0,1.41-1.13,10.33,10.33,0,0,0-9.11-4.12c-.57.51-1.14,1-1.7,1.43C252,425.5,255.14,426.16,257.93,429.56Z" style="fill: rgb(255, 255, 255); transform-origin: 254.034px 427.088px;" id="elk9k5wu2fpy" class="animable"></path><path d="M308.56,305.18l-35.79,19.94A17.73,17.73,0,0,0,264,343.85l7,37.42-5.7,18.1c4.91,6.6,16.2,6.93,16.2,6.93,6.29-12.63,10.91-18,14.49-28.57s6-17.88,6-17.88l29.73-8.12a35.24,35.24,0,0,0,25.76-30c.5-4.5.53-7.57.53-7.57Z" style="fill: rgb(55, 71, 79); transform-origin: 310.854px 355.74px;" id="el9y845ztrp5o" class="animable"></path><g id="elryc47bi1h4"><path d="M308.83,315.23a16.9,16.9,0,0,0,4,10.91L287.58,342A18.14,18.14,0,0,0,279.85,352l-8.94,29.23L279,348.71a14.72,14.72,0,0,1,6.57-9l23.32-14.42C306.48,319.33,308.83,315.23,308.83,315.23Z" style="opacity: 0.2; transform-origin: 291.87px 348.23px;" class="animable" id="elat5ypmn61rs"></path></g><path d="M333.82,330.14a1.5,1.5,0,0,1,0,.47s0,0,0,0a1.57,1.57,0,0,1-.19.36.05.05,0,0,1,0,0,1.53,1.53,0,0,1-.32.36l0,0a3,3,0,0,1-.48.35L306.54,347a3.88,3.88,0,0,1-.75.33l-.29.09-.38.1a3.54,3.54,0,0,1-.47.07l-.11,0-.64,0h-.1l-.63,0h-.1a6,6,0,0,1-.61-.1l-.11,0-.53-.16-.09,0a3.46,3.46,0,0,1-.58-.28l-43.22-24.95a3.25,3.25,0,0,1-.49-.35,1.42,1.42,0,0,1-.12-.13,1.74,1.74,0,0,1-.23-.25,1.4,1.4,0,0,1-.09-.17c0-.08-.09-.16-.12-.24a1.13,1.13,0,0,1,0-.18,1,1,0,0,1,0-.24V322a1,1,0,0,0,0,.24,1.13,1.13,0,0,0,0,.18,1.92,1.92,0,0,0,.12.25,1.29,1.29,0,0,0,.09.16,1.34,1.34,0,0,0,.23.25.74.74,0,0,0,.12.13,2.67,2.67,0,0,0,.49.35l43.22,24.95a3.46,3.46,0,0,0,.58.28l.09,0a4.64,4.64,0,0,0,.53.16l.11,0a6,6,0,0,0,.61.1h.1a4.35,4.35,0,0,0,.63,0h.1a4.49,4.49,0,0,0,.64,0h.11l.47-.08.38-.1a1.61,1.61,0,0,0,.29-.09,3.88,3.88,0,0,0,.75-.33l26.2-15.22a3.69,3.69,0,0,0,.48-.34s0,0,0,0a2.07,2.07,0,0,0,.32-.36l0,0a1.63,1.63,0,0,0,.19-.37.08.08,0,0,1,0,0,1.31,1.31,0,0,0,0-.34h0v-1.66Z" style="fill: rgb(224, 224, 224); transform-origin: 295.356px 334.801px;" id="eluiquc51tdx" class="animable"></path><g id="eli7eor36yhxi"><path d="M333.82,330.14a1.5,1.5,0,0,1,0,.47s0,0,0,0a1.57,1.57,0,0,1-.19.36.05.05,0,0,1,0,0,1.53,1.53,0,0,1-.32.36l0,0a3,3,0,0,1-.48.35L306.54,347a3.88,3.88,0,0,1-.75.33l-.29.09-.38.1a3.54,3.54,0,0,1-.47.07l-.11,0-.64,0h-.1l-.63,0h-.1a6,6,0,0,1-.61-.1l-.11,0-.53-.16-.09,0a3.46,3.46,0,0,1-.58-.28l-43.22-24.95a3.25,3.25,0,0,1-.49-.35,1.42,1.42,0,0,1-.12-.13,1.74,1.74,0,0,1-.23-.25,1.4,1.4,0,0,1-.09-.17c0-.08-.09-.16-.12-.24a1.13,1.13,0,0,1,0-.18,1,1,0,0,1,0-.24V322a1,1,0,0,0,0,.24,1.13,1.13,0,0,0,0,.18,1.92,1.92,0,0,0,.12.25,1.29,1.29,0,0,0,.09.16,1.34,1.34,0,0,0,.23.25.74.74,0,0,0,.12.13,2.67,2.67,0,0,0,.49.35l43.22,24.95a3.46,3.46,0,0,0,.58.28l.09,0a4.64,4.64,0,0,0,.53.16l.11,0a6,6,0,0,0,.61.1h.1a4.35,4.35,0,0,0,.63,0h.1a4.49,4.49,0,0,0,.64,0h.11l.47-.08.38-.1a1.61,1.61,0,0,0,.29-.09,3.88,3.88,0,0,0,.75-.33l26.2-15.22a3.69,3.69,0,0,0,.48-.34s0,0,0,0a2.07,2.07,0,0,0,.32-.36l0,0a1.63,1.63,0,0,0,.19-.37.08.08,0,0,1,0,0,1.31,1.31,0,0,0,0-.34h0v-1.66Z" style="opacity: 0.2; transform-origin: 295.356px 334.801px;" class="animable" id="elpquig533l08"></path></g><path d="M256.88,320.91c0,.08.08.16.12.24a1.4,1.4,0,0,0,.09.17,1.74,1.74,0,0,0,.23.25,1.42,1.42,0,0,0,.12.13,3.25,3.25,0,0,0,.49.35L301.15,347a3.46,3.46,0,0,0,.58.28l.09,0,.53.16.11,0a6,6,0,0,0,.61.1h.1l.63,0h.1l.64,0,.11,0a3.54,3.54,0,0,0,.47-.07l.38-.1.29-.09a3.88,3.88,0,0,0,.75-.33l26.2-15.22a3,3,0,0,0,.48-.35l0,0a1.53,1.53,0,0,0,.32-.36.05.05,0,0,0,0,0,1.57,1.57,0,0,0,.19-.36s0,0,0,0a1.5,1.5,0,0,0,0-.47,2,2,0,0,0-1.11-1.48l-43.22-25a5.93,5.93,0,0,0-5.38,0l-26.19,15.22a1.89,1.89,0,0,0-1.11,1.56,1,1,0,0,0,0,.24A1.13,1.13,0,0,0,256.88,320.91Z" style="fill: rgb(224, 224, 224); transform-origin: 295.231px 325.302px;" id="elw9dqrt2sqj" class="animable"></path><path d="M260.48,320.49l42,24.24.17.08.09,0,.33.09.23.05.16,0,.41,0h0l.42,0,.28-.05.34-.09a1.48,1.48,0,0,0,.29-.12l13.51-7.85-43.38-25Z" style="fill: rgb(224, 224, 224); transform-origin: 289.595px 328.395px;" id="el06oig0h103x6" class="animable"></path><path d="M303.9,345h0Z" style="fill: rgb(38, 50, 56); transform-origin: 303.9px 345px;" id="elz9j04ndtst" class="animable"></path><path d="M300.42,313.82l-7.9,4.64a.81.81,0,0,0,0,1.39l11.81,6.81a1.3,1.3,0,0,0,1.32,0l7.9-4.65a.8.8,0,0,0,0-1.38l-11.81-6.82A1.32,1.32,0,0,0,300.42,313.82Z" style="fill: rgb(224, 224, 224); transform-origin: 303.036px 320.239px;" id="elcjdiijxgmuc" class="animable"></path><g id="elnnhp240tuys"><path d="M260.48,320.49l42,24.24.17.08.09,0,.33.09.23.05.16,0,.41,0h0l.42,0,.28-.05.34-.09a1.48,1.48,0,0,0,.29-.12l13.51-7.85-43.38-25Z" style="opacity: 0.4; transform-origin: 289.595px 328.395px;" class="animable" id="el3t8hz6vnw8"></path></g><g id="elifon0k0d5x"><path d="M300.42,313.82l-7.9,4.64a.81.81,0,0,0,0,1.39l11.81,6.81a1.3,1.3,0,0,0,1.32,0l7.9-4.65a.8.8,0,0,0,0-1.38l-11.81-6.82A1.32,1.32,0,0,0,300.42,313.82Z" style="opacity: 0.4; transform-origin: 303.036px 320.239px;" class="animable" id="elhs89ltpxen9"></path></g><path d="M298.26,256.61,296.32,288l-20.24,17.45a8,8,0,0,1-3.74.58l-7.5-.62a4.22,4.22,0,0,0-2.52.6l-4.29,2.6a4.5,4.5,0,0,0-1.15,1l-2.1,2.49a1.58,1.58,0,0,0,.29,2.3l1.32.95a4.7,4.7,0,0,0,4.86.37l3.32-1.67,6.87.75v1.79l-1.86,1.6a2,2,0,0,0,0,3h0s4.59-1.36,8.75-8l24.24-10.95a14.83,14.83,0,0,0,8.7-12.82l2.15-45.83-3.35.42A13.58,13.58,0,0,0,298.26,256.61Z" style="fill: rgb(255, 168, 167); transform-origin: 283.915px 282.39px;" id="ellckusv7iev" class="animable"></path><path d="M313.46,243.57l-3.89.26a13.41,13.41,0,0,0-12.51,12.54l-1.23,19.71-.51,10.42-4.71,4.32a4.54,4.54,0,0,0-1.47,3.35l1.25-1.08c8.6,2.75,7.2,11.39,7.2,11.39a4.39,4.39,0,0,0,3.5-.12l3.57-1.71a16.8,16.8,0,0,0,9.57-15.17V279.3Z" style="fill: #B46C6C; transform-origin: 301.685px 274.178px;" id="elzw9gpyxidq" class="animable"></path><g id="el98ila4265rc"><path d="M313.46,243.57l-3.89.26a13.41,13.41,0,0,0-12.51,12.54l-1.23,19.71-.51,10.42-4.71,4.32a4.54,4.54,0,0,0-1.47,3.35l1.25-1.08c8.6,2.75,7.2,11.39,7.2,11.39a4.39,4.39,0,0,0,3.5-.12l3.57-1.71a16.8,16.8,0,0,0,9.57-15.17V279.3Z" style="fill: rgb(255, 255, 255); opacity: 0.6; transform-origin: 301.685px 274.178px;" class="animable" id="elyohza6cdda"></path></g><path d="M358.45,317c-6.35,6.1-36.85,7.23-52.41-7.59,1.49-10.46,1-21.66,0-32.74s-7.47-30.46,4.89-32.72c16.52-3.22,27.31-3,38.35,3.25C361.06,266.81,359.45,296.19,358.45,317Z" style="fill: rgb(250, 250, 250); transform-origin: 331.299px 281.572px;" id="elgh40q6o5tjd" class="animable"></path><path d="M368.41,296.12l-4.67-17.36-16.38,3.59,3.93,13.46-24,17.06-8.07,3.4a12.66,12.66,0,0,0-5.35,4.25l-6.59,9.11a.89.89,0,0,0-.06.4,1.25,1.25,0,0,0,2.2.6c1.46-1.67,2.67-3.22,4.21-4.68l-3.88,5.25a1.55,1.55,0,0,0,.48,2.26,5.64,5.64,0,0,0,6.85-.76l5.09-4.65,1.4-.5a21.27,21.27,0,0,0,10.21-7.66L361.91,309A10.76,10.76,0,0,0,368.41,296.12Z" style="fill: rgb(255, 168, 167); transform-origin: 338.005px 306.521px;" id="elwb13ljbrxx8" class="animable"></path><path d="M369.74,297.29l-3.93-18.57c-5.95-27.05-10.7-29-18.68-32.67-7.76,6.76-6.46,18.25-6.46,18.25l7,20.81.2.6,2.85,9.69-7.94,5.44v1c6.25.77,7.13,11.76,7.13,11.76l-1.21.47,1.21,1L362.92,310A11.14,11.14,0,0,0,369.74,297.29Z" style="fill: #B46C6C; transform-origin: 355.288px 280.56px;" id="elzv6s9582afk" class="animable"></path><g id="el2f1rnfw15za"><path d="M369.74,297.29l-3.93-18.57c-5.95-27.05-10.7-29-18.68-32.67-7.76,6.76-6.46,18.25-6.46,18.25l7,20.81.2.6,2.85,9.69-7.94,5.44v1c6.25.77,7.13,11.76,7.13,11.76l-1.21.47,1.21,1L362.92,310A11.14,11.14,0,0,0,369.74,297.29Z" style="fill: rgb(255, 255, 255); opacity: 0.6; transform-origin: 355.288px 280.56px;" class="animable" id="ellpr7j1qq4vg"></path></g><path d="M333.74,232v11.61a5.5,5.5,0,0,1-1.85,4.12,15.52,15.52,0,0,1-11.1,3.77,3.87,3.87,0,0,1-2.3-.71,3,3,0,0,1-.74-3.16,6.13,6.13,0,0,1,.84-1.7,5.24,5.24,0,0,0,.92-2.94V232Z" style="fill: rgb(255, 168, 167); transform-origin: 325.658px 241.764px;" id="elbi68yj6da7d" class="animable"></path><g id="elu4oufug6te"><path d="M325.28,241.41a31.35,31.35,0,0,1-5.77,1.14V232h14.23v2.47a10.88,10.88,0,0,1-1.17,2A14.16,14.16,0,0,1,325.28,241.41Z" style="opacity: 0.2; transform-origin: 326.625px 237.275px;" class="animable" id="elo7388wfp6m"></path></g><path d="M307.61,221.7c-1.52-2.89-4.1-6.25-5.31-9.81-5.88-17.22,27.28-30.31,32-16-.07-1.73-.11-3.3-.18-5a3.65,3.65,0,0,1,2,2.26,4.79,4.79,0,0,1-.79,3.43c1.64-1.78,2.29-2.53,3.93-4.31.65,2.21-.33,3.44-3.14,4.54,14-1.5,13.32,9.2,9.48,17.4-2.11,4.52-2,5.26-4.23,8.89a44.54,44.54,0,0,1-21,4.37,20.56,20.56,0,0,1-6.28-1.34C311.69,225.14,308.79,223.94,307.61,221.7Z" style="fill: rgb(38, 50, 56); transform-origin: 324.793px 208.641px;" id="el7vdjr989ns" class="animable"></path><path d="M332.15,212.08l-.23,10a2.29,2.29,0,0,0,.5,1.91,1.53,1.53,0,0,0,1.76,0,4.56,4.56,0,0,0,1.27-1.35,13.28,13.28,0,0,1,2.55-3,4.59,4.59,0,0,1,3.65-1.07c2.1.42,3.34,2.81,3.2,5a6.7,6.7,0,0,1-3.44,5.32,6.57,6.57,0,0,1-6.28-.35c.32,3.82-2.28,7.41-5.56,9.4s-7.16,2.69-10.94,3.35c-2.06.37-4.25.72-6.21,0a7.71,7.71,0,0,1-3.75-3.34,18.29,18.29,0,0,1-1.84-4.75,59.7,59.7,0,0,1-1.5-23.16c1.24,1.08,2.66,1.48,7.08,1.55a11.14,11.14,0,0,1-5.29,2c4.1,1,13.09-1.41,15.09-2.12a20.79,20.79,0,0,1-4.92,2.79C322.38,214.32,332.15,212,332.15,212.08Z" style="fill: rgb(255, 168, 167); transform-origin: 324.84px 225.874px;" id="ellc7h7beewi" class="animable"></path><polygon points="315.99 221.82 311.63 229.16 316.83 230.13 315.99 221.82" style="fill: rgb(242, 143, 143); transform-origin: 314.23px 225.975px;" id="el0y0vgqa23ot" class="animable"></polygon><path d="M321.84,232.66l-3.95,1.92a2.57,2.57,0,0,0,3,.85A2.34,2.34,0,0,0,321.84,232.66Z" style="fill: rgb(242, 143, 143); transform-origin: 319.934px 234.135px;" id="elmsnymoomejg" class="animable"></path><g id="elz6nckitwvs"><path d="M321.84,232.66l-3.95,1.92a2.57,2.57,0,0,0,3,.85A2.34,2.34,0,0,0,321.84,232.66Z" style="opacity: 0.3; transform-origin: 319.934px 234.135px;" class="animable" id="elz2lw5gyv2gm"></path></g><path d="M319.51,235.56a2.26,2.26,0,0,0,1.37-.13,2.11,2.11,0,0,0,1.06-2.08,2.59,2.59,0,0,0-1.56.54A2.52,2.52,0,0,0,319.51,235.56Z" style="fill: rgb(242, 143, 143); transform-origin: 320.732px 234.481px;" id="elei9u2jr5zkl" class="animable"></path><path d="M323.51,222.12a1.49,1.49,0,1,1-1.63-1.34A1.48,1.48,0,0,1,323.51,222.12Z" style="fill: rgb(38, 50, 56); transform-origin: 322.027px 222.262px;" id="elvm5yscj05w" class="animable"></path><path d="M311,222.89a1.49,1.49,0,1,1-1.63-1.33A1.48,1.48,0,0,1,311,222.89Z" style="fill: rgb(38, 50, 56); transform-origin: 309.518px 223.042px;" id="elehvwmqq959l" class="animable"></path><path d="M309,217.13l-3.06,2.61a2.13,2.13,0,0,1,.41-2.4A2.5,2.5,0,0,1,309,217.13Z" style="fill: rgb(38, 50, 56); transform-origin: 307.369px 218.293px;" id="elukwahibibeg" class="animable"></path><path d="M321.66,215.67l3.52,1.94a2.13,2.13,0,0,0-.88-2.26A2.5,2.5,0,0,0,321.66,215.67Z" style="fill: rgb(38, 50, 56); transform-origin: 323.449px 216.361px;" id="ele2hoq1gzppi" class="animable"></path><path d="M303.58,345.45,299.11,317a5.24,5.24,0,0,0-2.55-3.72L253,288a1.27,1.27,0,0,0-1.15-.07h0l-1,.52.35.13a1.25,1.25,0,0,0-.11.77l4.47,28.45a5.23,5.23,0,0,0,2.55,3.73l43.52,25.3a1,1,0,0,0,.28.11l0,.42,1-.49h0A1.29,1.29,0,0,0,303.58,345.45Z" style="fill: rgb(224, 224, 224); transform-origin: 277.23px 317.592px;" id="el7xpe4lcsiuo" class="animable"></path><g id="eluyd27270pw"><path d="M303.58,345.45,299.11,317a5.24,5.24,0,0,0-2.55-3.72L253,288a1.27,1.27,0,0,0-1.15-.07h0l-1,.52.35.13a1.25,1.25,0,0,0-.11.77l4.47,28.45a5.23,5.23,0,0,0,2.55,3.73l43.52,25.3a1,1,0,0,0,.28.11l0,.42,1-.49h0A1.29,1.29,0,0,0,303.58,345.45Z" style="opacity: 0.3; transform-origin: 277.23px 317.592px;" class="animable" id="elnxqt1apxez"></path></g><path d="M295.69,313.71l-43.52-25.3a1.31,1.31,0,0,0-2,1.34l4.47,28.45a5.31,5.31,0,0,0,2.55,3.73l43.52,25.3a1.32,1.32,0,0,0,2-1.34l-4.48-28.45A5.27,5.27,0,0,0,295.69,313.71Z" style="fill: rgb(224, 224, 224); transform-origin: 276.438px 317.815px;" id="el271xqmew0vw" class="animable"></path><path d="M274.6,314.45a9.62,9.62,0,0,1,4.31,6.22c.29,2.22-1.18,3-3.29,1.83a9.68,9.68,0,0,1-4.32-6.22C271,314.06,272.5,313.24,274.6,314.45Z" style="fill: rgb(255, 255, 255); transform-origin: 275.104px 318.466px;" id="elirmkunezb8" class="animable"></path></g><g id="freepik--Clock--inject-149" class="animable" style="transform-origin: 132.532px 77.7146px;"><path d="M131,58.26h0l.28-.22h0Z" style="fill: none; transform-origin: 131.14px 58.15px;" id="elic88ojvvn2e" class="animable"></path><path d="M129.41,59.6l.05-.05-.05.05Z" style="fill: none; transform-origin: 129.435px 59.575px;" id="elgdllq42ucm" class="animable"></path><path d="M140.77,53.31l.41-.07-.39.07Z" style="fill: none; transform-origin: 140.975px 53.275px;" id="el3ozkrzg3nc5" class="animable"></path><path d="M139.85,53.54l.36-.09-.35.09Z" style="fill: none; transform-origin: 140.03px 53.495px;" id="elckk5k9eo834" class="animable"></path><path d="M136,55.07l0,0,0,0Z" style="fill: none; transform-origin: 136px 55.07px;" id="elfs3w9crej14" class="animable"></path><path d="M123.34,102.9c-.25-.08-.51-.16-.75-.26A6.65,6.65,0,0,0,123.34,102.9Z" style="fill: none; transform-origin: 122.965px 102.77px;" id="elm4ces3dwtn" class="animable"></path><path d="M120.38,70.8h0l.17-.29h0Z" style="fill: none; transform-origin: 120.465px 70.655px;" id="elxp9j1j59" class="animable"></path><path d="M121.37,69.17l.2-.32h0C121.51,69,121.44,69.06,121.37,69.17Z" style="fill: none; transform-origin: 121.47px 69.01px;" id="elfogtgbord9" class="animable"></path><path d="M127.79,61.11,128,61l-.18.16Z" style="fill: none; transform-origin: 127.895px 61.08px;" id="elwtu2lrua6e" class="animable"></path><polygon points="126.71 62.23 126.72 62.22 126.71 62.23 126.71 62.23" style="fill: none; transform-origin: 126.715px 62.225px;" id="elvsha73nadvd" class="animable"></polygon><path d="M124,65.39l0,0h0Z" style="fill: none; transform-origin: 124px 65.39px;" id="elwf7iq7ttjw" class="animable"></path><path d="M125.49,103.3a7.53,7.53,0,0,1-.83-.1A7.53,7.53,0,0,0,125.49,103.3Z" style="fill: none; transform-origin: 125.075px 103.25px;" id="elpweigtyp6wj" class="animable"></path><path d="M141,96c-.42.41-.85.81-1.28,1.2C140.11,96.82,140.54,96.42,141,96Z" style="fill: none; transform-origin: 140.36px 96.6px;" id="ell8riu2y796c" class="animable"></path><path d="M134.8,100.76c-.4.23-.8.44-1.19.64C134,101.2,134.4,101,134.8,100.76Z" style="fill: none; transform-origin: 134.205px 101.08px;" id="el3z4x9mfvhxb" class="animable"></path><path d="M136.28,99.83c-.49.33-1,.64-1.48.93C135.3,100.47,135.79,100.16,136.28,99.83Z" style="fill: none; transform-origin: 135.54px 100.295px;" id="el51vldy6zs03" class="animable"></path><path d="M128.75,103.1l-.44.08Z" style="fill: none; transform-origin: 128.53px 103.14px;" id="elqr79n2s0tyb" class="animable"></path><path d="M118.66,74l.06-.12h0Z" style="fill: none; transform-origin: 118.69px 73.94px;" id="eletl1jorpqce" class="animable"></path><path d="M145.63,53.12h0Z" style="fill: none; transform-origin: 145.63px 53.12px;" id="ellp45fsu4oig" class="animable"></path><path d="M142.79,53l.26,0h-.26Z" style="fill: none; transform-origin: 142.92px 53px;" id="elfacmdylbjro" class="animable"></path><path d="M144.52,53h0l.23,0h-.21Z" style="fill: none; transform-origin: 144.635px 53px;" id="elo9s6pccdiam" class="animable"></path><path d="M141.71,53.14h0l.43,0-.38,0Z" style="fill: none; transform-origin: 141.925px 53.14px;" id="elv553mlc2zpg" class="animable"></path><path d="M146.93,53.4h0l.15.05-.08,0Z" style="fill: none; transform-origin: 147.005px 53.425px;" id="els2nafm5dpi" class="animable"></path><path d="M147.88,53.73l.14.06-.12,0Z" style="fill: none; transform-origin: 147.95px 53.76px;" id="elhpe2kmjs9b" class="animable"></path><path d="M132.8,57l.06,0-.06,0Z" style="fill: none; transform-origin: 132.83px 57px;" id="elmk62l97caai" class="animable"></path><path d="M114.72,94.76c0,.19.07.39.1.58C114.79,95.15,114.76,95,114.72,94.76Z" style="fill: none; transform-origin: 114.77px 95.05px;" id="elmkzi9gr1vfs" class="animable"></path><path d="M115.18,96.78l.15.51Z" style="fill: none; transform-origin: 115.255px 97.035px;" id="el4vk91uugycc" class="animable"></path><path d="M114.93,95.8l.12.54Z" style="fill: none; transform-origin: 114.99px 96.07px;" id="ele2n1jstbtru" class="animable"></path><path d="M115.82,98.59c.07.15.13.3.19.45C116,98.89,115.89,98.74,115.82,98.59Z" style="fill: none; transform-origin: 115.915px 98.815px;" id="el89a3fufd65j" class="animable"></path><path d="M115.48,97.71c0,.16.11.32.17.48C115.59,98,115.53,97.87,115.48,97.71Z" style="fill: none; transform-origin: 115.565px 97.95px;" id="el55ttxcn0ej6" class="animable"></path><path d="M116.21,99.42l.21.42Z" style="fill: none; transform-origin: 116.315px 99.63px;" id="els4214dwl5ml" class="animable"></path><polygon points="116.32 79.77 116.32 79.76 116.32 79.77 116.32 79.77" style="fill: none; transform-origin: 116.32px 79.765px;" id="elkfs2zzoflpi" class="animable"></polygon><path d="M134.67,55.76l-.84.52Z" style="fill: none; transform-origin: 134.25px 56.02px;" id="el6qf18rmv0gb" class="animable"></path><path d="M114.46,92.44c0,.26,0,.52.05.77C114.49,93,114.47,92.7,114.46,92.44Z" style="fill: none; transform-origin: 114.485px 92.825px;" id="elaanvlopohgf" class="animable"></path><path d="M114.56,93.63c0,.22,0,.45.08.67C114.61,94.08,114.59,93.85,114.56,93.63Z" style="fill: none; transform-origin: 114.6px 93.965px;" id="eldbkf8onx73j" class="animable"></path><path d="M114.4,90.88c0,.41,0,.8,0,1.19C114.41,91.68,114.4,91.29,114.4,90.88Z" style="fill: none; transform-origin: 114.402px 91.475px;" id="elu6cvb6ctw4" class="animable"></path><path d="M114.46,89.12v0Z" style="fill: none; transform-origin: 114.46px 89.12px;" id="elqxkda9thl2p" class="animable"></path><path d="M114.65,87l0-.22,0,.22Z" style="fill: none; transform-origin: 114.65px 86.89px;" id="el0hhq1vl7tl1d" class="animable"></path><path d="M118.46,102.51l-.3-.3Z" style="fill: none; transform-origin: 118.31px 102.36px;" id="elf2hmqorhz5k" class="animable"></path><path d="M115.09,84.34l0-.13,0,.13Z" style="fill: none; transform-origin: 115.09px 84.275px;" id="elciheq0j556q" class="animable"></path><path d="M114.84,85.69h0c0-.18.07-.36.1-.55h0C114.91,85.33,114.87,85.51,114.84,85.69Z" style="fill: none; transform-origin: 114.89px 85.415px;" id="elhk7jzbcy3oi" class="animable"></path><path d="M116.64,100.19c.07.13.15.27.23.39C116.79,100.46,116.71,100.32,116.64,100.19Z" style="fill: none; transform-origin: 116.755px 100.385px;" id="el4lqw2wk2i38" class="animable"></path><path d="M119.36,103.27c.11.09.22.18.34.26C119.58,103.45,119.47,103.36,119.36,103.27Z" style="fill: none; transform-origin: 119.53px 103.4px;" id="elo95zpwvlcel" class="animable"></path><path d="M117.61,101.59l.28.33Z" style="fill: none; transform-origin: 117.75px 101.755px;" id="elo62qn8l4gf" class="animable"></path><path d="M117.11,100.92l.25.36Z" style="fill: none; transform-origin: 117.235px 101.1px;" id="elcwgozpc3tdo" class="animable"></path><path d="M118.74,102.77l.32.28Z" style="fill: none; transform-origin: 118.9px 102.91px;" id="elgwpyowc82f" class="animable"></path><path d="M148.35,56.39l.31.19Z" style="fill: none; transform-origin: 148.505px 56.485px;" id="elhg3nzlp81k" class="animable"></path><path d="M151.18,80.24c.2-.52.39-1,.56-1.57-.17.53-.36,1-.56,1.57Z" style="fill: none; transform-origin: 151.46px 79.455px;" id="el645mg1fee0t" class="animable"></path><path d="M151.78,78.54h0c.18-.53.35-1.07.5-1.62h0C152.13,77.47,152,78,151.78,78.54Z" style="fill: none; transform-origin: 152.03px 77.73px;" id="elqi9mgog1ugp" class="animable"></path><path d="M119.67,100.31l.85.1h.19c.35,0,.72,0,1.09,0h.25c.41,0,.83-.06,1.26-.13.28,0,.56-.1.85-.16l.27-.06.59-.15c.33-.09.67-.2,1-.31l.21-.08.83-.31.32-.14c.29-.13.59-.26.89-.41l.34-.17c.4-.2.8-.41,1.2-.64s1-.6,1.48-.93l.25-.16c.47-.32.93-.66,1.38-1l.27-.21c.46-.36.92-.74,1.37-1.13l.12-.11c.44-.39.86-.79,1.28-1.2l.21-.2c.33-.32.65-.65,1-1l.05-.06c.3-.32.6-.64.88-1l.19-.22c.48-.55.94-1.11,1.39-1.69l.14-.19c.36-.46.71-.94,1.05-1.42a2.43,2.43,0,0,0,.14-.2c.33-.47.65-1,1-1.43.07-.11.14-.23.22-.34.25-.4.49-.8.73-1.2L143,84c.27-.46.53-.93.78-1.4l.18-.34c.2-.38.39-.76.58-1.14l.18-.37c.23-.48.45-1,.66-1.45l.09-.2c.19-.44.36-.88.53-1.32.06-.13.11-.26.16-.39.19-.52.38-1,.56-1.56,0,0,0-.09,0-.13.18-.54.34-1.08.49-1.62l.09-.31c.17-.63.33-1.26.46-1.88l.09-.42c0-.24.1-.49.14-.73s.07-.34.09-.51.08-.51.12-.76l.06-.45c.07-.54.12-1.08.16-1.62,0-.11,0-.22,0-.34,0-.55,0-1.09,0-1.63,0-4.46-1.2-7.93-3.23-10.21-3-.65-6.71.06-10.66,2.35-10.39,6-18.79,20.54-18.76,32.49,0,4.45,1.2,7.91,3.22,10.19l.27.06Z" style="fill: none; transform-origin: 132.095px 77.7px;" id="elb1juhcm596l" class="animable"></path><path d="M147.14,88.3c.25-.39.5-.79.73-1.19-.23.4-.48.8-.73,1.19Z" style="fill: none; transform-origin: 147.505px 87.705px;" id="elyc4tap12za" class="animable"></path><path d="M143.25,93.57q.7-.82,1.38-1.68-.67.85-1.38,1.68Z" style="fill: none; transform-origin: 143.94px 92.73px;" id="elc5wuhrlwadl" class="animable"></path><path d="M149.56,84c-.18.38-.37.76-.57,1.13C149.19,84.73,149.38,84.35,149.56,84Z" style="fill: none; transform-origin: 149.275px 84.565px;" id="elth0llw91vf" class="animable"></path><path d="M148,86.85h0l.78-1.4h0Z" style="fill: none; transform-origin: 148.39px 86.15px;" id="ela94hbllgrws" class="animable"></path><path d="M121.63,102.19l0,0c.25.14.5.26.76.38h0Z" style="fill: none; transform-origin: 122.01px 102.38px;" id="elw5r70su9kik" class="animable"></path><path d="M146,90.07c.33-.46.64-.94.95-1.42-.31.48-.62,1-.95,1.42Z" style="fill: none; transform-origin: 146.475px 89.36px;" id="el0ybc3boegp1" class="animable"></path><path d="M142.19,94.76l.87-1h0Z" style="fill: none; transform-origin: 142.625px 94.26px;" id="el3ojmqm3zr98" class="animable"></path><path d="M138.18,98.45c.49-.38,1-.78,1.45-1.2l-.07.06Q138.89,97.91,138.18,98.45Z" style="fill: none; transform-origin: 138.905px 97.85px;" id="elp758c5ci0gi" class="animable"></path><path d="M136.53,99.66l-.18.13c.59-.4,1.17-.82,1.74-1.27l-.17.14C137.46,99,137,99.34,136.53,99.66Z" style="fill: none; transform-origin: 137.22px 99.155px;" id="elqr31zilk3c" class="animable"></path><path d="M121.48,102.11h0Z" style="fill: none; transform-origin: 121.48px 102.11px;" id="elsy7ddcqi3em" class="animable"></path><path d="M141.17,95.81l1-1Z" style="fill: none; transform-origin: 141.67px 95.31px;" id="eldvan1q6vi1k" class="animable"></path><path d="M132.37,102h0c.36-.16.73-.33,1.09-.51l-.19.1Z" style="fill: none; transform-origin: 132.915px 101.745px;" id="elgfr0y7qzwpl" class="animable"></path><path d="M131.22,102.43l-.2.07c-.34.12-.67.22-1,.31a18.28,18.28,0,0,0,2-.7h0C131.78,102.23,131.5,102.33,131.22,102.43Z" style="fill: none; transform-origin: 131.02px 102.46px;" id="elx5bl3zmp59" class="animable"></path><path d="M127,103.31l.6,0-.6,0Z" style="fill: none; transform-origin: 127.3px 103.31px;" id="elywz9fye24ec" class="animable"></path><path d="M125.71,103.32c.36,0,.72,0,1.09,0h0C126.42,103.34,126.06,103.34,125.71,103.32Z" style="fill: none; transform-origin: 126.255px 103.327px;" id="elxbj9ldon06" class="animable"></path><path d="M123.48,103a7.51,7.51,0,0,0,.94.21h0C124.09,103.1,123.78,103,123.48,103Z" style="fill: none; transform-origin: 123.95px 103.105px;" id="elzncnak28asr" class="animable"></path><path d="M129.16,103l.33-.08h-.08Z" style="fill: none; transform-origin: 129.325px 102.96px;" id="elweymz46t0g" class="animable"></path><path d="M144.78,91.7h0c.35-.47.7-.94,1-1.42h0C145.48,90.76,145.13,91.23,144.78,91.7Z" style="fill: none; transform-origin: 145.28px 90.99px;" id="elo0moe5cknyc" class="animable"></path><path d="M151.06,59l.21.3Z" style="fill: none; transform-origin: 151.165px 59.15px;" id="elu2sh9lg2bq" class="animable"></path><path d="M150.58,58.37l.24.29Z" style="fill: none; transform-origin: 150.7px 58.515px;" id="elip5x6hrtr8g" class="animable"></path><path d="M151.49,59.67l.2.32Z" style="fill: none; transform-origin: 151.59px 59.83px;" id="ell1p1ar08vu" class="animable"></path><path d="M149.53,57.28l.27.24Z" style="fill: none; transform-origin: 149.665px 57.4px;" id="el1j5z4yfcpu3" class="animable"></path><path d="M149,56.81l.29.22Z" style="fill: none; transform-origin: 149.145px 56.92px;" id="elnirzkcnqrc8" class="animable"></path><path d="M150.08,57.8l.25.26Z" style="fill: none; transform-origin: 150.205px 57.93px;" id="el24c6b9fazzb" class="animable"></path><path d="M151,80.63c-.17.44-.35.88-.54,1.31C150.68,81.51,150.86,81.07,151,80.63Z" style="fill: none; transform-origin: 150.73px 81.285px;" id="elbklvk98r3em" class="animable"></path><path d="M150.41,82.15c-.21.49-.44,1-.66,1.45C150,83.12,150.2,82.64,150.41,82.15Z" style="fill: none; transform-origin: 150.08px 82.875px;" id="elhartr6bsjej" class="animable"></path><path d="M142.19,94.76l.87-1h0c.06-.07.13-.14.19-.22h0q.7-.82,1.38-1.68l.15-.19h0c.35-.47.7-.94,1-1.42h0l.15-.21h0c.33-.46.64-.94.95-1.42.08-.11.15-.23.22-.35h0c.25-.39.5-.79.73-1.19l.16-.26h0l.78-1.4h0l.18-.35c.2-.37.39-.75.57-1.13.06-.12.12-.25.19-.37.22-.48.45-1,.66-1.45l.08-.21c.19-.43.37-.87.54-1.31l.15-.39h0c.2-.52.39-1,.56-1.57a.5.5,0,0,0,0-.13h0c.18-.53.35-1.07.5-1.61h0l.09-.31c.17-.62.32-1.25.46-1.88h0l.09-.41c.05-.24.09-.49.14-.73s.05-.32.08-.47v-.05c0-.25.08-.5.11-.75s.05-.31.07-.45c.06-.55.12-1.08.15-1.62l0-.34c0-.55.05-1.09.05-1.63,0-.38,0-.74,0-1.1l0-.4c0-.22,0-.44-.05-.65s0-.27,0-.41,0-.4-.08-.6-.05-.28-.07-.42-.06-.37-.1-.55-.06-.28-.09-.42-.07-.34-.12-.5-.08-.27-.11-.41-.09-.32-.14-.47l-.14-.39c-.05-.15-.1-.3-.16-.44s-.1-.25-.16-.37-.11-.28-.18-.42-.11-.23-.17-.35l-.2-.39-.2-.32c-.07-.12-.14-.25-.22-.37l-.21-.3-.24-.34-.24-.29c-.08-.1-.16-.21-.25-.31l-.25-.26-.28-.28-.27-.24-.28-.25-.29-.22-.3-.23-.31-.19a9,9,0,0,0-3-1.22c2,2.28,3.22,5.75,3.23,10.21,0,.54,0,1.08,0,1.63,0,.12,0,.23,0,.34,0,.54-.09,1.08-.16,1.62l-.06.45c0,.25-.07.5-.12.76s-.06.34-.09.51-.09.49-.14.73l-.09.42c-.13.62-.29,1.25-.46,1.88l-.09.31c-.15.54-.31,1.08-.49,1.62,0,0,0,.08,0,.13-.18.52-.37,1-.56,1.56,0,.13-.1.26-.16.39-.17.44-.34.88-.53,1.32l-.09.2c-.21.49-.43,1-.66,1.45l-.18.37c-.19.38-.38.76-.58,1.14l-.18.34c-.25.47-.51.94-.78,1.4l-.15.26c-.24.4-.48.8-.73,1.2-.08.11-.15.23-.22.34-.31.48-.63,1-1,1.43a2.43,2.43,0,0,1-.14.2c-.34.48-.69,1-1.05,1.42l-.14.19c-.45.58-.91,1.14-1.39,1.69l-.19.22c-.28.33-.58.65-.88,1l-.05.06c-.31.33-.63.66-1,1l-.21.2c-.42.41-.84.81-1.28,1.2l-.12.11c-.45.39-.91.77-1.37,1.13l-.27.21c-.45.35-.91.69-1.38,1l-.25.16c-.49.33-1,.64-1.48.93s-.8.44-1.2.64l-.34.17c-.3.15-.6.28-.89.41l-.32.14-.83.31-.21.08c-.34.11-.68.22-1,.31l-.59.15-.27.06c-.29.06-.57.12-.85.16-.43.07-.85.1-1.26.13h-.25c-.37,0-.74,0-1.09,0h-.19l-.85-.1-.26,0-.27-.06a9.62,9.62,0,0,0,2.33,1.91h0l.1,0,0,0,.7.34h0l.25.1c.24.1.5.18.75.26l.14,0c.3.08.61.15.92.21h0l.24,0a7.53,7.53,0,0,0,.83.1l.22,0c.35,0,.71,0,1.07,0h0l.23,0h0l.6,0c.23,0,.45,0,.68-.09l.44-.08.41-.07.25-.07h.08l.53-.14c.33-.09.66-.19,1-.31l.2-.07c.28-.1.56-.2.83-.32h0l.31-.13h0l.9-.41.19-.1.15-.07c.39-.2.79-.41,1.19-.64s1-.6,1.48-.93l.07,0,.18-.13c.47-.32.93-.65,1.39-1l.17-.14.09-.07q.7-.54,1.38-1.14l.07-.06.05,0c.43-.39.86-.79,1.28-1.2l.21-.2,1-1Z" style="fill: rgb(235, 235, 235); transform-origin: 136.305px 79.175px;" id="els4wuz9d4iv" class="animable"></path><polygon points="119.46 84.49 119.46 85.65 116.19 87.54 116.19 86.38 119.46 84.49" style="fill: rgb(255, 255, 255); transform-origin: 117.825px 86.015px;" id="ellnusd9r6e6q" class="animable"></polygon><polygon points="145.88 60.08 146.38 60.79 143.55 64.3 143.05 63.59 145.88 60.08" style="fill: rgb(255, 255, 255); transform-origin: 144.715px 62.19px;" id="el67h8d3ew9ni" class="animable"></polygon><path d="M132.19,56.07c10.39-6,18.84-1.19,18.87,10.76s-8.36,26.48-18.75,32.48-18.85,1.19-18.88-10.75S121.79,62.07,132.19,56.07ZM140.75,77c.11-.35,0-.62-.27-.61l-7.87.62-5.14-8.72c-.09-.15-.27-.17-.46-.06a.93.93,0,0,0-.22.19.9.9,0,0,0-.22.91l5.23,8.86a.28.28,0,0,0,.3.12l8-.63a.6.6,0,0,0,.2-.07,1.12,1.12,0,0,0,.46-.61M125.38,69.2l.87-1.08-1.64-2.31-.87,1.08,1.64,2.31m-.68,29.14,1.63-4.2-.88-.07-1.62,4.19.87.08m21.23-18.81.5-1.29L143.59,78l-.5,1.29,2.84.24M118.62,95.3l2.82-3.51-.5-.72-2.83,3.52.51.71m27.25-35.22-2.82,3.51.5.71,2.83-3.51-.51-.71m-25,17.3.5-1.29-2.84-.24-.5,1.29,2.84.24M139.8,57l-1.63,4.2.87.07,1.62-4.2L139.8,57m.09,32.53.86-1.08-1.64-2.31-.87,1.08,1.65,2.31M145,70.88,148.31,69V67.84L145,69.73v1.15m-28.85,15.5v1.16l3.27-1.89V84.49l-3.27,1.89m16.61,9.47V92.09l-1,.58v3.76l1-.58m-1.11-36.32v3.76l1-.58V59l-1,.58" style="fill: rgb(224, 224, 224); transform-origin: 132.245px 77.6901px;" id="elnxdbb6m3ej" class="animable"></path><polygon points="132.69 58.95 132.71 62.71 131.7 63.28 131.69 59.53 132.69 58.95" style="fill: rgb(255, 255, 255); transform-origin: 132.2px 61.115px;" id="elzc0ynlhdcwm" class="animable"></polygon><polygon points="124.61 65.81 126.25 68.12 125.38 69.19 123.74 66.89 124.61 65.81" style="fill: rgb(255, 255, 255); transform-origin: 124.995px 67.5px;" id="eld6pe3lrdcbh" class="animable"></polygon><polygon points="118.56 75.85 121.4 76.09 120.9 77.38 118.06 77.14 118.56 75.85" style="fill: rgb(255, 255, 255); transform-origin: 119.73px 76.615px;" id="ellhrd9xp5mzr" class="animable"></polygon><polygon points="120.94 91.08 121.44 91.79 118.62 95.3 118.11 94.59 120.94 91.08" style="fill: rgb(255, 255, 255); transform-origin: 119.775px 93.19px;" id="elt16rl8eo63i" class="animable"></polygon><polygon points="125.45 94.07 126.33 94.14 124.7 98.34 123.83 98.26 125.45 94.07" style="fill: rgb(255, 255, 255); transform-origin: 125.08px 96.205px;" id="el8loz678z18e" class="animable"></polygon><polygon points="132.79 92.09 132.8 95.85 131.8 96.43 131.79 92.67 132.79 92.09" style="fill: rgb(255, 255, 255); transform-origin: 132.295px 94.26px;" id="elly35zbaa1u" class="animable"></polygon><polygon points="139.11 86.18 140.75 88.49 139.89 89.57 138.24 87.26 139.11 86.18" style="fill: rgb(255, 255, 255); transform-origin: 139.495px 87.875px;" id="elnrzc7vwezsl" class="animable"></polygon><polygon points="143.59 78 146.43 78.24 145.93 79.53 143.09 79.29 143.59 78" style="fill: rgb(255, 255, 255); transform-origin: 144.76px 78.765px;" id="elh7la4wa1hld" class="animable"></polygon><polygon points="148.3 67.84 148.31 69 145.04 70.88 145.03 69.73 148.3 67.84" style="fill: rgb(255, 255, 255); transform-origin: 146.67px 69.36px;" id="elr37m3ycnd7p" class="animable"></polygon><polygon points="139.8 57.04 140.66 57.11 139.04 61.31 138.17 61.23 139.8 57.04" style="fill: rgb(255, 255, 255); transform-origin: 139.415px 59.175px;" id="elwzl7e8etlo9" class="animable"></polygon><path d="M132.24,77.11a.41.41,0,0,1,.2-.06l.17,0,7.87-.62c.26,0,.38.26.27.61a1.12,1.12,0,0,1-.46.61.6.6,0,0,1-.2.07l-8,.63h0c-.25,0-.37-.25-.27-.61A1.17,1.17,0,0,1,132.24,77.11Z" style="fill: rgb(255, 255, 255); transform-origin: 136.288px 77.39px;" id="el8i6nkr69ogr" class="animable"></path><path d="M127,68.25c.19-.11.37-.09.46.06L132.61,77l-.17,0a.41.41,0,0,0-.2.06,1.17,1.17,0,0,0-.46.61c-.1.36,0,.63.27.61h0a.28.28,0,0,1-.3-.12l-5.23-8.86a.9.9,0,0,1,.22-.91A.93.93,0,0,1,127,68.25Z" style="fill: rgb(245, 245, 245); transform-origin: 129.544px 73.2339px;" id="elr2kiknwrfo" class="animable"></path><path d="M119.36,103.27l-.3-.22-.32-.28-.28-.26-.3-.3-.27-.29-.28-.33c-.08-.11-.17-.2-.25-.31l-.25-.36-.24-.34c-.08-.12-.16-.26-.23-.39l-.22-.35-.21-.42L116,99c-.06-.15-.12-.3-.19-.45s-.12-.27-.17-.4-.12-.32-.17-.48l-.15-.42-.15-.51c0-.15-.09-.29-.13-.44l-.12-.54c0-.15-.07-.3-.11-.46s-.06-.39-.1-.58,0-.31-.08-.46,0-.45-.08-.67,0-.28,0-.42,0-.51-.05-.77l0-.37c0-.39,0-.78,0-1.19,0-.58,0-1.17.06-1.76h0V89c.05-.66.11-1.33.19-2h0l0-.22c0-.36.1-.72.16-1.09h0c0-.18.07-.36.1-.55h0l.15-.8h0l0-.13a40.61,40.61,0,0,1,1.2-4.44h0A47.54,47.54,0,0,1,118.66,74l.06-.12h0c.52-1.06,1.07-2.1,1.66-3.11h0l.17-.29h0c.27-.45.54-.9.82-1.34.07-.11.14-.21.2-.32h0c.77-1.19,1.59-2.35,2.45-3.46l0,0h0c.85-1.09,1.73-2.13,2.66-3.12h0c.35-.38.71-.74,1.07-1.11h0L128,61q.71-.71,1.44-1.35h0l.05-.05q.76-.67,1.56-1.29h0l.28-.22h0c.5-.38,1-.75,1.5-1.09h0l.06,0c.32-.22.64-.43,1-.63l.84-.52c.44-.25.87-.47,1.29-.69h0l0,0a22,22,0,0,1,3.85-1.51h0l.35-.09.56-.14h0l.39-.07.51-.1h.05l.38,0,.67-.07h.26a11.69,11.69,0,0,1,1.45,0h.23c.31,0,.61.06.9.1h0a10.46,10.46,0,0,1,1.26.28h0l0,0,.08,0c.28.08.55.18.82.28h0l.12,0a10,10,0,0,1,1.09.54l0,0-5-2.9-.11-.06-.13-.07c-.24-.13-.49-.25-.75-.37l-.14-.06-.12,0c-.3-.12-.6-.23-.91-.32H142c-.33-.1-.67-.17-1-.24l-.12,0h-.16a9.24,9.24,0,0,0-.92-.11l-.14,0h-.06c-.38,0-.78,0-1.18,0h-.11l-.38,0-.28,0a8,8,0,0,0-.82.1h0l-.92.17-.29.07-.58.14-.05,0c-.37.1-.73.21-1.1.34l-.23.08-.89.34-.12.05-.23.1-1,.44-.37.18c-.43.22-.86.45-1.29.7s-1.07.65-1.6,1l-.27.18c-.51.35-1,.71-1.5,1.09l-.29.22c-.5.4-1,.8-1.48,1.23a.69.69,0,0,1-.13.11c-.47.42-.93.85-1.39,1.3a.86.86,0,0,1-.14.13l-.08.09c-.35.34-.7.7-1,1.06l0,.06c-.32.34-.64.7-1,1.06l-.09.1-.11.13c-.51.59-1,1.2-1.5,1.82a.21.21,0,0,1,0,.06s-.07.1-.11.14c-.38.51-.76,1-1.13,1.54l-.11.15a.35.35,0,0,0,0,.08c-.35.5-.7,1-1,1.53l-.1.15c0,.07-.09.15-.14.23-.27.42-.53.85-.79,1.29l-.12.2a.3.3,0,0,0,0,.08c-.29.5-.57,1-.85,1.51l-.06.12-.13.26c-.22.4-.42.81-.62,1.22l-.13.25a1.11,1.11,0,0,0-.07.16q-.37.78-.72,1.56l0,0a1.11,1.11,0,0,1-.07.16c-.2.48-.39,1-.58,1.43,0,.08-.07.16-.1.23a1.59,1.59,0,0,1-.07.2c-.21.56-.41,1.13-.6,1.69v0a.54.54,0,0,0,0,.1c-.2.59-.37,1.17-.54,1.76,0,.07,0,.14-.07.22l0,.12c-.18.68-.35,1.36-.5,2,0,.06,0,.12,0,.18s0,.18,0,.27c-.06.26-.11.53-.15.79s-.07.37-.1.56-.09.55-.13.82,0,.26,0,.38a.38.38,0,0,0,0,.1c-.08.59-.13,1.17-.18,1.75,0,.12,0,.25,0,.37,0,.59-.06,1.18,0,1.77,0,6.41,2.28,10.92,5.93,13l5,2.9-.31-.2-.32-.2C119.58,103.45,119.47,103.36,119.36,103.27Z" style="fill: rgb(235, 235, 235); transform-origin: 129.487px 77.06px;" id="el3coksems6ee" class="animable"></path><path d="M149.11,54.33a10,10,0,0,0-1.09-.54l-.14-.06c-.27-.1-.54-.2-.82-.28l-.15-.05a10.46,10.46,0,0,0-1.26-.28h0c-.29,0-.59-.08-.9-.1l-.23,0a11.69,11.69,0,0,0-1.45,0l-.26,0-.67.07-.43,0-.51.1-.41.07-.56.14-.36.09A22,22,0,0,0,136,55.05l0,0c-.42.22-.85.44-1.29.69l-.84.52c-.33.2-.65.41-1,.63l-.06,0c-.5.34-1,.71-1.5,1.09l-.28.22q-.79.62-1.56,1.29l-.05.05q-.74.65-1.44,1.35l-.18.16c-.36.37-.72.73-1.07,1.11h0c-.93,1-1.81,2-2.66,3.12l0,0c-.86,1.11-1.68,2.27-2.45,3.46l-.2.32c-.28.44-.55.89-.82,1.34l-.17.29c-.59,1-1.14,2-1.66,3.11l-.06.12a47.54,47.54,0,0,0-2.34,5.73h0a40.61,40.61,0,0,0-1.2,4.44l0,.13-.15.8c0,.19-.07.37-.1.55-.06.37-.11.73-.16,1.09l0,.22c-.08.67-.14,1.34-.19,2v.12c0,.59-.06,1.18-.06,1.76,0,.41,0,.8,0,1.19l0,.37c0,.26,0,.52.05.77s0,.28,0,.42,0,.45.08.67.06.3.08.46.07.39.1.58.07.31.11.46l.12.54c0,.15.09.29.13.44l.15.51.15.42c0,.16.11.32.17.48s.11.26.17.4.13.3.19.45l.2.38.21.42.22.35c.07.13.15.27.23.39l.24.34.25.36c.08.11.17.2.25.31l.28.33.27.29.3.3.28.26.32.28.3.22c.11.09.22.18.34.26l.32.2c3.72,2.36,9,2.14,14.79-1.22C146,96,155.12,80.3,155.08,67.4,155.07,61,152.79,56.44,149.11,54.33Zm-7.94,41.48L141,96c-.42.41-.85.81-1.28,1.2l-.05,0c-.47.42-1,.82-1.45,1.2l-.09.07c-.57.45-1.15.87-1.74,1.27l-.07,0c-.49.33-1,.64-1.48.93s-.8.44-1.19.64l-.15.07c-.36.18-.73.35-1.09.51l-.31.13a18.28,18.28,0,0,1-2,.7l-.53.14-.33.08-.41.07-.44.08c-.23,0-.45.07-.68.09l-.6,0-.23,0c-.37,0-.73,0-1.09,0l-.22,0a7.53,7.53,0,0,1-.83-.1l-.24,0a7.51,7.51,0,0,1-.94-.21l-.14,0a6.65,6.65,0,0,1-.75-.26l-.25-.1c-.26-.12-.51-.24-.76-.38l-.1,0h0a9.62,9.62,0,0,1-2.33-1.91c-2-2.28-3.21-5.74-3.22-10.19,0-12,8.37-26.49,18.76-32.49,3.95-2.29,7.63-3,10.66-2.35a9,9,0,0,1,3,1.22l.31.19.3.23.29.22.28.25.27.24.28.28.25.26c.09.1.17.21.25.31l.24.29.24.34.21.3c.08.12.15.25.22.37l.2.32.2.39c.06.12.12.23.17.35s.12.28.18.42.11.24.16.37.11.29.16.44l.14.39c.05.15.09.31.14.47s.08.27.11.41.08.33.12.5.07.28.09.42.07.37.1.55.05.27.07.42,0,.4.08.6,0,.27,0,.41,0,.43.05.65l0,.4c0,.36,0,.72,0,1.1,0,.54,0,1.08-.05,1.63l0,.34c0,.54-.09,1.07-.15,1.62,0,.14-.05.3-.07.45s-.07.53-.12.8,0,.31-.08.47-.09.49-.14.73l-.09.41c-.14.63-.29,1.26-.46,1.88l-.09.31c-.15.55-.32,1.09-.5,1.62a.5.5,0,0,1,0,.13c-.17.53-.36,1-.56,1.57l-.15.39c-.17.44-.35.88-.54,1.31l-.08.21c-.21.49-.44,1-.66,1.45-.07.12-.13.25-.19.37-.18.38-.37.76-.57,1.13l-.18.35-.78,1.4-.16.26c-.23.4-.48.8-.73,1.19-.07.12-.14.24-.22.35-.31.48-.62,1-.95,1.42l-.15.21c-.34.48-.69,1-1,1.42l-.15.19q-.67.85-1.38,1.68c-.06.08-.13.15-.19.22l-.87,1-.06.07Z" style="fill: rgb(255, 255, 255); transform-origin: 134.795px 79.0883px;" id="elzieib8n5ize" class="animable"></path></g><defs>     <filter id="active" height="200%">         <feMorphology in="SourceAlpha" result="DILATED" operator="dilate" radius="2"></feMorphology>                <feFlood flood-color="#32DFEC" flood-opacity="1" result="PINK"></feFlood>        <feComposite in="PINK" in2="DILATED" operator="in" result="OUTLINE"></feComposite>        <feMerge>            <feMergeNode in="OUTLINE"></feMergeNode>            <feMergeNode in="SourceGraphic"></feMergeNode>        </feMerge>    </filter>    <filter id="hover" height="200%">        <feMorphology in="SourceAlpha" result="DILATED" operator="dilate" radius="2"></feMorphology>                <feFlood flood-color="#ff0000" flood-opacity="0.5" result="PINK"></feFlood>        <feComposite in="PINK" in2="DILATED" operator="in" result="OUTLINE"></feComposite>        <feMerge>            <feMergeNode in="OUTLINE"></feMergeNode>            <feMergeNode in="SourceGraphic"></feMergeNode>        </feMerge>            <feColorMatrix type="matrix" values="0   0   0   0   0                0   1   0   0   0                0   0   0   0   0                0   0   0   1   0 "></feColorMatrix>    </filter></defs></svg>