<svg width="324" height="308" viewBox="0 0 324 308" fill="none" xmlns="http://www.w3.org/2000/svg">
<circle cx="135.907" cy="168.453" r="113.723" fill="white"/>
<path d="M43.426 31.1702C91.3664 -39.9282 172.795 27.6994 201.267 65.2622C303.402 2.76503 318.303 90.3338 283.949 118.743C249.595 147.152 326.251 165.114 321.969 220.562C315.731 301.321 181.705 302.553 147.353 258.043C129.774 235.266 90.7471 267.546 49.9165 230.981C11.8484 196.89 27.6376 181.736 43.426 151.434C59.2145 121.131 2.5637 91.7713 43.426 31.1702Z" fill="url(#paint0_linear_821_439)" fill-opacity="0.2"/>
<path d="M93.9736 289.792C150.342 341.895 201.033 265.358 215.43 226.405C314.242 259.463 313.678 192.964 283.54 167.936C225.118 119.419 279.985 112.556 283.54 62.7881C287.096 13.0205 206.285 16.5031 188.722 62.7906C179.734 86.4776 76.3035 72.6691 51.5202 113.372C28.4136 151.322 45.0025 161.244 65.2137 184.437C85.4248 207.631 45.9279 245.382 93.9736 289.792Z" fill="url(#paint1_linear_821_439)" fill-opacity="0.1"/>
<path d="M278.173 181.632C278.112 181.112 278.173 179.674 277.408 178.419C276.643 177.165 271.473 175.299 268.139 173.464C264.805 171.629 263.062 173.342 262.021 174.26C260.981 175.177 252.33 179.548 244.479 184.912C240.101 187.903 229.093 192.439 220.141 195.823V213.458C231.126 206.591 243.171 197.217 246.054 194.631C250.215 190.899 252.906 189.921 255.384 190.073C257.861 190.226 261.716 190.502 263.52 189.216C265.326 187.931 267.62 188.421 269.546 187.687C271.473 186.953 272.361 186.035 271.167 184.414C269.975 182.793 266.151 182.425 266.731 182.028C267.313 181.63 268.077 179.764 268.077 179.764C268.077 179.764 270.341 178.876 271.197 179.335C272.053 179.793 274.47 180.436 274.47 181.139C274.47 181.843 274.867 183.555 274.867 183.555C274.867 183.555 272.389 184.688 271.899 185.666C271.41 186.645 272.114 188.081 273.552 187.592C274.989 187.102 277.621 187.194 278.109 185.849C278.6 184.506 278.234 182.151 278.173 181.632Z" fill="#EFC88E"/>
<path d="M265.298 172.68C265.298 172.68 272.751 171.438 274.821 170.942C276.891 170.445 281.321 169.078 282.604 169.533C283.888 169.989 283.059 171.313 281.859 171.851C280.658 172.389 276.228 173.467 276.228 173.467L269.396 175.744C269.397 175.744 265.464 174.502 265.298 172.68Z" fill="#EFC88E"/>
<path d="M264.429 172.798C264.429 172.798 272.324 170.121 274.49 169.221C276.655 168.321 281.237 166.087 282.714 166.313C284.193 166.538 283.525 168.056 282.314 168.834C281.102 169.613 276.47 171.551 276.47 171.551L269.436 175.173C269.437 175.174 264.935 174.638 264.429 172.798Z" fill="#EFC88E"/>
<path d="M263.265 173.872C263.265 173.872 267.715 170.536 268.89 169.472C270.064 168.407 272.457 165.856 273.494 165.889C274.53 165.92 274.516 167.367 273.935 168.21C273.356 169.053 270.846 171.342 270.846 171.342L267.228 175.432C267.228 175.43 264.113 175.472 263.265 173.872Z" fill="#EFC88E"/>
<path d="M276.28 246.725L285.067 206.269L275.45 203.857L259.207 199.782L249.592 197.369L238.239 237.181L235.892 242.92L247.645 245.868L263.887 249.943L275.642 252.893L276.28 246.725Z" fill="#3FFF2E"/>
<path d="M235.891 242.909L247.644 245.857L263.887 249.932L275.641 252.882L276.28 246.714L276.344 246.419L238.323 236.881L238.239 237.17L235.891 242.909Z" fill="#51F229"/>
<path d="M275.45 203.857L259.207 199.782L249.592 197.369L248.678 200.572L284.359 209.525L285.066 206.269L275.45 203.857Z" fill="#23A147"/>
<path d="M276.897 206.064C277.062 205.405 276.667 204.74 276.013 204.575C275.36 204.412 274.697 204.812 274.533 205.469C274.367 206.128 274.763 206.794 275.415 206.958C276.068 207.123 276.731 206.723 276.897 206.064Z" fill="#BE1E2D"/>
<path d="M276.429 205.946C276.528 205.548 276.29 205.147 275.897 205.047C275.502 204.948 275.103 205.191 275.004 205.588C274.904 205.986 275.143 206.387 275.536 206.487C275.929 206.585 276.329 206.343 276.429 205.946Z" fill="#61030F"/>
<path d="M258.828 201.525C258.994 200.866 258.596 200.2 257.945 200.037C257.292 199.874 256.628 200.274 256.463 200.931C256.298 201.59 256.694 202.256 257.347 202.42C257.999 202.583 258.662 202.182 258.828 201.525Z" fill="#B4CE00"/>
<path d="M258.361 201.408C258.461 201.01 258.222 200.609 257.829 200.509C257.434 200.41 257.034 200.653 256.935 201.049C256.835 201.446 257.074 201.848 257.468 201.947C257.862 202.047 258.262 201.805 258.361 201.408Z" fill="#797C01"/>
<path d="M276.211 205.764C277.425 198.482 282.146 185.28 273.267 181.73C265.12 178.471 260.326 191.637 258.441 197.762C258.146 198.726 257.991 199.758 257.398 200.587C256.905 201.274 257.971 201.91 258.457 201.231C259.512 199.758 259.811 197.43 260.413 195.693C261.089 193.745 261.875 191.84 262.802 190.005C264.538 186.569 267.334 182.339 271.421 182.63C276.179 182.97 277.392 188.18 277.225 192.398C277.049 196.821 275.744 201.097 275.02 205.446C274.881 206.28 276.071 206.605 276.211 205.764Z" fill="#726658"/>
<path d="M319.447 227.462L296.638 190.861L287.703 196.041L272.61 204.79L263.674 209.97L284.101 247.951L286.513 253.943L297.434 247.612L312.526 238.863L323.447 232.532L319.447 227.462Z" fill="#F7941E"/>
<path d="M286.526 253.943L297.447 247.612L312.538 238.863L323.46 232.532L319.46 227.462L319.292 227.195L283.965 247.675L284.114 247.951L286.526 253.943Z" fill="#E8861A"/>
<path d="M287.703 196.042L272.61 204.791L263.675 209.971L265.32 213.028L298.474 193.809L296.638 190.862L287.703 196.042Z" fill="#E8861A"/>
<path d="M290.395 196.648C290.041 196.036 289.261 195.826 288.655 196.178C288.049 196.53 287.843 197.311 288.198 197.922C288.553 198.534 289.332 198.746 289.938 198.394C290.546 198.04 290.749 197.26 290.395 196.648Z" fill="#BE1E2D"/>
<path d="M289.95 196.889C289.736 196.52 289.266 196.393 288.9 196.605C288.534 196.818 288.41 197.288 288.625 197.657C288.839 198.026 289.309 198.153 289.675 197.941C290.041 197.729 290.165 197.258 289.95 196.889Z" fill="#61030F"/>
<path d="M273.598 206.373C273.243 205.761 272.464 205.551 271.858 205.903C271.25 206.255 271.046 207.036 271.401 207.648C271.756 208.26 272.535 208.47 273.141 208.118C273.748 207.767 273.953 206.985 273.598 206.373Z" fill="#BE1E2D"/>
<path d="M273.153 206.615C272.938 206.246 272.468 206.118 272.102 206.331C271.736 206.544 271.612 207.015 271.827 207.383C272.041 207.752 272.511 207.878 272.877 207.667C273.243 207.455 273.367 206.984 273.153 206.615Z" fill="#61030F"/>
<path d="M289.668 196.921C285.288 190.601 279.229 177.312 270.019 181.106C261.566 184.588 267.545 197.902 270.584 203.847C271.062 204.782 271.696 205.664 271.855 206.716C271.986 207.586 273.244 207.288 273.114 206.429C272.832 204.564 271.366 202.606 270.554 200.872C269.645 198.926 268.849 196.931 268.209 194.887C267.009 191.061 266.027 185.87 269.293 183.12C273.095 179.921 277.784 182.93 280.721 186.203C283.801 189.636 285.931 193.775 288.548 197.55C289.049 198.273 290.173 197.651 289.668 196.921Z" fill="#726658"/>
<g opacity="0.2">
<path d="M252.741 208.073L249.999 246.492L254.092 247.738L299.111 246.315L303.737 244.001L296.797 202.897L252.741 208.073Z" fill="#BE1E2D"/>
</g>
<path d="M300.031 253.387L295.348 205.301L283.802 206.055L264.301 207.327L252.756 208.079L254.359 256.365L253.798 263.579L267.91 262.659L287.411 261.387L301.523 260.468L300.031 253.387Z" fill="#F10077"/>
<path d="M253.797 263.576L267.909 262.657L287.409 261.385L301.521 260.465L300.029 253.385L299.994 253.034L254.346 256.011L254.357 256.363L253.797 263.576Z" fill="#C2004C"/>
<path d="M283.805 206.056L264.303 207.328L252.759 208.081L252.887 211.967L295.727 209.174L295.35 205.303L283.805 206.056Z" fill="#C2004C"/>
<path d="M286.193 207.995C286.142 207.205 285.465 206.606 284.68 206.657C283.896 206.708 283.301 207.389 283.354 208.18C283.405 208.971 284.082 209.57 284.867 209.518C285.65 209.467 286.245 208.785 286.193 207.995Z" fill="#F10077"/>
<path d="M285.63 208.028C285.599 207.551 285.19 207.19 284.718 207.22C284.245 207.251 283.887 207.663 283.917 208.14C283.948 208.617 284.357 208.979 284.83 208.948C285.304 208.918 285.662 208.505 285.63 208.028Z" fill="#7C0335"/>
<path d="M264.514 209.404C264.463 208.613 263.785 208.014 263.001 208.065C262.216 208.116 261.623 208.798 261.674 209.588C261.725 210.379 262.404 210.978 263.187 210.927C263.971 210.877 264.565 210.194 264.514 209.404Z" fill="#F10077"/>
<path d="M263.951 209.436C263.92 208.96 263.511 208.598 263.038 208.629C262.565 208.66 262.206 209.072 262.238 209.549C262.269 210.026 262.678 210.386 263.15 210.356C263.623 210.325 263.982 209.913 263.951 209.436Z" fill="#7C0335"/>
<path d="M285.331 207.911C284.081 199.387 284.61 183.035 273.479 182.259C263.263 181.547 262.639 197.887 262.731 205.364C262.746 206.541 262.944 207.742 262.58 208.876C262.278 209.816 263.689 210.141 263.987 209.214C264.632 207.201 264.135 204.507 264.183 202.362C264.238 199.958 264.431 197.56 264.806 195.19C265.507 190.751 267.104 185.053 271.75 183.919C277.158 182.599 280.367 187.953 281.686 192.7C283.07 197.677 283.147 202.892 283.896 207.983C284.038 208.96 285.476 208.896 285.331 207.911Z" fill="#726658"/>
<path d="M262.968 223.867C263.911 223.631 265.133 223.417 266.463 223.337C267.853 223.253 268.896 223.37 269.821 223.852C270.743 224.256 271.449 225.069 271.518 226.202C271.62 227.889 270.433 229.038 269.009 229.542L269.012 229.601C270.327 229.921 271.204 230.924 271.293 232.393C271.38 233.823 270.669 234.923 269.658 235.681C268.572 236.504 266.903 236.923 264.679 237.057C263.17 237.148 261.952 237.123 261.289 237.023L262.968 223.867ZM264.344 234.784C264.684 234.803 265.022 234.802 265.44 234.778C266.988 234.684 268.361 233.984 268.271 232.495C268.19 231.165 267.055 230.835 265.725 230.916L264.831 230.97L264.344 234.784ZM265.143 228.857L266.095 228.799C267.664 228.704 268.696 227.965 268.628 226.833C268.569 225.861 267.749 225.492 266.657 225.557C266.161 225.587 265.766 225.651 265.552 225.723L265.143 228.857Z" fill="white"/>
<path d="M277.368 222.773L275.634 236.309L272.774 236.482L274.508 222.947L277.368 222.773Z" fill="white"/>
<path d="M289.3 234.871C288.288 235.272 286.705 235.785 285.018 235.886C283.171 235.998 281.634 235.612 280.461 234.687C279.331 233.798 278.627 232.366 278.524 230.658C278.373 228.157 279.274 225.93 280.895 224.377C282.329 223.035 284.352 222.216 286.675 222.077C288.423 221.971 289.734 222.231 290.265 222.458L289.557 224.932C288.925 224.691 287.875 224.475 286.684 224.548C285.354 224.627 284.184 225.077 283.333 225.825C282.237 226.809 281.558 228.444 281.668 230.27C281.802 232.514 283.202 233.564 285.306 233.438C285.961 233.398 286.431 233.27 286.741 233.113L287.107 230.261L285.042 230.386L285.341 228.077L290.206 227.783L289.3 234.871Z" fill="white"/>
<path d="M262.509 246.346C263.081 246.644 263.883 246.858 264.74 246.807C265.514 246.76 266.195 246.36 266.151 245.627C266.12 245.102 265.698 244.781 264.816 244.391C263.789 243.913 262.807 243.251 262.735 242.036C262.621 240.16 264.195 238.913 266.224 238.791C267.356 238.723 268.033 238.932 268.446 239.128L267.926 240.822C267.612 240.675 266.933 240.453 266.161 240.513C265.236 240.568 264.781 241.068 264.813 241.578C264.845 242.116 265.432 242.414 266.245 242.807C267.413 243.332 268.177 244.049 268.243 245.153C268.368 247.224 266.72 248.391 264.649 248.516C263.352 248.594 262.407 248.319 261.945 248.013L262.509 246.346Z" fill="white"/>
<path d="M271.62 245.526L270.66 248.008L268.548 248.136L272.515 238.559L275.069 238.405L276.721 247.644L274.636 247.77L274.297 245.365L271.62 245.526ZM274.123 243.851L273.824 241.859C273.752 241.351 273.652 240.609 273.576 240.045L273.547 240.047C273.347 240.627 273.127 241.36 272.911 241.913L272.106 243.972L274.123 243.851Z" fill="white"/>
<path d="M278.935 238.169L280.924 238.048L279.945 245.701L283.52 245.485L283.295 247.245L277.73 247.58L278.935 238.169Z" fill="white"/>
<path d="M290.264 242.871L286.951 243.071L286.659 245.346L290.372 245.122L290.156 246.84L284.454 247.183L285.661 237.772L291.17 237.44L290.941 239.158L287.435 239.369L287.168 241.381L290.481 241.18L290.264 242.871Z" fill="white"/>
<path d="M266.51 182.239C266.753 182.187 268.786 182.997 269.82 183.135C270.855 183.273 272.233 182.722 273.199 183.893C274.164 185.065 273.27 186.869 267.82 188.374C262.114 189.95 261.095 190.063 261.095 190.063C261.095 190.063 256.72 184.377 266.51 182.239Z" fill="#EFC88E"/>
<path d="M303.578 213.732C303.803 214.339 303.49 215.013 302.882 215.238L295.161 218.074C294.552 218.297 293.878 217.984 293.655 217.377L288.447 203.204C288.224 202.596 288.535 201.922 289.144 201.698L296.864 198.86C297.473 198.637 298.148 198.948 298.371 199.557L303.578 213.732Z" fill="#EF4136"/>
<path d="M294.957 201.568C294.45 200.913 293.529 200.776 292.899 201.263C292.269 201.75 292.168 202.677 292.673 203.333C293.18 203.989 294.101 204.125 294.733 203.638C295.362 203.151 295.463 202.224 294.957 201.568Z" fill="#A31627"/>
<path d="M294.506 201.923C294.201 201.527 293.645 201.444 293.264 201.738C292.884 202.032 292.823 202.591 293.128 202.986C293.434 203.382 293.989 203.464 294.37 203.171C294.75 202.877 294.811 202.319 294.506 201.923Z" fill="#61030F"/>
<path d="M293.392 213.845C293.531 213.864 293.798 213.877 294.087 213.771C294.444 213.64 294.59 213.379 294.505 213.148C294.41 212.889 294.148 212.838 293.771 212.982L293.66 213.023L293.574 212.499L293.676 212.461C293.974 212.351 294.273 212.104 294.178 211.846C294.124 211.698 293.978 211.632 293.728 211.723C293.483 211.812 293.29 211.96 293.185 212.084L292.919 211.636C293.091 211.441 293.368 211.248 293.662 211.141C294.147 210.962 294.652 211.03 294.821 211.488C294.952 211.845 294.763 212.212 294.437 212.438L294.435 212.449C294.762 212.4 295.05 212.567 295.17 212.896C295.395 213.507 294.904 214.082 294.27 214.314C293.9 214.451 293.547 214.479 293.379 214.419L293.392 213.845Z" fill="white"/>
<path d="M297.465 210.874C297.797 211.778 297.763 213.034 296.85 213.369C296.249 213.591 295.843 213.213 295.63 212.634C295.293 211.721 295.376 210.513 296.267 210.185C296.892 209.957 297.276 210.357 297.465 210.874ZM296.267 212.427C296.345 212.641 296.491 212.926 296.745 212.833C297.187 212.671 296.977 211.494 296.836 211.111C296.765 210.919 296.629 210.631 296.385 210.721C295.951 210.88 296.111 212.004 296.267 212.427Z" fill="white"/>
<path d="M299.239 209.841C299.473 210.479 299.245 211.109 298.72 211.302C298.336 211.443 297.967 211.291 297.808 210.859C297.595 210.28 297.784 209.624 298.355 209.414C298.759 209.265 299.099 209.458 299.239 209.841ZM298.951 212.592L300.003 208.808L300.382 208.669L299.334 212.45L298.951 212.592ZM298.302 210.692C298.365 210.861 298.481 210.97 298.632 210.914C298.894 210.818 298.84 210.271 298.747 210.017C298.691 209.866 298.583 209.749 298.426 209.806C298.169 209.901 298.203 210.419 298.302 210.692ZM301.527 210.361C301.761 210.998 301.534 211.633 301.005 211.827C300.626 211.966 300.257 211.814 300.098 211.381C299.886 210.807 300.072 210.142 300.643 209.932C301.047 209.785 301.387 209.978 301.527 210.361ZM300.593 211.215C300.657 211.39 300.771 211.494 300.923 211.438C301.185 211.342 301.13 210.791 301.036 210.537C300.981 210.385 300.873 210.269 300.717 210.325C300.457 210.421 300.492 210.943 300.593 211.215Z" fill="white"/>
<path d="M292.291 210.363C292.476 210.398 292.719 210.391 292.953 210.304C293.164 210.226 293.322 210.057 293.248 209.857C293.196 209.714 293.051 209.659 292.773 209.624C292.446 209.578 292.117 209.475 291.993 209.142C291.804 208.628 292.139 208.148 292.694 207.944C293.005 207.83 293.211 207.832 293.343 207.852L293.339 208.368C293.24 208.354 293.031 208.348 292.821 208.429C292.567 208.523 292.483 208.699 292.534 208.84C292.588 208.987 292.777 209.021 293.037 209.062C293.407 209.111 293.68 209.247 293.79 209.549C293.999 210.117 293.637 210.58 293.069 210.788C292.714 210.919 292.426 210.922 292.271 210.875L292.291 210.363Z" fill="white"/>
<path d="M294.76 209.378L294.7 210.152L294.121 210.365L294.425 207.36L295.124 207.103L296.361 209.543L295.789 209.753L295.492 209.11L294.76 209.378ZM295.317 208.701L295.066 208.17C295.004 208.034 294.913 207.835 294.845 207.685L294.838 207.688C294.831 207.866 294.831 208.089 294.816 208.262L294.764 208.904L295.317 208.701Z" fill="white"/>
<path d="M296.18 206.712L296.725 206.512L297.094 208.729L298.073 208.369L298.157 208.878L296.632 209.439L296.18 206.712Z" fill="white"/>
<path d="M299.742 207.069L298.834 207.403L298.943 208.063L299.961 207.69L300.044 208.187L298.483 208.76L298.03 206.033L299.539 205.478L299.62 205.976L298.659 206.33L298.753 206.913L299.661 206.58L299.742 207.069Z" fill="white"/>
<path d="M298.883 204.095L290.991 206.995L291.16 207.455L299.052 204.555L298.883 204.095Z" fill="white"/>
<path d="M301.87 212.253L293.979 215.152L294.148 215.612L302.039 212.712L301.87 212.253Z" fill="white"/>
<path d="M294.506 201.9C294.506 201.9 293.869 202.296 292.591 200.031C291.314 197.765 289.458 193.017 287.746 193.91L288.157 194.584C288.157 194.584 288.807 194.415 289.724 195.5C290.639 196.584 292.736 202.777 294.688 202.632C294.688 202.632 294.854 202.276 294.506 201.9Z" fill="#3C2415"/>
<path d="M286.8 194.925C286.8 194.925 286.468 195.382 287.041 196.371C288.174 198.323 291.789 200.059 292.97 202.709C292.97 202.709 293.115 203.24 293.477 203.24C293.839 203.24 292.994 201.384 292.151 200.54C291.308 199.697 287.306 196.419 287.331 195.695C287.329 195.697 286.944 194.852 286.8 194.925Z" fill="#3C2415"/>
<path d="M291.194 200.974L291.46 200.853C291.46 200.853 291.46 200.322 292.061 200.034C292.665 199.744 292.905 200.323 292.905 200.323L293.46 200.13C293.46 200.13 292.713 199.07 291.773 199.696C290.832 200.322 291.194 200.974 291.194 200.974Z" fill="#3C2415"/>
<g filter="url(#filter0_d_821_439)">
<path d="M239.556 223.979H159.036C153.753 223.979 149.47 219.696 149.47 214.414V44.4219C149.47 39.1394 153.753 34.8562 159.036 34.8562H239.561C244.844 34.8562 249.127 39.1394 249.127 44.4219V214.413C249.122 219.696 244.843 223.979 239.556 223.979Z" fill="#2B2727" fill-opacity="0.6" stroke="black"/>
<path d="M245.158 55.2319H153.453V203.601H245.158V55.2319Z" fill="white" stroke="#8C6464" stroke-width="1.3374" stroke-miterlimit="10"/>
<path d="M213.345 115.341C221.107 107.579 221.107 94.9931 213.345 87.2305C205.582 79.468 192.997 79.468 185.234 87.2305C177.472 94.9931 177.472 107.579 185.234 115.341C192.997 123.104 205.582 123.104 213.345 115.341Z" fill="#F8FC3B"/>
<path d="M225.387 194.302H173.199C172.707 194.302 172.308 193.903 172.308 193.411C172.308 192.919 172.707 192.52 173.199 192.52H225.387C225.879 192.52 226.278 192.919 226.278 193.411C226.278 193.898 225.879 194.302 225.387 194.302Z" fill="#3C9BB0"/>
<path d="M227.098 143.048H171.501C170.356 143.048 169.424 142.12 169.424 140.97V134.412C169.424 133.267 170.351 132.334 171.501 132.334H227.098C228.243 132.334 229.175 133.262 229.175 134.412V140.97C229.17 142.12 228.243 143.048 227.098 143.048Z" fill="#B6BFC1"/>
<path d="M227.098 163.072H171.501C170.356 163.072 169.424 162.145 169.424 160.994V154.436C169.424 153.291 170.351 152.359 171.501 152.359H227.098C228.243 152.359 229.175 153.286 229.175 154.436V160.994C229.17 162.139 228.243 163.072 227.098 163.072Z" fill="#B6BFC1"/>
<path d="M182.478 159.747C182.376 159.747 182.286 159.708 182.204 159.633C182.125 159.555 182.082 159.465 182.082 159.359C182.082 159.289 182.102 159.222 182.141 159.16L182.845 158.029L181.476 158.076C181.354 158.076 181.26 158.04 181.19 157.966C181.123 157.896 181.088 157.806 181.088 157.704C181.088 157.606 181.123 157.52 181.19 157.445C181.257 157.371 181.354 157.336 181.476 157.336L182.83 157.387L182.133 156.264C182.094 156.197 182.074 156.131 182.074 156.06C182.074 155.954 182.114 155.864 182.196 155.786C182.274 155.712 182.368 155.673 182.47 155.673C182.603 155.673 182.708 155.739 182.787 155.876L183.456 157.082L184.117 155.88C184.207 155.735 184.321 155.665 184.458 155.665C184.56 155.665 184.646 155.704 184.72 155.782C184.794 155.86 184.83 155.95 184.83 156.056C184.83 156.119 184.814 156.181 184.779 156.248L184.07 157.383L185.448 157.332C185.569 157.332 185.663 157.367 185.73 157.442C185.796 157.512 185.828 157.602 185.828 157.704C185.828 157.806 185.796 157.892 185.73 157.966C185.663 158.036 185.569 158.076 185.448 158.076L184.067 158.029L184.751 159.148C184.791 159.214 184.81 159.281 184.81 159.351C184.81 159.457 184.771 159.547 184.689 159.625C184.61 159.704 184.52 159.743 184.423 159.743C184.29 159.743 184.188 159.672 184.113 159.531L183.456 158.353L182.806 159.531C182.72 159.676 182.611 159.747 182.478 159.747Z" fill="#170404"/>
<path d="M188.828 159.747C188.726 159.747 188.636 159.708 188.554 159.633C188.476 159.555 188.433 159.465 188.433 159.359C188.433 159.289 188.452 159.222 188.491 159.16L189.196 158.029L187.826 158.076C187.705 158.076 187.611 158.04 187.54 157.966C187.474 157.896 187.439 157.806 187.439 157.704C187.439 157.606 187.474 157.52 187.54 157.445C187.607 157.371 187.705 157.336 187.826 157.336L189.18 157.387L188.484 156.264C188.445 156.197 188.425 156.131 188.425 156.06C188.425 155.954 188.464 155.864 188.546 155.786C188.625 155.712 188.718 155.673 188.82 155.673C188.953 155.673 189.059 155.739 189.137 155.876L189.806 157.082L190.468 155.88C190.558 155.735 190.671 155.665 190.808 155.665C190.91 155.665 190.996 155.704 191.071 155.782C191.145 155.86 191.184 155.95 191.184 156.056C191.184 156.119 191.168 156.181 191.133 156.248L190.425 157.383L191.802 157.332C191.924 157.332 192.018 157.367 192.084 157.442C192.151 157.512 192.182 157.602 192.182 157.704C192.182 157.806 192.151 157.892 192.084 157.966C192.018 158.036 191.924 158.076 191.802 158.076L190.421 158.029L191.106 159.148C191.145 159.214 191.164 159.281 191.164 159.351C191.164 159.457 191.125 159.547 191.043 159.625C190.965 159.704 190.875 159.743 190.777 159.743C190.644 159.743 190.542 159.672 190.468 159.531L189.81 158.353L189.161 159.531C189.067 159.676 188.957 159.747 188.828 159.747Z" fill="#170404"/>
<path d="M195.17 159.747C195.068 159.747 194.978 159.708 194.896 159.633C194.814 159.555 194.774 159.465 194.774 159.359C194.774 159.289 194.794 159.222 194.833 159.16L195.538 158.029L194.168 158.076C194.047 158.076 193.953 158.04 193.882 157.966C193.816 157.896 193.78 157.806 193.78 157.704C193.78 157.606 193.816 157.52 193.882 157.445C193.949 157.371 194.047 157.336 194.168 157.336L195.522 157.387L194.825 156.264C194.786 156.197 194.767 156.131 194.767 156.06C194.767 155.954 194.806 155.864 194.888 155.786C194.966 155.712 195.06 155.673 195.162 155.673C195.295 155.673 195.401 155.739 195.479 155.876L196.148 157.082L196.81 155.88C196.9 155.735 197.013 155.665 197.15 155.665C197.252 155.665 197.338 155.704 197.412 155.782C197.487 155.86 197.522 155.95 197.522 156.056C197.522 156.119 197.506 156.181 197.471 156.248L196.763 157.383L198.14 157.332C198.261 157.332 198.355 157.367 198.422 157.442C198.488 157.512 198.52 157.602 198.52 157.704C198.52 157.806 198.488 157.892 198.422 157.966C198.355 158.036 198.261 158.076 198.14 158.076L196.759 158.029L197.444 159.148C197.483 159.214 197.502 159.281 197.502 159.351C197.502 159.457 197.463 159.547 197.381 159.625C197.299 159.704 197.213 159.743 197.115 159.743C196.982 159.743 196.88 159.672 196.806 159.531L196.148 158.353L195.498 159.531C195.408 159.676 195.303 159.747 195.17 159.747Z" fill="#170404"/>
<path d="M201.529 159.747C201.427 159.747 201.337 159.708 201.255 159.633C201.173 159.555 201.134 159.465 201.134 159.359C201.134 159.289 201.153 159.222 201.192 159.16L201.897 158.029L200.527 158.076C200.406 158.076 200.312 158.04 200.241 157.966C200.175 157.896 200.14 157.806 200.14 157.704C200.14 157.606 200.175 157.52 200.241 157.445C200.308 157.371 200.406 157.336 200.527 157.336L201.881 157.387L201.184 156.264C201.145 156.197 201.126 156.131 201.126 156.06C201.126 155.954 201.165 155.864 201.247 155.786C201.325 155.712 201.419 155.673 201.521 155.673C201.654 155.673 201.76 155.739 201.838 155.876L202.507 157.082L203.169 155.88C203.259 155.735 203.372 155.665 203.509 155.665C203.611 155.665 203.697 155.704 203.771 155.782C203.846 155.86 203.881 155.95 203.881 156.056C203.881 156.119 203.865 156.181 203.83 156.248L203.122 157.383L204.499 157.332C204.621 157.332 204.715 157.367 204.781 157.442C204.848 157.512 204.879 157.602 204.879 157.704C204.879 157.806 204.848 157.892 204.781 157.966C204.715 158.036 204.621 158.076 204.499 158.076L203.118 158.029L203.803 159.148C203.842 159.214 203.861 159.281 203.861 159.351C203.861 159.457 203.822 159.547 203.74 159.625C203.658 159.704 203.572 159.743 203.474 159.743C203.341 159.743 203.239 159.672 203.165 159.531L202.507 158.353L201.858 159.531C201.768 159.676 201.662 159.747 201.529 159.747Z" fill="#170404"/>
<path d="M207.871 159.747C207.769 159.747 207.679 159.708 207.597 159.633C207.515 159.555 207.475 159.465 207.475 159.359C207.475 159.289 207.495 159.222 207.534 159.16L208.239 158.029L206.869 158.076C206.747 158.076 206.654 158.04 206.583 157.966C206.517 157.896 206.481 157.806 206.481 157.704C206.481 157.606 206.517 157.52 206.583 157.445C206.65 157.371 206.747 157.336 206.869 157.336L208.223 157.387L207.526 156.264C207.487 156.197 207.468 156.131 207.468 156.06C207.468 155.954 207.507 155.864 207.589 155.786C207.667 155.712 207.761 155.673 207.863 155.673C207.996 155.673 208.102 155.739 208.18 155.876L208.849 157.082L209.51 155.88C209.6 155.735 209.714 155.665 209.851 155.665C209.953 155.665 210.039 155.704 210.113 155.782C210.187 155.86 210.223 155.95 210.223 156.056C210.223 156.119 210.207 156.181 210.172 156.248L209.463 157.383L210.841 157.332C210.962 157.332 211.056 157.367 211.123 157.442C211.189 157.512 211.221 157.602 211.221 157.704C211.221 157.806 211.189 157.892 211.123 157.966C211.056 158.036 210.962 158.076 210.841 158.076L209.46 158.029L210.144 159.148C210.184 159.214 210.203 159.281 210.203 159.351C210.203 159.457 210.164 159.547 210.082 159.625C210 159.704 209.914 159.743 209.816 159.743C209.683 159.743 209.581 159.672 209.507 159.531L208.849 158.353L208.199 159.531C208.109 159.676 208.004 159.747 207.871 159.747Z" fill="#170404"/>
<path d="M214.221 159.747C214.119 159.747 214.029 159.708 213.947 159.633C213.865 159.555 213.826 159.465 213.826 159.359C213.826 159.289 213.845 159.222 213.884 159.16L214.589 158.029L213.219 158.076C213.098 158.076 213.004 158.04 212.933 157.966C212.867 157.896 212.832 157.806 212.832 157.704C212.832 157.606 212.867 157.52 212.933 157.445C213 157.371 213.098 157.336 213.219 157.336L214.573 157.387L213.877 156.264C213.837 156.197 213.818 156.131 213.818 156.06C213.818 155.954 213.857 155.864 213.939 155.786C214.017 155.712 214.111 155.673 214.213 155.673C214.346 155.673 214.452 155.739 214.53 155.876L215.199 157.082L215.861 155.88C215.951 155.735 216.064 155.665 216.201 155.665C216.303 155.665 216.389 155.704 216.463 155.782C216.538 155.86 216.573 155.95 216.573 156.056C216.573 156.119 216.557 156.181 216.522 156.248L215.814 157.383L217.191 157.332C217.313 157.332 217.407 157.367 217.473 157.442C217.54 157.512 217.571 157.602 217.571 157.704C217.571 157.806 217.54 157.892 217.473 157.966C217.407 158.036 217.313 158.076 217.191 158.076L215.81 158.029L216.495 159.148C216.534 159.214 216.553 159.281 216.553 159.351C216.553 159.457 216.514 159.547 216.432 159.625C216.35 159.704 216.264 159.743 216.166 159.743C216.033 159.743 215.931 159.672 215.857 159.531L215.199 158.353L214.55 159.531C214.464 159.676 214.354 159.747 214.221 159.747Z" fill="#170404"/>
<path d="M245.158 55.4229H153.453V61.168H245.158V55.4229Z" fill="#3E4132"/>
<path d="M209.273 44.8459H189.334C188.583 44.8459 187.976 44.2398 187.976 43.4886C187.976 42.7375 188.588 42.1313 189.334 42.1313H209.273C210.025 42.1313 210.631 42.7375 210.631 43.4886C210.631 44.2398 210.025 44.8459 209.273 44.8459Z" fill="#3E4132" stroke="#B5B5B5" stroke-width="1.3374" stroke-miterlimit="10" stroke-linecap="round" stroke-linejoin="round"/>
<path d="M204.737 211.978C204.737 208.974 202.302 206.539 199.297 206.539C196.292 206.539 193.858 208.974 193.858 211.978C193.858 214.983 196.292 217.418 199.297 217.418C202.302 217.418 204.737 214.983 204.737 211.978Z" fill="#3E4132"/>
<path d="M202.054 209.223H196.542V214.735H202.054V209.223Z" fill="#3E4132" stroke="#B5B5B5" stroke-width="1.3374" stroke-miterlimit="10" stroke-linecap="round" stroke-linejoin="round"/>
<path d="M192.561 114.474C192.065 114.314 191.548 114.2 191.077 113.985C189.642 113.328 188.823 112.175 188.7 110.618C188.536 108.516 188.749 106.44 189.526 104.459C190.228 102.669 191.385 101.354 193.359 100.937C194.064 100.788 194.715 100.803 195.379 101.198C196.278 101.731 197.209 102.248 198.189 102.599C199.829 103.187 201.379 102.725 202.837 101.893C203.227 101.671 203.617 101.441 203.978 101.177C204.576 100.741 205.226 100.794 205.885 100.927C207.832 101.32 209.014 102.597 209.725 104.359C210.513 106.312 210.753 108.365 210.605 110.451C210.453 112.578 209.095 114.003 206.986 114.373C206.873 114.392 206.765 114.439 206.656 114.474C201.958 114.474 197.26 114.474 192.561 114.474Z" fill="white"/>
<path d="M200.314 88.0439C201.272 88.4468 202.324 88.7087 203.17 89.2783C205.369 90.7592 206.266 93.3523 205.643 95.9243C205.04 98.4188 202.989 100.301 200.435 100.705C197.027 101.243 193.744 98.8392 193.185 95.3935C192.633 91.9876 194.995 88.7134 198.407 88.1496C198.498 88.1344 198.582 88.0804 198.67 88.0439C199.218 88.0439 199.767 88.0439 200.314 88.0439Z" fill="white"/>
</g>
<mask id="mask0_821_439" style="mask-type:alpha" maskUnits="userSpaceOnUse" x="0" y="10" width="272" height="272">
<circle cx="135.902" cy="145.929" r="135.902" fill="#D9D9D9"/>
</mask>
<g mask="url(#mask0_821_439)">
<g filter="url(#filter1_d_821_439)">
<path d="M168.511 263.615C168.511 263.615 173.064 264.493 179.015 263.441C184.967 262.39 191.267 257.316 191.267 257.316L196.341 257.664V235.604C196.341 235.604 187.591 234.031 184.786 234.205C181.987 234.379 168.504 247.689 168.504 247.689V263.615H168.511Z" fill="url(#paint2_linear_821_439)" stroke="black" stroke-miterlimit="10"/>
<path d="M191.397 265.922H207.641L210.371 233.714H188.667L191.397 265.922Z" fill="#F9FE11" stroke="black" stroke-miterlimit="10"/>
<path d="M189.149 228.31H209.363V230.087H189.149V228.31Z" fill="url(#paint3_linear_821_439)" stroke="black" stroke-miterlimit="10"/>
<path d="M187.955 229.735H211.066V236.035H187.955V229.735Z" fill="#FF0000" stroke="black" stroke-miterlimit="10"/>
<path d="M177.991 258.51C186.045 257.633 186.923 248.883 186.923 248.883C186.923 248.883 193.048 253.088 195.672 253.088C198.297 253.088 199 251.159 199.522 249.821C200.043 248.482 187.792 240.481 187.792 240.481C187.792 240.481 185.516 238.205 183.588 238.205C181.659 238.205 173.431 249.413 171.858 251.333" fill="url(#paint4_linear_821_439)"/>
<path d="M177.991 258.51C186.045 257.633 186.923 248.883 186.923 248.883C186.923 248.883 193.048 253.088 195.672 253.088C198.297 253.088 199 251.159 199.522 249.821C200.043 248.482 187.792 240.481 187.792 240.481C187.792 240.481 185.516 238.205 183.588 238.205C181.659 238.205 173.431 249.413 171.858 251.333" stroke="black" stroke-miterlimit="10"/>
<path d="M76.5074 281.817L77.1427 209.876L80.3567 228.479L79.0862 281.817H76.5074Z" fill="black" stroke="black" stroke-miterlimit="10"/>
<path d="M81.5714 281.815L81.1554 242.687C81.1554 242.687 75.0374 230.224 74.5761 224.386C74.1073 218.548 70.8403 204.315 73.8728 197.774C76.9053 191.24 74.2434 169.112 74.2434 169.112L77.0793 159.024C78.9472 154.124 96.923 142.682 103.691 140.353C110.46 138.016 118.4 137.554 124.465 138.25C130.538 138.953 133.805 142.455 134.501 143.619C135.204 144.784 138.932 155.992 143.371 162.057C147.81 168.122 151.539 172.561 154.806 177.227C158.073 181.893 160.175 191.467 162.277 197.071C164.38 202.674 167.881 227.645 169.515 240.955C170.951 252.677 170.036 276.332 169.802 281.807H81.5714V281.815Z" fill="url(#paint5_linear_821_439)" stroke="black" stroke-miterlimit="10"/>
<path d="M145.659 181.914C143.36 179.623 140.607 177.241 137.779 175.592C130.542 171.387 125.407 167.659 125.407 167.659L126.806 159.492L119.334 162.993C119.334 162.993 117.701 157.858 113.035 148.988C108.369 140.117 108.135 138.249 108.135 138.249" stroke="black" stroke-miterlimit="10"/>
<path d="M151.723 188.841C151.723 188.841 149.81 186.262 146.921 183.215" stroke="black" stroke-miterlimit="10"/>
<path d="M119.178 179.079L130.083 281.739H126.234L116.607 182.286L119.178 179.079Z" fill="black" stroke="black" stroke-miterlimit="10"/>
<path d="M162.102 281.808C162.322 272.28 162.987 232.811 159.713 218.08C155.977 201.276 152.71 182.363 147.106 174.43C141.502 166.497 130.068 156.454 123.995 150.623C117.923 144.785 114.89 137.086 114.89 137.086L123.3 114.437C123.3 114.437 130.771 127.044 133.101 127.974C133.101 127.974 130.764 138.478 132.397 144.551C134.031 150.623 144.769 167.896 148.036 172.093C151.303 176.297 161.339 199.401 163.441 214.813C165.294 228.402 165.513 271.773 165.536 281.808H162.102Z" fill="url(#paint6_linear_821_439)" stroke="black" stroke-miterlimit="10"/>
<path d="M132.411 131.814L120.621 131.557L124.637 122.777L132.411 131.814Z" fill="black" stroke="black" stroke-miterlimit="10"/>
<path d="M162.102 281.815C162.322 272.286 162.987 232.818 159.713 218.086C155.977 201.283 152.71 182.369 147.106 174.436C141.502 166.503 130.068 156.46 123.995 150.63C121.908 148.618 120.176 146.395 118.808 144.33C125.47 148.868 130.771 149.011 133.902 148.429C137.411 156.037 145.314 168.605 148.036 172.107C151.303 176.311 161.339 199.415 163.441 214.827C165.294 228.416 165.513 271.787 165.536 281.822H162.102V281.815Z" fill="#3D88F9" stroke="black" stroke-miterlimit="10"/>
<path d="M132.94 130.124C132.94 130.124 130.641 138.798 130.898 142.617C131.155 146.444 134.467 157.409 138.551 163.278C142.635 169.146 149.26 178.07 154.621 180.361C159.975 182.66 162.017 182.66 162.017 182.66C162.017 182.66 151.559 178.327 149.524 165.577C147.482 152.827 154.115 121.964 154.372 119.923C154.614 117.881 132.94 130.124 132.94 130.124Z" fill="black" stroke="black" stroke-miterlimit="10"/>
<ellipse cx="160.597" cy="111.599" rx="1.13444" ry="7.41028" transform="rotate(40.6403 160.597 111.599)" fill="black"/>
<path d="M162.264 94.7991C162.264 94.7991 162.771 104.895 161.758 106.657C160.752 108.427 157.969 109.682 157.969 112.714C157.969 115.739 160.495 121.298 159.232 123.06C157.969 124.829 153.424 124.829 153.424 124.829C153.424 124.829 146.61 132.649 144.841 134.419C143.071 136.188 140.553 138.964 139.29 138.457C138.027 137.95 128.438 128.111 126.169 124.323C123.9 120.534 122.637 107.164 123.643 101.356C124.649 95.5553 138.783 85.9586 146.61 85.4595C154.43 84.9528 161.501 86.972 161.501 86.972L162.264 94.7991Z" fill="url(#paint7_linear_821_439)" stroke="black" stroke-miterlimit="10"/>
<path d="M153.452 106.162L151.848 110.397L146.729 104.716" stroke="black" stroke-miterlimit="10"/>
<path d="M156.3 104.512C156.3 104.512 157.903 98.5078 149.093 100.103" stroke="black" stroke-miterlimit="10"/>
<path d="M150.703 128.789C150.703 128.789 145.231 128.864 143.062 121.362" stroke="black" stroke-miterlimit="10"/>
<path d="M147.766 108.054C147.524 108.516 147.864 109.174 148.529 109.529C149.195 109.884 149.936 109.809 150.186 109.348C150.428 108.886 150.087 108.228 149.422 107.873C148.756 107.517 148.015 107.601 147.766 108.054Z" fill="black"/>
<path d="M156.746 71.8339C156.746 71.8339 173.149 82.4364 171.886 85.968C170.623 89.4997 162.297 94.8009 162.297 94.8009L161.541 89.2501C161.541 89.2501 152.958 93.538 144.889 96.5705C136.812 99.5955 136.812 99.5955 136.812 99.5955C136.812 99.5955 134.037 102.62 133.023 103.384C132.017 104.14 128.478 104.14 128.478 104.14C128.478 104.14 127.215 131.146 122.421 137.453C117.626 143.76 103.749 149.568 94.4095 153.606C85.0699 157.644 80.956 157.962 78.4377 161.494C75.9118 165.025 74.9363 176.248 74.9363 176.248C74.9363 176.248 59.6754 160.488 81.2887 123.069C96.9656 95.9201 95.1657 92.7893 100.467 83.6993C105.768 74.6169 118.639 61.239 131.254 60.2332C143.868 59.2274 156.746 71.8339 156.746 71.8339Z" fill="black" stroke="black" stroke-miterlimit="10"/>
<path d="M96.5151 135.981C94.8212 136.889 93.0289 137.721 91.1307 138.462" stroke="black" stroke-miterlimit="10"/>
<path d="M135.903 70.2273C135.903 70.2273 123.539 79.6122 121.406 96.6655C119.72 110.149 114.04 123.625 102.046 132.481" stroke="black" stroke-miterlimit="10"/>
<path d="M143.027 83.4841C139.518 84.5958 136.251 85.9268 133.77 87.288" stroke="black" stroke-miterlimit="10"/>
<path d="M165.341 86.8638C165.341 86.8638 169.606 85.1547 164.917 81.7441C162.134 79.7249 154.708 80.3979 147.35 82.2583" stroke="black" stroke-miterlimit="10"/>
<path d="M128.464 101.851C128.464 101.851 130.483 84.9411 135.278 78.3845" stroke="black" stroke-miterlimit="10"/>
<path d="M215.278 214.361L233.36 200.537C234.01 200.037 233.738 199.001 232.921 198.888L223.423 197.602C222.1 197.421 220.761 197.791 219.71 198.616L201.273 213.188L215.278 214.361Z" fill="black" stroke="black" stroke-miterlimit="10"/>
<path d="M178.613 215.303C178.613 215.303 182.818 211.567 184.217 209.465C185.616 207.363 188.649 206.198 191.22 206.667C193.791 207.136 199.622 205.737 200.56 206.901C201.49 208.066 201.49 211.106 201.49 211.106C201.49 211.106 215.964 212.036 217.129 211.809C218.293 211.575 219.231 213.443 218.293 215.076C217.363 216.71 210.58 218.517 210.58 218.517C210.587 219.833 210.285 221.126 209.71 222.306C208.712 224.34 207.056 227.479 205.687 228.847C203.584 230.95 199.153 231.88 194.479 232.818C189.813 233.748 182.342 232.583 182.342 232.583L178.613 215.303Z" fill="url(#paint8_linear_821_439)" stroke="black" stroke-miterlimit="10"/>
<path d="M201.501 211.107L190.536 210.404" stroke="black" stroke-miterlimit="10"/>
<path d="M210.597 218.514C210.597 218.514 205.984 218.257 202.906 218.772C199.828 219.286 197.264 219.8 195.472 219.286" stroke="black" stroke-miterlimit="10"/>
<path d="M209.728 222.307C209.728 222.307 205.213 223.132 203.164 223.903C201.115 224.674 197.78 226.724 194.452 225.695" stroke="black" stroke-miterlimit="10"/>
<path d="M206.505 227.485C206.505 227.485 200.864 230.049 196.508 229.792" stroke="black" stroke-miterlimit="10"/>
<path d="M79.6505 169.55C79.6505 169.55 78.7204 180.523 78.7204 188.456C78.7204 196.389 79.6505 212.497 85.0199 223.47C90.3892 234.443 88.9901 242.141 94.3594 253.114C99.7287 264.087 103.465 264.322 118.869 262.915C134.274 261.516 151.781 255.678 152.718 255.678C153.649 255.678 167.427 253.107 173.961 249.84C180.495 246.573 186.802 242.134 186.802 242.134C186.802 242.134 186.568 239.336 185.403 236.53C184.239 233.732 180.503 213.419 180.503 213.419C180.503 213.419 173.5 217.624 166.966 219.719C160.432 221.821 154.36 222.751 154.36 222.751C154.36 222.751 149.928 219.953 148.521 219.484C147.122 219.015 144.317 222.282 140.354 223.22C136.384 224.15 130.319 225.088 129.381 225.088C128.451 225.088 118.907 223.954 119.58 224.158C120.435 224.415 121.229 222.623 120.979 221.125C120.843 220.294 118.642 215.053 117.947 214.123C117.243 213.192 117.243 209.691 117.243 207.354C117.243 205.017 120.51 180.508 118.877 173.739C117.243 166.971 107.442 152.965 107.442 152.965C107.442 152.965 107.011 150.855 101.839 150.863C96.6659 150.871 88.3019 156.467 84.8005 159.499" fill="url(#paint9_linear_821_439)"/>
<path d="M79.6505 169.55C79.6505 169.55 78.7204 180.523 78.7204 188.456C78.7204 196.389 79.6505 212.497 85.0198 223.47C90.3892 234.443 88.9901 242.141 94.3594 253.114C99.7287 264.087 103.465 264.322 118.869 262.915C134.274 261.516 151.781 255.678 152.718 255.678C153.649 255.678 167.427 253.107 173.961 249.84C180.495 246.573 186.802 242.134 186.802 242.134C186.802 242.134 186.568 239.336 185.403 236.53C184.239 233.732 180.503 213.419 180.503 213.419C180.503 213.419 173.5 217.624 166.966 219.719C160.432 221.821 154.36 222.751 154.36 222.751C154.36 222.751 149.928 219.953 148.521 219.484C147.122 219.015 144.317 222.282 140.354 223.22C136.384 224.15 130.319 225.088 129.381 225.088C128.451 225.088 118.907 223.954 119.58 224.158C120.435 224.415 121.229 222.623 120.979 221.125C120.843 220.294 118.642 215.053 117.947 214.123C117.243 213.192 117.243 209.691 117.243 207.354C117.243 205.017 120.51 180.508 118.877 173.739C117.243 166.971 107.442 152.965 107.442 152.965C107.442 152.965 107.011 150.855 101.839 150.863C96.6659 150.871 88.3019 156.467 84.8005 159.499" stroke="black" stroke-miterlimit="10"/>
<path d="M85.3274 182.811C87.0667 181.102 89.3657 179.204 91.7857 178.236C96.8071 176.231 100.815 177.736 100.815 177.736" stroke="black" stroke-miterlimit="10"/>
<path d="M82.2295 186.27C82.2295 186.27 82.9252 185.34 84.0747 184.092" stroke="black" stroke-miterlimit="10"/>
<path d="M180.857 239.601C180.857 240.35 181.469 240.962 182.218 240.962C182.974 240.962 183.579 240.35 183.579 239.601C183.579 238.853 182.967 238.24 182.218 238.24C181.469 238.24 180.857 238.853 180.857 239.601Z" stroke="black" stroke-miterlimit="10"/>
<path d="M109.85 233.245C108.602 234.515 107.551 235.491 106.969 235.839" stroke="black" stroke-miterlimit="10"/>
<path d="M119.102 223.002C119.102 223.002 114.95 227.842 111.411 231.616" stroke="black" stroke-miterlimit="10"/>
<path d="M134.609 235.868C133.732 237.154 132.892 238.288 132.166 239.105" stroke="black" stroke-miterlimit="10"/>
<path d="M141.967 223.697C141.967 223.697 138.98 229.127 135.97 233.801" stroke="black" stroke-miterlimit="10"/>
<path d="M172.774 237.232C173.734 241.739 174.808 245.808 175.822 247.494" stroke="black" stroke-miterlimit="10"/>
<path d="M169.754 219.988C169.754 219.988 170.7 226.59 172.008 233.426" stroke="black" stroke-miterlimit="10"/>
<path d="M130.943 101.006L156.579 107.678L160.582 110.752" stroke="black"/>
</g>
</g>
<ellipse cx="153.384" cy="111.36" rx="1.20563" ry="9.10447" transform="rotate(40.6403 153.384 111.36)" fill="black"/>
<defs>
<filter id="filter0_d_821_439" x="134.97" y="34.3562" width="128.657" height="218.123" filterUnits="userSpaceOnUse" color-interpolation-filters="sRGB">
<feFlood flood-opacity="0" result="BackgroundImageFix"/>
<feColorMatrix in="SourceAlpha" type="matrix" values="0 0 0 0 0 0 0 0 0 0 0 0 0 0 0 0 0 0 127 0" result="hardAlpha"/>
<feOffset dy="14"/>
<feGaussianBlur stdDeviation="7"/>
<feComposite in2="hardAlpha" operator="out"/>
<feColorMatrix type="matrix" values="0 0 0 0 0 0 0 0 0 0 0 0 0 0 0 0 0 0 0.25 0"/>
<feBlend mode="normal" in2="BackgroundImageFix" result="effect1_dropShadow_821_439"/>
<feBlend mode="normal" in="SourceGraphic" in2="effect1_dropShadow_821_439" result="shape"/>
</filter>
<filter id="filter1_d_821_439" x="69.2058" y="59.676" width="181.017" height="242.646" filterUnits="userSpaceOnUse" color-interpolation-filters="sRGB">
<feFlood flood-opacity="0" result="BackgroundImageFix"/>
<feColorMatrix in="SourceAlpha" type="matrix" values="0 0 0 0 0 0 0 0 0 0 0 0 0 0 0 0 0 0 127 0" result="hardAlpha"/>
<feOffset dx="10" dy="14"/>
<feGaussianBlur stdDeviation="3"/>
<feComposite in2="hardAlpha" operator="out"/>
<feColorMatrix type="matrix" values="0 0 0 0 0 0 0 0 0 0 0 0 0 0 0 0 0 0 0.25 0"/>
<feBlend mode="normal" in2="BackgroundImageFix" result="effect1_dropShadow_821_439"/>
<feBlend mode="normal" in="SourceGraphic" in2="effect1_dropShadow_821_439" result="shape"/>
</filter>
<linearGradient id="paint0_linear_821_439" x1="175.577" y1="-1.14356e-10" x2="175.577" y2="272.001" gradientUnits="userSpaceOnUse">
<stop stop-color="#39383D"/>
<stop offset="1" stop-color="#9896A3"/>
</linearGradient>
<linearGradient id="paint1_linear_821_439" x1="144.894" y1="50.7556" x2="206.737" y2="289.866" gradientUnits="userSpaceOnUse">
<stop stop-color="#49C8E4"/>
<stop offset="1" stop-color="#286F7E" stop-opacity="0"/>
</linearGradient>
<linearGradient id="paint2_linear_821_439" x1="182.422" y1="234.192" x2="182.422" y2="263.958" gradientUnits="userSpaceOnUse">
<stop stop-color="#EDA24B"/>
<stop offset="1" stop-color="#EB7373"/>
</linearGradient>
<linearGradient id="paint3_linear_821_439" x1="199.256" y1="228.31" x2="199.256" y2="230.087" gradientUnits="userSpaceOnUse">
<stop stop-color="#EDA24B"/>
<stop offset="1" stop-color="#EB7373"/>
</linearGradient>
<linearGradient id="paint4_linear_821_439" x1="185.698" y1="238.205" x2="185.698" y2="258.51" gradientUnits="userSpaceOnUse">
<stop stop-color="#EDA24B"/>
<stop offset="1" stop-color="#EB7373"/>
</linearGradient>
<linearGradient id="paint5_linear_821_439" x1="121.451" y1="137.954" x2="121.451" y2="281.815" gradientUnits="userSpaceOnUse">
<stop stop-color="#388DEF"/>
<stop offset="1" stop-color="#053A77"/>
</linearGradient>
<linearGradient id="paint6_linear_821_439" x1="140.213" y1="114.437" x2="140.213" y2="281.808" gradientUnits="userSpaceOnUse">
<stop stop-color="#EDA24B"/>
<stop offset="1" stop-color="#EB7373"/>
</linearGradient>
<linearGradient id="paint7_linear_821_439" x1="142.842" y1="85.3779" x2="142.842" y2="138.518" gradientUnits="userSpaceOnUse">
<stop stop-color="#EDA24B"/>
<stop offset="1" stop-color="#EB7373"/>
</linearGradient>
<linearGradient id="paint8_linear_821_439" x1="198.645" y1="206.425" x2="198.645" y2="233.178" gradientUnits="userSpaceOnUse">
<stop stop-color="#EDA24B"/>
<stop offset="1" stop-color="#EB7373"/>
</linearGradient>
<linearGradient id="paint9_linear_821_439" x1="132.761" y1="150.863" x2="132.761" y2="263.52" gradientUnits="userSpaceOnUse">
<stop stop-color="#388DEF"/>
<stop offset="1" stop-color="#053A77"/>
</linearGradient>
</defs>
</svg>
